<?xml version="1.0" encoding="utf-8"?>
<!-- Generator: Adobe Illustrator 21.0.2, SVG Export Plug-In . SVG Version: 6.00 Build 0)  -->
<svg version="1.1" id="Layer_1" xmlns="http://www.w3.org/2000/svg" xmlns:xlink="http://www.w3.org/1999/xlink" x="0px" y="0px"
	 viewBox="0 0 104.7 76" style="enable-background:new 0 0 104.7 76;" xml:space="preserve">
<style type="text/css">
	.st0{fill:#231F20;}
	.st1{fill:#B31D55;}
	.st2{fill-rule:evenodd;clip-rule:evenodd;fill:#231F20;}
	.st3{fill-rule:evenodd;clip-rule:evenodd;fill:#B31D55;}
</style>
<path class="st0" d="M6.5,72.9l1,2.9h2.2L6.1,65.5H3.5L0,75.8h2.1L3,72.9H6.5L6.5,72.9z M3.3,71.5l0.8-2.5c0.2-0.6,0.4-1.3,0.5-1.9
	h0c0.2,0.6,0.3,1.3,0.6,1.9l0.9,2.5H3.3L3.3,71.5z M13,75.8v-3.7c0-1.7,0-3-0.1-4.4l0,0c0.5,1.2,1.3,2.4,2,3.5l2.9,4.5h2.1V65.5H18
	v3.6c0,1.6,0,2.9,0.2,4.3h0c-0.5-1.1-1.1-2.3-1.9-3.4l-2.8-4.4h-2.3v10.3H13L13,75.8z M27.9,72.9l1,2.9H31l-3.6-10.3h-2.6l-3.5,10.3
	h2.1l0.9-2.9H27.9L27.9,72.9z M24.7,71.5l0.8-2.5c0.2-0.6,0.4-1.3,0.5-1.9h0c0.2,0.6,0.3,1.3,0.6,1.9l0.9,2.5H24.7L24.7,71.5z
	 M32.1,75.3c0.6,0.3,1.8,0.7,3,0.7c2.8,0,4.2-1.5,4.2-3.1c0-1.5-0.9-2.4-2.8-3c-1.5-0.5-2.1-0.9-2.1-1.7c0-0.6,0.6-1.2,1.8-1.2
	c1,0,1.8,0.3,2.2,0.5l0.5-1.5c-0.6-0.3-1.4-0.5-2.6-0.5c-2.4,0-3.9,1.3-3.9,3c0,1.5,1.2,2.4,3,3c1.4,0.5,2,0.9,2,1.7
	c0,0.8-0.7,1.4-2,1.4c-1,0-2-0.3-2.7-0.7L32.1,75.3L32.1,75.3z"/>
<path class="st1" d="M50.3,75.8h2l-0.6-10.3H49l-1.5,4.1c-0.4,1.2-0.8,2.5-1.1,3.6h0c-0.3-1.1-0.6-2.4-1-3.6l-1.4-4.1h-2.6
	l-0.7,10.3h1.9l0.2-4.1c0.1-1.4,0.1-3,0.2-4.4h0c0.3,1.3,0.7,2.7,1.1,4l1.5,4.4H47l1.6-4.5c0.5-1.3,0.9-2.7,1.3-3.9h0
	c0,1.4,0.1,3,0.1,4.3L50.3,75.8L50.3,75.8z M60.4,69.7h-4.1v-2.7h4.4v-1.5h-6.4v10.3h6.6v-1.5h-4.6v-3h4.1V69.7L60.4,69.7z
	 M62.7,75.8c0.7,0.1,1.5,0.1,2.7,0.1c2.1,0,3.9-0.5,5-1.4c1-0.9,1.7-2.3,1.7-4.1c0-1.8-0.7-3-1.7-3.8c-1-0.8-2.4-1.2-4.5-1.2
	c-1.2,0-2.3,0.1-3.2,0.2V75.8L62.7,75.8z M64.7,67c0.3-0.1,0.7-0.1,1.4-0.1c2.5,0,3.9,1.3,3.9,3.6c0,2.6-1.5,3.9-4.2,3.9
	c-0.4,0-0.8,0-1.1,0V67L64.7,67z M73.8,65.5v10.3h2V65.5H73.8L73.8,65.5z M85.6,74c-0.5,0.2-1.4,0.4-2.2,0.4c-2.4,0-3.8-1.4-3.8-3.7
	c0-2.5,1.6-3.8,3.8-3.8c0.9,0,1.6,0.2,2.2,0.4l0.4-1.5c-0.4-0.2-1.4-0.5-2.7-0.5c-3.4,0-5.9,2-5.9,5.4c0,3.1,2.1,5.2,5.6,5.2
	c1.3,0,2.4-0.2,2.8-0.5L85.6,74L85.6,74z M93.5,72.9l1,2.9h2.2L93,65.5h-2.6L87,75.8H89l0.9-2.9H93.5L93.5,72.9z M90.3,71.5l0.8-2.5
	c0.2-0.6,0.4-1.3,0.5-1.9h0c0.2,0.6,0.3,1.3,0.6,1.9l0.9,2.5H90.3L90.3,71.5z M98.1,75.8h6.5v-1.6h-4.5v-8.7h-2V75.8L98.1,75.8z"/>
<path class="st2" d="M26.5,0H46c14.2,0,14.4-1.3,20.7,10.7L84,43.4c4.2,8,5.9,10,10.3,10.7v0.2H74.6c-14.2,0-14.4,1.3-20.7-10.7
	L37,11.6c-4-7.6-5.4-10.3-10.6-11.4V0L26.5,0z"/>
<path class="st3" d="M28.6,24.4c8.3,0,15,6.7,15,15c0,8.3-6.7,15-15,15c-8.3,0-15-6.7-15-15C13.7,31.1,20.4,24.4,28.6,24.4
	L28.6,24.4z"/>
</svg>
