<?xml version="1.0" encoding="UTF-8" standalone="no"?><svg xmlns:xlink="http://www.w3.org/1999/xlink" xmlns="http://www.w3.org/2000/svg" viewBox="0 0 60 60" height="60" width="60" xml:space="preserve" version="1.1" id="svg2"><g transform="matrix(1.25,0,0,-1.25,0,60)" id="g10"><g transform="scale(0.1,0.1)" id="g12"><path id="path14" d="m 360,162.012 c 0,-4.422 -3.59,-8.012 -8.012,-8.012 -4.41,0 -8.008,3.59 -8.008,8.012 0,4.41 3.598,8.008 8.008,8.008 4.422,0 8.012,-3.598 8.012,-8.008 z"/><path id="path16" d="m 376.02,25.9883 c 0,-4.4102 -3.598,-8.0078 -8.008,-8.0078 -4.422,0 -8.012,3.5976 -8.012,8.0078 0,4.4219 3.59,8.0117 8.012,8.0117 4.41,0 8.008,-3.5898 8.008,-8.0117 z"/><path id="path18" d="m 176.02,90.0195 c 0,-4.4609 -3.598,-8.0078 -8.008,-8.0078 -4.422,0 -8.012,3.5469 -8.012,8.0078 0,4.4102 3.59,7.961 8.012,7.961 4.41,0 8.008,-3.5508 8.008,-7.961 z"/><path id="path20" d="m 303.98,137.98 c 0,-4.41 -3.55,-7.96 -7.96,-7.96 -4.461,0 -8.008,3.55 -8.008,7.96 0,4.461 3.547,8.008 8.008,8.008 4.41,0 7.96,-3.547 7.96,-8.008 z"/><path id="path22" d="m 423.98,97.9805 c 0,-4.4102 -3.55,-7.961 -7.96,-7.961 -4.461,0 -8.008,3.5508 -8.008,7.961 0,4.4605 3.547,8.0075 8.008,8.0075 4.41,0 7.96,-3.547 7.96,-8.0075 z"/><path id="path24" d="m 128.012,25.9883 c 0,-4.4102 -3.602,-8.0078 -8.012,-8.0078 -4.41,0 -8.012,3.5976 -8.012,8.0078 0,4.4219 3.602,8.0117 8.012,8.0117 4.41,0 8.012,-3.5898 8.012,-8.0117 z"/><path id="path26" d="m 136.559,378.801 c -31.207,31.219 -81.9496,31.179 -113.1176,0 C 8.32031,363.691 0,343.609 0,322.238 0,300.879 8.32031,280.762 23.4414,265.68 L 147.891,141.23 261.02,254.352 136.559,378.801 Z M 34.7305,276.969 c -12.0703,12.109 -18.711,28.16 -18.711,45.269 0,17.114 6.6407,33.172 18.711,45.242 12.5,12.5 28.8593,18.75 45.2695,18.75 16.4102,0 32.77,-6.25 45.27,-18.75 L 238.398,254.352 147.891,163.84 34.7305,276.969 Z"/><path id="path28" d="M 456.559,450.559 C 441.449,465.68 421.371,474 400,474 c -21.371,0 -41.449,-8.32 -56.559,-23.441 L 218.98,326.109 332.109,212.98 456.559,337.441 C 471.68,352.551 480,372.629 480,394 c 0,21.371 -8.32,41.449 -23.441,56.559 z M 445.27,348.73 332.109,235.602 241.602,326.109 354.73,439.27 c 12.11,12.07 28.161,18.71 45.27,18.71 17.109,0 33.16,-6.64 45.27,-18.71 12.07,-12.11 18.71,-28.161 18.71,-45.27 0,-17.109 -6.64,-33.16 -18.71,-45.27 z"/><path id="path30" d="m 320,194 c 0,17.66 -14.34,31.988 -31.988,31.988 -17.66,0 -31.992,-14.328 -31.992,-31.988 0,-17.66 14.332,-31.988 31.992,-31.988 C 305.66,162.012 320,176.34 320,194 Z m -48.012,0 c 0,8.828 7.192,16.02 16.024,16.02 8.828,0 15.968,-7.192 15.968,-16.02 0,-8.828 -7.14,-16.02 -15.968,-16.02 -8.832,0 -16.024,7.192 -16.024,16.02 z"/><path id="path32" d="M 231.988,162.012 C 214.34,162.012 200,147.629 200,130.02 c 0,-17.661 14.34,-32.0395 31.988,-32.0395 17.66,0 31.992,14.3785 31.992,32.0395 0,17.609 -14.332,31.992 -31.992,31.992 z m 0,-48.012 c -8.828,0 -15.968,7.191 -15.968,16.02 0,8.781 7.14,15.968 15.968,15.968 8.832,0 16.024,-7.187 16.024,-15.968 0,-8.829 -7.192,-16.02 -16.024,-16.02 z"/><path id="path34" d="M 311.988,114 C 294.34,114 280,99.6602 280,82.0117 c 0,-17.6601 14.34,-31.9922 31.988,-31.9922 17.66,0 31.992,14.3321 31.992,31.9922 C 343.98,99.6602 329.648,114 311.988,114 Z m 0,-48.0117 c -8.828,0 -15.968,7.1914 -15.968,16.0234 0,8.8281 7.14,15.9688 15.968,15.9688 8.832,0 16.024,-7.1407 16.024,-15.9688 0,-8.832 -7.192,-16.0234 -16.024,-16.0234 z"/><path id="path36" d="M 231.988,74 C 214.34,74 200,59.6602 200,42.0117 c 0,-17.6601 14.34,-31.9922 31.988,-31.9922 17.66,0 31.992,14.3321 31.992,31.9922 C 263.98,59.6602 249.648,74 231.988,74 Z m 0,-48.0117 c -8.828,0 -15.968,7.1914 -15.968,16.0234 0,8.8281 7.14,15.9688 15.968,15.9688 8.832,0 16.024,-7.1407 16.024,-15.9688 0,-8.832 -7.192,-16.0234 -16.024,-16.0234 z"/></g></g></svg>
