<?xml version="1.0" encoding="UTF-8" standalone="no"?>
<svg
   xmlns:dc="http://purl.org/dc/elements/1.1/"
   xmlns:cc="http://creativecommons.org/ns#"
   xmlns:rdf="http://www.w3.org/1999/02/22-rdf-syntax-ns#"
   xmlns:svg="http://www.w3.org/2000/svg"
   xmlns="http://www.w3.org/2000/svg"
   viewBox="0 0 60 60"
   height="60"
   width="60"
   xml:space="preserve"
   version="1.1"
   id="svg2"><metadata
     id="metadata8"><rdf:RDF><cc:Work
         rdf:about=""><dc:format>image/svg+xml</dc:format><dc:type
           rdf:resource="http://purl.org/dc/dcmitype/StillImage" /><dc:title></dc:title></cc:Work></rdf:RDF></metadata><defs
     id="defs6" /><g
     transform="matrix(1.25,0,0,-1.25,0,60)"
     id="g10"><g
       transform="scale(0.1,0.1)"
       id="g12"><path
         id="path14"
         style="fill:#000000;fill-opacity:1;fill-rule:nonzero;stroke:none"
         d="M 440.078,107.809 C 466.129,147.109 480,192.66 480,240 480,372.34 372.34,480 240,480 107.66,480 0,372.34 0,240 0,107.66 107.66,0 240,0 c 47.34,0 92.891,13.8711 132.191,39.9219 l 25,-25 C 403.75,6.98828 414.691,1.67969 427.23,0.351563 429.262,0.121094 431.289,0 433.281,0 c 11.489,0 22.231,3.51953 30.16,10 9.918,8.0898 15.739,20.3516 16.36,34.5313 0.629,14.3398 -4.211,28.0078 -12.922,36.4882 L 440.078,107.809 Z M 396.91,302.148 c -3.898,3.082 -7.89,6.012 -11.988,8.672 -0.582,0.391 -1.211,0.7 -1.801,1.059 -3.941,2.5 -7.961,4.84 -12.101,6.949 -0.942,0.473 -1.918,0.863 -2.86,1.332 -3.82,1.828 -7.648,3.59 -11.558,5.11 -1.403,0.55 -2.891,0.98 -4.332,1.492 -3.442,1.25 -6.918,2.418 -10.43,3.398 -1.918,0.5 -3.91,0.93 -5.86,1.399 -3.011,0.742 -6.058,1.41 -9.14,1.961 -2.391,0.39 -4.809,0.699 -7.231,1.011 -2.66,0.348 -5.269,0.668 -7.929,0.821 -2.77,0.238 -5.551,0.347 -8.321,0.429 -2.308,0.039 -4.609,0.039 -6.91,-0.043 -1.719,-0.039 -3.48,0.121 -5.199,0 -1.371,-0.078 -2.66,-0.308 -3.98,-0.429 -2,-0.149 -3.989,-0.387 -5.981,-0.618 -3.359,-0.429 -6.68,-0.863 -9.961,-1.453 -1.367,-0.269 -2.738,-0.578 -4.098,-0.898 -3.871,-0.82 -7.699,-1.68 -11.492,-2.77 -0.347,-0.121 -0.66,-0.23 -0.968,-0.351 -22.579,-6.758 -43.129,-18.629 -60.629,-34.918 -1.481,-1.332 -3.012,-2.582 -4.45,-3.992 -0.121,-0.11 -0.203,-0.27 -0.312,-0.387 -1.719,-1.684 -3.289,-3.594 -4.891,-5.391 -2.027,-2.23 -4.136,-4.453 -6.008,-6.801 -0.281,-0.308 -0.55,-0.582 -0.82,-0.89 -5.98,-7.461 -11.058,-15.469 -15.43,-23.75 -0.429,-0.75 -0.781,-1.57 -1.179,-2.352 -1.75,-3.437 -3.352,-6.867 -4.84,-10.429 -0.59,-1.438 -1.133,-2.887 -1.68,-4.329 -1.09,-2.859 -2.109,-5.75 -3.051,-8.679 -0.582,-1.871 -1.128,-3.711 -1.64,-5.582 -0.699,-2.5 -1.289,-5.039 -1.828,-7.578 -0.512,-2.153 -0.981,-4.34 -1.371,-6.481 -0.391,-2.23 -0.661,-4.461 -0.981,-6.64 -0.308,-2.469 -0.699,-4.891 -0.93,-7.348 -0.082,-1.133 -0.082,-2.301 -0.16,-3.442 -0.351,-5.66 -0.39,-11.359 -0.16,-17.07 0.078,-2.031 0.121,-4.101 0.281,-6.172 0.188,-2.297 0.539,-4.609 0.821,-6.949 0.308,-2.379 0.617,-4.809 1.047,-7.187 0.351,-2.032 0.781,-4.063 1.211,-6.051 0.589,-2.821 1.25,-5.59 2.031,-8.36 0.429,-1.64 0.898,-3.281 1.41,-4.89 1.019,-3.391 2.23,-6.711 3.48,-10.031 0.387,-1.02 0.739,-2.04 1.168,-3.051 5.192,-12.739 12.11,-24.9182 20.86,-36.0901 0.472,-0.5898 0.98,-1.0976 1.441,-1.6797 1.102,-1.3711 2.27,-2.6992 3.442,-4.0273 2.109,-2.4219 4.218,-4.8438 6.41,-7.1133 0.578,-0.6172 1.09,-1.25 1.679,-1.8672 0.86,-0.8203 1.789,-1.5703 2.649,-2.3906 2.23,-2.1016 4.461,-4.1406 6.762,-6.0899 1.488,-1.25 2.929,-2.4609 4.449,-3.6718 2.738,-2.1485 5.551,-4.2188 8.437,-6.168 0.742,-0.5117 1.453,-1.1406 2.192,-1.6406 C 120.469,62.3789 48.0117,142.891 48.0117,240 c 0,105.859 86.1293,191.988 191.9883,191.988 97.109,0 177.621,-72.457 190.27,-166.168 -0.579,0.86 -1.25,1.641 -1.829,2.5 -1.679,2.461 -3.48,4.879 -5.351,7.27 -1.059,1.398 -2.11,2.769 -3.211,4.14 -2.93,3.508 -5.969,6.911 -9.219,10.192 -0.109,0.117 -0.23,0.277 -0.351,0.387 -3.938,3.91 -8.008,7.582 -12.219,10.98 -0.391,0.313 -0.789,0.551 -1.18,0.859 z M 16.0195,240 c 0,123.52 100.4605,223.98 223.9805,223.98 123.52,0 223.98,-100.46 223.98,-223.98 0,-20.551 -2.769,-40.738 -8.16,-60.16 l 0,0.082 c 0,4.648 -0.23,9.258 -0.66,13.867 -0.121,1.371 -0.32,2.731 -0.469,4.141 -0.39,3.242 -0.863,6.48 -1.41,9.691 -0.312,1.598 -0.621,3.16 -0.941,4.719 -0.66,3.172 -1.442,6.289 -2.301,9.422 -0.391,1.398 -0.738,2.808 -1.168,4.218 -0.391,1.211 -0.781,2.418 -1.172,3.668 0.153,3.442 0.313,6.872 0.313,10.352 0,114.691 -93.321,208.012 -208.012,208.012 C 125.309,448.012 31.9883,354.691 31.9883,240 31.9883,125.309 125.309,31.9883 240,31.9883 c 3.32,0 6.559,0.1601 9.84,0.3125 16.019,-5.461 32.82,-8.2422 49.769,-8.2813 -19.257,-5.2695 -39.257,-8 -59.609,-8 C 116.48,16.0195 16.0195,116.48 16.0195,240 Z M 453.32,22.3789 c -5.941,-4.8008 -15.039,-7.1094 -24.41,-6.1289 -8.398,0.8984 -15.711,4.3008 -19.531,9.0586 l -23.758,23.75 0.039,0 -11.91,11.9219 -5.27,-2.9688 c -3.558,-1.9922 -7.152,-3.7929 -10.781,-5.4336 -2.347,-1.0586 -4.687,-1.957 -7.039,-2.8476 -1.211,-0.5117 -2.422,-1.0196 -3.672,-1.4922 -3.277,-1.168 -6.597,-2.1875 -9.918,-3.1172 -0.191,-0.043 -0.429,-0.1211 -0.621,-0.1602 -27.969,-7.5 -57.469,-6.0117 -84.34,3.711 -3.75,1.3281 -7.379,2.8476 -10.937,4.4492 -0.82,0.3984 -1.602,0.707 -2.422,1.0977 -4.102,1.9531 -8.051,4.1796 -11.91,6.5195 -1.25,0.7812 -2.43,1.6015 -3.641,2.3828 -2.808,1.8398 -5.539,3.7578 -8.238,5.8281 -0.582,0.4297 -1.172,0.8906 -1.762,1.3594 -0.859,0.6719 -1.75,1.4102 -2.578,2.1133 -2.5,2.0664 -4.922,4.2578 -7.301,6.4883 -1.25,1.2109 -2.539,2.4179 -3.789,3.7109 -1.992,2.0703 -3.871,4.1797 -5.703,6.3281 -1.058,1.25 -2.148,2.4219 -3.168,3.711 -8.469,10.5778 -15.23,22.1098 -20.191,34.2188 -0.199,0.5 -0.391,1.051 -0.59,1.562 -1.328,3.399 -2.539,6.829 -3.59,10.309 -0.348,1.09 -0.629,2.191 -0.937,3.32 -0.821,2.891 -1.524,5.86 -2.153,8.789 -0.308,1.411 -0.578,2.813 -0.859,4.262 -0.461,2.688 -0.82,5.391 -1.168,8.117 -0.152,1.563 -0.391,3.133 -0.551,4.692 -0.23,2.808 -0.312,5.66 -0.391,8.48 -0.031,1.36 -0.152,2.731 -0.152,4.141 0.043,4.019 0.231,8.078 0.582,12.109 0.121,1.481 0.391,2.93 0.551,4.41 0.348,2.731 0.699,5.469 1.168,8.2 0.281,1.492 0.633,3.011 0.98,4.5 0.59,2.769 1.25,5.5 1.993,8.199 0.347,1.332 0.777,2.621 1.168,3.941 0.941,3.012 2,5.981 3.128,8.949 0.391,0.981 0.743,1.95 1.133,2.93 1.489,3.512 3.09,6.992 4.84,10.43 0.199,0.39 0.399,0.781 0.59,1.172 4.098,7.808 9.019,15.269 14.73,22.339 1.719,2.11 3.547,4.071 5.387,6.059 1.442,1.641 2.813,3.281 4.332,4.84 2,1.992 4.11,3.793 6.219,5.672 7.34,6.597 15.269,12.34 23.711,17.179 1.289,0.75 2.531,1.571 3.859,2.27 2.461,1.328 5,2.422 7.539,3.59 1.762,0.781 3.524,1.68 5.352,2.43 2.269,0.89 4.57,1.64 6.879,2.46 2.23,0.739 4.453,1.559 6.722,2.18 2.028,0.629 4.137,1.102 6.25,1.57 2.61,0.622 5.231,1.25 7.887,1.719 1.953,0.352 3.902,0.621 5.863,0.852 2.809,0.398 5.7,0.75 8.59,0.937 1.949,0.16 3.91,0.242 5.899,0.282 2.968,0.109 5.98,0.109 8.949,0.031 1.672,-0.071 3.32,-0.153 4.961,-0.231 3.469,-0.269 6.988,-0.621 10.43,-1.09 1.05,-0.16 2.109,-0.32 3.16,-0.468 4.101,-0.711 8.16,-1.563 12.191,-2.582 0.469,-0.121 0.899,-0.231 1.328,-0.352 4.531,-1.207 8.981,-2.656 13.352,-4.297 0.078,-0.043 0.121,-0.043 0.16,-0.043 9.019,-3.437 17.617,-7.808 25.777,-13.008 0.121,-0.07 0.242,-0.152 0.352,-0.23 3.789,-2.461 7.43,-5.121 10.98,-7.93 0.309,-0.269 0.66,-0.511 1.02,-0.781 3.789,-3.051 7.422,-6.328 10.89,-9.809 0.122,-0.07 0.161,-0.191 0.282,-0.269 3.199,-3.242 6.168,-6.641 9.019,-10.121 1.02,-1.211 1.918,-2.461 2.848,-3.668 1.992,-2.621 3.871,-5.274 5.672,-7.973 0.82,-1.289 1.679,-2.539 2.5,-3.859 2.301,-3.828 4.488,-7.738 6.48,-11.84 0.391,-0.82 0.739,-1.68 1.129,-2.539 1.61,-3.512 3.051,-7.109 4.418,-10.781 5.902,-16.41 8.871,-33.75 8.473,-51.129 -0.352,-14.922 -3.039,-29.891 -8.199,-44.262 -2.582,-7.187 -5.782,-14.219 -9.614,-21.019 l -2.968,-5.309 11.921,-11.8712 24.719,-24.7304 c 5.36,-5.2305 8.559,-14.8399 8.168,-24.4102 -0.277,-5.5078 -1.949,-15.8203 -10.508,-22.8203 z" /><path
         id="path16"
         style="fill:#000000;fill-opacity:1;fill-rule:nonzero;stroke:none"
         d="m 416.02,56.0195 c 0,-4.4609 -3.598,-8.0078 -8.008,-8.0078 -4.422,0 -8.012,3.5469 -8.012,8.0078 0,4.4102 3.59,7.961 8.012,7.961 4.41,0 8.008,-3.5508 8.008,-7.961 z" /><path
         id="path18"
         style="fill:#000000;fill-opacity:1;fill-rule:nonzero;stroke:none"
         d="m 448.012,56.0195 c 0,-4.4609 -3.602,-8.0078 -8.012,-8.0078 -4.41,0 -8.012,3.5469 -8.012,8.0078 0,4.4102 3.602,7.961 8.012,7.961 4.41,0 8.012,-3.5508 8.012,-7.961 z" /><path
         id="path20"
         style="fill:#000000;fill-opacity:1;fill-rule:nonzero;stroke:none"
         d="m 431.988,71.9883 c 0,-4.4102 -3.547,-8.0078 -8.008,-8.0078 -4.41,0 -7.96,3.5976 -7.96,8.0078 0,4.4219 3.55,8.0117 7.96,8.0117 4.461,0 8.008,-3.5898 8.008,-8.0117 z" /><path
         id="path22"
         style="fill:#000000;fill-opacity:1;fill-rule:nonzero;stroke:none"
         d="m 431.988,40 c 0,-4.4102 -3.547,-8.0117 -8.008,-8.0117 -4.41,0 -7.96,3.6015 -7.96,8.0117 0,4.4102 3.55,8.0117 7.96,8.0117 4.461,0 8.008,-3.6015 8.008,-8.0117 z" /><path
         id="path24"
         style="fill:#000000;fill-opacity:1;fill-rule:nonzero;stroke:none"
         d="m 143.98,360 c -4.41,0 -7.96,-3.59 -7.96,-8.012 l 0,-31.988 c 0,-4.41 3.55,-8.012 7.96,-8.012 4.461,0 8.008,3.602 8.008,8.012 l 0,31.988 c 0,4.422 -3.547,8.012 -8.008,8.012 z" /><path
         id="path26"
         style="fill:#000000;fill-opacity:1;fill-rule:nonzero;stroke:none"
         d="m 109.648,269.648 c -3.128,3.122 -8.168,3.122 -11.2886,0 l -20,-20 c -3.1289,-3.128 -3.1289,-8.168 0,-11.289 1.5625,-1.558 3.5898,-2.339 5.6211,-2.339 2.0703,0 4.1093,0.781 5.6679,2.339 l 19.9996,20 c 3.122,3.121 3.122,8.161 0,11.289 z" /><path
         id="path28"
         style="fill:#000000;fill-opacity:1;fill-rule:nonzero;stroke:none"
         d="m 245.66,389.648 c -3.121,3.122 -8.199,3.122 -11.32,0 -3.129,-3.128 -3.129,-8.168 0,-11.289 l 16.012,-16.019 c 1.558,-1.559 3.597,-2.34 5.668,-2.34 2.031,0 4.058,0.781 5.621,2.34 3.129,3.129 3.129,8.211 0,11.332 l -15.981,15.976 z" /><path
         id="path30"
         style="fill:#000000;fill-opacity:1;fill-rule:nonzero;stroke:none"
         d="M 113.359,188.441 97.3398,164.449 c -2.4609,-3.711 -1.4414,-8.668 2.2305,-11.09 1.3707,-0.937 2.8907,-1.371 4.4097,-1.371 2.579,0 5.122,1.25 6.68,3.563 l 15.981,24.019 c 2.461,3.668 1.48,8.629 -2.192,11.09 -3.711,2.461 -8.668,1.449 -11.09,-2.219 z" /><path
         id="path32"
         style="fill:#000000;fill-opacity:1;fill-rule:nonzero;stroke:none"
         d="m 263.98,231.988 c 17.661,0 32.04,14.383 32.04,31.992 0,17.661 -14.379,32.04 -32.04,32.04 -17.609,0 -31.992,-14.379 -31.992,-32.04 0,-17.609 14.383,-31.992 31.992,-31.992 z m 0,48.012 c 8.829,0 16.02,-7.191 16.02,-16.02 0,-8.781 -7.191,-15.968 -16.02,-15.968 -8.781,0 -15.968,7.187 -15.968,15.968 0,8.829 7.187,16.02 15.968,16.02 z" /><path
         id="path34"
         style="fill:#000000;fill-opacity:1;fill-rule:nonzero;stroke:none"
         d="m 390.621,134.609 c -12.07,12.11 -33.16,12.11 -45.23,0 -6.051,-6.019 -9.371,-14.058 -9.371,-22.621 0,-8.547 3.32,-16.5583 9.371,-22.6091 C 351.41,83.3203 359.449,80 368.012,80 c 8.547,0 16.558,3.3203 22.609,9.3789 6.059,6.0508 9.379,14.0621 9.379,22.6091 0,8.563 -3.32,16.602 -9.379,22.621 z m -11.32,-33.91 c -6.02,-6.0506 -16.571,-6.0506 -22.621,0 -3.008,3.012 -4.692,7.031 -4.692,11.289 0,4.301 1.684,8.282 4.692,11.332 3.05,3.008 7.031,4.692 11.332,4.692 4.258,0 8.277,-1.684 11.289,-4.692 3.039,-3.05 4.679,-7.031 4.679,-11.332 0,-4.258 -1.64,-8.277 -4.679,-11.289 z" /><path
         id="path36"
         style="fill:#000000;fill-opacity:1;fill-rule:nonzero;stroke:none"
         d="m 344.609,196.949 c 0.821,-1.949 2.379,-3.508 4.34,-4.328 0.973,-0.391 2.031,-0.633 3.039,-0.633 l 40,0 c 4.422,0 8.012,3.602 8.012,8.012 0,4.41 -3.59,8.012 -8.012,8.012 l -20.66,0 10.313,10.347 c 3.129,3.121 3.129,8.161 0,11.289 -3.121,3.122 -8.161,3.122 -11.289,0 L 346.371,205.66 c -0.75,-0.738 -1.332,-1.64 -1.762,-2.609 -0.82,-1.961 -0.82,-4.141 0,-6.102 z" /><path
         id="path38"
         style="fill:#000000;fill-opacity:1;fill-rule:nonzero;stroke:none"
         d="m 240,143.98 -23.98,0 c -4.461,0 -8.008,-3.55 -8.008,-7.96 0,-4.461 3.547,-8.008 8.008,-8.008 l 15.968,0 0,-24.032 c 0,-4.4097 3.602,-7.9605 8.012,-7.9605 4.41,0 8.012,3.5508 8.012,7.9605 l 0,32.04 c 0,4.41 -3.602,7.96 -8.012,7.96 z" /><path
         id="path40"
         style="fill:#000000;fill-opacity:1;fill-rule:nonzero;stroke:none"
         d="m 271.988,168.012 c 2.071,0 4.102,0.777 5.672,2.34 l 16.012,15.976 c 3.129,3.121 3.129,8.203 0,11.332 -3.121,3.121 -8.203,3.121 -11.332,0 l -16.012,-16.019 c -3.129,-3.121 -3.129,-8.161 0,-11.289 1.563,-1.563 3.633,-2.34 5.66,-2.34 z" /><path
         id="path42"
         style="fill:#000000;fill-opacity:1;fill-rule:nonzero;stroke:none"
         d="m 303.98,151.988 c 4.461,0 8.008,3.602 8.008,8.012 l 0,23.98 c 0,4.461 -3.547,8.008 -8.008,8.008 -4.41,0 -7.96,-3.547 -7.96,-8.008 l 0,-23.98 c 0,-4.41 3.55,-8.012 7.96,-8.012 z" /><path
         id="path44"
         style="fill:#000000;fill-opacity:1;fill-rule:nonzero;stroke:none"
         d="M 293.672,141.641 277.66,157.66 c -3.129,3.121 -8.211,3.121 -11.332,0 -3.129,-3.129 -3.129,-8.211 0,-11.332 l 16.012,-15.976 c 1.57,-1.563 3.601,-2.34 5.672,-2.34 2.027,0 4.097,0.777 5.66,2.34 3.129,3.128 3.129,8.168 0,11.289 z" /><path
         id="path46"
         style="fill:#000000;fill-opacity:1;fill-rule:nonzero;stroke:none"
         d="m 314.34,149.648 -15.981,-15.976 c -3.129,-3.121 -3.129,-8.203 0,-11.332 1.563,-1.559 3.59,-2.34 5.621,-2.34 2.071,0 4.11,0.781 5.668,2.34 l 16.012,16.019 c 3.129,3.121 3.129,8.161 0,11.289 -3.121,3.122 -8.199,3.122 -11.32,0 z" /><path
         id="path48"
         style="fill:#000000;fill-opacity:1;fill-rule:nonzero;stroke:none"
         d="m 336.02,191.988 c 0,4.422 -3.598,8.012 -8.008,8.012 -4.422,0 -8.012,-3.59 -8.012,-8.012 l 0,-23.976 c 0,-4.422 3.59,-8.012 8.012,-8.012 4.41,0 8.008,3.59 8.008,8.012 l 0,23.976 z" /><path
         id="path50"
         style="fill:#000000;fill-opacity:1;fill-rule:nonzero;stroke:none"
         d="m 288.012,208.012 c 0,-4.422 3.547,-8.012 8.008,-8.012 l 15.968,0 c 4.422,0 8.012,3.59 8.012,8.012 0,4.41 -3.59,8.008 -8.012,8.008 l -15.968,0 c -4.461,0 -8.008,-3.598 -8.008,-8.008 z" /><path
         id="path52"
         style="fill:#000000;fill-opacity:1;fill-rule:nonzero;stroke:none"
         d="m 259.57,152.852 c 3.95,1.949 5.551,6.757 3.59,10.738 l -8,15.98 c -2,3.95 -6.801,5.551 -10.75,3.59 -3.941,-1.988 -5.539,-6.789 -3.551,-10.738 l 7.969,-16.012 c 1.402,-2.781 4.262,-4.422 7.192,-4.422 1.21,0 2.421,0.282 3.55,0.864 z" /><path
         id="path54"
         style="fill:#000000;fill-opacity:1;fill-rule:nonzero;stroke:none"
         d="m 277.66,202.34 c 3.121,3.129 3.121,8.211 0,11.332 -3.129,3.129 -8.211,3.129 -11.332,0 l -7.969,-8.012 c -3.129,-3.121 -3.129,-8.199 0,-11.32 1.563,-1.57 3.59,-2.352 5.621,-2.352 2.071,0 4.11,0.782 5.668,2.352 l 8.012,8 z" /><path
         id="path56"
         style="fill:#000000;fill-opacity:1;fill-rule:nonzero;stroke:none"
         d="m 271.988,136.02 -8.008,0 c -4.41,0 -7.96,-3.598 -7.96,-8.008 0,-4.422 3.55,-8.012 7.96,-8.012 l 8.008,0 c 4.422,0 8.012,3.59 8.012,8.012 0,4.41 -3.59,8.008 -8.012,8.008 z" /></g></g></svg>