<?xml version="1.0" encoding="UTF-8" standalone="no"?><svg xmlns:xlink="http://www.w3.org/1999/xlink" xmlns="http://www.w3.org/2000/svg" viewBox="0 0 60 60" height="60" width="60" xml:space="preserve" version="1.1" id="svg2"><g transform="matrix(1.25,0,0,-1.25,0,60)" id="g10"><g transform="scale(0.1,0.1)" id="g12"><path id="path14" style="fill:#000000;fill-opacity:1;fill-rule:nonzero;stroke:none" d="m 423.98,234 -89.14,0 -22.93,145.23 c -0.621,3.829 -3.859,6.68 -7.691,6.758 l -0.239,0 c -3.75,0 -7.031,-2.609 -7.808,-6.328 l -27.813,-132.262 -13.48,22.692 c -1.481,2.461 -4.219,3.91 -6.988,3.91 -2.891,-0.039 -5.512,-1.602 -6.871,-4.102 L 209.18,212.59 167.422,316.969 c -1.172,2.972 -4.024,4.961 -7.223,5.043 -3.289,-0.082 -6.179,-1.801 -7.5,-4.692 L 114.84,234 56.0195,234 c -4.4609,0 -8.0078,-3.59 -8.0078,-8.012 0,-4.41 3.5469,-8.008 8.0078,-8.008 l 63.9805,0 c 3.121,0 5.98,1.84 7.27,4.692 l 32.261,70.976 41.059,-102.617 c 1.129,-2.851 3.82,-4.801 6.91,-5 0.16,-0.043 0.309,-0.043 0.512,-0.043 2.886,0 5.578,1.563 6.988,4.141 l 33.238,59.851 16.883,-28.359 c 1.68,-2.851 4.957,-4.34 8.199,-3.832 3.239,0.551 5.821,3.051 6.481,6.25 l 23.09,109.731 17.187,-109.032 c 0.621,-3.859 3.981,-6.758 7.934,-6.758 l 95.968,0 c 4.461,0 8.008,3.598 8.008,8.008 0,4.422 -3.547,8.012 -8.008,8.012 z"/><path id="path16" style="fill:#000000;fill-opacity:1;fill-rule:nonzero;stroke:none" d="m 96.0195,65.9883 c 22.0315,0 40.0005,17.9726 40.0005,39.9997 0,22.071 -17.969,40 -40.0005,40 -22.0703,0 -40,-17.929 -40,-40 0,-22.0271 17.9297,-39.9997 40,-39.9997 z m 0,64.0317 c 10.3905,0 19.2105,-6.719 22.5005,-16.02 l -22.5005,0 c -4.4609,0 -8.0078,-3.59 -8.0078,-8.012 0,-4.41 3.5469,-8.0075 8.0078,-8.0075 l 22.5005,0 c -3.29,-9.25 -12.11,-15.9688 -22.5005,-15.9688 -13.25,0 -24.0312,10.7383 -24.0312,23.9763 0,13.242 10.7812,24.032 24.0312,24.032 z"/><path id="path18" style="fill:#000000;fill-opacity:1;fill-rule:nonzero;stroke:none" d="m 296.02,65.9883 111.992,0 c 4.41,0 8.008,3.6015 8.008,8.0117 l 0,63.98 c 0,4.461 -3.598,8.008 -8.008,8.008 l -111.992,0 c -4.461,0 -8.008,-3.547 -8.008,-8.008 l 0,-63.98 c 0,-4.4102 3.547,-8.0117 8.008,-8.0117 z M 400,82.0117 l -56.02,0 0,48.0083 56.02,0 0,-48.0083 z m -96.02,48.0083 24.032,0 0,-48.0083 -24.032,0 0,48.0083 z"/><path id="path20" style="fill:#000000;fill-opacity:1;fill-rule:nonzero;stroke:none" d="m 208.012,65.9883 c 10.66,0 20.738,4.1836 28.277,11.7226 7.539,7.5391 11.723,17.6172 11.723,28.2771 0,10.711 -4.184,20.742 -11.723,28.282 -7.578,7.539 -17.617,11.718 -28.277,11.718 -10.711,0 -20.742,-4.179 -28.282,-11.718 -7.539,-7.54 -11.718,-17.571 -11.718,-28.282 0,-10.6599 4.179,-20.738 11.718,-28.2771 7.54,-7.539 17.571,-11.7226 28.282,-11.7226 z M 191.02,122.98 c 2.57,2.54 5.66,4.379 8.98,5.551 l 0,-22.543 c 0,-4.41 3.59,-8.0075 8.012,-8.0075 4.41,0 8.008,3.5975 8.008,8.0075 l 0,22.543 c 3.32,-1.172 6.359,-3.011 8.941,-5.551 4.527,-4.531 7.027,-10.582 7.027,-16.992 0,-6.3982 -2.5,-12.4177 -7.027,-16.9489 -9.063,-9.0586 -24.883,-9.0586 -33.941,0 -4.54,4.5312 -7.04,10.5507 -7.04,16.9489 0,6.41 2.5,12.461 7.04,16.992 z"/><path id="path22" style="fill:#000000;fill-opacity:1;fill-rule:nonzero;stroke:none" d="m 0,474 0,-431.9883 16.0195,0 0,-31.9922 63.9805,0 0,31.9922 320,0 0,-31.9922 63.98,0 0,31.9922 16.02,0 L 480,474 0,474 Z m 63.9805,-448.0117 -31.9922,0 0,16.0234 31.9922,0 0,-16.0234 z m 384.0315,0 -31.992,0 0,16.0234 31.992,0 0,-16.0234 z m 15.968,31.9922 -447.9605,0 0,96.0195 447.9605,0 0,-96.0195 z M 16.0195,170.02 l 0,287.96 447.9605,0 0,-287.96 -447.9605,0 z"/><path id="path24" style="fill:#000000;fill-opacity:1;fill-rule:nonzero;stroke:none" d="m 59.3789,363.648 38.9414,-33.32 c 1.6406,-1.367 3.6287,-2.027 5.6597,-2.027 2.04,0 4.071,0.699 5.79,2.109 l 38.859,33.281 c 9.07,7.77 15.281,17.688 18.012,28.629 1.8,7.27 1.371,12.11 1.129,13.871 -2.071,20.43 -18,35.821 -37.258,35.821 -10.742,0 -20,-5.633 -26.532,-13.012 -6.48,7.379 -15.7417,13.012 -26.5191,13.012 -19.2226,0 -35.1914,-15.391 -37.2304,-35.821 -0.2696,-1.761 -0.6602,-6.601 1.1406,-13.871 2.6875,-10.941 8.9375,-20.82 18.0078,-28.672 z m -3.3594,39.922 0.1094,0.821 c 1.0195,10.738 8.6719,21.597 21.332,21.597 8.668,0 16.0586,-7.687 19.2188,-14.84 l 7.3003,-16.449 7.348,16.449 c 3.16,7.153 10.512,14.84 19.184,14.84 12.687,0 20.347,-10.859 21.437,-22.218 0,0 0.352,-2.739 -0.859,-7.579 -1.91,-7.742 -6.36,-14.769 -12.891,-20.39 L 103.98,346.539 69.8008,375.801 c -6.5195,5.621 -11.0117,12.648 -12.8906,20.347 -1.1719,4.731 -0.8907,7.422 -0.8907,7.422 z"/><path id="path26" style="fill:#000000;fill-opacity:1;fill-rule:nonzero;stroke:none" d="m 400,417.98 31.988,0 c 4.422,0 8.012,3.598 8.012,8.008 0,4.422 -3.59,8.012 -8.012,8.012 L 400,434 c -4.41,0 -8.012,-3.59 -8.012,-8.012 0,-4.41 3.602,-8.008 8.012,-8.008 z"/><path id="path28" style="fill:#000000;fill-opacity:1;fill-rule:nonzero;stroke:none" d="m 440,402.012 -63.98,0 c -4.461,0 -8.008,-3.602 -8.008,-8.012 0,-4.41 3.547,-8.012 8.008,-8.012 l 63.98,0 c 4.41,0 8.012,3.602 8.012,8.012 0,4.41 -3.602,8.012 -8.012,8.012 z"/><path id="path30" style="fill:#000000;fill-opacity:1;fill-rule:nonzero;stroke:none" d="m 431.988,370.02 -31.988,0 c -4.41,0 -8.012,-3.598 -8.012,-8.008 0,-4.422 3.602,-8.012 8.012,-8.012 l 31.988,0 c 4.422,0 8.012,3.59 8.012,8.012 0,4.41 -3.59,8.008 -8.012,8.008 z"/></g></g></svg>
