<?xml version="1.0" encoding="UTF-8" standalone="no"?><svg xmlns:xlink="http://www.w3.org/1999/xlink" xmlns="http://www.w3.org/2000/svg" viewBox="0 0 60 60" height="60" width="60" xml:space="preserve" version="1.1" id="svg2"><g  transform="matrix(1.25,0,0,-1.25,0,60)" id="g10"><g transform="matrix(0.1,0,0,0.1,10,0)" id="g12"><path id="path14" style="fill:#000000;fill-opacity:1;fill-rule:nonzero;stroke:none" d="m 271.988,463.98 -15.968,0 0,8.008 c 0,4.422 -3.598,8.012 -8.008,8.012 l -136.024,0 C 83.8711,480 60.5508,459.102 56.6406,431.988 l -26.8711,0 C 26.9883,436.762 21.9102,440 16.0195,440 7.19141,440 0,432.809 0,423.98 c 0,-8.781 7.19141,-15.968 16.0195,-15.968 5.8907,0 10.9688,3.238 13.75,8.008 l 26.8711,0 c 3.9102,-27.11 27.2305,-48.008 55.3474,-48.008 l 21.172,0 C 99.2617,329.531 80,279.102 80,227.148 L 80,56.0195 c 0,-4.4179 3.5898,-8.0078 8.0117,-8.0078 l 0,-16.0234 c 0,-4.4102 3.5469,-8.0078 8.0078,-8.0078 l 9.1015,0 C 108.711,10.2305 121.129,0 136.02,0 c 17.609,0 31.992,14.3398 31.992,31.9883 0,8.832 7.187,16.0234 15.968,16.0234 8.829,0 16.02,-7.1914 16.02,-16.0234 L 200,8.01172 C 200,3.58984 203.59,0 208.012,0 c 4.41,0 8.008,3.58984 8.008,8.01172 l 0,23.97658 c 0,17.6601 -14.379,31.9922 -32.04,31.9922 -17.609,0 -31.992,-14.3321 -31.992,-31.9922 0,-8.8281 -7.187,-15.9688 -15.968,-15.9688 -5.899,0 -11.02,3.2422 -13.79,7.961 l 5.782,0 c 4.41,0 8.008,3.5976 8.008,8.0078 l 0,16.0234 c 4.41,0 7.96,3.5899 7.96,8.0078 l 0,153.0005 c 0,52.699 20.551,102.23 57.782,139.5 l 19.488,19.492 26.762,0 c 4.41,0 8.008,3.59 8.008,8.008 l 0,7.96 15.968,0 c 4.422,0 8.012,3.598 8.012,8.008 l 0,64.032 c 0,4.41 -3.59,7.96 -8.012,7.96 z m -199.9997,-40 c 0,22.071 17.9726,40 39.9997,40 l 0,-80 c -22.0271,0 -39.9997,17.969 -39.9997,40 z m 56.0237,-359.9995 -31.9925,0 0,35.4297 31.9925,18.6798 0,-54.1095 z m 0,72.6605 -31.9925,-18.711 0,29.101 31.9925,16.02 0,-26.41 z m 0,72.379 0,-28.079 -31.9925,-15.98 0,30.078 32.0315,16.051 c 0,-0.699 -0.039,-1.36 -0.039,-2.07 z M 120,40 l -16.02,0 0,8.0117 16.02,0 L 120,40 Z m 70.469,319.84 c -35.43,-35.43 -56.84,-81.129 -61.489,-130.391 l -32.9605,-16.519 0,14.218 c 0,52.973 21.5195,104.223 59.1405,140.864 l 43.469,0 -8.16,-8.172 z m 49.531,24.14 -48.012,0 0,16.02 c 0,4.41 -3.547,8.012 -8.008,8.012 -4.41,0 -7.96,-3.602 -7.96,-8.012 l 0,-16.02 -48.008,0 0,80 48.008,0 0,-15.968 c 0,-4.422 3.55,-8.012 7.96,-8.012 4.461,0 8.008,3.59 8.008,8.012 l 0,15.968 48.012,0 0,-80 z m 23.98,16.02 -7.96,0 0,48.012 7.96,0 0,-48.012 z"/></g></g></svg>
