<?xml version="1.0" encoding="UTF-8" standalone="no"?><svg xmlns:xlink="http://www.w3.org/1999/xlink" xmlns="http://www.w3.org/2000/svg" xml:space="preserve" viewBox="0 0 59.999998 55.125711" height="55.1" width="60" version="1.1" y="0px" x="0px"><style type="text/css">.st0{fill:#231F20;}</style><g transform="matrix(1.24 0 0 1.24 .0130 .128)"><path fill="#231f20" class="st0" d="m47.9 18.8v0-0.1c0.8-3.7 0.9-8.7-1.2-11.9-2.1-3.1-6.8-4.5-10.5-3.2-0.3 0.1-0.5 0.2-0.7 0.3-0.5 0.1-0.7 0.2-1 0.1-0.3 0-0.8-0.2-1.2-0.3s-0.9-0.2-1.3-0.3c-1.6-0.2-3-0.2-4.6 0.1-2.4 0.5-4.2 1.7-5.3 3.6-0.7-2-2-4.3-3.5-5.4-3.2-2.3-7.6-2.4-13.2-0.3-2.9 1.2-5.6 4.2-5.4 8.5 0.1 2.5 0.5 5.4 1.1 8.4-0.7 0.4-1.1 1.2-1.1 2v16c0 4.5 3.6 8.1 8.1 8.1h32.2c4.5 0 8.1-3.6 8.1-8.1v-16c0-0.6-0.2-1.1-0.5-1.5zm-42-15.8c2.5-0.9 4.7-1.4 6.7-1.4s3.7 0.5 5 1.5c2 1.4 3.4 5.1 3.4 6.7v0.2 0.3c0 0.2-0.1 0.5-0.1 0.7s0 0.4-0.1 0.6v0.5 0.7 0.3c0 0.7 0 1.4 0.1 2.1-0.1 1-0.2 1.9-0.3 2.8l-0.1 0.5c-0.2 1.1-0.3 2.1-0.6 3v0.1c-0.1 0.3-0.2 0.6-0.2 0.9-1.4 4.9-2.4 5-8.3 5-3.1 0-6.4-0.5-7.4-4-0.1-0.5-0.2-1-0.4-1.4 0-0.2-0.1-0.3-0.1-0.5-0.1-0.4-0.2-0.7-0.2-1.1 0-0.2-0.1-0.3-0.1-0.5-0.7-3.5-1.3-7.2-1.4-10.1-0.4-3.6 1.8-6 4.1-6.9zm37.7 23.6c0.2-0.1 0.3-0.1 0.5-0.2 0.1-0.1 0.2-0.1 0.3-0.2 0 0 0.1 0 0.1-0.1 0.1-0.1 0.3-0.2 0.4-0.4 0.7-0.6 1.2-1.5 1.6-2.6 0.1-0.1 0.1-0.3 0.2-0.4v13.6c0 3.6-2.9 6.5-6.5 6.5h-32.1c-3.6 0-6.5-2.9-6.5-6.5v-15.5c0 0.2 0.1 0.3 0.1 0.5 0.1 0.3 0.1 0.6 0.2 0.9 0.1 0.5 0.3 1.1 0.4 1.6 1.2 4.6 5.4 5.2 9 5.2 6.1 0 8.1-0.3 9.8-6.2l0.3-1.2v-0.1c0.1-0.4 0.2-0.9 0.3-1.4v0.1c0 0.1 0.1 0.3 0.1 0.4v0.1c0.3 0.8 0.6 1.7 1 2.5 0.3 0.6 0.6 1.2 1.1 1.8 0.4 0.5 0.9 1 1.4 1.4l1-1.2c-0.4-0.4-0.8-0.8-1.1-1.2-0.8-1-1.3-2.4-1.8-3.8-0.1-0.3-0.2-0.6-0.2-0.8 0-0.1-0.1-0.2-0.1-0.3 0-0.2-0.1-0.3-0.1-0.5-0.2-1-0.5-2.3-0.6-3.6 0-0.4-0.1-0.9-0.1-1.3 0-1.3 0.1-2.4 0.3-3.5 0.2-0.8 0.5-1.6 0.9-2.3 0.9-1.5 2.3-2.4 4.3-2.8 1.4-0.2 2.7-0.3 4.1-0.1 0.3 0 0.7 0.1 1.1 0.2l1.2 0.3c1.3 0.7 2.5 1.5 3.5 2.5 0.2 0.2 0.4 0.2 0.6 0.2s0.4-0.1 0.6-0.2c0.3-0.3 0.3-0.8 0-1.1-0.7-0.7-1.5-1.3-2.3-1.9 0.1 0 0.1 0 0.2-0.1 3-1.1 7 0.1 8.7 2.6 1.8 2.7 1.7 7.3 1 10.6v0.1 0.2l-0.1 0.2c-0.4 1.9-0.9 3.3-1.4 4.4-0.1 0.2-0.2 0.5-0.4 0.7v0.1c-0.1 0.2-0.2 0.3-0.4 0.5l-0.1 0.1-0.3 0.3-0.1 0.1c-0.1 0.1-0.3 0.2-0.4 0.2l0.3 1.6zm-2.2-7.2c0.4-0.1 0.6-0.6 0.5-1s-0.6-0.7-1-0.5l-0.6 0.1v-4.6l-2.9-2.9h-5.5l-2.9 2.9v8.1l-1 0.4c-0.4 0.1-0.7 0.6-0.5 1 0.1 0.3 0.4 0.6 0.8 0.6h0.2l0.6-0.2v3.1l-1.1 0.3c-0.4 0.1-0.7 0.6-0.5 1 0.1 0.3 0.4 0.6 0.8 0.6h0.2l0.6-0.2v3.1l-1.1 0.3c-0.4 0.1-0.7 0.6-0.5 1 0.1 0.3 0.4 0.6 0.8 0.6h0.2l0.6-0.2v1.8h1.6v2.7l2.8 3.8h2.4l2.8-3.8v-2.7h1.6v-5.3l1.1-0.4c0.4-0.1 0.6-0.6 0.5-1s-0.6-0.7-1-0.5l-0.6 0.2v-3.1l1.1-0.4c0.4-0.1 0.7-0.6 0.5-1-0.1-0.4-0.6-0.7-1-0.5l-0.6 0.2v-3.1l1.1-0.4zm-2.7 4-1.9 0.6c-0.4 0.1-0.7 0.6-0.5 1 0.1 0.3 0.4 0.6 0.8 0.6h0.3l1.4-0.5v3.1l-1.9 0.6c-0.4 0.1-0.7 0.6-0.5 1 0.1 0.3 0.4 0.6 0.8 0.6h0.3l1.4-0.5v3.2h-1.6v3.8l-2 2.7h-0.8l-2-2.7v-3.8h-1.6v-0.7l3.5-1.1c0.4-0.1 0.7-0.6 0.5-1-0.1-0.4-0.6-0.7-1-0.5l-3 0.9v-3.1l3.5-1.1c0.4-0.1 0.7-0.6 0.5-1-0.1-0.4-0.6-0.7-1-0.5l-3 0.9v-3.1l3.5-1.1c0.4-0.1 0.7-0.6 0.5-1-0.1-0.4-0.6-0.7-1-0.5l-3 0.9v-2.4h7.9l-1.7 0.6c-0.4 0.1-0.7 0.6-0.5 1 0.1 0.3 0.4 0.6 0.8 0.6h0.3l1.4-0.5v3zm0-6.4h-8.1v-2.9l1.9-1.9h4.2l1.9 1.9v2.9z"/></g></svg>
