<?xml version="1.0" encoding="UTF-8" standalone="no"?><svg xmlns:xlink="http://www.w3.org/1999/xlink" xmlns="http://www.w3.org/2000/svg" viewBox="0 0 60 60" height="60" width="60" xml:space="preserve" version="1.1" id="svg2"><g transform="matrix(1.25,0,0,-1.25,0,61.248534)" id="g10"><g transform="scale(0.1,0.1)" d="g12"><path id="path14" d="M 470.391,109.449 290.738,289.051 c -9.758,9.808 -22.847,15.199 -36.758,15.199 -6.75,0 -13.281,-1.289 -19.332,-3.711 L 123.75,403.23 c 2.699,7.071 4.262,14.731 4.262,22.782 0,35.269 -28.7112,63.976 -64.0315,63.976 C 28.7109,489.988 0,461.281 0,426.012 0,390.699 28.7109,361.98 63.9805,361.98 c 7.0703,0 13.8281,1.219 20.1601,3.321 L 189.41,255.27 c -7.422,-18.719 -3.59,-40.899 11.531,-56.02 L 380.551,19.6016 c 6.211,-6.1719 14.488,-9.61332 23.32,-9.61332 8.789,0 17.07,3.44142 23.277,9.61332 l 43.243,43.2382 c 12.808,12.8594 12.808,33.75 0,46.6092 z M 279.41,277.77 435.352,121.828 368.16,54.6406 353.949,68.8594 366.328,81.1992 c 17.973,17.9727 17.973,47.1528 0,65.0818 l -87.5,87.5 c -17.93,17.93 -47.109,17.969 -65.078,0 l -9.84,-9.84 c -3.359,9.411 -2.621,19.84 2.11,28.829 0.031,0.031 0.109,0.07 0.109,0.152 0.902,1.637 1.801,3.09 2.699,4.379 1.051,1.437 2.113,2.89 3.402,4.179 l 16.29,16.29 c 1.25,1.25 2.652,2.3 4.101,3.32 1.328,0.93 2.77,1.832 4.449,2.73 0.121,0.078 0.231,0.2 0.352,0.27 5.078,2.621 10.668,4.14 16.558,4.14 9.649,0 18.68,-3.71 25.43,-10.46 z M 252.969,170.031 c 10.39,5.629 24.41,3.789 33.011,-4.801 5.27,-5.32 8.2,-12.308 8.2,-19.769 0,-4.731 -1.168,-9.262 -3.36,-13.281 l -37.851,37.851 z m 44.332,6.489 c -8.321,8.32 -19.332,12.89 -31.051,12.89 -9.102,0 -17.699,-2.82 -25,-7.859 l -28.551,28.519 12.379,12.379 c 11.723,11.723 30.742,11.723 42.461,0 l 87.5,-87.5 c 11.723,-11.679 11.723,-30.738 0,-42.4177 L 342.66,80.1484 302.301,120.461 c 5.078,7.309 7.898,15.898 7.898,24.961 -0.039,11.758 -4.609,22.808 -12.898,31.098 z M 55.8594,378.738 c -0.3906,4.063 -3.711,7.274 -7.8477,7.274 -2.3515,0 -4.4219,-1.063 -5.9023,-2.703 -2.1485,1.14 -4.2188,2.421 -6.211,3.832 2.4219,1.41 4.1016,3.871 4.1016,6.839 0,4.411 -3.5898,8 -8.0117,8 -2.9688,0 -5.4297,-1.679 -6.8281,-4.101 -1.4102,1.992 -2.6993,4.07 -3.8321,6.211 1.6016,1.488 2.6524,3.558 2.6524,5.898 0,4.141 -3.1992,7.461 -7.2188,7.852 -0.4726,2.66 -0.7422,5.359 -0.7422,8.172 0,2.769 0.2696,5.468 0.7422,8.117 4.0196,0.391 7.2188,3.711 7.2188,7.851 0,2.348 -1.0508,4.418 -2.6524,5.899 1.1328,2.152 2.4219,4.223 3.8321,6.211 1.3984,-2.418 3.8593,-4.102 6.8281,-4.102 4.4219,0 8.0117,3.602 8.0117,8.012 0,2.969 -1.6797,5.43 -4.1016,6.84 1.9922,1.398 4.0625,2.691 6.211,3.82 1.4804,-1.601 3.5508,-2.648 5.9023,-2.648 4.1367,0 7.4571,3.199 7.8477,7.218 2.6601,0.469 5.3515,0.75 8.1211,0.75 2.8203,0 5.5078,-0.281 8.1679,-0.75 0.3907,-4.019 3.711,-7.218 7.8516,-7.218 2.3398,0 4.4102,1.047 5.8984,2.648 2.1524,-1.129 4.2227,-2.422 6.211,-3.82 -2.418,-1.371 -4.0977,-3.871 -4.0977,-6.84 0,-4.41 3.5899,-8.012 8.0078,-8.012 2.961,0 5.4295,1.684 6.8325,4.102 1.41,-1.988 2.699,-4.059 3.828,-6.211 -1.641,-1.481 -2.7,-3.551 -2.7,-5.899 0,-4.14 3.211,-7.46 7.27,-7.851 0.469,-2.649 0.738,-5.348 0.738,-8.117 0,-2.813 -0.269,-5.512 -0.738,-8.172 -4.059,-0.391 -7.27,-3.711 -7.27,-7.852 0,-2.34 1.059,-4.367 2.661,-5.859 -1.129,-2.149 -2.379,-4.258 -3.832,-6.207 -1.36,2.379 -3.8598,4.058 -6.7895,4.058 -4.4179,0 -8.0078,-3.589 -8.0078,-8 0,-2.929 1.6367,-5.39 3.9766,-6.761 -0.5078,-0.391 -0.9375,-0.86 -1.4766,-1.207 l -0.1601,-0.082 c -1.4414,-0.981 -3.0118,-1.68 -4.5703,-2.5 -1.4415,1.558 -3.4805,2.582 -5.7813,2.582 -4.1406,0 -7.4609,-3.211 -7.8516,-7.274 C 69.4883,378.27 66.8008,378 63.9805,378 c -2.7696,0 -5.461,0.27 -8.1211,0.738 z m 43.4023,-6.129 c 0.0391,0.039 0.0781,0.082 0.1172,0.121 3.0431,1.989 5.8511,4.29 8.4731,6.79 0.238,0.199 0.429,0.39 0.668,0.589 2.57,2.5 4.921,5.231 7.07,8.161 0.07,0.121 0.23,0.242 0.308,0.39 l 104.493,-96.711 c -0.661,-0.551 -1.289,-1.14 -1.911,-1.719 -0.429,-0.39 -0.859,-0.75 -1.289,-1.179 L 200.898,272.77 c -0.347,-0.36 -0.668,-0.75 -1.019,-1.098 -0.66,-0.742 -1.328,-1.442 -1.949,-2.192 L 99.2617,372.609 Z M 459.059,74.1719 415.859,30.9297 c -6.371,-6.3711 -17.621,-6.3711 -23.98,0 L 379.488,43.3086 446.68,110.5 459.059,98.1211 c 6.601,-6.6016 6.601,-17.3516 0,-23.9492 z"/><path id="path16" d="m 71.9883,458 c 0,-4.41 -3.5469,-8.012 -8.0078,-8.012 -4.4102,0 -7.961,3.602 -7.961,8.012 0,4.41 3.5508,8.012 7.961,8.012 4.4609,0 8.0078,-3.602 8.0078,-8.012 z"/><path id="path18" d="m 56.0195,441.98 c 0,-4.41 -3.5976,-8 -8.0078,-8 -4.4219,0 -8.0117,3.59 -8.0117,8 0,4.418 3.5898,8.008 8.0117,8.008 4.4102,0 8.0078,-3.59 8.0078,-8.008 z"/><path id="path20" d="m 88.0117,441.98 c 0,-4.41 -3.6015,-8 -8.0117,-8 -4.4102,0 -8.0117,3.59 -8.0117,8 0,4.418 3.6015,8.008 8.0117,8.008 4.4102,0 8.0117,-3.59 8.0117,-8.008 z"/><path id="path22" d="m 103.98,426.012 c 0,-4.461 -3.55,-8.012 -7.9605,-8.012 -4.4609,0 -8.0078,3.551 -8.0078,8.012 0,4.41 3.5469,7.968 8.0078,7.968 4.4105,0 7.9605,-3.558 7.9605,-7.968 z"/><path id="path24" d="m 71.9883,393.98 c 0,-4.421 -3.5469,-7.968 -8.0078,-7.968 -4.4102,0 -7.961,3.547 -7.961,7.968 0,4.45 3.5508,8 7.961,8 4.4609,0 8.0078,-3.55 8.0078,-8 z"/><path id="path26" d="m 71.9883,426.012 c 0,-4.461 -3.5469,-8.012 -8.0078,-8.012 -4.4102,0 -7.961,3.551 -7.961,8.012 0,4.41 3.5508,7.968 7.961,7.968 4.4609,0 8.0078,-3.558 8.0078,-7.968 z"/><path id="path28" d="M 40,426.012 C 40,421.551 36.4102,418 31.9883,418 c -4.4102,0 -8.0078,3.551 -8.0078,8.012 0,4.41 3.5976,7.968 8.0078,7.968 4.4219,0 8.0117,-3.558 8.0117,-7.968 z"/><path id="path30" d="m 56.0195,409.988 c 0,-4.41 -3.5976,-8.008 -8.0078,-8.008 -4.4219,0 -8.0117,3.598 -8.0117,8.008 0,4.422 3.5898,8.012 8.0117,8.012 4.4102,0 8.0078,-3.59 8.0078,-8.012 z"/><path id="path32" d="m 88.0117,409.988 c 0,-4.41 -3.6015,-8.008 -8.0117,-8.008 -4.4102,0 -8.0117,3.598 -8.0117,8.008 0,4.422 3.6015,8.012 8.0117,8.012 4.4102,0 8.0117,-3.59 8.0117,-8.012 z"/></g></g></svg>
