<?xml version="1.0" encoding="UTF-8" standalone="no"?>
<svg
   xmlns:dc="http://purl.org/dc/elements/1.1/"
   xmlns:cc="http://creativecommons.org/ns#"
   xmlns:rdf="http://www.w3.org/1999/02/22-rdf-syntax-ns#"
   xmlns:svg="http://www.w3.org/2000/svg"
   xmlns="http://www.w3.org/2000/svg"
   viewBox="0 0 60 60"
   height="60"
   width="60"
   xml:space="preserve"
   version="1.1"
   id="svg2"><metadata
     id="metadata8"><rdf:RDF><cc:Work
         rdf:about=""><dc:format>image/svg+xml</dc:format><dc:type
           rdf:resource="http://purl.org/dc/dcmitype/StillImage" /><dc:title></dc:title></cc:Work></rdf:RDF></metadata><defs
     id="defs6" /><g
     transform="matrix(1.25,0,0,-1.25,0,60)"
     id="g10"><g
       transform="matrix(0.103452,0,0,0.10345262,3.26,-1.0365435)"
       id="g12"><path
         id="path14"
         style="fill:#000000;fill-opacity:1;fill-rule:nonzero;stroke:none"
         d="m 143.98,250.02 64.032,0 0,31.992 31.988,0 0,63.976 -31.988,0 0,31.992 -64.032,0 0,-31.992 -31.992,0 0,-63.976 31.992,0 0,-31.992 z m -15.968,47.96 0,32.04 31.988,0 0,31.992 31.988,0 0,-31.992 31.992,0 0,-32.04 -31.992,0 0,-31.992 -31.988,0 0,31.992 -31.988,0 z" /><path
         id="path16"
         style="fill:#000000;fill-opacity:1;fill-rule:nonzero;stroke:none"
         d="m 136.02,185.988 c -4.418,0 -8.008,-3.547 -8.008,-8.008 0,-4.41 3.59,-7.96 8.008,-7.96 l 80,0 c 4.41,0 7.96,3.55 7.96,7.96 0,4.461 -3.55,8.008 -7.96,8.008 l -80,0 z" /><path
         id="path18"
         style="fill:#000000;fill-opacity:1;fill-rule:nonzero;stroke:none"
         d="m 248.012,154 -144.032,0 c -4.4097,0 -7.9605,-3.59 -7.9605,-8.012 0,-4.41 3.5508,-8.008 7.9605,-8.008 l 144.032,0 c 4.41,0 8.008,3.598 8.008,8.008 0,4.422 -3.598,8.012 -8.008,8.012 z" /><path
         id="path20"
         style="fill:#000000;fill-opacity:1;fill-rule:nonzero;stroke:none"
         d="m 248.012,122.012 -144.032,0 c -4.4097,0 -7.9605,-3.602 -7.9605,-8.012 0,-4.41 3.5508,-8.012 7.9605,-8.012 l 144.032,0 c 4.41,0 8.008,3.602 8.008,8.012 0,4.41 -3.598,8.012 -8.008,8.012 z" /><path
         id="path22"
         style="fill:#000000;fill-opacity:1;fill-rule:nonzero;stroke:none"
         d="M 351.988,474 0,474 0,10.0195 l 351.988,0 0,47.961 48.012,0 0,416.0195 -48.012,0 z M 336.02,25.9883 l -320.0005,0 0,431.9917 320.0005,0 0,-431.9917 z M 383.98,74 l -31.992,0 0,63.98 31.992,0 0,-63.98 z m 0,80 -31.992,0 0,63.98 31.992,0 0,-63.98 z m 0,80 -31.992,0 0,63.98 31.992,0 0,-63.98 z m 0,80 -31.992,0 0,63.98 31.992,0 0,-63.98 z m -31.992,80 0,63.98 31.992,0 0,-63.98 -31.992,0 z" /></g></g></svg>