<?xml version="1.0" encoding="UTF-8" standalone="no"?><svg xmlns:xlink="http://www.w3.org/1999/xlink" xmlns="http://www.w3.org/2000/svg" viewBox="0 0 60 60" height="60" width="60" xml:space="preserve" version="1.1" id="svg2"><g transform="matrix(1.25,0,0,-1.25,0,60)" id="g10"><g transform="matrix(0.10001563,0,0,0.10001533,3.6407637,-1.0001533)" id="g12"><path id="path14" d="m 408.359,338.012 -38.007,0 0,8 16.019,0 0,15.976 -16.019,0 0,8.012 41.328,0 -0.821,8.789 c -0.781,8.16 -2.031,11.832 -3.48,16.133 -0.699,2.066 -1.52,4.488 -2.457,7.969 -6.524,24.757 -25.703,48.398 -53.942,66.558 -36.101,23.199 -86.492,27.031 -128.359,9.731 l -1.531,-0.668 c -0.781,-0.352 -1.52,-0.66 -2.262,-0.934 -3.707,-1.289 -6.558,-2.387 -8.906,-3.277 -7.383,-2.903 -7.383,-2.86 -19.531,0.699 -25.981,7.648 -75.161,18.512 -112.6918,5.191 C 31.7617,463.898 6.41016,429.719 2.37891,378.629 L 1.67969,370 l 40.66011,0 0,-8.012 -15.9687,0 0,-15.976 15.9687,0 0,-8 -41.16792,0 -0.582036,-7.391 c -1.019532,-12.769 -0.75,-15.191 0.929686,-25.973 l 0.46875,-3.32 C 3.51953,291.441 4.96094,281.48 6.41016,271.441 16.9102,199.328 27.7305,124.719 55.6211,57.4219 l 0.9805,-2.3438 C 63.5195,38.2383 75.1211,10 95.2695,10 l 1.6407,0 1.4882,0.6211 C 116.91,18.4688 123.871,36.25 128.91,49.2188 c 3.391,8.75 6.442,17.6914 9.371,26.332 3.867,11.3203 7.66,22.3398 12.149,32.8902 10.16,-20.6715 30.898,-54.3824 58.32,-54.3824 3.238,0 6.52,0.4727 9.922,1.4531 18.008,5.3477 27.066,23.9375 33.668,37.5391 l 0.551,1.1289 c 1.41,2.8516 3.16,6.1723 5.078,9.7613 1.871,3.559 3.98,7.539 6.011,11.637 2,-6.437 3.75,-13.078 5.469,-19.6366 1.922,-7.3125 3.871,-14.8906 6.172,-21.9609 9.688,-29.8008 22.27,-60.5821 42.149,-62.6094 10.429,-1.0625 20.121,6.0078 28.71,21.0508 15.668,27.457 22.348,58.0078 28.872,87.5781 l 2.308,10.43 c 3.238,14.492 6.988,29.179 10.621,43.441 12.848,50.149 26.098,102.027 20.778,156.91 l -0.7,7.231 z m -389.0973,48 c 5.4688,39.929 26.3985,65.859 63.7891,79.109 34.5702,12.219 83.4292,0.231 102.8472,-5.473 15.903,-4.687 18.403,-4.726 29.84,-0.277 2.192,0.82 4.852,1.879 8.364,3.09 1.128,0.391 2.226,0.859 3.359,1.367 l 1.289,0.543 c 37.148,15.348 81.762,12.07 113.59,-8.402 24.89,-15.969 41.609,-36.278 47.148,-57.18 1.024,-3.91 1.922,-6.598 2.742,-8.949 0.43,-1.399 0.86,-2.578 1.211,-3.828 l -374.1793,0 z M 58.3594,370 l 295.9806,0 0,-8.012 -295.9806,0 0,8.012 z m 0,-23.988 295.9806,0 0,-8 -295.9806,0 0,8 z M 243.828,111.441 C 241.84,107.691 240,104.18 238.52,101.172 l -0.551,-1.133 C 232.34,88.5508 225.391,74.2188 214.141,70.8594 187.539,62.8516 163.012,118.898 160.309,125.309 l -0.7,1.679 c 0.821,1.524 1.641,2.891 2.461,4.223 1.051,1.719 2.149,3.48 3.282,5.16 9.609,14.02 35.429,44.488 68.476,24.801 2.543,-1.524 4.883,-3.281 7.031,-5.16 0.821,-0.66 1.563,-1.481 2.34,-2.223 1.25,-1.211 2.461,-2.461 3.602,-3.789 1.051,-1.25 2.07,-2.621 3.078,-3.988 0.633,-0.891 1.25,-1.75 1.84,-2.653 1.293,-2.031 2.543,-4.14 3.711,-6.41 0.121,-0.23 0.23,-0.469 0.39,-0.699 -3.16,-8.199 -7.808,-16.949 -11.992,-24.809 z m 128.981,66.368 c -3.668,-14.34 -7.457,-29.18 -10.739,-43.868 l -2.34,-10.5 C 353.48,95.0391 347.031,65.6602 332.578,40.3516 327.73,31.8281 322.852,26.7188 319.41,27.3008 c -3.672,0.3476 -13.789,6.168 -28.551,51.6406 -2.148,6.6094 -3.98,13.5977 -5.937,21.0195 -6.293,24.1801 -13.363,51.2111 -33.942,68.5511 -0.082,0.039 -0.121,0.078 -0.16,0.117 -2.73,2.269 -5.621,4.383 -8.832,6.293 -30.539,18.199 -64.957,6.879 -89.84,-29.531 -13.867,-20.27 -21.558,-42.852 -28.988,-64.6918 -2.89,-8.4804 -5.859,-17.2304 -9.18,-25.6601 -5.109,-13.1289 -9.878,-23.668 -20.0698,-28.8672 -9.0704,2.2695 -18.75,25.8594 -22.5,35 l -0.9805,2.3789 C 43.3203,129.02 32.5781,202.621 22.2305,273.75 c -1.4492,10.039 -2.8907,20.039 -4.3789,29.961 l -0.5508,3.359 c -1.0508,7.071 -1.4414,9.649 -1.25,14.918 l 377.6602,0 c 3.277,-49.488 -9.02,-97.617 -20.902,-144.179 z"/></g></g></svg>
