<?xml version="1.0" encoding="UTF-8" standalone="no"?>
<svg
   xmlns:dc="http://purl.org/dc/elements/1.1/"
   xmlns:cc="http://creativecommons.org/ns#"
   xmlns:rdf="http://www.w3.org/1999/02/22-rdf-syntax-ns#"
   xmlns:svg="http://www.w3.org/2000/svg"
   xmlns="http://www.w3.org/2000/svg"
   viewBox="0 0 60 60"
   height="60"
   width="60"
   xml:space="preserve"
   version="1.1"
   id="svg2"><metadata
     id="metadata8"><rdf:RDF><cc:Work
         rdf:about=""><dc:format>image/svg+xml</dc:format><dc:type
           rdf:resource="http://purl.org/dc/dcmitype/StillImage" /><dc:title></dc:title></cc:Work></rdf:RDF></metadata><defs
     id="defs6" /><g
     transform="matrix(1.25,0,0,-1.25,0,60)"
     id="g10"><g
       transform="matrix(0.10589089,0,0,0.10589044,-2.3430685e-5,4.9343366)"
       id="g12"><path
         id="path14"
         style="fill:#000000;fill-opacity:1;fill-rule:nonzero;stroke:none"
         d="m 130.16,226.012 c 0,-4.422 -3.558,-8.012 -7.969,-8.012 -4.461,0 -8.011,3.59 -8.011,8.012 0,4.41 3.55,8.008 8.011,8.008 4.411,0 7.969,-3.598 7.969,-8.008 z" /><path
         id="path16"
         style="fill:#000000;fill-opacity:1;fill-rule:nonzero;stroke:none"
         d="m 138.16,194.02 c 0,-4.418 -3.59,-8.008 -8,-8.008 -4.422,0 -7.969,3.59 -7.969,8.008 0,4.41 3.547,8 7.969,8 4.41,0 8,-3.59 8,-8 z" /><path
         id="path18"
         style="fill:#000000;fill-opacity:1;fill-rule:nonzero;stroke:none"
         d="m 146.172,162.02 c 0,-4.45 -3.594,-8 -8.012,-8 -4.41,0 -8,3.55 -8,8 0,4.421 3.59,7.968 8,7.968 4.418,0 8.012,-3.547 8.012,-7.968 z" /><path
         id="path20"
         style="fill:#000000;fill-opacity:1;fill-rule:nonzero;stroke:none"
         d="m 154.18,129.988 c 0,-4.41 -3.59,-7.968 -8.008,-7.968 -4.41,0 -8.012,3.558 -8.012,7.968 0,4.422 3.602,8.012 8.012,8.012 4.418,0 8.008,-3.59 8.008,-8.012 z" /><path
         id="path22"
         style="fill:#000000;fill-opacity:1;fill-rule:nonzero;stroke:none"
         d="m 162.191,98 c 0,-4.4102 -3.601,-8.0117 -8.011,-8.0117 -4.41,0 -8.008,3.6015 -8.008,8.0117 0,4.422 3.598,8.012 8.008,8.012 4.41,0 8.011,-3.59 8.011,-8.012 z" /><path
         id="path24"
         style="fill:#000000;fill-opacity:1;fill-rule:nonzero;stroke:none"
         d="m 170.16,146.012 c 0,-4.422 -3.558,-8.012 -7.969,-8.012 -4.461,0 -8.011,3.59 -8.011,8.012 0,4.41 3.55,8.008 8.011,8.008 4.411,0 7.969,-3.598 7.969,-8.008 z" /><path
         id="path26"
         style="fill:#000000;fill-opacity:1;fill-rule:nonzero;stroke:none"
         d="m 162.191,178 c 0,-4.41 -3.601,-8.012 -8.011,-8.012 -4.41,0 -8.008,3.602 -8.008,8.012 0,4.422 3.598,8.012 8.008,8.012 4.41,0 8.011,-3.59 8.011,-8.012 z" /><path
         id="path28"
         style="fill:#000000;fill-opacity:1;fill-rule:nonzero;stroke:none"
         d="m 154.18,209.988 c 0,-4.41 -3.59,-7.968 -8.008,-7.968 -4.41,0 -8.012,3.558 -8.012,7.968 0,4.422 3.602,8.012 8.012,8.012 4.418,0 8.008,-3.59 8.008,-8.012 z" /><path
         id="path30"
         style="fill:#000000;fill-opacity:1;fill-rule:nonzero;stroke:none"
         d="m 445.078,256.441 c -8.168,11.168 -20.738,17.579 -34.566,17.579 -20.121,0 -39.223,-6.329 -55.313,-17.848 -0.711,5.109 -1.679,10.148 -3.008,15.109 -5.351,20.239 -16.839,55.778 -33.671,66.598 -23.008,14.812 -56.801,16.531 -86.18,4.383 l -0.891,-0.391 c -0.469,-0.199 -0.898,-0.391 -1.328,-0.551 -2.422,-0.82 -4.262,-1.519 -5.781,-2.109 -3.75,-1.481 -3.75,-1.481 -10.512,0.508 -22.457,6.64 -51.098,13.242 -73.437,5.312 C 108.59,333.738 93.1211,290.969 90.5508,253.121 79.0195,261.129 66.0898,267.059 52.5,270.461 37.6602,274.25 22.3398,269.719 11.6797,258.352 0.980469,246.91 -2.73047,230.578 2.07031,215.699 L 61.8008,30.5781 C 65.7383,18.2695 77.1094,9.98828 90.0391,9.98828 l 272.4219,0 c 12.93,0 24.258,8.28122 28.238,20.58982 l 60.512,187.5429 c 4.219,13.16 1.988,27.109 -6.133,38.32 z m -299.34,73.508 c 5.391,1.922 11.532,2.699 17.934,2.699 15.387,0 32.539,-4.41 45.629,-8.238 10.66,-3.172 12.969,-3.172 20.82,-0.121 1.399,0.512 3.039,1.172 5.27,1.949 0.82,0.282 1.597,0.59 3.089,1.25 24.25,10.043 52.93,8.793 71.36,-3.039 8.558,-5.508 19.14,-28.008 26.879,-57.269 2.383,-9.102 3.59,-18.668 3.941,-28.442 0.281,-6.789 0.121,-13.75 -0.39,-20.777 -0.04,-0.582 -0.11,-1.172 -0.149,-1.723 -0.281,-3.359 -0.59,-6.679 -0.98,-10.039 -0.039,-0.187 -0.082,-0.429 -0.082,-0.66 -0.469,-3.75 -1.008,-7.5 -1.598,-11.25 0,-0.117 -0.039,-0.199 -0.039,-0.269 -0.543,-3.481 -1.172,-6.961 -1.801,-10.391 -0.109,-0.629 -0.23,-1.207 -0.351,-1.801 -0.661,-3.476 -1.321,-6.906 -2.071,-10.348 0,-0.039 0,-0.082 0,-0.121 -0.738,-3.398 -1.48,-6.8 -2.258,-10.16 -0.242,-1.008 -0.472,-2.027 -0.711,-3.078 -0.539,-2.422 -1.089,-4.812 -1.679,-7.191 -0.93,-4.02 -1.91,-8.008 -2.852,-11.95 -1.828,-7.742 -3.668,-15.308 -5.308,-22.621 l -1.481,-6.718 c -4.109,-18.6293 -7.969,-36.2504 -16.922,-51.9926 -3.16,-5.4687 -5.187,-6.5976 -5.468,-6.7968 -0.04,0 -0.04,0 -0.071,0 -0.469,0.1172 -4.301,1.4882 -10.551,16.5976 -0.117,0.2813 -0.199,0.5117 -0.308,0.75 -0.238,0.6211 -0.512,1.3203 -0.789,1.9922 -0.231,0.6602 -0.461,1.25 -0.742,1.9492 -0.11,0.2813 -0.188,0.5899 -0.309,0.8594 -0.941,2.5781 -1.949,5.4297 -3.012,8.6289 -1.359,4.2227 -2.5,8.6797 -3.707,13.2109 -0.152,0.6993 -0.351,1.4415 -0.551,2.1094 -2.179,8.3598 -4.601,17.1408 -8.511,25.1918 -0.27,0.507 -0.59,0.98 -0.86,1.488 -0.82,1.641 -1.679,3.281 -2.699,4.84 -1.172,1.871 -2.5,3.672 -3.941,5.39 -0.117,0.161 -0.239,0.352 -0.348,0.512 -1.601,1.867 -3.359,3.629 -5.281,5.27 l 0,0.039 c -1.949,1.64 -4.059,3.16 -6.399,4.57 -1.41,0.82 -2.82,1.559 -4.222,2.23 -0.469,0.192 -0.938,0.348 -1.41,0.54 -0.969,0.429 -1.95,0.82 -2.93,1.14 -0.539,0.192 -1.051,0.309 -1.598,0.469 -0.941,0.269 -1.871,0.5 -2.851,0.699 -0.551,0.121 -1.09,0.231 -1.68,0.313 -0.898,0.16 -1.801,0.238 -2.699,0.308 -0.391,0.039 -0.781,0.121 -1.129,0.16 -0.192,0 -0.391,-0.039 -0.543,-0.039 -15.16,0.59 -30.16,-8.242 -41.957,-25.429 -9.024,-13.243 -13.981,-27.7699 -18.793,-41.8324 -1.828,-5.4297 -3.668,-10.8203 -5.777,-16.2188 -2.891,-7.4609 -5.43,-13.121 -10.274,-16.1679 -0.078,0.039 -0.156,0.0781 -0.238,0.1562 -0.07,0.0821 -0.192,0.1602 -0.309,0.2305 -0.152,0.1602 -0.351,0.3633 -0.551,0.5508 -0.109,0.1211 -0.23,0.2304 -0.39,0.3906 -0.192,0.2383 -0.391,0.5117 -0.621,0.7813 -0.16,0.1992 -0.309,0.3906 -0.469,0.6289 -0.23,0.3086 -0.512,0.6992 -0.781,1.0898 -0.16,0.2695 -0.348,0.5508 -0.547,0.8594 -0.274,0.4687 -0.582,0.9804 -0.902,1.5195 -0.192,0.3594 -0.391,0.7109 -0.622,1.1406 -0.308,0.5821 -0.699,1.2891 -1.058,1.9922 -0.231,0.4688 -0.469,0.8985 -0.699,1.4102 -0.391,0.8164 -0.86,1.789 -1.289,2.7695 -0.231,0.4688 -0.43,0.8984 -0.661,1.4375 -0.711,1.5703 -1.453,3.293 -2.23,5.1602 l -0.621,1.5195 c -17.11,41.3324 -23.91,87.8904 -30.469,132.9724 -0.902,6.367 -1.84,12.739 -2.781,19.028 0,0.07 0,0.191 -0.039,0.269 -0.582,3.981 -0.93,8.094 -1.051,12.231 0,0.312 -0.039,0.582 -0.039,0.89 l -0.039,1.801 c -0.621,35.238 12.226,81.02 39.566,90.699 z M 435.98,223.039 375.469,35.5 c -1.84,-5.6602 -7.071,-9.4883 -13.008,-9.4883 l -272.4219,0 c -5.9805,0 -11.168,3.8281 -13.0078,9.4883 L 17.3008,220.621 c -3.0391,9.488 -0.7813,19.488 6.0586,26.828 5.082,5.391 11.8398,8.321 18.8711,8.321 2.1093,0 4.25,-0.27 6.3593,-0.782 15.3907,-3.859 29.7696,-11.437 41.7618,-21.91 0,-0.387 0.0781,-0.738 0.1172,-1.129 0.2304,-3.558 0.5507,-7.027 1.0507,-10.277 0.9414,-6.293 1.8399,-12.582 2.7813,-18.942 C 101.02,156.711 107.93,109.09 125.781,65.9297 l 0.629,-1.4805 c 0.93,-2.2695 2.031,-4.8906 3.238,-7.539 0.313,-0.6719 0.582,-1.2891 0.903,-1.961 0.429,-0.8906 0.898,-1.75 1.359,-2.6484 0.43,-0.7813 0.789,-1.6016 1.25,-2.3789 0.43,-0.8321 0.981,-1.5703 1.449,-2.3516 0.551,-0.8594 1.012,-1.7187 1.602,-2.5 0.469,-0.6992 1.059,-1.289 1.559,-1.9492 0.628,-0.7813 1.25,-1.6406 1.96,-2.3828 0.54,-0.5899 1.168,-1.0195 1.75,-1.5274 0.75,-0.6601 1.45,-1.4023 2.27,-1.9492 0.629,-0.4336 1.371,-0.7031 2.031,-1.0625 0.86,-0.4297 1.641,-0.9687 2.539,-1.25 0.739,-0.2695 1.602,-0.3086 2.379,-0.4609 0.86,-0.1602 1.68,-0.4297 2.582,-0.4688 l 0.391,0 c 0,0 0,0 0.039,0 l 1.641,0 2.308,0.6211 c 12.93,5.4688 17.77,17.9297 20.969,26.168 2.191,5.5508 4.101,11.2109 6.019,16.8398 4.653,13.6329 9.063,26.5236 16.832,37.9726 3.79,5.508 13.79,18.008 26.532,18.438 0.578,0 1.168,0 1.758,-0.039 1.441,-0.122 2.89,-0.391 4.332,-0.86 0.429,-0.121 0.898,-0.281 1.328,-0.43 1.601,-0.589 3.199,-1.289 4.8,-2.23 3.25,-1.949 5.942,-4.371 8.211,-7.148 0.821,-1.012 1.559,-2.153 2.258,-3.243 0.281,-0.429 0.59,-0.781 0.86,-1.25 4.73,-7.847 7.312,-17.769 10,-28.0504 1.25,-4.8398 2.5,-9.6367 3.992,-14.0977 0.738,-2.3398 1.519,-4.6523 2.34,-6.9101 0.078,-0.2422 0.16,-0.4727 0.23,-0.711 0.789,-2.1406 1.57,-4.2109 2.391,-6.2812 0.148,-0.3867 0.308,-0.8203 0.508,-1.2188 0.781,-1.9492 1.601,-3.8203 2.5,-5.621 0.191,-0.4688 0.429,-0.9375 0.621,-1.3672 0.898,-1.7618 1.8,-3.4297 2.738,-5.043 0.23,-0.4297 0.461,-0.8203 0.742,-1.207 0.969,-1.5625 1.988,-3.043 3.039,-4.3711 0.238,-0.3086 0.469,-0.5899 0.711,-0.9024 1.129,-1.3281 2.258,-2.539 3.508,-3.5898 0.199,-0.1992 0.43,-0.3594 0.633,-0.5078 1.289,-1.0196 2.609,-1.9219 4.019,-2.5821 0.199,-0.0781 0.391,-0.1601 0.59,-0.2265 1.399,-0.5938 2.891,-1.0625 4.41,-1.2227 0.117,0 0.16,-0.0273 0.27,-0.0703 2.23,-0.2383 4.418,0.043 6.488,0.7422 5.699,1.5195 10.902,6.1289 15.43,14.0977 10.191,17.8515 14.531,37.5 18.672,56.5192 l 1.488,6.571 c 1.48,6.64 3.121,13.472 4.762,20.429 0.937,3.903 1.679,8.043 2.269,13 0.149,0.711 0.352,1.41 0.5,2.071 0.469,2.07 0.942,4.113 1.449,6.179 0.27,1.211 0.551,2.422 0.821,3.633 0.699,3.199 1.441,6.399 2.109,9.649 0.039,0.07 0.039,0.152 0.082,0.23 0.777,3.711 1.52,7.422 2.219,11.129 0,0.121 0.039,0.242 0.082,0.359 0.668,3.633 1.328,7.262 1.918,10.891 0,0.199 0.031,0.359 0.07,0.551 1.801,11.211 3.09,22.5 3.52,33.672 0,0.507 0.039,1.019 0.039,1.527 0.121,3.551 0.16,7.07 0.082,10.621 l 0,0.199 c 14.719,13.59 33.668,21.051 53.711,21.051 8.668,0 16.558,-4.02 21.636,-11.012 5.082,-7 6.481,-15.707 3.832,-23.949 z" /><path
         id="path32"
         style="fill:#000000;fill-opacity:1;fill-rule:nonzero;stroke:none"
         d="m 338.16,226.012 c 0,-4.422 -3.59,-8.012 -8,-8.012 -4.422,0 -7.969,3.59 -7.969,8.012 0,4.41 3.547,8.008 7.969,8.008 4.41,0 8,-3.598 8,-8.008 z" /><path
         id="path34"
         style="fill:#000000;fill-opacity:1;fill-rule:nonzero;stroke:none"
         d="m 330.16,194.02 c 0,-4.418 -3.558,-8.008 -7.969,-8.008 -4.461,0 -8.011,3.59 -8.011,8.008 0,4.41 3.55,8 8.011,8 4.411,0 7.969,-3.59 7.969,-8 z" /><path
         id="path36"
         style="fill:#000000;fill-opacity:1;fill-rule:nonzero;stroke:none"
         d="m 322.191,162.02 c 0,-4.45 -3.601,-8 -8.011,-8 -4.41,0 -8.008,3.55 -8.008,8 0,4.421 3.598,7.968 8.008,7.968 4.41,0 8.011,-3.547 8.011,-7.968 z" /><path
         id="path38"
         style="fill:#000000;fill-opacity:1;fill-rule:nonzero;stroke:none"
         d="m 314.18,129.988 c 0,-4.41 -3.59,-7.968 -8.008,-7.968 -4.41,0 -8.012,3.558 -8.012,7.968 0,4.422 3.602,8.012 8.012,8.012 4.418,0 8.008,-3.59 8.008,-8.012 z" /><path
         id="path40"
         style="fill:#000000;fill-opacity:1;fill-rule:nonzero;stroke:none"
         d="m 306.172,98 c 0,-4.4102 -3.594,-8.0117 -8.012,-8.0117 -4.41,0 -8,3.6015 -8,8.0117 0,4.422 3.59,8.012 8,8.012 4.418,0 8.012,-3.59 8.012,-8.012 z" /><path
         id="path42"
         style="fill:#000000;fill-opacity:1;fill-rule:nonzero;stroke:none"
         d="m 298.16,146.012 c 0,-4.422 -3.59,-8.012 -8,-8.012 -4.422,0 -7.969,3.59 -7.969,8.012 0,4.41 3.547,8.008 7.969,8.008 4.41,0 8,-3.598 8,-8.008 z" /><path
         id="path44"
         style="fill:#000000;fill-opacity:1;fill-rule:nonzero;stroke:none"
         d="m 306.172,178 c 0,-4.41 -3.594,-8.012 -8.012,-8.012 -4.41,0 -8,3.602 -8,8.012 0,4.422 3.59,8.012 8,8.012 4.418,0 8.012,-3.59 8.012,-8.012 z" /><path
         id="path46"
         style="fill:#000000;fill-opacity:1;fill-rule:nonzero;stroke:none"
         d="m 314.18,209.988 c 0,-4.41 -3.59,-7.968 -8.008,-7.968 -4.41,0 -8.012,3.558 -8.012,7.968 0,4.422 3.602,8.012 8.012,8.012 4.418,0 8.008,-3.59 8.008,-8.012 z" /></g></g></svg>