<?xml version="1.0" encoding="UTF-8" standalone="no"?>
<svg
   xmlns:dc="http://purl.org/dc/elements/1.1/"
   xmlns:cc="http://creativecommons.org/ns#"
   xmlns:rdf="http://www.w3.org/1999/02/22-rdf-syntax-ns#"
   xmlns:svg="http://www.w3.org/2000/svg"
   xmlns="http://www.w3.org/2000/svg"
   viewBox="0 0 60 60"
   height="60"
   width="60"
   xml:space="preserve"
   version="1.1"
   id="svg2"><metadata
     id="metadata8"><rdf:RDF><cc:Work
         rdf:about=""><dc:format>image/svg+xml</dc:format><dc:type
           rdf:resource="http://purl.org/dc/dcmitype/StillImage" /><dc:title></dc:title></cc:Work></rdf:RDF></metadata><defs
     id="defs6" /><g
     transform="matrix(1.25,0,0,-1.25,0,60)"
     id="g10"><g
       transform="matrix(0.10601489,0,0,0.1060155,2.20125,-1.0613954)"
       id="g12"><path
         id="path14"
         style="fill:#000000;fill-opacity:1;fill-rule:nonzero;stroke:none"
         d="m 403.441,377.551 c -6.531,24.758 -25.711,48.398 -53.953,66.519 -34.758,22.34 -83.976,24.879 -128.359,6.489 l -1.438,-0.59 c -0.781,-0.348 -1.531,-0.699 -2.351,-0.981 -3.711,-1.289 -6.602,-2.379 -8.899,-3.277 -7.39,-2.852 -7.39,-2.891 -19.531,0.699 -34.691,10.238 -78.832,20.43 -112.6991,8.442 C 30.3906,438.602 -10.2695,384.809 2.30078,301.34 3.82813,291.449 5.23047,281.488 6.71875,271.449 17.2305,199.34 28.0508,124.77 55.9414,57.3906 l 0.9688,-2.3008 C 63.8281,38.2109 75.4297,10.0117 95.5898,10.0117 l 1.6407,0 1.4804,0.6172 c 18.5191,7.8516 25.4691,25.6328 30.5081,38.6016 3.402,8.75 6.441,17.6914 9.371,26.289 3.871,11.3594 7.66,22.3789 12.148,32.9295 10.16,-20.6677 30.903,-54.3787 58.321,-54.3787 3.211,0 6.531,0.4688 9.921,1.4492 18.051,5.3516 27.071,23.9805 33.68,37.5703 l 0.539,1.1016 c 1.371,2.8477 3.129,6.1676 5.039,9.7186 1.922,3.602 3.992,7.578 6.063,11.68 1.988,-6.442 3.75,-13.078 5.429,-19.6408 1.911,-7.3086 3.899,-14.8906 6.168,-21.9609 9.692,-29.7969 22.301,-60.5781 42.153,-62.6094 10.347,-1.0195 20.109,6.0117 28.711,21.0508 15.66,27.4609 22.418,58.0898 28.898,87.6603 l 2.27,10.351 c 2.582,11.438 5.429,23.239 8.32,35.309 16.371,67.93 34.879,144.879 17.191,211.801 z M 244.102,111.41 c -1.993,-3.75 -3.832,-7.219 -5.313,-10.23 l -0.508,-1.09 C 232.699,88.5586 225.699,74.2305 214.449,70.8711 187.809,62.8594 163.32,118.91 160.621,125.281 L 159.879,127 c 0.859,1.48 1.68,2.852 2.5,4.219 1.062,1.722 2.152,3.441 3.281,5.16 0.629,0.851 1.289,1.793 2,2.769 10.86,14.84 35.461,40.473 66.442,22.032 2.578,-1.52 4.918,-3.282 7.07,-5.16 0.816,-0.7 1.558,-1.52 2.348,-2.258 1.25,-1.211 2.46,-2.422 3.589,-3.75 1.051,-1.25 2.071,-2.582 3.051,-3.992 0.621,-0.891 1.289,-1.75 1.871,-2.692 1.289,-1.988 2.539,-4.098 3.707,-6.406 0.121,-0.231 0.242,-0.473 0.352,-0.66 -3.121,-8.203 -7.809,-16.992 -11.988,-24.852 z m 126.597,58.09 c -2.929,-12.148 -5.777,-24.059 -8.359,-35.551 l -2.301,-10.429 c -6.25,-28.4302 -12.699,-57.8091 -27.187,-83.1606 -4.84,-8.5508 -9.692,-13.2383 -13.161,-13.0899 -3.671,0.3907 -13.793,6.1797 -28.562,51.6797 -2.149,6.6094 -3.981,13.6016 -5.899,21.0196 -6.32,24.1792 -13.39,51.1722 -33.941,68.5112 -0.078,0.079 -0.16,0.122 -0.199,0.161 -2.692,2.269 -5.621,4.379 -8.789,6.289 -30.539,18.16 -64.961,6.84 -89.84,-29.532 -1.41,-2.027 -2.77,-4.179 -4.18,-6.519 -11.293,-18.559 -18.16,-38.641 -24.84,-58.1681 -2.851,-8.4804 -5.863,-17.2304 -9.14,-25.6601 C 109.18,41.9219 104.379,31.3398 94.2188,26.1797 85.1602,28.4492 75.4297,52 71.6797,61.1406 l -0.9805,2.3789 C 43.5898,129.031 32.8906,202.629 22.5391,273.762 c -1.4883,10.039 -2.9297,20.039 -4.418,29.918 -8.082,53.711 8.3984,116.558 63.4375,136.09 8.9531,3.171 19.1014,4.46 29.7304,4.46 24.449,0 51.441,-6.8 72.191,-12.89 51.399,-29.18 51.399,-41.84 51.168,-94.031 l 0,-10.539 c 0,-4.461 3.551,-8.008 8.012,-8.008 4.41,0 7.961,3.547 7.961,8.008 l 0.039,10.5 c 0.199,45.75 0.121,67.308 -36.441,93.519 2.191,0.859 4.883,1.871 8.359,3.09 1.133,0.43 2.301,0.891 3.473,1.402 l 1.219,0.508 c 39.609,16.371 83.121,14.41 113.589,-5.16 24.84,-16.008 41.602,-36.289 47.11,-57.18 16.679,-63.008 -1.367,-137.89 -17.27,-203.949 z" /><path
         id="path16"
         style="fill:#000000;fill-opacity:1;fill-rule:nonzero;stroke:none"
         d="m 128.238,358.762 c 0,-4.422 -3.59,-8.012 -8.008,-8.012 -4.41,0 -8,3.59 -8,8.012 0,4.41 3.59,7.968 8,7.968 4.418,0 8.008,-3.558 8.008,-7.968 z" /><path
         id="path18"
         style="fill:#000000;fill-opacity:1;fill-rule:nonzero;stroke:none"
         d="m 112.23,342.738 c 0,-4.41 -3.558,-8.008 -7.968,-8.008 -4.4612,0 -8.012,3.598 -8.012,8.008 0,4.422 3.5508,8.012 8.012,8.012 4.41,0 7.968,-3.59 7.968,-8.012 z" /><path
         id="path20"
         style="fill:#000000;fill-opacity:1;fill-rule:nonzero;stroke:none"
         d="m 112.23,310.75 c 0,-4.41 -3.558,-8.012 -7.968,-8.012 -4.4612,0 -8.012,3.602 -8.012,8.012 0,4.41 3.5508,8.012 8.012,8.012 4.41,0 7.968,-3.602 7.968,-8.012 z" /><path
         id="path22"
         style="fill:#000000;fill-opacity:1;fill-rule:nonzero;stroke:none"
         d="m 48.2383,310.75 c 0,-4.41 -3.5899,-8.012 -8.0078,-8.012 -4.4102,0 -8,3.602 -8,8.012 0,4.41 3.5898,8.012 8,8.012 4.4179,0 8.0078,-3.602 8.0078,-8.012 z" /><path
         id="path24"
         style="fill:#000000;fill-opacity:1;fill-rule:nonzero;stroke:none"
         d="m 144.262,342.738 c 0,-4.41 -3.602,-8.008 -8.012,-8.008 -4.41,0 -8.012,3.598 -8.012,8.008 0,4.422 3.602,8.012 8.012,8.012 4.41,0 8.012,-3.59 8.012,-8.012 z" /><path
         id="path26"
         style="fill:#000000;fill-opacity:1;fill-rule:nonzero;stroke:none"
         d="m 160.23,358.762 c 0,-4.422 -3.589,-8.012 -8,-8.012 -4.421,0 -7.968,3.59 -7.968,8.012 0,4.41 3.547,7.968 7.968,7.968 4.411,0 8,-3.558 8,-7.968 z" /><path
         id="path28"
         style="fill:#000000;fill-opacity:1;fill-rule:nonzero;stroke:none"
         d="m 128.238,390.75 c 0,-4.41 -3.59,-8.012 -8.008,-8.012 -4.41,0 -8,3.602 -8,8.012 0,4.41 3.59,8.012 8,8.012 4.418,0 8.008,-3.602 8.008,-8.012 z" /><path
         id="path30"
         style="fill:#000000;fill-opacity:1;fill-rule:nonzero;stroke:none"
         d="m 112.23,374.73 c 0,-4.41 -3.558,-8 -7.968,-8 -4.4612,0 -8.012,3.59 -8.012,8 0,4.418 3.5508,8.008 8.012,8.008 4.41,0 7.968,-3.59 7.968,-8.008 z" /><path
         id="path32"
         style="fill:#000000;fill-opacity:1;fill-rule:nonzero;stroke:none"
         d="m 144.262,374.73 c 0,-4.41 -3.602,-8 -8.012,-8 -4.41,0 -8.012,3.59 -8.012,8 0,4.418 3.602,8.008 8.012,8.008 4.41,0 8.012,-3.59 8.012,-8.008 z" /><path
         id="path34"
         style="fill:#000000;fill-opacity:1;fill-rule:nonzero;stroke:none"
         d="m 160.23,390.75 c 0,-4.41 -3.589,-8.012 -8,-8.012 -4.421,0 -7.968,3.602 -7.968,8.012 0,4.41 3.547,8.012 7.968,8.012 4.411,0 8,-3.602 8,-8.012 z" /><path
         id="path36"
         style="fill:#000000;fill-opacity:1;fill-rule:nonzero;stroke:none"
         d="m 64.2617,358.762 c 0,-4.422 -3.6015,-8.012 -8.0117,-8.012 -4.4102,0 -8.0117,3.59 -8.0117,8.012 0,4.41 3.6015,7.968 8.0117,7.968 4.4102,0 8.0117,-3.558 8.0117,-7.968 z" /><path
         id="path38"
         style="fill:#000000;fill-opacity:1;fill-rule:nonzero;stroke:none"
         d="m 48.2383,342.738 c 0,-4.41 -3.5899,-8.008 -8.0078,-8.008 -4.4102,0 -8,3.598 -8,8.008 0,4.422 3.5898,8.012 8,8.012 4.4179,0 8.0078,-3.59 8.0078,-8.012 z" /><path
         id="path40"
         style="fill:#000000;fill-opacity:1;fill-rule:nonzero;stroke:none"
         d="m 80.2305,342.738 c 0,-4.41 -3.5899,-8.008 -8,-8.008 -4.4219,0 -7.9688,3.598 -7.9688,8.008 0,4.422 3.5469,8.012 7.9688,8.012 4.4101,0 8,-3.59 8,-8.012 z" /><path
         id="path42"
         style="fill:#000000;fill-opacity:1;fill-rule:nonzero;stroke:none"
         d="m 96.25,358.762 c 0,-4.422 -3.5898,-8.012 -8.0117,-8.012 -4.4102,0 -8.0078,3.59 -8.0078,8.012 0,4.41 3.5976,7.968 8.0078,7.968 4.4219,0 8.0117,-3.558 8.0117,-7.968 z" /><path
         id="path44"
         style="fill:#000000;fill-opacity:1;fill-rule:nonzero;stroke:none"
         d="m 64.2617,390.75 c 0,-4.41 -3.6015,-8.012 -8.0117,-8.012 -4.4102,0 -8.0117,3.602 -8.0117,8.012 0,4.41 3.6015,8.012 8.0117,8.012 4.4102,0 8.0117,-3.602 8.0117,-8.012 z" /><path
         id="path46"
         style="fill:#000000;fill-opacity:1;fill-rule:nonzero;stroke:none"
         d="m 48.2383,374.73 c 0,-4.41 -3.5899,-8 -8.0078,-8 -4.4102,0 -8,3.59 -8,8 0,4.418 3.5898,8.008 8,8.008 4.4179,0 8.0078,-3.59 8.0078,-8.008 z" /><path
         id="path48"
         style="fill:#000000;fill-opacity:1;fill-rule:nonzero;stroke:none"
         d="m 80.2305,374.73 c 0,-4.41 -3.5899,-8 -8,-8 -4.4219,0 -7.9688,3.59 -7.9688,8 0,4.418 3.5469,8.008 7.9688,8.008 4.4101,0 8,-3.59 8,-8.008 z" /><path
         id="path50"
         style="fill:#000000;fill-opacity:1;fill-rule:nonzero;stroke:none"
         d="m 96.25,390.75 c 0,-4.41 -3.5898,-8.012 -8.0117,-8.012 -4.4102,0 -8.0078,3.602 -8.0078,8.012 0,4.41 3.5976,8.012 8.0078,8.012 4.4219,0 8.0117,-3.602 8.0117,-8.012 z" /><path
         id="path52"
         style="fill:#000000;fill-opacity:1;fill-rule:nonzero;stroke:none"
         d="m 96.25,422.738 c 0,-4.41 -3.5898,-8.008 -8.0117,-8.008 -4.4102,0 -8.0078,3.598 -8.0078,8.008 0,4.422 3.5976,8.012 8.0078,8.012 4.4219,0 8.0117,-3.59 8.0117,-8.012 z" /><path
         id="path54"
         style="fill:#000000;fill-opacity:1;fill-rule:nonzero;stroke:none"
         d="m 80.2305,406.73 c 0,-4.421 -3.5899,-7.968 -8,-7.968 -4.4219,0 -7.9688,3.547 -7.9688,7.968 0,4.45 3.5469,8 7.9688,8 4.4101,0 8,-3.55 8,-8 z" /><path
         id="path56"
         style="fill:#000000;fill-opacity:1;fill-rule:nonzero;stroke:none"
         d="m 112.23,406.73 c 0,-4.421 -3.558,-7.968 -7.968,-7.968 -4.4612,0 -8.012,3.547 -8.012,7.968 0,4.45 3.5508,8 8.012,8 4.41,0 7.968,-3.55 7.968,-8 z" /><path
         id="path58"
         style="fill:#000000;fill-opacity:1;fill-rule:nonzero;stroke:none"
         d="m 144.262,406.73 c 0,-4.421 -3.602,-7.968 -8.012,-7.968 -4.41,0 -8.012,3.547 -8.012,7.968 0,4.45 3.602,8 8.012,8 4.41,0 8.012,-3.55 8.012,-8 z" /><path
         id="path60"
         style="fill:#000000;fill-opacity:1;fill-rule:nonzero;stroke:none"
         d="m 128.238,326.73 c 0,-4.421 -3.59,-7.968 -8.008,-7.968 -4.41,0 -8,3.547 -8,7.968 0,4.45 3.59,8 8,8 4.418,0 8.008,-3.55 8.008,-8 z" /><path
         id="path62"
         style="fill:#000000;fill-opacity:1;fill-rule:nonzero;stroke:none"
         d="m 96.25,326.73 c 0,-4.421 -3.5898,-7.968 -8.0117,-7.968 -4.4102,0 -8.0078,3.547 -8.0078,7.968 0,4.45 3.5976,8 8.0078,8 4.4219,0 8.0117,-3.55 8.0117,-8 z" /><path
         id="path64"
         style="fill:#000000;fill-opacity:1;fill-rule:nonzero;stroke:none"
         d="m 80.2305,310.75 c 0,-4.41 -3.5899,-8.012 -8,-8.012 -4.4219,0 -7.9688,3.602 -7.9688,8.012 0,4.41 3.5469,8.012 7.9688,8.012 4.4101,0 8,-3.602 8,-8.012 z" /><path
         id="path66"
         style="fill:#000000;fill-opacity:1;fill-rule:nonzero;stroke:none"
         d="m 64.2617,326.73 c 0,-4.421 -3.6015,-7.968 -8.0117,-7.968 -4.4102,0 -8.0117,3.547 -8.0117,7.968 0,4.45 3.6015,8 8.0117,8 4.4102,0 8.0117,-3.55 8.0117,-8 z" /><path
         id="path68"
         style="fill:#000000;fill-opacity:1;fill-rule:nonzero;stroke:none"
         d="m 128.238,422.738 c 0,-4.41 -3.59,-8.008 -8.008,-8.008 -4.41,0 -8,3.598 -8,8.008 0,4.422 3.59,8.012 8,8.012 4.418,0 8.008,-3.59 8.008,-8.012 z" /></g></g></svg>