<?xml version="1.0" encoding="UTF-8" standalone="no"?><svg xmlns:xlink="http://www.w3.org/1999/xlink" xmlns="http://www.w3.org/2000/svg" viewBox="0 0 60 60" height="60" width="60" xml:space="preserve" version="1.1" id="svg2"><g transform="matrix(1.25,0,0,-1.25,0,60)" id="g10"><g transform="matrix(0.1,0,0,0.1,0.80001846,0)" id="g12"><path id="path14" d="m 434.141,263.98 -17.969,0 c -35.352,0 -67.731,-19.921 -84.102,-50.621 -4.218,6.563 -9.058,12.731 -14.648,18.36 -7.582,7.66 -15.742,19.179 -24.41,31.402 C 273.16,291.09 252.699,320 228.012,320 204.02,320 184.301,290.039 165.16,261.051 156.641,248.09 148.551,235.82 141.02,227.77 c -5,-5.348 -9.258,-11.25 -13.129,-17.34 -21.442,33.242 -58.2816,53.55 -98.1605,53.55 -9.6094,0 -18.3594,-4.449 -24.03128,-12.179 -5.621095,-7.781 -7.17969,-17.461 -4.25,-26.602 L 67.4609,20.5898 C 71.4492,8.28125 82.7695,0 95.7383,0 L 368.121,0 c 12.93,0 24.301,8.28125 28.289,20.5898 l 65.969,204.6092 c 2.973,9.141 1.41,18.821 -4.258,26.602 -5.621,7.73 -14.371,12.179 -23.98,12.179 z M 152.73,216.84 c 8.442,9.058 16.879,21.832 25.79,35.39 15.23,23.079 34.14,51.75 49.492,51.75 16.398,0 35.269,-26.601 51.949,-50.109 9.019,-12.781 17.578,-24.851 26.09,-33.441 8.679,-8.711 15.398,-19.02 20.199,-30.16 0.512,-1.168 0.941,-2.34 1.41,-3.551 0.891,-2.379 1.75,-4.809 2.5,-7.27 0.309,-1.09 0.66,-2.148 0.969,-3.238 0.859,-3.281 1.57,-6.602 2.07,-9.961 0.199,-1.129 0.321,-2.27 0.43,-3.398 0.391,-2.891 0.633,-5.743 0.75,-8.633 0,-0.86 0.07,-1.68 0.109,-2.539 0.043,-3.559 -0.109,-7.149 -0.468,-10.7 -0.071,-0.98 -0.192,-1.921 -0.309,-2.859 -0.473,-3.711 -1.051,-7.461 -1.949,-11.133 -1.684,-7.066 -3.321,-13.937 -4.813,-20.66 l -1.48,-6.6366 C 321.371,81.0195 317.5,63.3594 308.52,47.6602 c -3.442,-5.9805 -5.551,-6.8008 -5.508,-6.8399 -0.711,0.1602 -6.492,2.3399 -15.711,30.8203 -1.36,4.2188 -2.531,8.668 -3.711,13.1992 -4.68,17.9692 -10,38.3202 -28.629,49.4222 -20.859,12.418 -44.223,4.879 -61.012,-19.653 -9.027,-13.199 -13.988,-27.7301 -18.75,-41.8004 -1.84,-5.4297 -3.719,-10.8594 -5.789,-16.207 -2.93,-7.461 -5.461,-13.1602 -10.308,-16.1719 -1.801,1.1719 -5.352,5.5117 -11.372,20.1211 l -0.621,1.5195 c -7.699,18.5899 -13.988,39.9997 -19.257,65.4687 -0.743,3.59 -1.211,7.191 -1.563,10.781 -0.078,0.821 -0.16,1.68 -0.199,2.5 -0.27,3.52 -0.391,7.071 -0.27,10.551 0,0.539 0.078,1.051 0.121,1.559 0.11,2.929 0.43,5.82 0.821,8.672 0.148,1.25 0.347,2.457 0.539,3.668 0.429,2.582 1.019,5.121 1.648,7.66 0.582,2.148 1.211,4.3 1.91,6.449 0.43,1.242 0.821,2.5 1.289,3.711 0.743,1.988 1.524,4.019 2.383,5.969 4.449,10.121 10.508,19.531 18.199,27.781 z M 447.191,230.121 381.172,25.4688 c -1.832,-5.668 -7.07,-9.4493 -13.051,-9.4493 l -272.3827,0 c -5.9688,0 -11.207,3.7813 -13.0391,9.4493 L 16.6797,230.121 c -1.3711,4.219 -0.6289,8.668 1.9922,12.258 2.5781,3.562 6.6367,5.633 11.0586,5.633 36.6406,0 70.3475,-19.891 88.1605,-51.961 0.269,-0.973 0.589,-1.949 0.859,-2.93 -0.66,-1.562 -1.129,-3.199 -1.719,-4.762 -0.66,-1.91 -1.332,-3.789 -1.953,-5.699 -0.508,-1.719 -1.019,-3.398 -1.488,-5.121 -0.891,-3.48 -1.68,-6.918 -2.262,-10.43 -0.156,-1.019 -0.277,-2.031 -0.387,-3.05 -0.472,-3.399 -0.82,-6.789 -0.98,-10.188 -0.039,-0.781 -0.121,-1.531 -0.121,-2.269 -0.149,-4.063 -0.039,-8.122 0.281,-12.192 0.078,-0.859 0.149,-1.711 0.231,-2.57 0.386,-4.18 0.937,-8.36 1.796,-12.539 5.512,-26.4924 12.071,-48.8322 20.192,-68.3596 l 0.59,-1.4922 c 4.691,-11.3984 12.5,-30.4687 27.3,-30.4687 l 1.61,0 1.519,0.6679 c 12.891,5.4297 17.731,17.8907 20.942,26.1329 2.179,5.5898 4.097,11.207 6.008,16.8398 4.652,13.668 9.07,26.5586 16.839,37.9689 0.903,1.289 2.032,2.851 3.364,4.449 7.148,8.711 20.347,19.922 36.25,10.43 13.008,-7.699 17.027,-23.2385 21.328,-39.6877 1.289,-4.8399 2.531,-9.6094 3.98,-14.1016 6.45,-19.8399 14.961,-40.3516 29.258,-41.8008 7.891,-0.8203 15,4.1797 21.094,14.8516 10.156,17.8086 14.488,37.5 18.668,56.5195 l 1.449,6.559 c 1.481,6.64 3.121,13.441 4.801,20.429 0.672,2.742 1.18,5.512 1.64,8.321 0.122,0.742 0.2,1.531 0.321,2.312 0.308,2.07 0.539,4.18 0.738,6.25 0.082,0.82 0.121,1.598 0.16,2.418 0.153,2.231 0.231,4.41 0.27,6.641 0,0.621 0,1.211 0,1.84 0,5.82 -0.469,11.64 -1.367,17.339 -0.043,0.27 -0.122,0.551 -0.153,0.821 -0.398,2.539 -0.898,5.082 -1.488,7.582 -0.121,0.578 -0.27,1.129 -0.391,1.679 -0.59,2.379 -1.25,4.68 -1.992,7.028 -0.117,0.429 -0.238,0.859 -0.387,1.332 -0.902,2.769 -1.882,5.5 -2.972,8.16 l 0.472,2.187 c 11.68,30.43 41.329,50.864 73.981,50.864 l 17.969,0 c 4.41,0 8.48,-2.071 11.058,-5.633 2.61,-3.59 3.321,-8.039 1.992,-12.258 z"/><path id="path16" d="m 456.02,398.051 -113.051,0 c -52.699,0 -102.231,20.539 -139.489,57.769 l -21.8,21.84 c -0.039,0 -0.039,0 -0.039,0.039 -0.661,0.66 -1.442,1.129 -2.262,1.52 -0.238,0.121 -0.469,0.16 -0.707,0.269 -0.742,0.242 -1.481,0.391 -2.223,0.434 -0.16,0 -0.277,0.078 -0.429,0.078 L 80,480 c -4.4102,0 -7.9687,-3.59 -7.9687,-8.012 l 0,-95.968 c 0,-28.168 20.8984,-51.489 47.9687,-55.399 l 0,-26.832 c -4.73,-2.769 -7.969,-7.891 -7.969,-13.789 0,-8.828 7.149,-16.02 15.981,-16.02 8.828,0 16.008,7.192 16.008,16.02 0,5.898 -3.239,11.02 -8,13.789 l 0,26.832 c 27.101,3.91 48,27.231 48,55.399 l 0,11.21 c 38.48,-33.949 88.871,-53.171 140.82,-53.171 l 131.18,0 c 4.41,0 8,3.601 8,8.011 l 0,48.008 c 0,4.41 -3.59,7.973 -8,7.973 z m -67.071,-47.973 -15.98,31.992 26.41,0 18.711,-31.992 -29.141,0 z m -33.871,31.992 15.973,-31.992 -30.071,0 -16.449,32.813 c 6.09,-0.512 12.27,-0.821 18.438,-0.821 l 12.109,0 z m -187.066,81.91 0,-7.96 -15.981,0 c -4.41,0 -8.011,-3.598 -8.011,-8.008 0,-4.422 3.601,-8.012 8.011,-8.012 l 15.981,0 0,-48.012 -80.0003,0 0,48.012 16.0083,0 c 4.421,0 8.011,3.59 8.011,8.012 0,4.41 -3.59,8.008 -8.011,8.008 l -16.0083,0 0,7.96 80.0003,0 z m -40,-127.96 c -22.032,0 -40.0003,17.929 -40.0003,40 l 80.0003,0 c 0,-22.071 -17.934,-40 -40,-40 z m 56.008,116.679 8.171,-8.168 c 31.25,-31.293 70.539,-51.562 113.2,-59.14 l 17.66,-35.27 c -52.352,0.469 -102.852,21.91 -139.031,59.098 l 0,43.48 z m 263.992,-102.621 -11.41,0 -18.711,31.992 30.121,0 0,-31.992 z"/></g></g></svg>
