<?xml version="1.0" encoding="UTF-8" standalone="no"?>
<svg
   xmlns:dc="http://purl.org/dc/elements/1.1/"
   xmlns:cc="http://creativecommons.org/ns#"
   xmlns:rdf="http://www.w3.org/1999/02/22-rdf-syntax-ns#"
   xmlns:svg="http://www.w3.org/2000/svg"
   xmlns="http://www.w3.org/2000/svg"
   viewBox="0 0 60 60"
   height="60"
   width="60"
   xml:space="preserve"
   version="1.1"
   id="svg2"><metadata
     id="metadata8"><rdf:RDF><cc:Work
         rdf:about=""><dc:format>image/svg+xml</dc:format><dc:type
           rdf:resource="http://purl.org/dc/dcmitype/StillImage" /><dc:title></dc:title></cc:Work></rdf:RDF></metadata><defs
     id="defs6" /><g
     transform="matrix(1.25,0,0,-1.25,0,60)"
     id="g10"><g
       transform="matrix(0.10682543,0,0,0.10682512,0.976,-1.0703343)"
       id="g12"><path
         id="path14"
         style="fill:#000000;fill-opacity:1;fill-rule:nonzero;stroke:none"
         d="m 429.34,447.629 c -7.461,7.461 -19.031,11.723 -31.719,11.723 -12.742,0 -24.262,-4.262 -31.723,-11.723 -10.078,-10.07 -15.078,-23.789 -14.019,-38.59 0.66,-9.687 3.902,-19.18 8.902,-26.641 l -59.453,-59.449 -19.418,4.449 c -8.75,2.032 -17.808,-0.589 -24.18,-6.949 L 10.9414,73.6484 C 3.87109,66.6211 0,57.2383 0,47.2813 0,37.3203 3.87109,27.9492 10.9414,20.9102 18.1992,13.6484 27.7695,10.0195 37.3008,10.0195 c 9.5781,0 19.1094,3.6289 26.3711,10.8907 L 330.309,287.52 c 4.691,4.679 6.492,11.601 4.652,17.96 -1.84,6.411 -7.031,11.329 -13.512,12.821 l -1.758,0.39 63.161,63.161 -5.622,5.668 c -5.199,5.152 -8.789,13.82 -9.421,22.609 -0.469,7.191 0.742,17.543 9.421,26.18 8.629,8.632 28.161,9.293 38.43,1.992 l 0,-36.332 c 0,-4.41 3.602,-8.008 8.012,-8.008 4.418,0 8.008,3.598 8.008,8.008 l 0,43.32 -2.34,2.34 z M 107.191,87.0117 88.3203,128.41 107.34,147.441 126.172,105.988 107.191,87.0117 Z M 76.0898,55.9102 57.2695,97.3594 76.25,116.34 95.0781,74.8984 76.0898,55.9102 Z M 52.3789,32.1992 c -8.3203,-8.2773 -21.8281,-8.3203 -30.1484,0 -4.0313,4.0313 -6.211,9.3789 -6.211,15.0821 0,5.6679 2.1797,11.0195 6.211,15.039 L 45.1602,85.25 63.9805,43.8398 52.3789,32.1992 Z M 318.98,298.809 138.238,118.059 119.41,159.512 269.059,309.16 c 1.882,1.91 4.421,2.93 6.992,2.93 0.789,0 1.527,-0.078 2.269,-0.281 l 22.071,-5.079 c 1.058,-0.46 2.148,-0.781 3.281,-0.781 l 14.18,-3.277 c 1.097,-0.231 1.527,-1.012 1.718,-1.602 0.16,-0.59 0.2,-1.441 -0.59,-2.261 z" /></g></g></svg>