<?xml version="1.0" encoding="UTF-8" standalone="no"?><svg xmlns:xlink="http://www.w3.org/1999/xlink" xmlns="http://www.w3.org/2000/svg" viewBox="0 0 60 60" height="60" width="60" xml:space="preserve" version="1.1" id="svg2"><g transform="matrix(1.25,0,0,-1.25,0,60)" id="g10"><g transform="matrix(0.10001369,0,0,0.10001381,3.3927637,-0.9989659)" id="g12"><path id="path14" d="m 151.988,340.93 -10.386,-3.321 c -4.223,-1.328 -6.563,-5.82 -5.192,-10.039 1.051,-3.398 4.211,-5.59 7.61,-5.59 0.781,0 1.601,0.122 2.429,0.391 l 5.539,1.758 0,-31.207 -10.386,-3.32 c -4.223,-1.332 -6.563,-5.821 -5.192,-10.043 1.051,-3.399 4.211,-5.579 7.61,-5.579 0.781,0 1.601,0.11 2.429,0.391 l 5.539,1.75 0,-31.211 -10.386,-3.32 c -4.223,-1.328 -6.563,-5.82 -5.192,-10.039 1.051,-3.391 4.211,-5.582 7.61,-5.582 0.781,0 1.601,0.121 2.429,0.39 l 5.539,1.762 0,-18.133 16.024,0 0,-26.679 28.008,-37.34 23.98,0 28.012,37.34 0,26.679 16.008,0 0,52.891 10.511,3.519 c 4.219,1.403 6.449,5.942 5.078,10.114 -1.41,4.179 -5.937,6.488 -10.121,5.078 l -5.508,-1.828 0,31.129 10.551,3.519 c 4.18,1.399 6.449,5.93 5.039,10.11 -1.371,4.179 -5.898,6.492 -10.121,5.082 l -5.469,-1.84 0,31.136 10.551,3.512 c 3.36,1.102 5.348,4.219 5.348,7.578 l 131.801,0 -0.86,8.793 c -0.781,8.16 -2.031,11.84 -3.48,16.129 -0.699,2.07 -1.481,4.5 -2.418,7.969 -6.563,24.769 -25.703,48.402 -53.942,66.531 -36.101,23.238 -86.492,27.07 -128.32,9.762 l -1.531,-0.66 c -0.777,-0.321 -1.52,-0.672 -2.301,-0.942 -3.707,-1.289 -6.558,-2.379 -8.906,-3.281 -7.383,-2.891 -7.344,-2.891 -19.531,0.699 -25.942,7.66 -75.121,18.524 -112.6605,5.203 C 31.7617,463.898 6.41016,429.719 2.37891,378.621 l -0.69922,-8.633 150.30831,0 0,-29.058 z M 19.2617,386.012 c 5.4688,39.918 26.3985,65.859 63.7891,79.097 34.5702,12.231 83.4292,0.231 102.8472,-5.468 15.903,-4.692 18.442,-4.731 29.84,-0.27 2.192,0.859 4.852,1.867 8.321,3.078 1.14,0.391 2.269,0.86 3.441,1.371 l 1.25,0.551 c 37.191,15.391 81.762,12.07 113.59,-8.402 24.89,-15.981 41.609,-36.289 47.148,-57.188 1.024,-3.91 1.961,-6.601 2.742,-8.941 0.469,-1.41 0.86,-2.578 1.211,-3.828 l -145.429,0 0,-15.59 -18.524,-6.172 c -4.218,-1.41 -6.476,-5.941 -5.078,-10.121 1.141,-3.359 4.262,-5.469 7.621,-5.469 0.821,0 1.68,0.121 2.5,0.391 l 13.481,4.5 0,-31.141 -18.524,-6.172 c -4.179,-1.398 -6.437,-5.937 -5.039,-10.117 1.102,-3.359 4.223,-5.461 7.582,-5.461 0.821,0 1.68,0.11 2.539,0.391 l 13.442,4.488 0,-31.129 -18.524,-6.18 c -4.179,-1.402 -6.437,-5.929 -5.039,-10.109 1.102,-3.359 4.223,-5.473 7.582,-5.473 0.821,0 1.68,0.114 2.539,0.391 l 13.481,4.492 0,-31.562 -16.02,0 0,-37.348 -20,-26.641 -8.011,0 -20,26.641 0,37.391 -15.969,0 0,7.218 34.41,10.899 c 4.219,1.371 6.519,5.859 5.199,10.082 -1.332,4.18 -5.859,6.519 -10.039,5.199 l -29.57,-9.422 0,31.211 34.41,10.942 c 4.219,1.328 6.519,5.82 5.199,10.039 -1.332,4.218 -5.859,6.558 -10.039,5.191 l -29.57,-9.371 0,31.211 34.41,10.898 c 4.219,1.371 6.519,5.86 5.199,10.082 -1.332,4.219 -5.859,6.52 -10.039,5.188 l -29.57,-9.41 0,40.043 -148.7893,0 z"/><path id="path16" d="m 408.359,338 -104.339,0 0,-16.02 89.73,0 c 3.238,-49.492 -9.02,-97.57 -20.941,-144.14 -3.668,-14.371 -7.457,-29.219 -10.739,-43.899 L 359.73,123.43 C 353.52,95.0313 347.031,65.6602 332.578,40.3398 327.73,31.8281 322.73,26.7891 319.41,27.2617 c -3.672,0.3867 -13.789,6.168 -28.551,51.6797 -5.078,15.5781 -11.289,35.4686 -18.519,59.1366 -0.11,0.352 -0.192,0.703 -0.352,1.051 l -0.269,1.062 -0.117,-0.043 c -2.582,6.172 -6.723,6.481 -9.84,5.543 l -7.621,-2.261 1.48,-5.2 c -3.672,-10.07 -9.531,-21.871 -13.941,-30.66 l -3.711,-7.5 C 232.379,88.5508 225.43,74.2109 214.18,70.8516 194.02,64.8398 175.551,98.1211 164.488,118 c -1.679,3.051 -3.238,5.82 -4.648,8.199 l -2.649,4.422 -5,-0.391 c -4.07,-0.32 -9.14,-0.71 -38.171,-75.1987 -5.11,-13.1211 -9.918,-23.6719 -20.0708,-28.8711 -9.1094,2.2695 -18.789,25.8593 -22.539,35.039 l -0.9805,2.3516 C 43.3203,129.012 32.6211,202.609 22.2695,273.738 c -1.4882,10.082 -2.9297,20.043 -4.4179,29.961 l -0.5118,3.403 c -1.0898,7.07 -1.4804,9.648 -1.25,14.878 l 95.9412,0 0,16.02 -110.85912,0 -0.582036,-7.379 c -1.019532,-12.781 -0.75,-15.199 0.929686,-25.941 l 0.51172,-3.36 C 3.51953,291.441 4.96094,281.48 6.41016,271.441 16.9102,199.328 27.7695,124.762 55.6211,57.4102 l 0.9805,-2.3008 C 63.5195,38.2305 75.1211,9.98828 95.2695,9.98828 l 1.6407,0 1.4882,0.63282 c 18.5116,7.8477 25.4726,25.6172 30.5116,38.5898 7.61,19.5274 17.692,42.9688 24.059,56.5981 13.59,-24.2192 35.191,-59.2973 65.703,-50.2699 18.047,5.3125 27.066,23.9414 33.668,37.539 l 3.64,7.3439 c 2.11,4.18 4.489,8.988 6.872,14.058 4.808,-15.6206 9.097,-29.1792 12.769,-40.4995 9.688,-29.8086 22.27,-60.5899 42.149,-62.6211 10.468,-1.0586 20.121,6.0117 28.71,21.0508 15.668,27.4609 22.391,58.0117 28.872,87.6208 l 2.308,10.391 c 3.238,14.488 6.988,29.219 10.621,43.476 12.848,50.153 26.098,102.032 20.778,156.872 l -0.7,7.23 z"/></g></g></svg>
