<?xml version="1.0" encoding="UTF-8" standalone="no"?><svg xmlns:xlink="http://www.w3.org/1999/xlink" xmlns="http://www.w3.org/2000/svg" viewBox="0 0 60 60" height="60" width="60" xml:space="preserve" version="1.1" id="svg2"><g transform="matrix(1.25,0,0,-1.25,0,60)" id="g10"><g transform="matrix(0.1,0,0,0.1,3.4651791,0)" id="g12"><path id="path14" d="m 403.441,346.801 c -6.531,24.719 -25.711,48.359 -53.953,66.519 -34.797,22.379 -83.976,24.879 -128.359,6.481 l -1.52,-0.621 c -0.781,-0.352 -1.519,-0.66 -2.269,-0.942 -3.711,-1.289 -6.559,-2.379 -8.899,-3.277 -7.39,-2.891 -7.39,-2.891 -20.203,0.898 l -2.886,0.86 c -6.403,1.832 -13.364,1.761 -19.653,-0.239 l -4.918,-1.558 -15.082,-126.832 15.903,-1.879 13.75,115.82 c 1.878,0.039 3.75,-0.152 5.546,-0.703 l 3.481,-1.019 c 15.93,-4.688 18.473,-4.719 29.84,-0.27 2.191,0.859 4.883,1.871 8.402,3.082 1.09,0.43 2.219,0.899 3.359,1.367 l 1.29,0.551 c 39.609,16.371 83.16,14.41 113.589,-5.16 24.84,-16.008 41.602,-36.289 47.11,-57.18 15.551,-58.679 1.172,-113.75 -14.02,-172.078 -3.988,-15.191 -8.09,-30.891 -11.609,-46.672 l -2.301,-10.429 c -6.25,-28.4419 -12.699,-57.8208 -27.148,-83.1684 -4.879,-8.5118 -9.922,-13.5899 -13.2,-13.0508 -3.671,0.3594 -13.793,6.1797 -28.519,51.6484 -2.192,6.6016 -3.981,13.6289 -5.942,21.0508 -6.281,24.141 -13.351,51.129 -33.941,68.48 -0.078,0.071 -0.16,0.149 -0.238,0.192 -2.653,2.226 -5.5,4.34 -8.672,6.207 -0.039,0 -0.039,0.043 -0.078,0.043 -26.403,15.738 -55.66,9.379 -79.211,-16.133 -3.68,-4.019 -7.231,-8.437 -10.629,-13.398 C 138.59,115.16 130.898,92.5781 123.48,70.7383 120.59,62.2695 117.621,53.4805 114.301,45.0391 109.18,31.9102 104.379,21.3711 94.2188,16.2109 c -9.0586,2.2305 -18.7891,25.8204 -22.5391,35 l -0.9414,2.3399 C 39.9609,127.809 30.4688,191.09 18.3984,271.211 l -0.2382,1.758 C 10.0781,326.48 26.4492,389.141 81.25,408.91 l 0.4297,0.11 c 4.5312,1.57 9.6914,0.468 13.6289,-2.692 L 82.1484,295.469 98.0508,293.59 112.07,411.719 l -2.23,2.66 c -8.199,9.762 -21.4806,13.711 -33.0392,9.922 l -0.5899,-0.199 C 30.3906,407.852 -10.2695,354.059 2.30078,270.59 l 0.27735,-1.801 C 14.8008,187.621 24.4492,123.48 55.9414,47.4219 l 0.9688,-2.3438 C 63.8281,28.2383 75.3906,0 95.5898,0 l 1.6407,0 1.4804,0.621094 C 117.23,8.48047 124.141,26.25 129.219,39.2188 c 3.402,8.7929 6.441,17.6914 9.41,26.332 3.871,11.3281 7.621,22.3398 12.109,32.8906 10.16,-20.6719 30.942,-54.3828 58.321,-54.3828 3.242,0 6.531,0.4727 9.921,1.4922 18.051,5.3086 27.071,23.9375 33.68,37.539 l 0.539,1.0899 c 1.371,2.8516 3.172,6.1719 5.039,9.7305 1.922,3.5898 4.032,7.5698 6.063,11.6798 1.988,-6.4494 3.75,-13.09 5.469,-19.6486 1.91,-7.3125 3.859,-14.8906 6.171,-21.9609 9.68,-29.8008 22.258,-60.58206 42.11,-62.60941 10.621,-1.062496 20.148,6.00782 28.711,21.05081 15.699,27.457 22.418,58.0898 28.898,87.6561 l 2.309,10.352 c 3.48,15.511 7.5,31.09 11.441,46.129 15.039,57.781 30.629,117.5 14.031,180.242 z M 244.102,101.41 c -1.993,-3.7498 -3.832,-7.2303 -5.313,-10.2381 l -0.508,-1.0938 C 232.66,78.5508 225.699,64.2188 214.449,60.8594 187.809,52.8906 163.32,108.91 160.621,115.309 l -0.699,1.679 c 0.859,1.563 1.719,2.973 2.539,4.383 0.859,1.399 1.758,2.77 2.66,4.18 0.188,0.23 0.391,0.539 0.539,0.82 8.399,12.258 29.219,37.109 56.41,29.957 3.91,-1.019 7.891,-2.699 12.032,-5.156 2.578,-1.524 4.918,-3.281 7.109,-5.152 0.738,-0.668 1.449,-1.411 2.187,-2.149 1.293,-1.25 2.582,-2.543 3.75,-3.91 1.012,-1.211 1.954,-2.5 2.93,-3.832 0.66,-0.93 1.371,-1.867 1.992,-2.848 1.25,-1.953 2.461,-4.019 3.59,-6.25 0.16,-0.269 0.32,-0.551 0.43,-0.781 -3.121,-8.199 -7.809,-16.988 -11.988,-24.84 z"/><path id="path16" d="m 106.641,423.98 23.007,0 -26.019,-223.98 -20.9688,0 0,-16.02 19.1018,0 -0.942,-7.96 -19.8395,0 0,-16.02 17.9687,0 -0.8984,-8.012 -18.75,0 0,-15.968 16.8711,0 -0.9414,-8.008 -17.6094,0 0,-16.024 15.7773,0 -0.9375,-8.008 -16.5195,0 0,-15.9683 14.6484,0 -3.6015,-31.1015 c -0.5078,-4.3711 2.6211,-8.3594 7.0312,-8.8594 0.2813,-0.0391 0.5899,-0.0391 0.9024,-0.0391 4.0273,0 7.4571,3.0078 7.9301,7.0664 l 3.828,32.9336 17.269,0 0,15.9683 -15.398,0 0.937,8.008 16.133,0 0,16.024 -14.293,0 0.942,8.008 15,0 0,15.968 -13.168,0 0.937,8.012 13.91,0 0,16.02 -12.039,0 0.942,7.96 12.769,0 0,16.02 -10.93,0 26.09,223.98 24.879,0 0,40 7.969,0 0,16.02 -80.0001,0 0,-16.02 8.0121,0 0,-40 z m 48.007,40 0,-23.98 -31.988,0 0,23.98 31.988,0 z"/></g></g></svg>
