<?xml version="1.0" encoding="UTF-8" standalone="no"?><svg xmlns:xlink="http://www.w3.org/1999/xlink" xmlns="http://www.w3.org/2000/svg" viewBox="0 0 60 60" height="60" width="60" xml:space="preserve" version="1.1" id="svg2"><g transform="matrix(1.25,0,0,-1.25,0,60)" id="g10"><g transform="matrix(0.10601294,0,0,0.10601383,2.20125,-1.0601383)" id="g12"><path id="path14" d="m 403.441,377.539 c -6.562,24.731 -25.711,48.359 -53.953,66.531 -34.797,22.379 -83.976,24.84 -128.398,6.481 l -1.399,-0.582 c -0.781,-0.36 -1.531,-0.707 -2.351,-0.981 -3.711,-1.289 -6.602,-2.379 -8.899,-3.277 -7.39,-2.891 -7.39,-2.852 -19.531,0.699 -34.691,10.238 -78.832,20.43 -112.6991,8.442 C 30.3906,438.602 -10.2695,384.809 2.30078,301.328 3.78906,291.449 5.23047,281.488 6.71875,271.449 17.1914,199.34 28.0508,124.77 55.9414,57.4297 l 0.9688,-2.3086 C 63.8281,38.25 75.4297,10 95.5898,10 l 1.6407,0 1.4804,0.6289 c 18.5191,7.8516 25.4301,25.6211 30.5081,38.5899 3.402,8.75 6.441,17.7031 9.371,26.332 3.871,11.3281 7.66,22.3476 12.148,32.8902 10.16,-20.6597 30.903,-54.3707 58.321,-54.3707 3.211,0 6.531,0.4297 9.921,1.4414 18.008,5.3477 27.071,23.9883 33.68,37.5781 l 0.539,1.0899 c 1.371,2.8594 3.172,6.1793 5.039,9.7693 1.922,3.551 3.992,7.539 6.063,11.641 1.988,-6.442 3.75,-13.09 5.469,-19.6916 1.91,-7.2968 3.859,-14.8398 6.171,-21.9101 9.649,-29.8086 22.219,-60.5899 42.11,-62.6172 10.469,-1.0898 20.148,6.0195 28.711,21.0586 15.66,27.4609 22.379,58.0391 28.898,87.6093 l 2.309,10.391 c 2.543,11.449 5.39,23.25 8.281,35.32 16.371,67.93 34.879,144.879 17.191,211.789 z m -159.3,-266.09 c -2.032,-3.789 -3.871,-7.269 -5.352,-10.269 l -0.551,-1.102 C 232.66,88.5586 225.699,74.1797 214.41,70.8594 c -26.558,-8 -51.129,48.0116 -53.82,54.4216 L 159.879,127 c 0.859,1.52 1.68,2.891 2.5,4.219 1.062,1.711 2.109,3.472 3.281,5.152 9.57,13.988 35.43,44.488 68.442,24.809 2.578,-1.532 4.878,-3.282 7.07,-5.16 0.777,-0.661 1.527,-1.481 2.269,-2.231 1.289,-1.211 2.539,-2.461 3.668,-3.789 1.051,-1.25 2.032,-2.57 3.012,-3.941 0.66,-0.899 1.289,-1.797 1.91,-2.739 1.289,-1.992 2.5,-4.101 3.668,-6.32 0.121,-0.281 0.281,-0.512 0.391,-0.75 -3.121,-8.199 -7.77,-16.949 -11.949,-24.801 z M 370.699,169.5 c -2.929,-12.148 -5.777,-24.031 -8.359,-35.551 l -2.301,-10.469 c -6.25,-28.4409 -12.699,-57.8081 -27.187,-83.1206 -4.84,-8.5586 -9.801,-13.25 -13.161,-13.0899 -3.671,0.3907 -13.793,6.1719 -28.562,51.6797 -2.149,6.6016 -3.981,13.5899 -5.899,21.0196 -6.32,24.1792 -13.39,51.1722 -33.98,68.5112 -0.039,0.079 -0.121,0.122 -0.199,0.161 -2.692,2.257 -5.582,4.371 -8.75,6.289 -30.539,18.16 -64.961,6.832 -89.84,-29.532 C 138.59,125.121 130.898,102.539 123.441,80.7109 120.59,72.2305 117.578,63.4805 114.301,55.0391 109.18,41.8789 104.379,31.3281 94.2188,26.1797 85.1211,28.4414 75.4297,52 71.6797,61.1797 l -0.9805,2.3398 C 43.5898,129.031 32.8906,202.621 22.5391,273.75 c -1.4883,10.039 -2.9297,20.039 -4.418,29.93 -8.082,53.711 8.3984,116.558 63.4375,136.09 8.9531,3.16 19.1014,4.449 29.7304,4.449 24.449,0 51.41,-6.789 72.191,-12.891 51.399,-29.18 51.399,-41.828 51.211,-94.019 l -0.043,-10.547 c 0,-4.453 3.59,-8.012 8.012,-8.012 4.41,0 8,3.559 8,8.012 l 0,10.468 c 0.199,45.782 0.121,67.34 -36.441,93.559 0,0 0,0 0,0.031 2.191,0.828 4.883,1.879 8.359,3.09 1.172,0.391 2.301,0.899 3.473,1.41 l 1.219,0.5 c 39.609,16.371 83.121,14.379 113.589,-5.191 24.84,-15.981 41.602,-36.289 47.11,-57.188 16.679,-62.972 -1.367,-137.89 -17.27,-203.941 z"/><path id="path16" d="m 94.9219,402.07 c 4.1797,1.489 6.3281,6.059 4.8476,10.2 -1.4492,4.179 -6.0586,6.371 -10.1992,4.878 C 47.6602,402.27 35.4688,349.77 41.8789,307.27 c 0.582,-3.981 3.9805,-6.801 7.8906,-6.801 0.3907,0 0.7813,0 1.211,0.082 4.3281,0.668 7.3398,4.73 6.7187,9.097 -5.4687,36.211 3.8594,80.59 37.2227,92.422 z"/><path id="path18" d="m 362.66,374.77 -12.699,0 -19.34,19.3 0,12.692 c 0,4.418 -3.551,8.008 -7.961,8.008 -4.422,0 -8.012,-3.59 -8.012,-8.008 l 0,-12.692 -19.339,-19.3 -12.649,0 c -4.422,0 -8.012,-3.59 -8.012,-8.008 0,-4.453 3.59,-8.012 8.012,-8.012 l 12.649,0 19.339,-19.289 0,-12.699 c 0,-4.453 3.59,-8.012 8.012,-8.012 4.41,0 7.961,3.559 7.961,8.012 l 0,12.699 19.34,19.289 12.699,0 c 4.41,0 7.961,3.559 7.961,8.012 0,4.418 -3.551,8.008 -7.961,8.008 z m -40,-20.7 -12.699,12.692 12.699,12.699 12.649,-12.699 -12.649,-12.692 z"/><path id="path20" d="m 146.641,230.75 -12.692,0 -19.301,19.328 0,12.66 c 0,4.453 -3.597,8.012 -8.007,8.012 -4.411,0 -8.0121,-3.559 -8.0121,-8.012 l 0,-12.66 -19.2891,-19.328 -12.6992,0 c -4.4101,0 -8.0117,-3.559 -8.0117,-8.012 0,-4.418 3.6016,-7.968 8.0117,-7.968 l 12.6992,0 19.2891,-19.34 0,-12.692 c 0,-4.418 3.6011,-7.968 8.0121,-7.968 4.41,0 8.007,3.55 8.007,7.968 l 0,12.692 19.301,19.34 12.692,0 c 4.41,0 8.007,3.55 8.007,7.968 0,4.453 -3.597,8.012 -8.007,8.012 z m -40,-20.672 -12.6918,12.66 12.6918,12.692 12.699,-12.692 -12.699,-12.66 z"/></g></g></svg>
