<?xml version="1.0" encoding="UTF-8" standalone="no"?>
<svg
   xmlns:dc="http://purl.org/dc/elements/1.1/"
   xmlns:cc="http://creativecommons.org/ns#"
   xmlns:rdf="http://www.w3.org/1999/02/22-rdf-syntax-ns#"
   xmlns:svg="http://www.w3.org/2000/svg"
   xmlns="http://www.w3.org/2000/svg"
   viewBox="0 0 60 60"
   height="60"
   width="60"
   xml:space="preserve"
   version="1.1"
   id="svg2"><metadata
     id="metadata8"><rdf:RDF><cc:Work
         rdf:about=""><dc:format>image/svg+xml</dc:format><dc:type
           rdf:resource="http://purl.org/dc/dcmitype/StillImage" /><dc:title></dc:title></cc:Work></rdf:RDF></metadata><defs
     id="defs6" /><g
     transform="matrix(1.25,0,0,-1.25,0,60)"
     id="g10"><g
       transform="matrix(0.09999,0,0,0.09998918,0.0016,-1.0010617)"
       id="g12"><path
         id="path14"
         style="fill:#000000;fill-opacity:1;fill-rule:nonzero;stroke:none"
         d="M 431.988,90.0117 C 431.988,85.5898 428.441,82 424.02,82 c -4.45,0 -8,3.5898 -8,8.0117 0,4.4102 3.55,8.0078 8,8.0078 4.421,0 7.968,-3.5976 7.968,-8.0078 z" /><path
         id="path16"
         style="fill:#000000;fill-opacity:1;fill-rule:nonzero;stroke:none"
         d="m 456.02,170.012 c 0,-4.422 -3.598,-8.012 -8.008,-8.012 -4.422,0 -8.012,3.59 -8.012,8.012 0,4.41 3.59,8.008 8.012,8.008 4.41,0 8.008,-3.598 8.008,-8.008 z" /><path
         id="path18"
         style="fill:#000000;fill-opacity:1;fill-rule:nonzero;stroke:none"
         d="m 288.012,138.02 c 0,-4.418 -3.602,-8.008 -8.012,-8.008 -4.41,0 -8.012,3.59 -8.012,8.008 0,4.41 3.602,8 8.012,8 4.41,0 8.012,-3.59 8.012,-8 z" /><path
         id="path20"
         style="fill:#000000;fill-opacity:1;fill-rule:nonzero;stroke:none"
         d="m 176.02,193.988 c 0,-4.41 -3.598,-7.968 -8.008,-7.968 -4.422,0 -8.012,3.558 -8.012,7.968 0,4.461 3.59,8.012 8.012,8.012 4.41,0 8.008,-3.551 8.008,-8.012 z" /><path
         id="path22"
         style="fill:#000000;fill-opacity:1;fill-rule:nonzero;stroke:none"
         d="m 208.012,226.02 c 0,-4.411 -3.602,-8 -8.012,-8 -4.41,0 -8.012,3.589 -8.012,8 0,4.421 3.602,7.968 8.012,7.968 4.41,0 8.012,-3.547 8.012,-7.968 z" /><path
         id="path24"
         style="fill:#000000;fill-opacity:1;fill-rule:nonzero;stroke:none"
         d="m 311.988,226.02 c 0,-4.411 -3.547,-8 -7.968,-8 -4.45,0 -8,3.589 -8,8 0,4.421 3.55,7.968 8,7.968 4.421,0 7.968,-3.547 7.968,-7.968 z" /><path
         id="path26"
         style="fill:#000000;fill-opacity:1;fill-rule:nonzero;stroke:none"
         d="M 311.988,50.0117 C 311.988,45.5898 308.441,42 304.02,42 c -4.45,0 -8,3.5898 -8,8.0117 0,4.4102 3.55,8.0078 8,8.0078 4.421,0 7.968,-3.5976 7.968,-8.0078 z" /><path
         id="path28"
         style="fill:#000000;fill-opacity:1;fill-rule:nonzero;stroke:none"
         d="m 56.0195,73.9883 c 0,-4.4102 -3.5976,-7.9688 -8.0078,-7.9688 C 43.5898,66.0195 40,69.5781 40,73.9883 40,78.4492 43.5898,82 48.0117,82 c 4.4102,0 8.0078,-3.5508 8.0078,-8.0117 z" /><path
         id="path30"
         style="fill:#000000;fill-opacity:1;fill-rule:nonzero;stroke:none"
         d="m 40,202 c 0,-4.41 -3.5508,-8.012 -8.0117,-8.012 -4.4102,0 -7.9688,3.602 -7.9688,8.012 0,4.41 3.5586,8.012 7.9688,8.012 C 36.4492,210.012 40,206.41 40,202 Z" /><path
         id="path32"
         style="fill:#000000;fill-opacity:1;fill-rule:nonzero;stroke:none"
         d="m 447.93,345.398 c -0.039,20.313 -2.071,40.274 -7.149,59.372 -6.519,24.769 -25.66,48.402 -53.902,66.57 -34.809,22.379 -83.988,24.879 -128.359,6.519 l -1.571,-0.66 c -0.777,-0.359 -1.519,-0.668 -2.258,-0.937 -3.711,-1.293 -6.57,-2.391 -8.91,-3.282 -7.383,-2.89 -7.383,-2.89 -19.531,0.7 -34.648,10.23 -78.828,20.429 -112.66,8.398 C 71.0195,467 33.0117,419.539 37.8516,345.98 16.9492,345.789 0,328.801 0,307.859 L 0,48.1289 C 0,27.1211 17.1094,10.0117 38.1602,10.0117 l 403.6798,0 c 21.051,0 38.16,17.1094 38.16,38.1172 l 0,259.7301 c 0,18.981 -13.949,34.61 -32.07,37.539 z M 118.91,467 c 8.981,3.199 19.102,4.449 29.719,4.449 24.812,0 52.23,-6.949 73.133,-13.121 15.898,-4.687 18.437,-4.726 29.84,-0.277 2.187,0.82 4.847,1.879 8.359,3.09 1.129,0.39 2.23,0.859 3.32,1.371 l 1.328,0.539 c 39.61,16.371 83.121,14.418 113.59,-5.153 24.891,-16.019 41.602,-36.328 47.11,-57.187 16.679,-62.973 -1.329,-137.852 -17.258,-203.941 -2.93,-12.149 -5.781,-24.071 -8.36,-35.551 l -2.312,-10.508 c -6.25,-28.402 -12.688,-57.7696 -27.149,-83.0899 -2.531,-4.4492 -5.109,-7.8516 -7.46,-10.0703 0.429,1.289 0.98,2.539 1.25,3.8594 l 3.789,19.1093 c 0.941,4.25 1.882,8.5899 2.812,12.961 1.649,7.5395 3.289,15.1995 5.16,22.9295 l 2.11,8.68 c 12.187,50.308 32.578,134.488 21.839,174.961 -6.64,25.187 -17.152,42.109 -32.109,51.719 -14.141,9.101 -32.07,10.23 -46.141,10.23 -14.64,0 -30.269,-0.82 -45.46,-7.109 l -0.79,-0.352 c -1.64,-0.738 -3.281,-1.41 -5,-1.988 -3.16,-1.102 -5.582,-2.031 -7.609,-2.852 -5.902,-2.269 -12.582,-4.847 -21.641,-4.847 -7.66,0 -14.339,1.796 -23.601,4.527 -17.77,5.242 -43.938,12.191 -66.207,12.191 -8.672,0 -16.012,-1.05 -21.832,-3.121 -41.9181,-14.847 -54.1095,-67.347 -47.6994,-109.847 1.4805,-9.961 2.9688,-20 4.4102,-30.082 C 92.1094,177 98.75,131.34 109.41,87.5898 c -0.109,0.2696 -0.23,0.6211 -0.351,0.8594 l -0.969,2.3399 C 80.9805,156.301 70.2695,229.852 59.9219,301.02 c -1.4805,10.039 -2.9336,20.039 -4.4102,29.929 -0.3906,2.61 -0.6719,5.231 -0.9414,7.852 l -0.3906,3.668 C 49.9609,393.328 67.7695,448.91 118.91,467 Z M 148.121,73.8008 c -1.012,-2.3516 -2.101,-4.5313 -3.281,-6.6016 -0.192,-0.3203 -0.352,-0.6289 -0.539,-0.8984 -1.18,-2.0313 -2.461,-3.9102 -3.871,-5.6289 -0.2,-0.1914 -0.391,-0.4336 -0.59,-0.6211 -1.481,-1.7227 -3.078,-3.25 -4.918,-4.5703 L 134.84,55.4414 C 118.199,108.48 109.57,168.02 101.879,220.828 c -1.488,10.121 -2.9298,20.152 -4.4571,30.152 -5.4336,36.219 3.9061,80.59 37.2691,92.391 4.059,1.438 9.61,2.18 16.438,2.18 20.242,0 44.922,-6.563 61.68,-11.52 9.961,-2.929 18.363,-5.191 28.171,-5.191 12.071,0 20.93,3.43 27.5,5.969 1.829,0.742 4.059,1.601 6.989,2.621 2.109,0.699 4.101,1.519 6.09,2.422 l 0.711,0.269 c 12.46,5.199 26.21,5.899 39.21,5.899 17.622,0 29.18,-2.379 37.5,-7.731 11.45,-7.34 19.731,-21.211 25.321,-42.34 C 393.949,259.379 374.18,177.66 362.34,128.84 l -2.11,-8.68 c -1.871,-7.89 -3.55,-15.66 -5.191,-23.3202 -0.937,-4.3281 -1.879,-8.5898 -2.848,-13.039 l -3.832,-19.2617 c -0.121,-0.6289 -0.269,-1.25 -0.468,-1.8399 -4.879,7.5 -11.95,22.9727 -16.871,36.4102 0.82,3.4806 1.64,6.9496 2.57,10.5506 l 1.41,5.352 c 11.328,42.687 21.762,86.398 14.801,110.468 -4.641,16.168 -12.422,27.571 -23.082,33.86 -10.078,5.898 -22.617,6.68 -32.379,6.68 -10.16,0 -20.981,-0.54 -32.149,-4.801 -1.101,-0.43 -2.152,-0.86 -3.281,-1.207 -2,-0.633 -3.601,-1.172 -5.199,-1.762 -4.02,-1.41 -8.16,-2.891 -13.981,-2.891 -4.929,0 -9.339,1.09 -15.429,2.731 -12.192,3.281 -30.121,7.621 -45.473,7.621 -6.098,0 -11.289,-0.66 -15.43,-2.031 -30,-9.731 -38.789,-43.981 -34.218,-71.68 0.98,-5.941 1.91,-11.879 3.011,-18.629 4.61,-29.07 9.879,-61.801 18.981,-92.3515 -0.863,-2.1484 -1.723,-4.289 -2.621,-6.3203 -0.153,-0.3203 -0.27,-0.6289 -0.43,-0.8984 z M 160.82,107.98 c -0.082,-0.199 -0.121,-0.359 -0.199,-0.55 -5.422,23.121 -9.25,46.992 -12.812,69.179 -0.93,6.051 -1.911,12.032 -2.887,18.012 -3.473,21.129 2.379,47.027 23.398,53.859 1.758,0.551 5,1.25 10.508,1.25 13.442,0 29.961,-4.058 41.25,-7.109 6.91,-1.832 12.731,-3.281 19.652,-3.281 8.508,0 14.758,2.23 19.61,3.949 1.172,0.391 2.57,0.902 4.41,1.481 1.48,0.468 2.891,0.98 4.73,1.718 8.122,3.09 17.18,3.524 25.821,3.524 11.558,0 19.019,-1.41 24.289,-4.492 7.109,-4.18 12.269,-12.192 15.82,-24.5 5.629,-19.45 -4.719,-62.969 -12.301,-92.032 -7.031,26.961 -15.39,57.032 -42.461,73.172 -30.546,18.199 -64.957,6.871 -89.847,-29.5 -13.86,-20.269 -21.563,-42.851 -28.981,-64.68 z m 303.2,-59.8081 c 0,-12.2227 -9.961,-22.1524 -22.141,-22.1524 l -403.7188,0 c -12.2188,0 -22.1407,9.9297 -22.1407,22.1524 l 0,259.6871 c 0,12.192 9.9219,22.153 22.1407,22.153 l 1.289,0 c 0.0821,-0.473 0.1602,-0.981 0.2422,-1.453 1.4805,-9.879 2.9297,-19.84 4.3672,-29.84 C 54.5703,226.57 65.3906,152 93.3203,84.6602 l 0.9414,-2.2696 C 100.43,67.3516 110.309,43.3281 126.68,38.2891 l 4.691,-2.2305 3.117,1.2109 0.082,0 1.481,0.6289 c 1.058,0.4297 1.961,1.0118 2.929,1.5235 0.981,0.5078 2,0.9765 2.899,1.5273 1.133,0.6992 2.101,1.4414 3.121,2.2227 0.859,0.6289 1.762,1.25 2.539,1.9179 0.902,0.8204 1.68,1.6407 2.5,2.5 0.742,0.7383 1.52,1.4805 2.231,2.2618 0.699,0.8593 1.359,1.7578 2.031,2.6601 0.621,0.8164 1.32,1.6797 1.91,2.5391 0.59,0.8984 1.129,1.8281 1.68,2.7695 0.55,0.8985 1.089,1.7578 1.597,2.6602 0.551,1.0078 1.024,2.0312 1.532,3.039 0.39,0.8203 0.82,1.6407 1.21,2.461 0.54,1.2187 1.008,2.3476 1.52,3.5586 0.27,0.582 0.551,1.25 0.82,1.832 0.7,1.7578 1.371,3.4805 1.989,5.1172 3.441,8.75 6.492,17.7031 9.421,26.3317 7.418,21.758 14.411,42.34 27.071,60.821 9.57,14.019 35.39,44.488 68.429,24.808 22.04,-13.129 28.95,-39.609 35.629,-65.238 1.911,-7.301 3.911,-14.883 6.172,-21.91 0.117,-0.391 0.309,-0.942 0.547,-1.6408 9.613,-29.3008 22.07,-58.9883 41.602,-61.0196 10.429,-1.0195 20.121,6.0196 28.711,21.0586 15.66,27.461 22.379,58.0388 28.871,87.6098 l 2.297,10.39 c 2.582,11.449 5.429,23.25 8.32,35.321 10.43,43.351 21.723,90.429 23.949,136.171 9.453,-2.543 16.442,-11.101 16.442,-21.293 l 0,-259.7261 z" /><path
         id="path34"
         style="fill:#000000;fill-opacity:1;fill-rule:nonzero;stroke:none"
         d="m 220,106.02 c -19.84,0 -35.98,-16.1684 -35.98,-36.0083 0,-19.8515 16.14,-36.0234 35.98,-36.0234 19.84,0 36.02,16.1719 36.02,36.0234 0,19.8399 -16.18,36.0083 -36.02,36.0083 z m 0,-56.0083 c -11.02,0 -20,8.9766 -20,20 0,11.0078 8.98,20 20,20 11.02,0 20,-8.9922 20,-20 0,-11.0234 -8.98,-20 -20,-20 z" /></g></g></svg>