<?xml version="1.0" encoding="UTF-8" standalone="no"?>
<svg
   xmlns:dc="http://purl.org/dc/elements/1.1/"
   xmlns:cc="http://creativecommons.org/ns#"
   xmlns:rdf="http://www.w3.org/1999/02/22-rdf-syntax-ns#"
   xmlns:svg="http://www.w3.org/2000/svg"
   xmlns="http://www.w3.org/2000/svg"
   viewBox="0 0 60 60"
   height="60"
   width="60"
   xml:space="preserve"
   version="1.1"
   id="svg2"><metadata
     id="metadata8"><rdf:RDF><cc:Work
         rdf:about=""><dc:format>image/svg+xml</dc:format><dc:type
           rdf:resource="http://purl.org/dc/dcmitype/StillImage" /><dc:title></dc:title></cc:Work></rdf:RDF></metadata><defs
     id="defs6" /><g
     transform="matrix(1.25,0,0,-1.25,0,60)"
     id="g10"><g
       transform="matrix(0.1,0,0,0.1,0,1.625172)"
       id="g12"><path
         id="path14"
         style="fill:#000000;fill-opacity:1;fill-rule:nonzero;stroke:none"
         d="M 470.66,64.6016 C 462.5,72.7617 380.59,154.91 373.711,162.219 310.59,229.211 267.461,292.68 225.738,354.09 206.879,381.859 189.02,408.078 169.77,434.129 l -2.43,3.242 -147.2189,0 C 14.6094,437.762 9.53125,434.25 8.16016,428.66 6.76172,422.879 9.80078,417.18 16.1719,414.949 L 124.648,387.531 c 1.524,-2.07 2.93,-4.101 4.454,-6.133 l -116.8325,0 C 6.83984,381.789 1.80078,378 0.390625,372.18 -1.12891,365.852 1.87891,359.762 8.32031,357.449 L 113.98,330.809 327.379,117.41 l 6.019,-5.39 0.082,0.082 c 28.079,-28.6332 83.508,-84.3012 91.95,-92.7426 6.211,-6.25 14.41,-9.37112 22.621,-9.37112 8.16,0 16.398,3.12112 22.609,9.37112 12.461,12.4687 12.461,32.7812 0,45.2422 z M 42.1484,365.379 l 98.4026,0 c 3.469,-4.879 6.871,-9.801 10.269,-14.688 8.871,-12.769 17.539,-25.66 26.328,-38.632 4.731,-6.989 9.493,-14.059 14.411,-21.289 0.351,-0.508 0.671,-0.981 1.019,-1.481 0.582,-0.859 1.172,-1.719 1.801,-2.617 0.422,-0.66 0.851,-1.293 1.281,-1.91 2.969,-4.34 5.942,-8.684 8.949,-13.051 0.469,-0.633 0.903,-1.25 1.332,-1.922 l 0.7,-0.969 c 0.078,-0.16 0.199,-0.308 0.269,-0.429 6.18,-8.911 12.5,-17.891 19.031,-26.922 l -103.793,103.75 -79.9996,20.16 z M 459.379,30.6484 c -6.258,-6.207 -16.41,-6.25 -22.66,0 -9.418,9.461 -83.481,83.8716 -103.008,104.0706 -6.051,6.519 -12.191,13.203 -18.672,20.543 l -6.168,6.957 c -3.012,3.472 -5.941,6.91 -8.871,10.351 l -6.289,7.461 c -2.691,3.199 -5.352,6.399 -7.973,9.571 l -5.386,6.679 c -4.84,6.047 -9.571,12.028 -14.141,17.969 l -5.313,6.828 c -1.949,2.582 -3.867,5.121 -5.777,7.703 l -1.019,1.367 c -1.954,2.614 -3.903,5.192 -5.821,7.813 -2.07,2.769 -4.101,5.578 -6.09,8.359 -2.191,3.008 -4.339,5.969 -6.492,8.981 l -4.918,6.918 c -3.711,5.23 -7.383,10.461 -11.051,15.742 -0.32,0.43 -0.589,0.898 -0.902,1.328 -3.316,4.801 -6.598,9.57 -9.957,14.492 -0.941,1.399 -1.883,2.77 -2.82,4.141 -3.281,4.84 -6.52,9.609 -9.801,14.406 -1.84,2.742 -3.672,5.473 -5.512,8.172 -18.316,27.148 -35.66,52.77 -54.918,78.828 l -1.718,2.301 -78.2426,19.769 103.4026,0 c 18.199,-24.769 35.226,-49.847 53.238,-76.289 42.07,-61.918 85.551,-125.937 149.57,-193.871 7.34,-7.808 92.071,-92.7263 97.27,-97.9685 6.25,-6.2109 6.25,-16.3711 0.039,-22.6211 z" /></g></g></svg>