<?xml version="1.0" encoding="UTF-8" standalone="no"?>
<svg
   xmlns:dc="http://purl.org/dc/elements/1.1/"
   xmlns:cc="http://creativecommons.org/ns#"
   xmlns:rdf="http://www.w3.org/1999/02/22-rdf-syntax-ns#"
   xmlns:svg="http://www.w3.org/2000/svg"
   xmlns="http://www.w3.org/2000/svg"
   viewBox="0 0 64.075851 33.780403"
   height="33.780403"
   width="64.075851"
   xml:space="preserve"
   version="1.1"
   id="svg2"><metadata
     id="metadata8"><rdf:RDF><cc:Work
         rdf:about=""><dc:format>image/svg+xml</dc:format><dc:type
           rdf:resource="http://purl.org/dc/dcmitype/StillImage" /><dc:title></dc:title></cc:Work></rdf:RDF></metadata><defs
     id="defs6" /><g
     transform="matrix(1.25,0,0,-1.25,0.00109844,35.032842)"
     id="g10"><g
       transform="scale(0.1,0.1)"
       id="g12"><path
         id="path14"
         style="fill:#1d1d1b;fill-opacity:1;fill-rule:nonzero;stroke:none"
         d="M 27.7305,14.8594 256.211,241.5 484.84,14.7109 c 3.211,-3.1328 7.351,-4.6914 11.531,-4.6914 4.141,0 8.32,1.5586 11.481,4.6914 6.328,6.3204 6.328,16.5196 0,22.8086 L 268.012,275.41 c -1.602,1.602 -3.953,2.969 -6.063,3.789 -6.008,2.262 -12.769,0.86 -17.34,-3.668 L 4.76953,37.6719 c -6.37109,-6.2813 -6.37109,-16.5235 0,-22.8125 6.32027,-6.28909 16.64067,-6.28909 22.96097,0 z" /></g></g></svg>