<?xml version="1.0" encoding="utf-8"?><svg version="1.1" id="Layer_1" xmlns="http://www.w3.org/2000/svg" xmlns:xlink="http://www.w3.org/1999/xlink" x="0px" y="0px" viewBox="0 0 47 47" style="enable-background:new 0 0 47 47;" xml:space="preserve"><style type="text/css">.st0{fill:#231F20;}</style>
<g><g><path class="st0" d="M36.3,12c3.3,0,6-2.7,6-6c0-3.3-2.7-6-6-6s-6,2.7-6,6C30.4,9.3,33,12,36.3,12z M36.3,1.7 c2.4,0,4.3,1.9,4.3,4.3c0,2.4-1.9,4.3-4.3,4.3S32.1,8.4,32.1,6C32.1,3.6,34,1.7,36.3,1.7z M23.6,12c3.3,0,6-2.7,6-6 c0-3.3-2.7-6-6-6c-3.3,0-6,2.7-6,6C17.6,9.3,20.3,12,23.6,12z M23.6,1.7c2.4,0,4.3,1.9,4.3,4.3c0,2.4-1.9,4.3-4.3,4.3 c-2.4,0-4.3-1.9-4.3-4.3C19.3,3.6,21.2,1.7,23.6,1.7z M34.7,19.4c0-3.7-2.9-6.6-6.6-6.6h-8.9c-3.6,0-6.6,3-6.6,6.6v7.4 c0,2.3,1.1,4.3,3,5.6v9.2c0,3,2.4,5.4,5.4,5.4h5.2c3,0,5.4-2.4,5.4-5.4v-9.2c1.9-1.2,3-3.3,3-5.6V19.4z M33,26.8 c0,1.8-1,3.5-2.6,4.3L30,31.4v10.2c0,2.1-1.7,3.7-3.7,3.7h-5.2c-2,0-3.7-1.7-3.7-3.7V31.4l-0.4-0.2c-1.6-0.9-2.6-2.5-2.6-4.3v-7.4 c0-2.7,2.2-4.9,4.9-4.9h8.9c2.7,0,4.9,2.2,4.9,4.9V26.8z M10.8,12c3.3,0,6-2.7,6-6c0-3.3-2.7-6-6-6c-3.3,0-6,2.7-6,6 C4.8,9.3,7.5,12,10.8,12z M10.8,1.7c2.4,0,4.3,1.9,4.3,4.3c0,2.4-1.9,4.3-4.3,4.3c-2.4,0-4.3-1.9-4.3-4.3 C6.5,3.6,8.4,1.7,10.8,1.7z M4.7,41.5V31.4l-0.4-0.2c-1.6-0.9-2.6-2.5-2.6-4.3v-7.4c0-2.7,2.2-4.9,4.9-4.9h4.9v-1.7H6.6 c-3.6,0-6.6,3-6.6,6.6v7.4c0,2.3,1.1,4.3,3,5.6v9.2c0,3,2.4,5.5,5.4,5.5h5.2v-1.7H8.4C6.4,45.3,4.7,43.6,4.7,41.5z M40.4,12.7 h-4.9v1.7h4.9c2.7,0,4.9,2.2,4.9,4.9v7.4c0,1.8-1,3.5-2.6,4.3l-0.4,0.2v10.2c0,2.1-1.7,3.7-3.7,3.7h-5.2v1.7h5.2 c3,0,5.4-2.4,5.4-5.5v-9.2c1.9-1.2,3-3.3,3-5.6v-7.4C47,15.7,44.1,12.7,40.4,12.7z"/></g></g></svg>
