<svg width="28" height="48" viewBox="0 0 28 48" xmlns="http://www.w3.org/2000/svg" xmlns:xlink="http://www.w3.org/1999/xlink"><title>dental-drill</title><defs><path id="a" d="M.06 47.94H28V0H.06z"/></defs><g fill="none" fill-rule="evenodd"><mask id="b" fill="#fff"><use xlink:href="#a"/></mask><path d="M27.199 1.602h-1.597V.801A.802.802 0 0 0 24.801 0H11.199C8.387 0 6.055 2.09 5.664 4.801H2.977A1.59 1.59 0 0 0 1.602 4C.719 4 0 4.719 0 5.602c0 .878.719 1.597 1.602 1.597a1.59 1.59 0 0 0 1.375-.801h2.687c.391 2.711 2.723 4.801 5.535 4.801h2.117A21.4 21.4 0 0 0 8 25.285v17.113c0 .442.359.801.801.801v1.602a.8.8 0 0 0 .801.801h.91A3.2 3.2 0 0 0 13.602 48a3.204 3.204 0 0 0 3.199-3.199c0-.883.719-1.602 1.597-1.602.883 0 1.602.719 1.602 1.602v2.398a.801.801 0 0 0 1.602 0v-2.398a3.204 3.204 0 0 0-3.204-3.199 3.203 3.203 0 0 0-3.199 3.199c0 .883-.719 1.597-1.597 1.597a1.6 1.6 0 0 1-1.379-.796h.578c.441 0 .801-.36.801-.801v-1.602a.798.798 0 0 0 .796-.801v-15.3c0-5.27 2.055-10.223 5.778-13.95l1.949-1.949h2.676a.802.802 0 0 0 .801-.801v-.796h1.597c.442 0 .801-.36.801-.801V2.398a.798.798 0 0 0-.801-.796zm-20 4c0-2.207 1.797-4 4-4v8c-2.203 0-4-1.797-4-4zm5.602 36H9.602v-3.543l3.199-1.868v5.411zm0-7.266l-3.199 1.871v-2.91l3.199-1.602v2.641zm0-7.238v2.808l-3.199 1.598v-3.008l3.203-1.605c0 .07-.004.136-.004.207zM10.398 44H12v-.801h-1.602V44zm8.649-31.984c-3.543 3.543-5.684 8.113-6.149 13.039l-3.296 1.652v-1.422c0-5.297 2.152-10.422 5.914-14.086h4.347l-.816.817zM24 9.602h-4.801V8a.8.8 0 1 0-1.597 0v1.602h-4.801v-8h4.801v1.597a.798.798 0 1 0 1.597 0V1.602H24v8zM25.602 8h.796V3.199h-.796V8z" fill="#000" mask="url(#b)"/></g></svg>