<?xml version="1.0" encoding="utf-8"?><svg version="1.1" id="Layer_1" xmlns="http://www.w3.org/2000/svg" xmlns:xlink="http://www.w3.org/1999/xlink" x="0px" y="0px" viewBox="0 0 65.9832153 72.0115967" style="enable-background:new 0 0 65.9832153 72.0115967;" xml:space="preserve"><style type="text/css">.st0{fill:#8B8B8B;}</style><g><g><path class="st0" d="M56.5762329,57.8515663l-5.5872192,5.5610352V47.2154579 c0-0.4477539-0.3637085-0.8078003-0.8062744-0.8078003c-0.4506226,0-0.8121338,0.3600464-0.8121338,0.8078003v16.2059326 l-5.5891724-5.5698242c-0.3152466-0.3131104-0.8284912-0.3131104-1.1436157,0 c-0.3171997,0.3132324-0.3171997,0.8239136,0,1.1386108l6.9691772,6.9365196 c0.0393066,0.0394897,0.0887451,0.0585938,0.133606,0.0892944c0.0426025,0.0292969,0.0795898,0.0643921,0.1275024,0.083374 c0.0997925,0.0425415,0.2062378,0.0629272,0.3146362,0.0629272c0.1052856,0,0.2092896-0.0203857,0.307251-0.0614014 c0.098999-0.0410156,0.1880493-0.1010132,0.2629395-0.1755981l6.9688721-6.9351158 c0.3151245-0.3146973,0.3151245-0.8253784,0-1.1386108C57.404541,57.538456,56.8915405,57.538456,56.5762329,57.8515663z  M51.2667236,40.6112099V16.5335712c0-0.0014648-0.0007324-0.0014648-0.0007324-0.0043945l0.0007324-0.0028687 c0-0.0878296-0.0281372-0.1668091-0.0507813-0.2473145c-0.0093384-0.0336914-0.0079346-0.0687866-0.0205078-0.0994873 c0-0.0015259-0.0005493-0.0015259-0.0007935-0.0015259c-0.0135498-0.0336914-0.0366211-0.0599976-0.0567017-0.0892944 c-0.024353-0.0380249-0.0446167-0.0761108-0.0714111-0.1126099c-0.0256958-0.0352173-0.0383911-0.0761108-0.0693359-0.1098022 L35.7521973,0.2882713c-0.0007935,0-0.0018921,0-0.0018921,0c-0.088501-0.0921631-0.1939087-0.1624756-0.3106079-0.2121582 c-0.0026855-0.0015259-0.005188-0.0015259-0.0075684-0.0015259c-0.1112061-0.0454102-0.2322388-0.074585-0.3599243-0.074585 H4.770813C2.1420898,0.0000022,0,2.1336081,0,4.7501855v53.7277832c0,2.6253052,2.1420898,4.7473145,4.770813,4.7473145 h31.2492065c2.5825195,5.1965904,7.9506836,8.7863121,14.1599121,8.7863121 c8.7145996,0,15.8032837-7.0535889,15.8032837-15.7272911C65.9832153,47.9749794,59.4742432,41.1715736,51.2667236,40.6112099z  M36.0241089,3.289675l12.024292,12.2897949h-12.024292V3.289675z M35.2280884,61.3344765H4.770813 c-1.5742798,0-2.8599854-1.2818604-2.8599854-2.8565063V4.7501855c0-1.5717165,1.2857056-2.850708,2.8599854-2.850708h29.3425903 v14.6340942c0,0.5195313,0.427002,0.9468384,0.9588013,0.9468384h14.2838135v23.1175556 c-8.3303833,0.4302368-14.9793091,7.2907104-14.9793091,15.6863403 C34.376709,58.0535927,34.6849976,59.7481728,35.2280884,61.3344765z M50.1799316,70.2305908 c-7.7267456,0-14.0140991-6.2560997-14.0140991-13.9462852c0-7.5819092,6.116272-13.760498,13.6947632-13.9302368 c0.4734497,0.0101929,0.9442139,0.0322266,1.4061279,0.0848999v-0.046875 c7.2196045,0.5546875,12.9273682,6.5678101,12.9273682,13.8922119 C64.1940918,63.9744911,57.9069214,70.2305908,50.1799316,70.2305908z"/></g></g></svg>
