<?xml version="1.0" encoding="utf-8"?><svg version="1.1" id="Layer_1" xmlns="http://www.w3.org/2000/svg" xmlns:xlink="http://www.w3.org/1999/xlink" x="0px" y="0px" viewBox="0 0 23 17" style="enable-background:new 0 0 23 17;" xml:space="preserve"><style type="text/css">.st0{fill:#c5c7cb;}</style><g><g><path class="st0" d="M20.9,0H2.1C0.9,0,0,0.9,0,2V15c0,1.1,0.9,2,2.1,2h18.9c1.1,0,2.1-0.9,2.1-2V2C23,0.9,22.1,0,20.9,0z M21.9,15c0,0.5-0.4,0.9-0.9,0.9H2.1c-0.5,0-0.9-0.4-0.9-0.9V2c0-0.5,0.4-0.9,0.9-0.9h18.9c0.5,0,0.9,0.4,0.9,0.9V15z M15.5,8.1 L9.7,5.3c-0.2-0.1-0.3-0.1-0.5,0C9.1,5.4,9,5.6,9,5.8v5.6c0,0.2,0,0.4,0.2,0.5c0.1,0.1,0.1,0.1,0.2,0.1c0.1,0,0.2,0,0.3-0.1 l5.8-2.8c0.2-0.1,0.3-0.3,0.3-0.5C15.9,8.4,15.7,8.2,15.5,8.1z M10.2,10.5V6.7l4,1.9L10.2,10.5z"/></g></g></svg>
