<?xml version="1.0" encoding="utf-8"?>
<svg version="1.1" id="Layer_1" xmlns="http://www.w3.org/2000/svg" xmlns:xlink="http://www.w3.org/1999/xlink" x="0px" y="0px" viewBox="0 0 19 15" style="enable-background:new 0 0 19 15;" xml:space="preserve"><style type="text/css">.st0{fill:#FFFFFF;}</style><g><g><path class="st0" d="M16.7,0H2.3C1,0,0,1.1,0,2.4v10.2C0,13.9,1,15,2.3,15h14.4c1.3,0,2.3-1.1,2.3-2.4V2.4C19,1.1,18,0,16.7,0z C17.9,13.3,17.4,13.9,16.7,13.9z M12,7.4l4.6-4.3c0.2-0.2,0.2-0.6,0-0.8c-0.2-0.2-0.5-0.2-0.8,0l-6.4,6L8.3,7c0,0,0,0,0,0 c0,0-0.1-0.1-0.1-0.1L3.1,2.2C2.9,2,2.5,2,2.3,2.3c-0.2,0.2-0.2,0.6,0,0.8l4.7,4.4L2.4,12c-0.2,0.2-0.2,0.6,0,0.8 c0.1,0.1,0.2,0.2,0.4,0.2c0.1,0,0.3,0,0.4-0.1l4.8-4.6l1.3,1.2c0.1,0.1,0.2,0.1,0.4,0.1c0.1,0,0.3,0,0.4-0.1l1.3-1.2l4.7,4.7 c0.1,0.1,0.2,0.2,0.4,0.2c0.1,0,0.3-0.1,0.4-0.2c0.2-0.2,0.2-0.6,0-0.8L12,7.4z"/></g></g></svg>
