<?xml version="1.0" encoding="utf-8"?><svg version="1.1" id="Layer_1" xmlns="http://www.w3.org/2000/svg" xmlns:xlink="http://www.w3.org/1999/xlink" x="0px" y="0px" viewBox="0 0 21 18" style="enable-background:new 0 0 21 18;" xml:space="preserve"><style type="text/css">.st0{fill:#c5c7cb;}</style><path class="st0" d="M6.8,18c-4.5,0-6.3-2.3-6.7-3.1c-0.1-0.2-0.1-0.5,0-0.7c0.1-0.2,0.3-0.3,0.6-0.3c1.2,0,2.7-0.1,3.6-0.3 c-0.9-0.6-2.2-1.7-2.1-3.4C1.7,9.7,0.7,8.4,0.9,6.3C0.7,5.6-0.2,2,2.6,0.1C2.7,0,2.8,0,3,0c0.3,0,0.5,0.2,0.6,0.4 c0.2,0.5,1.4,2.9,5.9,4c0.2-1,0.8-3.1,3.1-3.8c0.6-0.2,1.1-0.3,1.6-0.3c1.5,0,2.4,0.8,2.8,1.2c0.3,0,1.1,0,2.2-0.6 c0.3-0.2,0.7-0.1,0.8,0.2c0.1,0.2,0.1,0.4,0.1,0.6l-0.3,0.8l0.5-0.1c0.3-0.1,0.5,0,0.7,0.3C21,2.8,21,3,21,3.3 c-0.2,0.5-0.6,1.4-1.7,2.2l-0.1,0c-0.1,0.1-0.4,0.4-0.3,1.7c0.1,1.9-2,9.3-9.6,10.5C8.4,17.9,7.6,18,6.8,18L6.8,18z M1.3,14.9 c0.7,0.8,2.3,2,5.4,2c0.7,0,1.5-0.1,2.3-0.2C16,15.7,18,9,17.9,7.3c-0.1-2,0.6-2.6,0.8-2.7c0.5-0.4,0.8-0.7,1-1l-0.4,0.1 c-0.3,0.1-0.5,0-0.7-0.3c-0.1-0.2-0.1-0.4-0.1-0.6l0.2-0.6C18,2.5,17.4,2.6,17,2.6c-0.2,0-0.3,0-0.4,0c-0.2,0-0.3-0.1-0.4-0.2 c-0.1-0.2-0.8-0.9-2.1-0.9c-0.4,0-0.9,0.1-1.3,0.2c-2.1,0.6-2.4,2.7-2.5,3.3c0,0.3-0.3,0.6-0.6,0.6l-0.1,0c-4.4-1-6.1-3.2-6.7-4.3 c-1.9,1.6-1.1,4.5-1,4.9c0,0.1,0,0.2,0,0.3C1.7,8.3,2.8,9.4,3,9.6c0.2,0.1,0.2,0.4,0.2,0.6c-0.2,1.6,1.5,2.6,2.2,2.9 c0.2,0.1,0.4,0.3,0.4,0.6c0,0.3-0.1,0.5-0.4,0.6C4.5,14.7,2.6,14.9,1.3,14.9L1.3,14.9z M1.3,14.9"/></svg>
