<?xml version="1.0" encoding="utf-8"?><svg version="1.1" id="Layer_1" xmlns="http://www.w3.org/2000/svg" xmlns:xlink="http://www.w3.org/1999/xlink" x="0px" y="0px" viewBox="0 0 18 26" style="enable-background:new 0 0 18 26;" xml:space="preserve"><style type="text/css">.st0{fill:#b62059;}</style><g><g><path class="st0" d="M9.1,5.7C7.3,5.7,5.8,7.2,5.8,9c0,1.8,1.5,3.3,3.3,3.3c1.8,0,3.3-1.5,3.3-3.3C12.4,7.2,10.9,5.7,9.1,5.7z M9.1,11.4c-1.3,0-2.3-1.1-2.3-2.4c0-1.3,1.1-2.4,2.3-2.4c1.3,0,2.3,1.1,2.3,2.4C11.4,10.3,10.4,11.4,9.1,11.4z M15.4,2.7 C13.7,0.9,11.4,0,9,0C6.6,0,4.3,0.9,2.6,2.7c-3.1,3.2-3.5,9.2-0.8,12.8L9,26l7.2-10.5C18.9,11.8,18.5,5.8,15.4,2.7z M15.4,14.9 L9,24.3l-6.5-9.4C0.1,11.6,0.5,6.2,3.3,3.3C4.8,1.8,6.9,1,9,1c2.2,0,4.2,0.8,5.7,2.4C17.6,6.2,17.9,11.6,15.4,14.9z"/></g></g></svg>
