<?xml version="1.0" encoding="utf-8"?><svg version="1.1" id="Layer_1" xmlns="http://www.w3.org/2000/svg" xmlns:xlink="http://www.w3.org/1999/xlink" x="0px" y="0px" viewBox="0 0 6.2665405 6.2666016" style="enable-background:new 0 0 6.2665405 6.2666016;" xml:space="preserve"><style type="text/css">.st0{fill:#121212;}</style><path class="st0" d="M3.8403625,3.1333313L6.120697,0.8529968c0.194458-0.194458,0.194458-0.5126953,0-0.7071533 s-0.5126343-0.194458-0.7070923,0L3.1332703,2.426178L0.8529358,0.1458435c-0.194458-0.194458-0.5126343-0.194458-0.7070923,0 s-0.194458,0.5126953,0,0.7071533L2.426178,3.1333313L0.1458435,5.4136658c-0.194458,0.194397-0.194458,0.5126343,0,0.7070923 s0.5126343,0.194458,0.7070923,0l2.2803345-2.2803345l2.2803345,2.2803345c0.194458,0.194458,0.5126343,0.194458,0.7070923,0 s0.194458-0.5126953,0-0.7070923L3.8403625,3.1333313z"/>
</svg>
