<?xml version="1.0" encoding="UTF-8" standalone="no"?><svg xmlns:rdf="http://www.w3.org/1999/02/22-rdf-syntax-ns#" xmlns="http://www.w3.org/2000/svg" xml:space="preserve" viewBox="0 0 12 23" height="23" width="12" version="1.1" y="0px" x="0px" xmlns:cc="http://creativecommons.org/ns#" xmlns:dc="http://purl.org/dc/elements/1.1/"><style type="text/css">.st0{fill:#FFFFFF;}</style><path fill="#fff" class="st0" d="m7.53 23h-4.82c-0.301 0-0.402-0.201-0.402-0.502v-9.74h-1.91c-0.3 0-0.4-0.2-0.4-0.5v-4.06c0-0.31 0.1-0.51 0.402-0.51h2.21c0-3.21 0.603-5.32 1.81-6.53 1-0.999 2.21-1.2 3.41-1.2h3.41c0.301 0 0.703 0.201 0.703 0.502v4.42c0 0.301-0.402 0.502-0.703 0.502h-3.01v2.21h3.01c0.301 0 0.703 0.201 0.703 0.502v4.02c0 0.301-0.402 0.502-0.703 0.502h-3.01v9.84c0.05 0.3-0.36 0.5-0.66 0.5zm-4.12-1.1h3.72v-9.74c0-0.301 0.1-0.502 0.402-0.502h3.31v-2.91h-3.31c-0.301 0-0.402-0.201-0.402-0.502v-3.41c0-0.301 0.1-0.502 0.402-0.502h3.31v-3.31h-3.01c-0.904 0-1.91 0.1-2.61 0.803-1 1-1.51 3.11-1.41 6.33 0 0.1-0.1 0.301-0.201 0.402-0.1 0.1-0.301 0.201-0.402 0.201h-2.11v2.91h1.51c0.301 0 0.703 0.201 0.703 0.502v9.74z"/></svg>
