<?xml version="1.0" encoding="utf-8"?><svg version="1.1" id="Layer_1" xmlns="http://www.w3.org/2000/svg" xmlns:xlink="http://www.w3.org/1999/xlink" x="0px" y="0px" viewBox="0 0 24.0000019 26.0000191" style="enable-background:new 0 0 24.0000019 26.0000191;" xml:space="preserve"><style type="text/css">.st0{fill:#8C8C8C;}</style><g><g><path class="st0" d="M20.2946777,5.3837891h-0.5234985V0.6212158c0-0.3067017-0.2215576-0.5610962-0.5123901-0.6115112 C19.2244873,0.0037231,19.1895752,0,19.1536255,0H4.8466187C4.8106079,0,4.7755737,0.0037231,4.741272,0.0097046 c-0.2908936,0.050415-0.5122681,0.3048096-0.5122681,0.6115112v4.7625732H3.7053833C1.6624146,5.3837891,0,7.0557861,0,9.1109009 v7.6953735c0,2.0557251,1.6624146,3.7277222,3.7053833,3.7277222h0.5236206v4.8447876 C4.2290039,25.7216797,4.5053101,26,4.8466187,26h14.3070068c0.3408813,0,0.6175537-0.2783203,0.6175537-0.6212158v-4.8447876 h0.5234985C22.3375244,20.5339966,24,18.8619995,24,16.8062744V9.1110229C24,7.0557861,22.3378296,5.3837891,20.2946777,5.3837891 z M5.4641724,1.2424927h13.0718384v4.1412964H5.4641724V1.2424927z M18.5360107,24.7575073H5.4641724v-7.6619263h13.0718384 V24.7575073z M20.2946777,19.2913208h-0.5234985v-2.1957397h1.3356323c0.3413086,0,0.6176147-0.2782593,0.6176147-0.6213989 c0-0.3427734-0.2763062-0.6210938-0.6176147-0.6210938H3.0764771c-0.3410645,0-0.6175537,0.2783203-0.6175537,0.6210938 c0,0.3431396,0.2764893,0.6213989,0.6175537,0.6213989h1.1525269v2.1957397H3.7053833 c-1.3621826,0-2.4701538-1.114502-2.4701538-2.4850464V9.1110229c0-1.3704224,1.1079712-2.4849243,2.4701538-2.4849243h16.5892944 c1.3621216,0,2.4701538,1.1146851,2.4701538,2.4849243v7.6952515h0.0001831 C22.7650146,18.1768188,21.6567993,19.2913208,20.2946777,19.2913208z M19.1536255,9.1033936 c-0.4651489,0-0.8428955,0.3795166-0.8428955,0.8477173c0,0.4680786,0.3774414,0.8477783,0.8428955,0.8477783 c0.465271,0,0.8427734-0.3796997,0.8427734-0.8477783C19.9963989,9.4829102,19.6188965,9.1033936,19.1536255,9.1033936z  M6.9052124,19.2437744h10.1896973c0.3410645,0,0.6176147-0.2778931,0.6176147-0.6212769 c0-0.3432007-0.2765503-0.6213989-0.6176147-0.6213989H6.9052124c-0.3410034,0-0.6177979,0.2781982-0.6177979,0.6213989 C6.2874146,18.9658813,6.564209,19.2437744,6.9052124,19.2437744z M6.9052124,21.5477905h10.1896973 c0.3410645,0,0.6176147-0.2780762,0.6176147-0.6209717c0-0.3432007-0.2765503-0.6213379-0.6176147-0.6213379H6.9052124 c-0.3410034,0-0.6177979,0.2781372-0.6177979,0.6213379C6.2874146,21.2697144,6.564209,21.5477905,6.9052124,21.5477905z"/></g></g></svg>
