<?xml version="1.0" encoding="UTF-8" standalone="no"?><svg xmlns:rdf="http://www.w3.org/1999/02/22-rdf-syntax-ns#" xmlns="http://www.w3.org/2000/svg" xml:space="preserve" viewBox="0 0 15 15" height="15" width="15" version="1.1" y="0px" x="0px" xmlns:cc="http://creativecommons.org/ns#" xmlns:dc="http://purl.org/dc/elements/1.1/"><path fill="#231f20" class="st0" d="m12.6 9.04c-0.314-0.314-0.706-0.549-1.1-0.549-0.392 0-0.785 0.157-1.18 0.549l-1.11 1.06c-0.0785 0-0.157-0.0785-0.235-0.0785-0.16-0.1-0.24-0.1-0.32-0.18-1.02-0.63-1.88-1.49-2.74-2.51-0.47-0.55-0.71-1.02-0.94-1.41 0.314-0.235 0.549-0.549 0.785-0.785 0.0785-0.0785 0.157-0.235 0.314-0.314 0.706-0.706 0.706-1.65 0-2.28l-0.95-0.94c-0.08-0.08-0.23-0.16-0.31-0.31-0.24-0.16-0.39-0.395-0.63-0.63-0.31-0.314-0.71-0.471-1.1-0.471-0.392 0-0.785 0.157-1.18 0.471l-1.17 1.18c-0.394 0.39-0.708 0.94-0.708 1.57-0.0782 0.94 0.236 1.88 0.471 2.43 0.549 1.49 1.33 2.82 2.59 4.24 1.49 1.73 3.22 3.14 5.26 4.08 0.78 0.4 1.77 0.8 2.97 0.9h0.235c0.785 0 1.41-0.314 1.96-0.863 0.157-0.235 0.392-0.392 0.549-0.628 0.157-0.157 0.314-0.314 0.471-0.392 0.3-0.3 0.5-0.7 0.5-1.2 0-0.4-0.2-0.7-0.5-1.1l-1.9-1.76zm1.18 3.53l-0.392 0.392c-0.235 0.235-0.471 0.392-0.628 0.706-0.314 0.392-0.706 0.549-1.26 0.549h-0.157c-1.1-0.1-1.97-0.5-2.68-0.8-1.88-0.9-3.53-2.2-4.94-3.81-1.18-1.34-1.88-2.67-2.43-4.01-0.32-0.86-0.475-1.57-0.396-2.12 0-0.39 0.156-0.7 0.466-1.02l1.1-1.09c0.16-0.16 0.32-0.24 0.47-0.24 0.235 0 0.392 0.157 0.471 0.235 0.235 0.157 0.392 0.392 0.628 0.628 0.157 0.0785 0.235 0.157 0.392 0.235l0.942 0.942c0.392 0.392 0.392 0.706 0 1.02-0.15 0.09-0.23 0.25-0.31 0.33-0.31 0.23-0.55 0.54-0.86 0.78-0.314 0.314-0.235 0.628-0.157 0.785 0.235 0.628 0.549 1.18 1.1 1.8 0.942 1.1 1.88 2.04 2.98 2.67 0.157 0.0785 0.314 0.157 0.392 0.235 0.157 0.0785 0.235 0.0785 0.314 0.157h0.0785c0.0785 0.0785 0.235 0.0785 0.314 0.0785 0.314 0 0.471-0.157 0.471-0.235l1.17-1.21c0.0785-0.0785 0.314-0.235 0.471-0.235 0.235 0 0.392 0.157 0.471 0.235l1.88 1.96c0.392 0.314 0.392 0.706 0 1.02z"/></svg>
