<?xml version="1.0" encoding="UTF-8" standalone="no"?>
<svg xmlns:rdf="http://www.w3.org/1999/02/22-rdf-syntax-ns#" xmlns="http://www.w3.org/2000/svg" xml:space="preserve" viewBox="0 0 22 15.631579" height="15.6" width="22" version="1.1" y="0px" x="0px" xmlns:cc="http://creativecommons.org/ns#" xmlns:dc="http://purl.org/dc/elements/1.1/"><style type="text/css">.st0{fill:#FFFFFF;}</style><path fill="#b62059" class="st0" d="m21 0.984h-6.14c-1.2-0.637-2.5-0.984-3.9-0.984-1.39 0-2.72 0.347-3.88 0.984h-2.14c0-0.521-0.41-0.984-0.99-0.984h-1.96c-0.58 0-1.05 0.463-1.05 0.984-0.517 0-0.98 0.406-0.98 0.986v11.7c0 0.521 0.463 0.984 0.984 0.984h6.14c1.16 0.6 2.49 0.9 3.88 0.9s2.72-0.347 3.88-0.984h6.14c0.5 0 1-0.4 1-0.9v-11.7c0-0.579-0.463-0.984-0.984-0.984zm-20 12.7v-11.7h4.75c-1.7 1.36-2.74 3.5-2.74 5.82s1.04 4.46 2.72 5.85h-4.75zm13.6 0c-0.521 0.289-1.1 0.521-1.68 0.695h-0.116c-0.232 0.0579-0.463 0.116-0.753 0.174-0.0579 0-0.116 0-0.232 0.0579-0.289 0.0579-0.579 0.0579-0.868 0.0579s-0.579 0-0.868-0.0579c-0.0579 0-0.116 0-0.232-0.0579-0.232-0.0579-0.521-0.116-0.753-0.174h-0.116c-0.59-0.2-1.16-0.4-1.69-0.7-2.02-1.3-3.41-3.4-3.41-5.88 0-2.49 1.39-4.69 3.42-5.85 0.521-0.289 1.1-0.521 1.68-0.695h0.116c0.22-0.06 0.45-0.12 0.74-0.18 0.0579 0 0.116 0 0.232-0.0579 0.289-0.0579 0.579-0.0579 0.868-0.0579s0.579 0 0.868 0.0579c0.0579 0 0.116 0 0.232 0.0579 0.232 0.0579 0.521 0.116 0.753 0.174h0.116c0.579 0.174 1.16 0.405 1.68 0.695 2.03 1.22 3.42 3.36 3.42 5.85s-1.39 4.69-3.42 5.85zm6.43 0h-4.75c1.68-1.45 2.72-3.53 2.72-5.85s-1.04-4.46-2.72-5.85h4.75v11.7zm-4.5-5.88h-0.868c0-2.49-2.1-4.58-4.6-4.58v-0.811c3.01 0 5.5 2.43 5.5 5.38z"/></svg>
