<?xml version="1.0" encoding="utf-8"?><svg version="1.1" id="Layer_1" xmlns="http://www.w3.org/2000/svg" xmlns:xlink="http://www.w3.org/1999/xlink" x="0px" y="0px" viewBox="0 0 20 20" style="enable-background:new 0 0 20 20;" xml:space="preserve"><style type="text/css">.st0{fill:#c5c7cb;}</style><g><g><path class="st0" d="M16.7,3h-2.1c-0.5,0-0.9,0.4-0.9,0.8v2c0,0.5,0.4,0.8,0.9,0.8h2.1c0.5,0,0.9-0.4,0.9-0.8v-2 C17.6,3.4,17.2,3,16.7,3z M16.5,5.7h-1.7V4h1.7V5.7z M16.7,0H3.3C1.5,0,0,1.4,0,3.2v13.7C0,18.6,1.5,20,3.3,20h13.5 c1.8,0,3.3-1.4,3.3-3.2V3.2C20,1.4,18.5,0,16.7,0z M19,16.8c0,1.2-1,2.2-2.3,2.2H3.3C2,19,1,18,1,16.8V8.3h17.8c0.1,0,0.1,0,0.2,0 V16.8z M19,7.4c-0.1,0-0.1,0-0.2,0H1V3.2C1,2,2,1,3.3,1h13.5C18,1,19,2,19,3.2V7.4z M10.2,8.9c-2.5,0-4.6,2-4.6,4.4 c0,2.4,2.1,4.4,4.6,4.4c2.5,0,4.6-2,4.6-4.4C14.7,10.9,12.7,8.9,10.2,8.9z M10.2,16.7c-2,0-3.5-1.5-3.5-3.4c0-1.9,1.6-3.4,3.5-3.4 c2,0,3.5,1.5,3.5,3.4C13.7,15.2,12.1,16.7,10.2,16.7z M10.2,10.6c-1.5,0-2.8,1.2-2.8,2.7c0,1.5,1.2,2.7,2.8,2.7s2.8-1.2,2.8-2.7 C12.9,11.8,11.7,10.6,10.2,10.6z M10.2,15c-1,0-1.8-0.8-1.8-1.7s0.8-1.7,1.8-1.7s1.8,0.8,1.8,1.7S11.1,15,10.2,15z"/></g></g></svg>
