<?xml version="1.0" encoding="utf-8"?><svg version="1.1" id="Layer_1" xmlns="http://www.w3.org/2000/svg" xmlns:xlink="http://www.w3.org/1999/xlink" x="0px" y="0px" viewBox="0 0 20 20" style="enable-background:new 0 0 20 20;" xml:space="preserve"><style type="text/css">.st0{fill:#FFFFFF;}</style><path class="st0" d="M16.5,11.8c-0.4-0.4-0.9-0.7-1.4-0.7c-0.5,0-1,0.2-1.5,0.7l-1.4,1.3C12.1,13.1,12,13,11.9,13 c-0.2-0.1-0.3-0.1-0.4-0.2C10.2,12,9.1,10.9,8,9.6C7.4,8.9,7.1,8.3,6.8,7.8c0.4-0.3,0.7-0.7,1-1C7.9,6.7,8,6.5,8.2,6.4 c0.9-0.9,0.9-2.1,0-2.9L7,2.3C6.9,2.2,6.7,2.1,6.6,1.9C6.3,1.7,6.1,1.4,5.8,1.1C5.4,0.7,4.9,0.5,4.4,0.5c-0.5,0-1,0.2-1.5,0.6l0,0 L1.4,2.6c-0.5,0.5-0.9,1.2-0.9,2C0.4,5.8,0.8,7,1.1,7.7c0.7,1.9,1.7,3.6,3.3,5.4c1.9,2.2,4.1,4,6.7,5.2c1,0.5,2.3,1,3.8,1.1 c0.1,0,0.2,0,0.3,0c1,0,1.8-0.4,2.5-1.1c0,0,0,0,0,0c0.2-0.3,0.5-0.5,0.7-0.8c0.2-0.2,0.4-0.4,0.6-0.5c0.4-0.4,0.6-0.9,0.6-1.5 c0-0.5-0.2-1-0.7-1.5L16.5,11.8z M18,16.3C18,16.3,18,16.3,18,16.3c-0.2,0.2-0.3,0.3-0.5,0.5c-0.3,0.3-0.6,0.5-0.8,0.9 c-0.4,0.5-0.9,0.7-1.6,0.7c-0.1,0-0.1,0-0.2,0c-1.3-0.1-2.4-0.6-3.3-1c-2.4-1.2-4.5-2.8-6.3-4.9c-1.5-1.7-2.4-3.4-3.1-5.1 C1.8,6.3,1.6,5.4,1.7,4.7c0-0.5,0.2-0.9,0.6-1.3L3.7,2c0.2-0.2,0.4-0.3,0.6-0.3c0.3,0,0.5,0.2,0.6,0.3l0,0c0.3,0.2,0.5,0.5,0.8,0.8 C5.9,2.9,6,3,6.2,3.1l1.2,1.2c0.5,0.5,0.5,0.9,0,1.3C7.2,5.7,7.1,5.9,7,6C6.6,6.3,6.3,6.7,5.9,7c0,0,0,0,0,0C5.5,7.4,5.6,7.8,5.7,8 l0,0C6,8.8,6.4,9.5,7.1,10.3l0,0c1.2,1.4,2.4,2.6,3.8,3.4c0.2,0.1,0.4,0.2,0.5,0.3c0.2,0.1,0.3,0.1,0.4,0.2c0,0,0,0,0.1,0 c0.1,0.1,0.3,0.1,0.4,0.1c0.4,0,0.6-0.2,0.6-0.3l1.5-1.5c0.1-0.1,0.4-0.3,0.6-0.3c0.3,0,0.5,0.2,0.6,0.3L18,15 C18.5,15.4,18.5,15.9,18,16.3L18,16.3z M18,16.3"/></svg>
