<?xml version="1.0" encoding="utf-8"?><svg version="1.1" id="Layer_1" xmlns="http://www.w3.org/2000/svg" xmlns:xlink="http://www.w3.org/1999/xlink" x="0px" y="0px" viewBox="0 0 10 11" style="enable-background:new 0 0 10 11;" xml:space="preserve"><style type="text/css">.st0{fill:#FFFFFF;}</style><path class="st0" d="M9.9,10L7.4,7.3c0.6-0.8,1-1.8,1-2.9C8.4,2,6.5,0,4.2,0C1.9,0,0,2,0,4.4c0,2.4,1.9,4.4,4.2,4.4 c0.9,0,1.7-0.3,2.4-0.8l2.5,2.7C9.2,10.9,9.3,11,9.5,11c0.1,0,0.3-0.1,0.4-0.2C10.1,10.6,10.1,10.2,9.9,10L9.9,10z M4.2,1.2 c1.7,0,3.1,1.5,3.1,3.3c0,1.8-1.4,3.3-3.1,3.3c-1.7,0-3.1-1.5-3.1-3.3C1.1,2.6,2.5,1.2,4.2,1.2L4.2,1.2z M4.2,1.2"/></svg>
