<?xml version="1.0" encoding="utf-8"?><svg version="1.1" id="Layer_1" xmlns="http://www.w3.org/2000/svg" xmlns:xlink="http://www.w3.org/1999/xlink" x="0px" y="0px" viewBox="0 0 18 26" style="enable-background:new 0 0 18 26;" xml:space="preserve"><style type="text/css">.st0{fill:#FFFFFF;}</style><path class="st0" d="M11,24.5H6.2c-0.3,0-0.4-0.2-0.4-0.5v-9.7H3.9c-0.3,0-0.4-0.2-0.4-0.5v-4c0-0.3,0.1-0.5,0.4-0.5h2.2 c0-3.2,0.6-5.3,1.8-6.5c1-1,2.2-1.2,3.4-1.2h3.4c0.3,0,0.7,0.2,0.7,0.5v4.4c0,0.3-0.4,0.5-0.7,0.5h-3v2.2h3c0.3,0,0.7,0.2,0.7,0.5v4 c0,0.3-0.4,0.5-0.7,0.5h-3V24C11.7,24.3,11.3,24.5,11,24.5L11,24.5z M6.9,23.4h3.7v-9.7c0-0.3,0.1-0.5,0.4-0.5h3.3v-2.9H11 c-0.3,0-0.4-0.2-0.4-0.5V6.4c0-0.3,0.1-0.5,0.4-0.5h3.3V2.6h-3c-0.9,0-1.9,0.1-2.6,0.8c-1,1-1.5,3.1-1.4,6.3c0,0.1-0.1,0.3-0.2,0.4 c-0.1,0.1-0.3,0.2-0.4,0.2H4.6v2.9h1.5c0.3,0,0.7,0.2,0.7,0.5V23.4z M6.9,23.4"/></svg>
