<?xml version="1.0" encoding="UTF-8" standalone="no"?><svg xmlns:rdf="http://www.w3.org/1999/02/22-rdf-syntax-ns#" xmlns="http://www.w3.org/2000/svg" xml:space="preserve" viewBox="0 0 16 13" height="13" width="16" version="1.1" y="0px" x="0px" xmlns:cc="http://creativecommons.org/ns#" xmlns:dc="http://purl.org/dc/elements/1.1/"><style type="text/css">.st0{fill:#231f20;}</style><g transform="matrix(.842 0 0 .842 0 .368)"><path fill="#fff" class="st0" d="m16.7 0h-14.4c-1.3 0-2.3 1.1-2.3 2.4v10.2c0 1.3 1 2.4 2.3 2.4h14.4c1.3 0 2.3-1.1 2.3-2.4v-10.2c0-1.3-1-2.4-2.3-2.4zm0 13.9h-14.4c-0.7 0-1.3-0.6-1.3-1.3v-10.2c0-0.7 0.6-1.3 1.3-1.3h14.4c0.7 0 1.3 0.6 1.3 1.3v10.2c-0.1 0.7-0.6 1.3-1.3 1.3zm-4.7-6.5 4.6-4.3c0.2-0.2 0.2-0.6 0-0.8s-0.5-0.2-0.8 0l-6.4 6-1.1-1.3-0.1-0.1-5.1-4.7c-0.2-0.2-0.6-0.2-0.8 0.1-0.2 0.2-0.2 0.6 0 0.8l4.7 4.4-4.6 4.5c-0.2 0.2-0.2 0.6 0 0.8 0.1 0.1 0.2 0.2 0.4 0.2 0.1 0 0.3 0 0.4-0.1l4.8-4.6 1.3 1.2c0.1 0.1 0.2 0.1 0.4 0.1 0.1 0 0.3 0 0.4-0.1l1.3-1.2 4.7 4.7c0.1 0.1 0.2 0.2 0.4 0.2 0.1 0 0.3-0.1 0.4-0.2 0.2-0.2 0.2-0.6 0-0.8l-4.9-4.8z"/></g></svg>
