<?xml version="1.0" encoding="utf-8"?><svg version="1.1" id="Layer_1" xmlns="http://www.w3.org/2000/svg" xmlns:xlink="http://www.w3.org/1999/xlink" x="0px" y="0px" viewBox="0 0 108 108" style="enable-background:new 0 0 108 108;" xml:space="preserve"><style type="text/css">.st0{fill:#FFFFFF;}</style>
<g><g><path class="st0" d="M82,52.5l-39.6-27c-0.6-0.4-1.3-0.4-1.9-0.1c-0.6,0.3-1,0.9-1,1.6v54c0,0.7,0.4,1.3,1,1.6 c0.3,0.1,0.6,0.2,0.8,0.2c0.4,0,0.7-0.1,1-0.3l39.6-27c0.5-0.3,0.8-0.9,0.8-1.5C82.8,53.4,82.5,52.8,82,52.5z M43.2,77.6V30.4 L77.8,54L43.2,77.6z M54,0C24.2,0,0,24.2,0,54c0,29.8,24.2,54,54,54c29.8,0,54-24.2,54-54C108,24.2,83.8,0,54,0z M54,104.4 C26.2,104.4,3.6,81.8,3.6,54C3.6,26.2,26.2,3.6,54,3.6c27.8,0,50.4,22.6,50.4,50.4C104.4,81.8,81.8,104.4,54,104.4z"/></g></g></svg>
