<?xml version="1.0" encoding="utf-8"?><svg version="1.1" id="Layer_1" xmlns="http://www.w3.org/2000/svg" xmlns:xlink="http://www.w3.org/1999/xlink" x="0px" y="0px" viewBox="0 0 43 44" style="enable-background:new 0 0 43 44;" xml:space="preserve"><style type="text/css">.st0{fill:#231F20;}</style><path class="st0" d="M43,20.5h-2.1v-9.7c0-2.3-1.9-4.2-4.2-4.2h-2.8L31,1.3C30.6,0.5,29.8,0,28.9,0c-0.4,0-0.8,0.1-1.2,0.3L16.6,6.6 H4.2C1.9,6.6,0,8.5,0,10.8v29C0,42.1,1.9,44,4.2,44h32.6c2.3,0,4.2-1.9,4.2-4.2v-8.5H43V20.5z M36.8,8.2c1.3,0,2.3,1,2.5,2.3h-3.1 l-1.2-2.3H36.8z M28.5,1.8c0.4-0.2,0.9-0.1,1.1,0.3l4.6,8.4H13L28.5,1.8z M39.3,39.8c0,1.4-1.1,2.5-2.5,2.5H4.2 c-1.4,0-2.5-1.1-2.5-2.5v-29c0-1.4,1.1-2.5,2.5-2.5h9.4l-4,2.3H4.7c-0.5,0-0.8,0.4-0.8,0.8c0,0.5,0.4,0.8,0.8,0.8h34.6v8.3h-6.1 c-2.8,0-5.1,2.3-5.1,5.2v0.4c0,2.9,2.3,5.2,5.1,5.2h6.1V39.8z M41.3,29.6h-8.2c-1.9,0-3.5-1.6-3.5-3.5v-0.4c0-1.9,1.6-3.5,3.5-3.5 h8.2V29.6z M35.7,25.9c0,1-0.8,1.9-1.8,1.9c-1,0-1.8-0.8-1.8-1.9c0-1,0.8-1.9,1.8-1.9C34.9,24.1,35.7,24.9,35.7,25.9L35.7,25.9z M35.7,25.9"/></svg>
