<?xml version="1.0" encoding="utf-8"?><svg version="1.1" id="Layer_1" xmlns="http://www.w3.org/2000/svg" xmlns:xlink="http://www.w3.org/1999/xlink" x="0px" y="0px" viewBox="0 0 48 48" style="enable-background:new 0 0 48 48;" xml:space="preserve"><style type="text/css">.st0{fill:#231F20;}</style><g><g><path class="st0" d="M24,20.8c3.1,0,5.6-2.5,5.6-5.6c0-3.1-2.5-5.6-5.6-5.6c-3.1,0-5.6,2.5-5.6,5.6C18.4,18.3,20.9,20.8,24,20.8z M24,11.2c2.2,0,4,1.8,4,4c0,2.2-1.8,4-4,4c-2.2,0-4-1.8-4-4C20,13,21.8,11.2,24,11.2z M23.9,43.8l12.3-17.7 c4.6-6.1,3.9-16.2-1.4-21.6C31.8,1.6,28,0,23.9,0c-4.1,0-8,1.6-10.8,4.5c-5.4,5.4-6,15.4-1.4,21.6L23.9,43.8z M14.1,5.6 c2.6-2.6,6-4,9.7-4c3.7,0,7.1,1.4,9.7,4c4.8,4.8,5.4,13.9,1.3,19.5L23.9,41l-11-15.9C8.7,19.6,9.3,10.5,14.1,5.6z M33.7,34.4 c-0.4-0.1-0.8,0.3-0.9,0.7c-0.1,0.4,0.3,0.8,0.7,0.9c8.4,1,12.9,3.7,12.9,5.2c0,2.2-8.5,5.2-22.4,5.2c-13.9,0-22.4-3-22.4-5.2 c0-1.5,4.5-4.2,12.9-5.2c0.4-0.1,0.8-0.5,0.7-0.9c-0.1-0.4-0.4-0.8-0.9-0.7C5.9,35.4,0,38.2,0,41.2C0,44.6,8.2,48,24,48 s24-3.4,24-6.8C48,38.2,42.1,35.4,33.7,34.4z"/></g></g></svg>
