<svg width="42" height="47" viewBox="0 0 42 47" xmlns="http://www.w3.org/2000/svg" xmlns:xlink="http://www.w3.org/1999/xlink"><title>implants</title><defs><path id="a" d="M0 .12v45.278h41.063V.12H0z"/></defs><g fill="none" fill-rule="evenodd"><mask id="b" fill="#fff"><use xlink:href="#a"/></mask><path d="M40.344 8.644c-.653-2.473-2.571-4.836-5.395-6.652-3.476-2.239-8.398-2.485-12.836-.653l-.156.067a2.506 2.506 0 0 1-.223.093c-.371.129-.656.239-.89.329-.739.289-.739.285-1.953-.071C15.422.734 11.008-.286 7.621.913 3.039 2.538-1.027 7.917.23 16.265c.149.988.293 1.984.442 2.984 1.047 7.215 2.133 14.672 4.922 21.411l.094.23c.695 1.684 1.855 4.508 3.871 4.508h.164l.148-.063c1.852-.785 2.543-2.562 3.051-3.859l-1.492-.582c-.512 1.312-.989 2.371-2.008 2.887-.906-.227-1.875-2.586-2.254-3.5l-.094-.235c-2.715-6.551-3.785-13.91-4.82-21.027-.149-1.004-.293-2-.442-2.988-.808-5.368.84-11.657 6.344-13.61 2.957-1.047 7.211-.027 10.192.844 5.14 2.918 5.14 4.184 5.121 9.402l-.004 1.055a.8.8 0 1 0 1.601 0v-1.051c.02-4.574.012-6.73-3.644-9.351.219-.086.488-.188.84-.309.109-.039.222-.086.332-.137l.133-.054c3.961-1.637 8.312-1.442 11.359.515 2.484 1.602 4.16 3.633 4.711 5.719 1.668 6.297-.137 13.785-1.727 20.395a223.538 223.538 0 0 0-.836 3.554l-.23 1.047c-.625 2.84-1.27 5.781-2.719 8.313-.484.851-.984 1.324-1.316 1.308-.367-.039-1.379-.617-2.856-5.168l-1.519.496c.965 2.981 2.226 6.059 4.211 6.262 1.047.109 2.015-.601 2.871-2.105 1.566-2.746 2.242-5.805 2.89-8.762l.231-1.039c.254-1.145.539-2.324.828-3.531 1.637-6.793 3.488-14.489 1.719-21.18z" fill="#000" mask="url(#b)"/><path d="M27.984 33.945a.798.798 0 0 0-1.011-.504l-.547.179v-3.113l1.051-.347a.808.808 0 0 0 .507-1.016.798.798 0 0 0-1.011-.504l-.551.184V25.71l1.055-.351a.8.8 0 0 0 .503-1.012.798.798 0 0 0-1.011-.508l-.547.184v-4.555l-2.867-2.871H18.09l-2.867 2.871v8.035l-1.043.332a.798.798 0 0 0-.52 1.004c.11.344.422.559.762.559a.858.858 0 0 0 .242-.035l.559-.18v3.121l-1.043.332a.798.798 0 0 0-.52 1.004.798.798 0 0 0 1.004.523l.559-.179v3.121l-1.043.332a.798.798 0 0 0 .242 1.562.824.824 0 0 0 .242-.035l.559-.179v1.816h1.601v2.664l2.797 3.734h2.402l2.801-3.734v-2.664h1.598v-5.293l1.055-.348a.8.8 0 0 0 .507-1.015zm-11.16-13.817l1.93-1.929h4.141l1.929 1.929v2.871h-8v-2.871zm8 18.871h-1.601v3.735l-2 2.664h-.797l-2-2.664v-3.735h-1.602v-.722l3.442-1.094a.795.795 0 0 0 .519-1.004.795.795 0 0 0-1.004-.519l-2.957.937v-3.121l3.442-1.094a.795.795 0 0 0 .519-1.004.798.798 0 0 0-1.004-.519l-2.957.941v-3.121l3.442-1.094a.794.794 0 0 0 .519-1.004.795.795 0 0 0-1.004-.519l-2.957.937v-2.398h7.871l-1.722.574a.799.799 0 0 0 .25 1.559.812.812 0 0 0 .254-.039l1.347-.45v3.114l-1.851.617a.799.799 0 0 0 .254 1.559.778.778 0 0 0 .25-.04l1.347-.449v3.114l-1.851.617a.804.804 0 0 0-.508 1.011.803.803 0 0 0 1.015.508l1.344-.449v3.152z" fill="#000"/></g></svg>