<?xml version="1.0" encoding="UTF-8" standalone="no"?><svg id="Layer_1" xmlns="http://www.w3.org/2000/svg" viewBox="0 0 104.7 76"><style>.st0{fill:#ffffff}.st1{fill:#ffffff}.st2,.st3{fill-rule:evenodd;clip-rule:evenodd;fill:#ffffff}.st3{fill:#b31d55}</style><path class="st0" d="M6.5 72.9l1 2.9h2.2L6.1 65.5H3.5L0 75.8h2.1l.9-2.9h3.5zm-3.2-1.4l.8-2.5c.2-.6.4-1.3.5-1.9.2.6.3 1.3.6 1.9l.9 2.5H3.3zm9.7 4.3v-3.7c0-1.7 0-3-.1-4.4.5 1.2 1.3 2.4 2 3.5l2.9 4.5h2.1V65.5H18v3.6c0 1.6 0 2.9.2 4.3-.5-1.1-1.1-2.3-1.9-3.4l-2.8-4.4h-2.3v10.3H13v-.1zm14.9-2.9l1 2.9H31l-3.6-10.3h-2.6l-3.5 10.3h2.1l.9-2.9h3.6zm-3.2-1.4l.8-2.5c.2-.6.4-1.3.5-1.9.2.6.3 1.3.6 1.9l.9 2.5h-2.8zm7.4 3.8c.6.3 1.8.7 3 .7 2.8 0 4.2-1.5 4.2-3.1 0-1.5-.9-2.4-2.8-3-1.5-.5-2.1-.9-2.1-1.7 0-.6.6-1.2 1.8-1.2 1 0 1.8.3 2.2.5l.5-1.5c-.6-.3-1.4-.5-2.6-.5-2.4 0-3.9 1.3-3.9 3 0 1.5 1.2 2.4 3 3 1.4.5 2 .9 2 1.7 0 .8-.7 1.4-2 1.4-1 0-2-.3-2.7-.7l-.6 1.4z"/><path class="st1" d="M50.3 75.8h2l-.6-10.3H49l-1.5 4.1c-.4 1.2-.8 2.5-1.1 3.6-.3-1.1-.6-2.4-1-3.6L44 65.5h-2.6l-.7 10.3h1.9l.2-4.1c.1-1.4.1-3 .2-4.4.3 1.3.7 2.7 1.1 4l1.5 4.4H47l1.6-4.5c.5-1.3.9-2.7 1.3-3.9 0 1.4.1 3 .1 4.3l.3 4.2zm10.1-6.1h-4.1V67h4.4v-1.5h-6.4v10.3h6.6v-1.5h-4.6v-3h4.1v-1.6zm2.3 6.1c.7.1 1.5.1 2.7.1 2.1 0 3.9-.5 5-1.4 1-.9 1.7-2.3 1.7-4.1 0-1.8-.7-3-1.7-3.8-1-.8-2.4-1.2-4.5-1.2-1.2 0-2.3.1-3.2.2v10.2zm2-8.8c.3-.1.7-.1 1.4-.1 2.5 0 3.9 1.3 3.9 3.6 0 2.6-1.5 3.9-4.2 3.9h-1.1V67zm9.1-1.5v10.3h2V65.5h-2zM85.6 74c-.5.2-1.4.4-2.2.4-2.4 0-3.8-1.4-3.8-3.7 0-2.5 1.6-3.8 3.8-3.8.9 0 1.6.2 2.2.4l.4-1.5c-.4-.2-1.4-.5-2.7-.5-3.4 0-5.9 2-5.9 5.4 0 3.1 2.1 5.2 5.6 5.2 1.3 0 2.4-.2 2.8-.5l-.2-1.4zm7.9-1.1l1 2.9h2.2L93 65.5h-2.6L87 75.8h2l.9-2.9h3.6zm-3.2-1.4l.8-2.5c.2-.6.4-1.3.5-1.9.2.6.3 1.3.6 1.9l.9 2.5h-2.8zm7.8 4.3h6.5v-1.6h-4.5v-8.7h-2v10.3z"/><path class="st2" d="M26.5 0H46c14.2 0 14.4-1.3 20.7 10.7L84 43.4c4.2 8 5.9 10 10.3 10.7v.2H74.6c-14.2 0-14.4 1.3-20.7-10.7L37 11.6C33 4 31.6 1.3 26.4.2V0h.1z"/><path class="st3" d="M28.6 24.4c8.3 0 15 6.7 15 15s-6.7 15-15 15-15-6.7-15-15c.1-8.3 6.8-15 15-15z"/></svg>
