<?xml version="1.0" encoding="UTF-8" standalone="no"?><svg xmlns:rdf="http://www.w3.org/1999/02/22-rdf-syntax-ns#" xmlns="http://www.w3.org/2000/svg" xml:space="preserve" viewBox="0 0 95 76.000001" height="76" width="95" version="1.1" y="0px" x="0px" xmlns:cc="http://creativecommons.org/ns#" xmlns:dc="http://purl.org/dc/elements/1.1/"><style type="text/css">.st0{fill:#ffffff;}.st1{fill:#9E2250;}
</style><g transform="matrix(.6844 0 0 .6855 13.14 133.7)"><path fill="#ffffff" class="st0" d="m12.3-194.9h28.7c20.9 0 21.2-1.9 30.5 15.7l25.3 48.2c6.2 11.7 8.8 14.7 15.2 15.8v0.2h-28.9c-20.9 0-21.2 1.9-30.5-15.7l-24.8-47.1c-5.9-11.1-7.9-15.2-15.5-16.7v-0.4z"/><path fill="#9e2250" class="st1" d="m15.4-159.2c12.2 0 22 9.9 22 22 0 12.2-9.9 22-22 22s-22-9.9-22-22 9.9-22 22-22z"/><path fill="#9e2250" class="st1" d="m105.1-90.9-2-5.3c-0.1-0.2-0.1-0.4-0.2-0.6-0.1 0.2-0.1 0.4-0.2 0.6l-2 5.3h4.4zm-40.4-7v12h3.1c3.8 0 6-2.2 6-6s-2.3-6-6-6h-3.1zm48 12h6.9v1.6h-8.5v-15.1h1.6v13.5zm-7.1-3.4h-5.6l-1.8 5h-1.7l5.7-15.1h1.5l5.7 15.1h-1.7l-2.1-5zm-15.6-10.4c1.9 0 4 0.6 5.4 1.9l0.3 0.2-1 1.2-0.3-0.3c-1.1-1-2.8-1.5-4.3-1.5-3.5 0-5.9 2.7-5.9 6.1 0 3.5 2.3 6.3 5.9 6.3 1.7 0 3.4-0.7 4.6-1.8l0.3-0.3 1.1 1.2-0.3 0.2c-1.6 1.5-3.5 2.3-5.7 2.3-4.5 0-7.6-3.5-7.6-7.9 0-4.2 3.1-7.6 7.5-7.6zm-11.8 0.2h1.6v15.1h-1.6v-15.1zm-15.2 0h4.9c4.6 0 7.5 2.9 7.5 7.6 0 4.6-2.9 7.6-7.5 7.6h-4.9v-15.2zm-9.8 1.6v5.2h5.8v1.6h-5.7v5.3h7.4v1.6h-9v-15.1h8.6v1.6l-7.1-0.2zm-12 8.5c0.1-0.3 0.3-0.6 0.4-0.9l4.3-9.3h1.4l1.2 15.1h-1.6l-0.9-11.2v-0.1c0 0.1-0.1 0.2-0.1 0.3l-4 8.4h-1.4l-3.9-8.4c0-0.1-0.1-0.2-0.1-0.3v0.2l-0.9 11.3h-1.6l1.2-15.1h1.4l4.3 9.3c0.1 0.1 0.2 0.4 0.3 0.7z"/><path fill="#565e69" class="st0" d="m17.7-90.9-2-5.3c-0.1-0.2-0.1-0.4-0.2-0.6-0.1 0.2-0.1 0.4-0.2 0.6l-2 5.3h4.4zm-28.3 0-2-5.3c-0.1-0.2-0.1-0.4-0.2-0.6-0.1 0.2-0.1 0.4-0.2 0.6l-2 5.3h4.4zm34.4 3.7c0.9 0.9 2.2 1.5 3.5 1.5 1.5 0 2.9-0.8 2.9-2.5 0-3.7-7.4-2.7-7.4-7.5 0-2.6 2.3-4.1 4.7-4.1 1.4 0 2.9 0.5 3.9 1.4l0.2 0.2-0.9 1.4-0.2-0.2c-0.7-0.7-1.9-1.1-2.9-1.1-1.4 0-3 0.8-3 2.4 0 3.5 7.4 2.5 7.4 7.4 0 2.6-2.1 4.2-4.6 4.2-1.7 0-3.4-0.7-4.6-1.9l-0.2-0.2 1.1-1.2 0.1 0.2zm-5.5-2.1h-5.6l-1.9 5h-1.7l5.7-15.1h1.5l5.7 15.1h-1.7l-2-5zm-12.7 1.9v-0.4-11.7h1.6v15.1h-1.3l-8.3-11.4c-0.2-0.2-0.3-0.4-0.4-0.7v0.4 11.7h-1.6v-15.1h1.4l8.2 11.5c0.1 0.2 0.3 0.4 0.4 0.6zm-15.6-1.9h-5.6l-1.9 5h-1.7l5.7-15.1h1.5l5.7 15.1h-1.7l-2-5z"/></g></svg>
