<?xml version="1.0" encoding="UTF-8" standalone="no"?>
<svg
   xmlns:dc="http://purl.org/dc/elements/1.1/"
   xmlns:cc="http://creativecommons.org/ns#"
   xmlns:rdf="http://www.w3.org/1999/02/22-rdf-syntax-ns#"
   xmlns:svg="http://www.w3.org/2000/svg"
   xmlns="http://www.w3.org/2000/svg"
   height="10.7"
   width="104.6"
   version="1.1"
   viewBox="0 0 104.6 10.7"
   id="Layer_1">
  <metadata
     id="metadata17">
    <rdf:RDF>
      <cc:Work
         rdf:about="">
        <dc:format>image/svg+xml</dc:format>
        <dc:type
           rdf:resource="http://purl.org/dc/dcmitype/StillImage" />
        <dc:title></dc:title>
      </cc:Work>
    </rdf:RDF>
  </metadata>
  <defs
     id="defs15" />
  <style
     id="style3">.st0{fill:#231f20}.st1{fill:#b31d55}.st2,.st3{fill-rule:evenodd;clip-rule:evenodd;fill:#231f20}.st3{fill:#b31d55}</style>
  <path
     style="fill:#ffffff"
     id="path5"
     d="m 6.5,7.6 1,2.9 2.2,0 L 6.1,0.2 3.5,0.2 0,10.5 2.1,10.5 3,7.6 6.5,7.6 Z M 3.3,6.2 4.1,3.7 C 4.3,3.1 4.5,2.4 4.6,1.8 4.8,2.4 4.9,3.1 5.2,3.7 l 0.9,2.5 -2.8,0 z m 9.7,4.3 0,-3.7 c 0,-1.7 0,-3 -0.1,-4.4 0.5,1.2 1.3,2.4 2,3.5 l 2.9,4.5 2.1,0 0,-10.2 -1.9,0 0,3.6 c 0,1.6 0,2.9 0.2,4.3 C 17.7,7 17.1,5.8 16.3,4.7 l -2.8,-4.4 -2.3,0 0,10.3 1.8,0 0,-0.1 z m 14.9,-2.9 1,2.9 2.1,0 -3.6,-10.3 -2.6,0 -3.5,10.3 2.1,0 0.9,-2.9 3.6,0 z M 24.7,6.2 25.5,3.7 c 0.2,-0.6 0.4,-1.3 0.5,-1.9 0.2,0.6 0.3,1.3 0.6,1.9 l 0.9,2.5 -2.8,0 z m 7.4,3.8 c 0.6,0.3 1.8,0.7 3,0.7 2.8,0 4.2,-1.5 4.2,-3.1 0,-1.5 -0.9,-2.4 -2.8,-3 C 35,4.1 34.4,3.7 34.4,2.9 c 0,-0.6 0.6,-1.2 1.8,-1.2 1,0 1.8,0.3 2.2,0.5 L 38.9,0.7 C 38.3,0.4 37.5,0.2 36.3,0.2 c -2.4,0 -3.9,1.3 -3.9,3 0,1.5 1.2,2.4 3,3 1.4,0.5 2,0.9 2,1.7 0,0.8 -0.7,1.4 -2,1.4 -1,0 -2,-0.3 -2.7,-0.7 L 32.1,10 Z"
     class="st0" />
  <path
     style="fill:#ffffff"
     id="path7"
     d="m 50.3,10.5 2,0 L 51.7,0.2 49,0.2 47.5,4.3 C 47.1,5.5 46.7,6.8 46.4,7.9 46.1,6.8 45.8,5.5 45.4,4.3 L 44,0.2 l -2.6,0 -0.7,10.3 1.9,0 0.2,-4.1 C 42.9,5 42.9,3.4 43,2 c 0.3,1.3 0.7,2.7 1.1,4 l 1.5,4.4 1.4,0 1.6,-4.5 C 49.1,4.6 49.5,3.2 49.9,2 49.9,3.4 50,5 50,6.3 l 0.3,4.2 z m 10.1,-6.1 -4.1,0 0,-2.7 4.4,0 0,-1.5 -6.4,0 0,10.3 6.6,0 0,-1.5 -4.6,0 0,-3 4.1,0 0,-1.6 z m 2.3,6.1 c 0.7,0.1 1.5,0.1 2.7,0.1 2.1,0 3.9,-0.5 5,-1.4 1,-0.9 1.7,-2.3 1.7,-4.1 0,-1.8 -0.7,-3 -1.7,-3.8 -1,-0.8 -2.4,-1.2 -4.5,-1.2 -1.2,0 -2.3,0.1 -3.2,0.2 l 0,10.2 z m 2,-8.8 c 0.3,-0.1 0.7,-0.1 1.4,-0.1 2.5,0 3.9,1.3 3.9,3.6 0,2.6 -1.5,3.9 -4.2,3.9 l -1.1,0 0,-7.4 z m 9.1,-1.5 0,10.3 2,0 0,-10.3 -2,0 z m 11.8,8.5 c -0.5,0.2 -1.4,0.4 -2.2,0.4 -2.4,0 -3.8,-1.4 -3.8,-3.7 0,-2.5 1.6,-3.8 3.8,-3.8 0.9,0 1.6,0.2 2.2,0.4 L 86,0.5 C 85.6,0.3 84.6,0 83.3,0 c -3.4,0 -5.9,2 -5.9,5.4 0,3.1 2.1,5.2 5.6,5.2 1.3,0 2.4,-0.2 2.8,-0.5 L 85.6,8.7 Z m 7.9,-1.1 1,2.9 2.2,0 -3.7,-10.3 -2.6,0 -3.4,10.3 2,0 0.9,-2.9 3.6,0 z M 90.3,6.2 91.1,3.7 c 0.2,-0.6 0.4,-1.3 0.5,-1.9 0.2,0.6 0.3,1.3 0.6,1.9 l 0.9,2.5 -2.8,0 z m 7.8,4.3 6.5,0 0,-1.6 -4.5,0 0,-8.7 -2,0 0,10.3 z"
     class="st1" />
</svg>
