<?xml version="1.0" encoding="utf-8"?><svg version="1.1" id="Layer_1" xmlns="http://www.w3.org/2000/svg" xmlns:xlink="http://www.w3.org/1999/xlink" x="0px" y="0px" viewBox="0 0 136 19.8" style="enable-background:new 0 0 136 19.8;" xml:space="preserve"><style type="text/css">.st0{fill:#231F20;}.st1{fill:#B31D55;}.st2{fill-rule:evenodd;clip-rule:evenodd;fill:#231F20;}.st3{fill-rule:evenodd;clip-rule:evenodd;fill:#B31D55;}</style><path class="st0" d="M37.8,12.3l1,2.9H41L37.4,4.9h-2.6l-3.5,10.3h2.1l0.9-2.9H37.8L37.8,12.3z M34.7,10.9l0.8-2.5 c0.2-0.6,0.4-1.3,0.5-1.9h0c0.2,0.6,0.3,1.3,0.6,1.9l0.9,2.5H34.7L34.7,10.9z M44.4,15.2v-3.7c0-1.7,0-3-0.1-4.4l0,0 c0.5,1.2,1.3,2.4,2,3.5l2.9,4.5h2.1V4.9h-1.9v3.6c0,1.6,0,2.9,0.2,4.3h0c-0.5-1.1-1.1-2.3-1.9-3.4l-2.8-4.4h-2.3v10.3H44.4 L44.4,15.2z M59.2,12.3l1,2.9h2.2L58.8,4.9h-2.6l-3.5,10.3h2.1l0.9-2.9H59.2L59.2,12.3z M56.1,10.9l0.8-2.5c0.2-0.6,0.4-1.3,0.5-1.9 h0C57.6,7,57.8,7.7,58,8.4l0.9,2.5H56.1L56.1,10.9z M63.4,14.7c0.6,0.3,1.8,0.7,3,0.7c2.8,0,4.2-1.5,4.2-3.1c0-1.5-0.9-2.4-2.8-3 c-1.5-0.5-2.1-0.9-2.1-1.7c0-0.6,0.6-1.2,1.8-1.2c1,0,1.8,0.3,2.2,0.5l0.5-1.5c-0.6-0.3-1.4-0.5-2.6-0.5c-2.4,0-3.9,1.3-3.9,3 c0,1.5,1.2,2.4,3,3c1.4,0.5,2,0.9,2,1.7c0,0.8-0.7,1.4-2,1.4c-1,0-2-0.3-2.7-0.7L63.4,14.7L63.4,14.7z"/><path class="st1" d="M81.6,15.2h2L82.9,4.9h-2.6l-1.5,4.1c-0.4,1.2-0.8,2.5-1.1,3.6h0c-0.3-1.1-0.6-2.4-1-3.6l-1.4-4.1h-2.6 l-0.7,10.3h1.9l0.2-4.1c0.1-1.4,0.1-3,0.2-4.4h0c0.3,1.3,0.7,2.7,1.1,4l1.5,4.4h1.5l1.6-4.5c0.5-1.3,0.9-2.7,1.3-3.9h0 c0,1.4,0.1,3,0.1,4.3L81.6,15.2L81.6,15.2z M91.8,9.1h-4.1V6.5H92V4.9h-6.4v10.3h6.6v-1.5h-4.6v-3h4.1V9.1L91.8,9.1z M94,15.2 c0.7,0.1,1.5,0.1,2.7,0.1c2.1,0,3.9-0.5,5-1.4c1-0.9,1.7-2.3,1.7-4.1c0-1.8-0.7-3-1.7-3.8c-1-0.8-2.4-1.2-4.5-1.2 c-1.2,0-2.3,0.1-3.2,0.2V15.2L94,15.2z M96,6.4c0.3-0.1,0.7-0.1,1.4-0.1c2.5,0,3.9,1.3,3.9,3.6c0,2.6-1.5,3.9-4.2,3.9 c-0.4,0-0.8,0-1.1,0V6.4L96,6.4z M105.1,4.9v10.3h2V4.9H105.1L105.1,4.9z M117,13.4c-0.5,0.2-1.4,0.4-2.2,0.4 c-2.4,0-3.8-1.4-3.8-3.7c0-2.5,1.6-3.8,3.8-3.8c0.9,0,1.6,0.2,2.2,0.4l0.4-1.5c-0.4-0.2-1.4-0.5-2.7-0.5c-3.4,0-5.9,2-5.9,5.4 c0,3.1,2.1,5.2,5.6,5.2c1.3,0,2.4-0.2,2.8-0.5L117,13.4L117,13.4z M124.8,12.3l1,2.9h2.2l-3.6-10.3h-2.6l-3.5,10.3h2.1l0.9-2.9 H124.8L124.8,12.3z M121.7,10.9l0.8-2.5c0.2-0.6,0.4-1.3,0.5-1.9h0c0.2,0.6,0.3,1.3,0.6,1.9l0.9,2.5H121.7L121.7,10.9z M129.5,15.2 h6.5v-1.6h-4.5V4.9h-2V15.2L129.5,15.2z"/><path class="st2" d="M4.7,0h7.1C17,0,17-0.5,19.3,3.9l6.3,11.9c1.5,2.9,2.2,3.6,3.8,3.9v0.1h-7.2c-5.2,0-5.2,0.5-7.5-3.9L8.5,4.2 C7.1,1.5,6.6,0.5,4.7,0L4.7,0L4.7,0z"/><path class="st3" d="M5.5,8.9c3,0,5.5,2.4,5.5,5.5c0,3-2.4,5.5-5.5,5.5c-3,0-5.5-2.4-5.5-5.5C0,11.3,2.4,8.9,5.5,8.9L5.5,8.9z"/></svg>
