<?xml version="1.0" encoding="UTF-8" standalone="no"?><svg xmlns:rdf="http://www.w3.org/1999/02/22-rdf-syntax-ns#" xmlns="http://www.w3.org/2000/svg" xml:space="preserve" viewBox="0 0 147 20.00001" height="20" width="147" version="1.1" y="0px" x="0px" xmlns:cc="http://creativecommons.org/ns#" xmlns:dc="http://purl.org/dc/elements/1.1/"><style type="text/css">.st0{fill:#565E69;}.st1{fill:#9E2250;}
</style><g transform="matrix(.6844 0 0 .6855 4.517 98.8)"><path fill="#565e69" class="st0" d="m0.2573-144.1h10.41c7.583 0 7.692-0.6927 11.07 5.724l9.179 17.57c2.249 4.266 3.193 5.359 5.515 5.76v0.0729h-10.49c-7.583 0-7.692 0.6927-11.07-5.724l-8.998-17.17c-2.141-4.047-2.866-5.542-5.624-6.089v-0.1458z"/><path fill="#9e2250" class="st1" d="m1.382-131.1c4.426 0 7.982 3.609 7.982 8.021 0 4.448-3.592 8.021-7.982 8.021s-7.982-3.609-7.982-8.021c0-4.411 3.592-8.021 7.982-8.021z"/><path fill="#9e2250" class="st1" d="m190.6-128.3-2.418-6.438c-0.1209-0.2429-0.1209-0.4858-0.2418-0.7288-0.1209 0.2429-0.1209 0.4858-0.2417 0.7288l-2.418 6.438h5.319zm-48.83-8.502v14.58h3.747c4.593 0 7.253-2.672 7.253-7.288s-2.78-7.288-7.253-7.288h-3.747zm58.02 14.58h8.34v1.943h-10.27v-18.34h1.934v16.4zm-8.582-4.13h-6.769l-2.176 6.073h-2.055l6.89-18.34h1.813l6.89 18.34h-2.055l-2.538-6.073zm-18.86-12.63c2.297 0 4.835 0.7288 6.527 2.308l0.3626 0.2429-1.209 1.458-0.3626-0.3644c-1.33-1.215-3.385-1.822-5.198-1.822-4.231 0-7.132 3.279-7.132 7.409 0 4.251 2.78 7.652 7.132 7.652 2.055 0 4.11-0.8502 5.56-2.186l0.3626-0.3644 1.33 1.458-0.3626 0.2429c-1.934 1.822-4.231 2.794-6.89 2.794-5.439 0-9.187-4.251-9.187-9.596 0-5.101 3.747-9.231 9.066-9.231zm-14.26 0.2429h1.934v18.34h-1.934v-18.34zm-18.37 0h5.923c5.56 0 9.066 3.522 9.066 9.231 0 5.587-3.505 9.231-9.066 9.231h-5.923v-18.46zm-11.85 1.943v6.316h7.011v1.943h-6.89v6.438h8.945v1.943h-10.88v-18.34h10.4v1.943l-8.582-0.2429zm-14.51 10.32c0.1209-0.3644 0.3626-0.7288 0.4835-1.093l5.198-11.3h1.692l1.45 18.34h-1.934l-1.088-13.6v-0.1215c0 0.1215-0.1209 0.2429-0.1209 0.3644l-4.835 10.2h-1.692l-4.714-10.2c0-0.1215-0.1209-0.2429-0.1209-0.3644v0.2429l-1.088 13.73h-1.934l1.451-18.34h1.692l5.198 11.3c0.1209 0.1215 0.2418 0.4858 0.3626 0.8502z"/><path fill="#565e69" class="st0" d="m85-128.3-2.418-6.438c-0.1209-0.2429-0.1209-0.4858-0.2417-0.7288-0.1209 0.2429-0.1209 0.4858-0.2418 0.7288l-2.418 6.438h5.319zm-34.21 0-2.417-6.438c-0.1209-0.2429-0.1209-0.4858-0.2417-0.7288-0.1209 0.2429-0.1209 0.4858-0.2418 0.7288l-2.417 6.438h5.319zm41.58 4.494c1.088 1.093 2.659 1.822 4.231 1.822 1.813 0 3.505-0.9717 3.505-3.037 0-4.494-8.945-3.279-8.945-9.11 0-3.158 2.78-4.98 5.681-4.98 1.692 0 3.505 0.6073 4.714 1.7l0.2417 0.2429-1.088 1.7-0.2417-0.2429c-0.8461-0.8502-2.297-1.336-3.505-1.336-1.692 0-3.626 0.9717-3.626 2.915 0 4.251 8.945 3.037 8.945 8.988 0 3.158-2.538 5.101-5.56 5.101-2.055 0-4.11-0.8502-5.56-2.308l-0.2418-0.2429 1.33-1.458 0.1209 0.2429zm-6.648-2.551h-6.769l-2.297 6.073h-2.055l6.89-18.34h1.813l6.89 18.34h-2.055l-2.418-6.073zm-15.35 2.308v-0.4858-14.21h1.934v18.34h-1.571l-10.03-13.85c-0.2418-0.2429-0.3626-0.4858-0.4835-0.8502v0.4859 14.21h-1.934v-18.34h1.692l9.912 13.97c0.1209 0.2429 0.3626 0.4858 0.4835 0.7288zm-18.86-2.308h-6.769l-2.297 6.073h-2.055l6.89-18.34h1.813l6.89 18.34h-2.055l-2.418-6.073z"/></g></svg>
