<?xml version="1.0" encoding="UTF-8" standalone="no"?>
<svg xmlns:rdf="http://www.w3.org/1999/02/22-rdf-syntax-ns#" xmlns="http://www.w3.org/2000/svg" xml:space="preserve" viewBox="0 0 137 20.000001" height="20" width="137" version="1.1" y="0px" x="0px" xmlns:cc="http://creativecommons.org/ns#" xmlns:dc="http://purl.org/dc/elements/1.1/"><style type="text/css">.st0{fill:#ffffff;}.st1{fill:#ffffff;}.st2{fill-rule:evenodd;clip-rule:evenodd;fill:#ffffff;}.st3{fill-rule:evenodd;clip-rule:evenodd;fill:#ffffff;}</style><path fill="#ffffff" class="st0" d="m37.8 12.5 1 2.9h2.2l-3.6-10.3h-2.6l-3.5 10.3h2.1l0.9-2.9h3.5zm-3.1-1.4 0.8-2.5c0.2-0.6 0.4-1.3 0.5-1.9 0.2 0.6 0.3 1.3 0.6 1.9l0.9 2.5h-2.8zm9.7 4.3v-3.7c0-1.7 0-3-0.1-4.4 0.5 1.2 1.3 2.4 2 3.5l2.9 4.5h2.1v-10.2h-1.9v3.6c0 1.6 0 2.9 0.2 4.3-0.5-1.1-1.1-2.3-1.9-3.4l-2.8-4.4h-2.3v10.3h1.8v-0.1zm14.8-2.9 1 2.9h2.2l-3.6-10.3h-2.6l-3.5 10.3h2.1l0.9-2.9h3.5zm-3.1-1.4 0.8-2.5c0.2-0.6 0.4-1.3 0.5-1.9 0.2 0.5 0.4 1.2 0.6 1.9l0.9 2.5h-2.8zm7.3 3.8c0.6 0.3 1.8 0.7 3 0.7 2.8 0 4.2-1.5 4.2-3.1 0-1.5-0.9-2.4-2.8-3-1.5-0.5-2.1-0.9-2.1-1.7 0-0.6 0.6-1.2 1.8-1.2 1 0 1.8 0.3 2.2 0.5l0.5-1.5c-0.6-0.3-1.4-0.5-2.6-0.5-2.4 0-3.9 1.3-3.9 3 0 1.5 1.2 2.4 3 3 1.4 0.5 2 0.9 2 1.7s-0.7 1.4-2 1.4c-1 0-2-0.3-2.7-0.7l-0.6 1.4z"/><path fill="#ffffff" class="st1" d="m81.6 15.4h2l-0.7-10.3h-2.6l-1.5 4.1c-0.4 1.2-0.8 2.5-1.1 3.6-0.3-1.1-0.6-2.4-1-3.6l-1.4-4.1h-2.6l-0.7 10.3h1.9l0.2-4.1c0.1-1.4 0.1-3 0.2-4.4 0.3 1.3 0.7 2.7 1.1 4l1.5 4.4h1.5l1.6-4.5c0.5-1.3 0.9-2.7 1.3-3.9 0 1.4 0.1 3 0.1 4.3l0.2 4.2zm10.2-6.1h-4.1v-2.6h4.3v-1.6h-6.4v10.3h6.6v-1.5h-4.6v-3h4.1v-1.6h0.1zm2.2 6.1c0.7 0.1 1.5 0.1 2.7 0.1 2.1 0 3.9-0.5 5-1.4 1-0.9 1.7-2.3 1.7-4.1s-0.7-3-1.7-3.8-2.4-1.2-4.5-1.2c-1.2 0-2.3 0.1-3.2 0.2v10.2zm2-8.8c0.3-0.1 0.7-0.1 1.4-0.1 2.5 0 3.9 1.3 3.9 3.6 0 2.6-1.5 3.9-4.2 3.9h-1.1v-7.4zm9.1-1.5v10.3h2v-10.3h-2zm11.9 8.5c-0.5 0.2-1.4 0.4-2.2 0.4-2.4 0-3.8-1.4-3.8-3.7 0-2.5 1.6-3.8 3.8-3.8 0.9 0 1.6 0.2 2.2 0.4l0.4-1.5c-0.4-0.2-1.4-0.5-2.7-0.5-3.4 0-5.9 2-5.9 5.4 0 3.1 2.1 5.2 5.6 5.2 1.3 0 2.4-0.2 2.8-0.5l-0.2-1.4zm7.8-1.1 1 2.9h2.2l-3.6-10.3h-2.6l-3.5 10.3h2.1l0.9-2.9h3.5zm-3.1-1.4 0.8-2.5c0.2-0.6 0.4-1.3 0.5-1.9 0.2 0.6 0.3 1.3 0.6 1.9l0.9 2.5h-2.8zm7.8 4.3h6.5v-1.6h-4.5v-8.7h-2v10.3z"/><path d="m4.7 0.2h7.1c5.2 0 5.2-0.5 7.5 3.9l6.3 11.9c1.5 2.9 2.2 3.6 3.8 3.9v0.1h-7.2c-5.2 0-5.2 0.5-7.5-3.9l-6.2-11.7c-1.4-2.7-1.9-3.7-3.8-4.2z" fill-rule="evenodd" class="st2" clip-rule="evenodd" fill="#ffffff"/><path d="m5.5 9.1c3 0 5.5 2.4 5.5 5.5 0 3-2.4 5.5-5.5 5.5-3 0-5.5-2.4-5.5-5.5s2.4-5.5 5.5-5.5z" fill-rule="evenodd" class="st3" clip-rule="evenodd" fill="#ffffff"/></svg>

