<?xml version="1.0" encoding="UTF-8" standalone="no"?>
<svg xmlns:rdf="http://www.w3.org/1999/02/22-rdf-syntax-ns#" xmlns="http://www.w3.org/2000/svg" xml:space="preserve" viewBox="0 0 16 16" version="1.1" y="0px" x="0px" xmlns:cc="http://creativecommons.org/ns#" xmlns:dc="http://purl.org/dc/elements/1.1/"><style type="text/css">.st0{fill:none;}.st1{fill:#121212;}</style><path fill="#121212" class="st1" d="m8 0c-4.411 0-8 3.589-8 8s3.589 8 8 8 8-3.589 8-8-3.59-8-8-8zm0.917 8.315 2.503-1.126c0.7036 1.819 1.086 3.85 1.185 6.149-0.578 0.4993-1.235 0.9072-1.954 1.2 0.2927-0.1192 0.5742-0.2586 0.8459-0.4144l-2.583-5.805zm1.735 6.222c-0.6508 0.265-1.349 0.4333-2.08 0.4924 0.1639-0.01528 0.3267-0.03504 0.488-0.05951-1.574-1.67-2.765-3.35-3.592-5.102l2.592-1.166 2.592 5.838zm-2.116-7.085-2.736-6.157c-0.301 0.099-0.59 0.22-0.871 0.357 0.649-0.316 1.353-0.534 2.095-0.638 1.786 1.582 3.118 3.316 4.038 5.303l-2.526 1.135zm-7.593 0.545c0-2.79 1.631-5.199 3.985-6.345l2.75 6.187-2.585 1.163c-0.85-2.125-1.19-4.368-1.054-6.842-0.347 0.236-0.67 0.503-0.969 0.796-0.033 2.305 0.341 4.423 1.154 6.437l-2.763 1.244c0.1186 0.2928 0.2567 0.5748 0.4119 0.8467l2.728-1.227c0.7766 1.641 1.854 3.223 3.256 4.793-3.826-0.08-6.914-3.21-6.914-7.05zm11.67 5.34c0.3238-0.2798 0.623-0.5863 0.8915-0.9199-0.2685 0.3335-0.5678 0.64-0.8915 0.9199zm0.8916-0.9199c-0.16-2.08-0.55-3.934-1.21-5.623l2.39-1.073c-0.11-0.299-0.23-0.588-0.37-0.868l-2.38 1.072c-0.85-1.837-2.036-3.468-3.586-4.969-0.115-0.0059-0.228-0.0178-0.344-0.0178-0.3327 0-0.6576 0.03119-0.9782 0.07594 0.32-0.0446 0.645-0.0758 0.978-0.0758 3.892 0 7.059 3.166 7.059 7.059 0 1.672-0.5869 3.207-1.562 4.418z"/></svg>
