<?xml version="1.0" encoding="UTF-8" standalone="no"?>
<svg xmlns:rdf="http://www.w3.org/1999/02/22-rdf-syntax-ns#" xmlns="http://www.w3.org/2000/svg" xml:space="preserve" viewBox="0 0 15.000286 15" height="15" width="15" version="1.1" y="0px" x="0px" xmlns:cc="http://creativecommons.org/ns#" xmlns:dc="http://purl.org/dc/elements/1.1/"><style type="text/css">
	.st0{fill:#2A2627;}
</style><path fill="#2a2627" class="st0" d="m12.63 8.942c-0.3275-0.3393-0.7224-0.5208-1.141-0.5208-0.4152 0-0.8135 0.178-1.154 0.5175l-1.067 1.058c-0.0878-0.0471-0.1755-0.0907-0.2599-0.1343-0.1214-0.0606-0.2363-0.1177-0.3341-0.1782-0.9991-0.6317-1.907-1.455-2.778-2.52-0.422-0.531-0.7054-0.9779-0.9113-1.431 0.2767-0.252 0.5333-0.5142 0.7831-0.7662 0.0945-0.0941 0.189-0.1915 0.2836-0.2857 0.7087-0.7055 0.7087-1.62 0-2.325l-0.93-0.919c-0.104-0.104-0.212-0.212-0.313-0.319-0.203-0.2084-0.416-0.4235-0.635-0.6251-0.327-0.3226-0.719-0.4939-1.131-0.4939s-0.81 0.1713-1.147 0.4939l-0.0068 0.0067-1.148 1.153c-0.4317 0.429-0.6781 0.954-0.7321 1.562-0.081 0.9812 0.2093 1.895 0.4321 2.493 0.5467 1.468 1.364 2.829 2.582 4.288 1.478 1.757 3.257 3.145 5.289 4.123 0.7763 0.3662 1.813 0.7997 2.97 0.8735 0.0711 0.0034 0.1452 0.0067 0.2127 0.0067 0.7798 0 1.435-0.2787 1.948-0.8333 0.0033-0.0067 0.01-0.01 0.0134-0.0167 0.1756-0.2117 0.378-0.4034 0.5908-0.6082 0.145-0.1379 0.2935-0.2823 0.4386-0.4336 0.3343-0.346 0.5097-0.7493 0.5097-1.163 0-0.4166-0.1788-0.8166-0.5197-1.153l-1.853-1.851zm1.21 3.538c-0.1317 0.1413-0.2667 0.269-0.4119 0.4101-0.2193 0.2083-0.4422 0.4267-0.6513 0.672-0.3411 0.363-0.7426 0.5342-1.269 0.5342-0.0506 0-0.1047 0-0.1553-0.0032-1.002-0.0639-1.934-0.4537-2.633-0.7863-1.91-0.9208-3.588-2.228-4.982-3.884-1.151-1.381-1.92-2.658-2.43-4.029-0.314-0.8366-0.4287-1.489-0.3781-2.103 0.0338-0.3933 0.1856-0.7192 0.4657-0.9981l1.142-1.144c0.165-0.1548 0.341-0.2388 0.513-0.2388 0.2125 0 0.3846 0.1278 0.4927 0.2352l0.01 0.0101c0.206 0.1916 0.4017 0.3898 0.6077 0.6015 0.1047 0.1076 0.2127 0.2151 0.3206 0.326l0.9215 0.9173c0.3578 0.3562 0.3578 0.6855 0 1.042-0.0979 0.0975-0.1924 0.195-0.2903 0.2889-0.2834 0.289-0.5536 0.5579-0.8471 0.82-0.0068 0.0067-0.0135 0.0101-0.0169 0.0167-0.2903 0.2891-0.2362 0.5713-0.1756 0.7627l0.0102 0.0304c0.2396 0.5779 0.5772 1.122 1.09 1.771l0.0033 0.0032c0.9317 1.142 1.914 2.033 2.997 2.715 0.1384 0.0874 0.2802 0.158 0.4151 0.2251 0.1216 0.0605 0.2363 0.1176 0.3342 0.1781 0.0136 0.0068 0.0271 0.0168 0.0406 0.0235 0.1147 0.0571 0.2227 0.084 0.334 0.084 0.2803 0 0.4558-0.1747 0.5132-0.2318l1.155-1.153c0.1148-0.1144 0.2971-0.252 0.5098-0.252 0.2092 0 0.3813 0.1309 0.4859 0.2453l1.866 1.858c0.3478 0.3428 0.3478 0.6957 0.0035 1.052z"/></svg>
