<?xml version="1.0" encoding="UTF-8" standalone="no"?><svg xmlns:svg="http://www.w3.org/2000/svg" xmlns="http://www.w3.org/2000/svg" height="70" width="49" xml:space="preserve" viewBox="0 0 49 70" y="0px" x="0px" id="Layer_1" version="1.1"><style id="style3" type="text/css">.st0{fill:#B62059;}</style><g transform="scale(3.4027778,3.3980583)" id="g4786"><path style="fill:#b62059" d="M 7.2,0 C 3.2,0 0,3.2 0,7.2 c 0,5.4 7.2,13.4 7.2,13.4 0,0 7.2,-8 7.2,-13.4 C 14.4,3.2 11.2,0 7.2,0 Z" id="path5" /><g id="g4147" transform="matrix(0.34452912,0,0,0.34452912,5.6867199,5.5110751)"><path style="fill:#000000;fill-opacity:1" id="path5-3" d="m -5.8337627,-2.8276907 7.1,0 c 5.2,0 5.2,-0.5 7.5,3.9 L 15.066237,12.972309 c 1.5,2.9 2.2,3.6 3.8,3.9 l 0,0.1 -7.2,0 c -5.1999997,0 -5.1999997,0.5 -7.4999997,-3.9 l -6.2,-11.6999997 c -1.4,-2.7 -1.9,-3.7 -3.8,-4.2 l 0,0 0,0 z" class="st0" /><path style="fill:#ffffff;fill-opacity:0.94117647" id="path7" d="m -5.0337627,6.0723093 c 3,0 5.49999998,2.4000002 5.49999998,5.4999997 0,3 -2.39999998,5.5 -5.49999998,5.5 -3,0 -5.5000003,-2.4 -5.5000003,-5.5 0,-3.0999995 2.4000003,-5.4999997 5.5000003,-5.4999997 l 0,0 z" class="st1" /></g></g></svg>
