<?xml version="1.0" encoding="utf-8"?><svg version="1.1" id="Layer_1" xmlns="http://www.w3.org/2000/svg" xmlns:xlink="http://www.w3.org/1999/xlink" x="0px" y="0px" viewBox="0 0 13.1634588 19.0000057" style="enable-background:new 0 0 13.1634588 19.0000057;" xml:space="preserve"><style type="text/css">.st0{fill:#2A2627;}</style><g><g><path class="st0" d="M11.2373562,1.9499512C9.9938869,0.6941528,8.341238,0,6.5833645,0 C4.8234158,0,3.1710718,0.6941528,1.9272363,1.9499512c-2.2993164,2.3253174-2.5859985,6.7001953-0.6182861,9.3518066 L6.5833645,19l5.2640991-7.687561C13.8236599,8.6501465,13.5370388,4.2752686,11.2373562,1.9499512z M11.2909451,10.9071045 l-4.7075806,6.8756104l-4.7178955-6.8862915C0.0818994,8.4918213,0.3367822,4.5395508,2.4133203,2.440918 C3.5280054,1.3156738,5.007864,0.6952515,6.5833645,0.6952515c1.5737305,0,3.0536499,0.6204224,4.1682739,1.7456665 C12.8278103,4.5395508,13.0844021,8.4918213,11.2909451,10.9071045z"/></g></g></svg>
