<svg width="47" height="48" viewBox="0 0 47 48" xmlns="http://www.w3.org/2000/svg"><title>molar</title><g fill="none" fill-rule="evenodd"><path d="M43.414 21.602h-1.797c-3.535 0-6.773 1.992-8.41 5.062a11.17 11.17 0 0 0-1.465-1.836c-.758-.766-1.574-1.918-2.441-3.14C27.316 18.891 25.27 16 22.801 16c-2.399 0-4.371 2.996-6.285 5.895-.852 1.296-1.661 2.523-2.414 3.328-.5.535-.926 1.125-1.313 1.734a11.677 11.677 0 0 0-9.816-5.355c-.961 0-1.836.445-2.403 1.218a2.956 2.956 0 0 0-.425 2.66l6.601 20.461A2.963 2.963 0 0 0 9.574 48h27.238c1.293 0 2.43-.828 2.829-2.059l6.597-20.461a2.93 2.93 0 0 0-.426-2.66 2.935 2.935 0 0 0-2.398-1.218zm-28.141 4.714c.844-.906 1.688-2.183 2.579-3.539 1.523-2.308 3.414-5.175 4.949-5.175 1.64 0 3.527 2.66 5.195 5.011.902 1.278 1.758 2.485 2.609 3.344a9.684 9.684 0 0 1 2.02 3.016c.051.117.094.234.141.355.089.238.175.481.25.727.031.109.066.215.097.324a9.362 9.362 0 0 1 .25 1.336c.039.289.063.574.075.863 0 .086.007.168.011.254.004.356-.011.715-.047 1.07a9.895 9.895 0 0 1-.226 1.399c-.168.707-.332 1.394-.481 2.066l-.148.664c-.41 1.867-.797 3.633-1.695 5.203-.344.598-.555.68-.551.684-.071-.016-.649-.234-1.571-3.082a24.37 24.37 0 0 1-.371-1.32c-.468-1.797-1-3.832-2.863-4.942-2.086-1.242-4.422-.488-6.101 1.965-.903 1.32-1.399 2.773-1.875 4.18a40.563 40.563 0 0 1-.579 1.621c-.293.746-.546 1.316-1.031 1.617-.18-.117-.535-.551-1.137-2.012l-.062-.152c-.77-1.859-1.399-4-1.926-6.547a10.253 10.253 0 0 1-.176-1.328 9.555 9.555 0 0 1-.027-1.055c0-.054.008-.105.012-.156.011-.293.043-.582.082-.867.015-.125.035-.246.054-.367.043-.258.102-.512.165-.766.058-.215.121-.43.191-.645.043-.124.082-.25.129-.371a9.913 9.913 0 0 1 2.058-3.375zm29.446-1.328l-6.602 20.465a1.363 1.363 0 0 1-1.305.945H9.574a1.363 1.363 0 0 1-1.304-.945L1.668 24.988a1.349 1.349 0 0 1 .199-1.226 1.356 1.356 0 0 1 1.106-.563c3.664 0 7.035 1.989 8.816 5.196.027.097.059.195.086.293-.066.156-.113.32-.172.476-.066.191-.133.379-.195.57-.051.172-.102.34-.149.512a12.28 12.28 0 0 0-.226 1.043 6.355 6.355 0 0 0-.039.305c-.047.34-.082.679-.098 1.019-.004.078-.012.153-.012.227-.015.406-.004.812.028 1.219l.023.257c.039.418.094.836.18 1.254.551 2.649 1.207 4.883 2.019 6.836l.059.149c.469 1.14 1.25 3.047 2.73 3.047h.161l.152-.067c1.289-.543 1.773-1.789 2.094-2.613.218-.559.41-1.121.601-1.684.465-1.367.907-2.656 1.684-3.797a6.6 6.6 0 0 1 .336-.445c.715-.871 2.035-1.992 3.625-1.043 1.301.77 1.703 2.324 2.133 3.969.129.484.253.961.398 1.41.645 1.984 1.496 4.035 2.926 4.18.789.082 1.5-.418 2.109-1.485 1.016-1.781 1.449-3.75 1.867-5.652l.145-.656c.148-.664.312-1.344.48-2.043.067-.274.118-.551.164-.832.012-.074.02-.153.032-.231.031-.207.054-.418.074-.625a13.396 13.396 0 0 0 .043-.906v-.184c0-.582-.047-1.164-.137-1.734-.004-.027-.012-.055-.015-.082a10.25 10.25 0 0 0-.149-.758c-.012-.058-.027-.113-.039-.168a11.67 11.67 0 0 0-.199-.703 3.65 3.65 0 0 0-.039-.133c-.09-.277-.188-.55-.297-.816l.047-.219a7.963 7.963 0 0 1 7.398-5.086h1.797c.441 0 .848.207 1.106.563.261.359.332.804.199 1.226z" fill="#0F0000"/><path d="M45.602 8.195H34.297a19.608 19.608 0 0 1-13.949-5.777L18.168.234c-.004 0-.004 0-.004-.004a.795.795 0 0 0-.226-.152c-.024-.012-.047-.016-.071-.027a.872.872 0 0 0-.222-.043c-.016 0-.028-.008-.043-.008H8a.799.799 0 0 0-.797.801v9.597A5.607 5.607 0 0 0 12 15.938v2.683a1.6 1.6 0 0 0 .801 2.981 1.596 1.596 0 1 0 .801-2.981v-2.683c2.71-.391 4.8-2.723 4.8-5.54V9.277a21.365 21.365 0 0 0 14.082 5.317h13.118c.441 0 .8-.36.8-.801V8.992a.799.799 0 0 0-.8-.797zm-6.707 4.797l-1.598-3.199h2.641l1.871 3.199h-2.914zm-3.387-3.199l1.597 3.199h-3.007l-1.645-3.281c.609.051 1.227.082 1.844.082h1.211zM16.801 1.602v.796h-1.598a.802.802 0 0 0 0 1.602h1.598v4.801h-8V4h1.601a.801.801 0 0 0 0-1.602H8.801v-.796h8zm-4 12.796c-2.203 0-4-1.793-4-4h8c0 2.207-1.793 4-4 4zM18.402 2.73l.817.817a21.168 21.168 0 0 0 11.32 5.914l1.766 3.527c-5.235-.047-10.285-2.191-13.903-5.91V2.73zm26.399 10.262H43.66l-1.871-3.199h3.012v3.199z" fill="#000"/></g></svg>