<svg width="48" height="44" viewBox="0 0 48 44" xmlns="http://www.w3.org/2000/svg"><title>records</title><g fill-rule="evenodd"><path d="M0 43.999h48V.8H0v43.199zm1.602-1.597h44.796v-40H1.602v40z"/><path d="M4.801 8.8H12a.802.802 0 0 0 0-1.602H4.801a.802.802 0 0 0 0 1.602zm0 3.199h13.597a.796.796 0 0 0 .801-.801.795.795 0 0 0-.801-.796H4.801a.798.798 0 1 0 0 1.597zm34.398 19.199a.8.8 0 0 0 .801.801h3.199a.799.799 0 1 0 0-1.597H40a.799.799 0 0 0-.801.796zm4 2.403h-6.398a.799.799 0 1 0 0 1.597h6.398a.798.798 0 1 0 0-1.597zm0 3.199H40a.802.802 0 0 0 0 1.602h3.199a.802.802 0 0 0 0-1.602zM16.082 22.53l.098.668h-3.461a4.01 4.01 0 0 0-3.918-3.199c-2.207 0-4 1.797-4 4 0 2.207 1.793 4 4 4a4.005 4.005 0 0 0 3.918-3.199h3.695c.348 2.289.77 4.609 1.656 6.754l.035.086c.301.73.809 1.961 1.883 1.961h.164l.149-.063c.875-.371 1.183-1.168 1.39-1.695.125-.324.239-.652.348-.981.262-.761.504-1.48.93-2.097.09-.133.914-1.297 1.816-.754.625.371.844 1.195 1.07 2.07.075.285.149.567.235.832.426 1.309.957 2.532 1.969 2.633.418.043 1.015-.101 1.543-1.019.609-1.071.863-2.227 1.109-3.344l.082-.375c.094-.414.195-.836.297-1.27.172-.715.34-1.457.492-2.207.648.168 1.32.27 2.02.27 4.41 0 8-3.59 8-8a7.967 7.967 0 0 0-2-5.274l.003-.027-.304-.309a.578.578 0 0 1-.035-.035c-.055-.051-.11-.097-.161-.148a7.935 7.935 0 0 0-4.628-2.156l-.063-.012a7.828 7.828 0 0 0-.812-.039c-.254 0-.5.015-.75.035a4.919 4.919 0 0 0-.227.031c-.168.02-.34.043-.508.078a6.175 6.175 0 0 0-.722.172c-.083.024-.168.047-.25.074-.157.051-.313.11-.465.172a9.653 9.653 0 0 0-.305.121c-.172.078-.34.157-.508.246-.133.075-.262.153-.394.231a3.214 3.214 0 0 0-.196.121c-.136.086-.265.18-.394.273-.035.028-.071.047-.102.075l-.453.34.008.023a8.001 8.001 0 0 0-2.598 4.574 6.64 6.64 0 0 0-1.359.371l-.109.047c-.141.051-.25.094-.34.125-.059.024-.102.043-.067.047-.074-.008-.168-.039-.32-.082-1.34-.398-3.051-.789-4.43-.301-2.597.918-3.394 3.754-3.031 6.156zm-7.281 3.872a2.407 2.407 0 0 1-2.403-2.403 2.403 2.403 0 0 1 2.403-2.398 2.398 2.398 0 0 1 2.398 2.398 2.403 2.403 0 0 1-2.398 2.403zm21.418-14.227c.234-.148.48-.277.726-.391.024-.011.043-.023.067-.031.25-.113.511-.211.773-.289l.145-.035c.215-.059.429-.106.644-.141.074-.011.145-.023.219-.031a5.418 5.418 0 0 1 1.434-.023c.058.003.113.015.168.023.152.016.304.039.449.066.058.012.117.028.172.039.148.036.293.071.433.114.051.015.106.031.156.051a4.929 4.929 0 0 1 .567.218 4.974 4.974 0 0 1 .551.274c.125.07.25.148.371.226.051.032.101.067.152.102.113.078.219.156.324.242a4.198 4.198 0 0 1 .278.238c-.559 2.465-1.192 4.848-2.426 7.012-.484.852-.992 1.359-1.317 1.305-.367-.035-1.378-.614-2.855-5.164-.215-.657-.395-1.356-.59-2.094a48.24 48.24 0 0 0-.461-1.695.07.07 0 0 1 .02-.016zm-1.364 1.145l.258.968c.188.731.387 1.485.614 2.188.968 2.98 2.23 6.058 4.214 6.261.071.008.141.012.207.012.969 0 1.864-.711 2.664-2.117 1.126-1.969 1.79-4.125 2.313-6.25.551.949.875 2.047.875 3.219a6.406 6.406 0 0 1-6.398 6.398 6.399 6.399 0 0 1-3.18-.851c-.039-.024-.074-.047-.11-.067a6.989 6.989 0 0 1-.617-.422c-.05-.039-.097-.07-.144-.109a5.91 5.91 0 0 1-.543-.504 6.411 6.411 0 0 1-1.086-1.508c-.055-.101-.102-.207-.152-.312a6.885 6.885 0 0 1-.227-.582 3.91 3.91 0 0 1-.078-.231 7.186 7.186 0 0 1-.164-.718l-.035-.235a6.321 6.321 0 0 1-.067-.859c0-1.645.629-3.145 1.656-4.281zm-8.289 4.425c.832 0 1.793.246 2.52.461.641.188.867.211 1.418-.004.078-.031.168-.066.277-.105.059-.02.117-.043.207-.082.2-.082.407-.149.614-.203.003.062.015.125.019.187.012.246.035.488.07.727.012.109.028.219.047.328a7.924 7.924 0 0 0 .317 1.176c.066.195.136.386.218.574.067.148.141.297.215.441.063.125.129.242.2.36.089.156.175.308.277.457.055.078.113.152.172.23.191.266.398.52.625.758a7.882 7.882 0 0 0 .644.621c.203.172.41.336.625.488.035.02.063.047.098.071.281.191.578.355.883.507.019.012.039.028.058.036a55.16 55.16 0 0 1-.535 2.39c-.105.442-.211.875-.305 1.293l-.082.383c-.23 1.047-.449 2.031-.937 2.891-.012.019-.02.039-.031.054-.129-.207-.321-.605-.571-1.371-.074-.234-.14-.484-.207-.738-.269-1.039-.609-2.336-1.797-3.043-1.527-.91-3.121 0-3.96 1.227-.543.796-.836 1.656-1.118 2.484a25.05 25.05 0 0 1-.328.918c-.09.234-.168.41-.25.543a6.974 6.974 0 0 1-.363-.777l-.035-.086c-.789-1.907-1.192-4.032-1.516-6.145h2.766a.8.8 0 1 0 0-1.598h-3.004l-.133-.906c-.258-1.699.254-3.805 1.981-4.418a2.96 2.96 0 0 1 .921-.129zM5.602 33.601h.796a.8.8 0 0 0 .801-.801.8.8 0 0 0-.801-.801h-.796a.8.8 0 0 0-.801.801.8.8 0 0 0 .801.801zm4-1.602h-.801a.802.802 0 0 0 0 1.602h.801c.441 0 .796-.36.796-.801a.799.799 0 0 0-.796-.801zm3.199 0H12a.803.803 0 0 0-.801.801c0 .441.36.801.801.801h.801c.441 0 .801-.36.801-.801a.803.803 0 0 0-.801-.801zm-4 3.199H5.602a.8.8 0 0 0-.801.801c0 .442.355.801.801.801h3.199a.802.802 0 0 0 0-1.602zm3.429.235a.814.814 0 0 0 0 1.137.87.87 0 0 0 .571.23c.207 0 .414-.09.566-.23a.836.836 0 0 0 .235-.571.83.83 0 0 0-.235-.566.837.837 0 0 0-1.137 0z"/></g></svg>