<svg width="44" height="46" viewBox="0 0 44 46" xmlns="http://www.w3.org/2000/svg" xmlns:xlink="http://www.w3.org/1999/xlink"><title>search</title><defs><path id="a" d="M.06.427v45.574h43.939V.427H.06z"/></defs><g fill="none" fill-rule="evenodd"><mask id="b" fill="#fff"><use xlink:href="#a"/></mask><path d="M43.328 41.935L32.484 30.658a18.35 18.35 0 0 0 4.317-11.832C36.801 8.681 28.547.427 18.398.427 8.254.427 0 8.681 0 18.826c0 10.148 8.254 18.402 18.398 18.402 3.809 0 7.442-1.148 10.543-3.332l10.93 11.367c.457.477 1.07.738 1.731.738a2.401 2.401 0 0 0 1.726-4.066zM18.398 5.228C25.898 5.228 32 11.33 32 18.826c0 7.5-6.102 13.601-13.602 13.601-7.496 0-13.597-6.101-13.597-13.601 0-7.496 6.101-13.598 13.597-13.598z" fill="#000" mask="url(#b)"/></g></svg>