<?xml version="1.0" encoding="UTF-8" standalone="no"?><svg xmlns:rdf="http://www.w3.org/1999/02/22-rdf-syntax-ns#" xmlns="http://www.w3.org/2000/svg" height="17" width="21" version="1.1" xmlns:cc="http://creativecommons.org/ns#" xmlns:dc="http://purl.org/dc/elements/1.1/" viewBox="0 0 21.000004 16.999793"><g transform="matrix(.07047 0 0 .07019 -38.07 -40)"><path fill="#b62059" d="m633.9 812c112.5 0 174-93.17 174-174 0-2.646-0.0539-5.281-0.1726-7.903 11.94-8.63 22.31-19.4 30.5-31.66-10.96 4.869-22.74 8.147-35.11 9.626 12.62-7.569 22.31-19.54 26.89-33.82-11.81 7.003-24.9 12.09-38.82 14.84-11.16-11.88-27.04-19.32-44.63-19.32-33.76 0-61.14 27.38-61.14 61.13 0 4.798 0.5364 9.465 1.585 13.94-50.82-2.557-95.87-26.89-126-63.88-5.251 9.035-8.278 19.53-8.278 30.73 0 21.21 10.79 39.94 27.21 50.89-10.03-0.3099-19.45-3.064-27.69-7.647-0.009 0.2565-0.009 0.5066-0.009 0.7808 0 29.61 21.08 54.33 49.05 59.93-5.138 1.401-10.54 2.152-16.12 2.152-3.934 0-7.766-0.3872-11.49-1.103 7.784 24.29 30.36 41.97 57.12 42.46-20.93 16.4-47.29 26.17-75.94 26.17-4.929 0-9.798-0.2804-14.58-0.8463 27.06 17.34 59.19 27.46 93.72 27.46"/></g></svg>
