<?xml version="1.0" encoding="UTF-8" standalone="no"?><svg xmlns:rdf="http://www.w3.org/1999/02/22-rdf-syntax-ns#" xmlns="http://www.w3.org/2000/svg" height="19" width="19" version="1.1" xmlns:cc="http://creativecommons.org/ns#" xmlns:dc="http://purl.org/dc/elements/1.1/"><g transform="matrix(.1693 0 0 .1693 0 .0001693)"><circle cy="56.1" cx="56.1" r="56.1" fill="#981346"/><path fill="#981346" d="m19.53 56.61c-0.199 9.652 6.449 18.86 15.59 21.87 8.614 2.894 19.2 0.729 24.94-6.648 4.185-5.169 5.136-12.06 4.683-18.5-7.377-0.066-14.75-0.044-22.12-0.033-0.012 2.628 0 5.246 0.011 7.874 4.417 0.122 8.835 0.066 13.25 0.155-1.115 3.821-3.655 7.377-7.51 8.757-7.443 3.28-16.94-1.005-19.28-8.813-2.827-7.477 1.801-16.5 9.442-18.68 4.738-1.667 9.619 0.21 13.67 2.673 2.054-1.922 3.976-3.976 5.864-6.052-4.59-3.85-10.51-6.21-16.6-5.69-11.93 0.14-22.38 11.16-21.93 23.09z"/><path fill="#981346" d="m79.1 46.67c-0.022 2.198-0.045 4.407-0.056 6.604-2.209 0.022-4.406 0.033-6.604 0.044v6.582c2.198 0.011 4.407 0.022 6.604 0.045 0.022 2.198 0.022 4.395 0.044 6.604 2.187 0 4.385-0.011 6.582 0 0.012-2.209 0.022-4.406 0.045-6.615 2.197-0.011 4.406-0.022 6.604-0.033v-6.582c-2.197-0.011-4.406-0.022-6.604-0.044-0.012-2.198-0.033-4.407-0.045-6.604-2.197-0.001-4.384-0.001-6.57-0.001z"/><g fill="#fff"><path d="m19.53 56.61c-0.453-11.93 9.994-22.95 21.93-23.09 6.085-0.519 12 1.844 16.61 5.698-1.889 2.077-3.811 4.13-5.864 6.052-4.054-2.463-8.935-4.34-13.67-2.673-7.642 2.176-12.27 11.2-9.442 18.68 2.342 7.808 11.84 12.09 19.28 8.813 3.854-1.38 6.395-4.936 7.51-8.757-4.417-0.088-8.835-0.033-13.25-0.155-0.011-2.628-0.022-5.246-0.011-7.874 7.366-0.011 14.74-0.033 22.12 0.033 0.453 6.439-0.497 13.33-4.683 18.5-5.732 7.377-16.32 9.542-24.94 6.648-9.15-3.02-15.8-12.23-15.6-21.88z"/><path d="m79.1 46.67h6.57c0.012 2.198 0.033 4.407 0.045 6.604 2.197 0.022 4.406 0.033 6.604 0.044v6.582c-2.197 0.011-4.406 0.022-6.604 0.033-0.022 2.209-0.033 4.406-0.045 6.615-2.197-0.011-4.396 0-6.582 0-0.021-2.209-0.021-4.406-0.044-6.604-2.197-0.023-4.406-0.033-6.604-0.045v-6.582c2.198-0.011 4.396-0.022 6.604-0.044 0.011-2.196 0.033-4.405 0.056-6.603z"/></g></g></svg>
