<?xml version="1.0" encoding="UTF-8" standalone="no"?><svg xmlns:rdf="http://www.w3.org/1999/02/22-rdf-syntax-ns#" xmlns="http://www.w3.org/2000/svg" version="1.1" xml:space="preserve" height="19" viewBox="0 0 11.4 19" width="11.4" enable-background="new 0 0 30 30" xmlns:cc="http://creativecommons.org/ns#" xmlns:dc="http://purl.org/dc/elements/1.1/"><path fill="#981346" d="m10.13 9.5c-0.63 0-1.897 1.27-4.43 1.27s-3.8-1.27-4.433-1.27c-0.6995 0-1.267 0.57-1.267 1.27 0 0.63 0.3597 0.93 0.6333 1.09 0.7507 0.44 3.167 1.44 3.167 1.44l-2.692 3.444s-0.475 0.5922-0.475 0.9893c0.0003 0.7 0.568 1.27 1.267 1.27 0.6466 0 0.9399-0.4155 0.9399-0.4155s2.856-3.389 2.86-3.385c0.0044-0.0044 2.86 3.385 2.86 3.385s0.2932 0.4155 0.9399 0.4155c0.6992 0 1.267-0.5675 1.267-1.267 0-0.3971-0.475-0.9893-0.475-0.9893l-2.69-3.44s2.416-0.9962 3.167-1.435c0.27-0.16 0.63-0.46 0.63-1.09 0-0.7-0.57-1.27-1.27-1.27z"/><path fill="#981346" d="m5.7 0c-2.448 0-4.433 1.985-4.433 4.433s1.985 4.433 4.433 4.433 4.433-1.985 4.433-4.433-1.982-4.433-4.43-4.433zm0 6.65c-1.224 0-2.217-0.992-2.217-2.217 0-1.224 0.993-2.216 2.217-2.216s2.217 0.9924 2.217 2.217c0 1.224-0.993 2.216-2.217 2.216z"/></svg>
