<?xml version="1.0" encoding="utf-8"?><svg version="1.1" id="Layer_1" xmlns="http://www.w3.org/2000/svg" xmlns:xlink="http://www.w3.org/1999/xlink" x="0px" y="0px" viewBox="0 0 22.3 13.1" style="enable-background:new 0 0 22.3 13.1;" xml:space="preserve"><style type="text/css">.st0{fill-rule:evenodd;clip-rule:evenodd;fill:#B62059;}</style>
<path class="st0" d="M10.9,13.1h1.3c0,0,0.4,0,0.6-0.3c0.2-0.2,0.2-0.6,0.2-0.6s0-1.8,0.8-2.1c0.8-0.3,1.9,1.8,3,2.6 c0.8,0.6,1.5,0.5,1.5,0.5l3,0c0,0,1.6-0.1,0.8-1.4c-0.1-0.1-0.4-0.9-2.2-2.6c-1.9-1.8-1.6-1.5,0.6-4.6c1.4-1.9,1.9-3,1.7-3.5 c-0.2-0.5-1.2-0.3-1.2-0.3l-3.4,0c0,0-0.2,0-0.4,0.1C17.2,0.8,17,1.1,17,1.1s-0.5,1.5-1.2,2.7c-1.5,2.6-2.1,2.8-2.3,2.6 C12.9,6,13,4.8,13,4c0-2.5,0.4-3.6-0.7-3.9C11.9,0.1,11.7,0,10.7,0C9.5,0,8.5,0,8,0.3C7.6,0.5,7.3,0.9,7.5,0.9c0.2,0,0.7,0.1,1,0.5 C8.8,1.9,8.8,3,8.8,3S9,6,8.3,6.4C7.9,6.6,7.2,6.1,5.9,3.7C5.2,2.5,4.7,1.2,4.7,1.2S4.6,0.9,4.4,0.8C4.2,0.6,3.9,0.6,3.9,0.6l-3.2,0 c0,0-0.5,0-0.7,0.2c-0.2,0.2,0,0.6,0,0.6s2.5,6,5.3,9.1C8,13.3,10.9,13.1,10.9,13.1L10.9,13.1z"/></svg>
