<?xml version="1.0" encoding="utf-8"?><svg version="1.1" id="Layer_1" xmlns="http://www.w3.org/2000/svg" xmlns:xlink="http://www.w3.org/1999/xlink" x="0px" y="0px" viewBox="0 0 17.6 18.1" style="enable-background:new 0 0 17.6 18.1;" xml:space="preserve"><style type="text/css">.st0{fill:#981346;}</style><g><g><path class="st0" d="M17.6,5.5c0-0.9-0.1-1.7-0.5-2.6c-0.6-1.4-1.7-2.3-3.2-2.7c-0.7-0.2-1.4-0.2-2-0.2C10,0,8.2,0,6.3,0 C5.5,0,4.6,0,3.7,0.2c-2,0.5-3.2,1.9-3.6,3.9C0.1,4.7,0.1,5.3,0,5.9C0,6,0,6,0,6.1v6c0,0.2,0,0.4,0,0.6c0,0.9,0.1,1.7,0.5,2.5 c0.6,1.5,1.7,2.4,3.2,2.8c0.7,0.2,1.3,0.2,2,0.2c0.1,0,0.1,0,0.2,0h5.8c0.2,0,0.4,0,0.5,0c0.8,0,1.7-0.1,2.4-0.5 c1.4-0.6,2.3-1.8,2.7-3.3c0.2-0.7,0.2-1.4,0.2-2.1c0-0.1,0-0.1,0-0.2v-6C17.6,5.9,17.6,5.7,17.6,5.5z M15.9,13.2 c-0.1,0.9-0.4,1.8-1.1,2.4c-0.5,0.5-1.1,0.7-1.8,0.8c-0.7,0.1-1.4,0.1-2.1,0.1c-1,0-2,0-3.1,0c-1,0-2.1,0-3.1-0.1 c-0.9-0.1-1.7-0.4-2.3-1.1c-0.5-0.5-0.7-1.2-0.8-1.8c-0.1-0.7-0.1-1.4-0.1-2.1c0-1.1,0-2.1,0-3.2c0-1.1,0-2.1,0.1-3.2 C1.7,4,2,3.2,2.7,2.5c0.5-0.5,1.1-0.7,1.8-0.8c0.7-0.1,1.4-0.1,2.1-0.1c0.7,0,1.5,0,2.2,0c0,0,0,0,0,0c1.2,0,2.4,0,3.5,0.1 c0.4,0,0.9,0.1,1.3,0.2c1.3,0.4,2,1.2,2.2,2.6C16,5.2,16,6,16,6.8c0,1.1,0,2.1,0,3.2C16,11,16,12.1,15.9,13.2z M8.8,4.4 c-2.5,0-4.5,2.1-4.5,4.6c0,2.6,2,4.7,4.5,4.7c2.5,0,4.5-2.1,4.5-4.6C13.3,6.5,11.3,4.4,8.8,4.4z M8.8,12.1c-1.6,0-2.9-1.4-2.9-3 c0-1.7,1.3-3,3-3c1.6,0,2.9,1.4,2.9,3C11.7,10.7,10.4,12.1,8.8,12.1z M13.5,3.1c-0.6,0-1.1,0.5-1.1,1.1c0,0.6,0.5,1.1,1.1,1.1 c0.6,0,1.1-0.5,1.1-1.1C14.6,3.6,14.1,3.1,13.5,3.1z"/></g></g></svg>
