<?xml version="1.0" encoding="utf-8"?><svg version="1.1" id="Layer_1" xmlns="http://www.w3.org/2000/svg" xmlns:xlink="http://www.w3.org/1999/xlink" x="0px" y="0px" viewBox="0 0 8.6 19" style="enable-background:new 0 0 8.6 19;" xml:space="preserve"><style type="text/css">.st0{fill-rule:evenodd;clip-rule:evenodd;fill:#981346;}</style><path class="st0" d="M8.6,0c0,1.1,0,3.1,0,3.1S6.4,2.8,5.9,3.7C5.6,4.2,5.8,5.6,5.7,6.5c1,0,1.9,0,2.9,0C8.4,7.7,8.2,8.5,8,9.5 c-0.8,0-2.3,0-2.3,0V19c0,0-2.7,0-4,0c0-2.9,0-6.3,0-9.5c-0.6,0-1.1,0-1.7,0c0-1.1,0-1.9,0-3c0.6,0,1.1,0,1.7,0 c0.1-2.2,0.1-4.3,1.2-5.5C4-0.1,5.2,0,8.6,0z"/></svg>
