<?xml version="1.0" encoding="utf-8"?><svg version="1.1" id="Layer_1" xmlns="http://www.w3.org/2000/svg" xmlns:xlink="http://www.w3.org/1999/xlink" x="0px" y="0px" viewBox="0 0 45.6 45.6" style="enable-background:new 0 0 45.6 45.6;" xml:space="preserve"><style type="text/css">.st0{fill:#8C8C8C;}</style><g><g><path class="st0" d="M17.9,25.3c-0.9-0.9-2.5-0.9-3.4,0L2.3,37.6l-1.7,6.2l-0.4,0.4c-0.3,0.3-0.3,0.8,0,1.1l0,0l0,0 c0.2,0.2,0.4,0.2,0.6,0.2c0.2,0,0.4-0.1,0.6-0.2L1.8,45L8,43.3L20.2,31c0.9-0.9,0.9-2.4,0-3.4L17.9,25.3z M2.5,43.1l1-3.6L6,42.2 L2.5,43.1z M7.5,41.4L4.2,38l8.1-8.2l3.4,3.4L7.5,41.4z M19.1,29.8l-2.3,2.3l-3.4-3.4l2.3-2.3c0.3-0.3,0.8-0.3,1.1,0l2.3,2.3 C19.4,29,19.4,29.5,19.1,29.8z M45.1,32.8c-1.6-3-7.1-6.3-7.4-6.5c-1-0.6-2.1-0.8-3-0.5c-0.7,0.2-1.2,0.6-1.6,1.2 c-0.8,1-1.8,2.1-2.1,2.3c-1.9,1.3-3.4,1.1-5-0.5L17,19.6c-1.6-1.6-1.8-3.1-0.5-5c0.2-0.3,1.3-1.3,2.3-2.1c0.6-0.4,1-0.9,1.2-1.6 c0.2-0.9,0.1-2-0.5-3c-0.1-0.2-3.4-5.8-6.4-7.4c-1.5-0.8-3.4-0.5-4.6,0.7l-2,2C1.6,8,1.5,13.9,6,20.3c0.3,0.4,0.7,0.4,1.1,0.2 c0.4-0.3,0.4-0.8,0.2-1.1c-4.1-5.8-4-10.7,0.3-15l2-2c0.7-0.7,1.8-0.9,2.7-0.4c2.6,1.4,5.8,6.8,5.8,6.8c0.4,0.6,0.5,1.3,0.4,1.8 c-0.1,0.3-0.3,0.5-0.5,0.7l-0.1,0.1c-0.7,0.6-2.3,2-2.6,2.5c-0.5,0.7-0.8,1.4-1,2.1c-0.6-1.1-1-2.5-1.2-3.9c0-0.4-0.4-0.7-0.9-0.7 c-0.4,0-0.8,0.4-0.7,0.9c0.6,5.6,4.9,9.2,5.1,9.4c0,0,0,0,0.1,0L25,30c0,0,0.1,0.1,0.1,0.1c0,0,0,0.1,0.1,0.1 c0.1,0.1,3.7,3.7,9.2,4.2c0,0,0.1,0,0.1,0c0.4,0,0.7-0.3,0.8-0.7c0-0.4-0.3-0.8-0.7-0.9c-1.7-0.2-3.2-0.7-4.4-1.2 c0.6-0.2,1.2-0.5,1.9-0.9c0.5-0.3,1.9-2,2.4-2.7l0.1-0.1c0.2-0.3,0.4-0.5,0.7-0.5c0.5-0.1,1.1,0,1.7,0.4c0.1,0,5.4,3.2,6.8,5.9 c0.5,0.9,0.3,2-0.4,2.8l-2,2c-4.3,4.3-9.4,4.4-15.1,0.1c-0.4-0.3-0.9-0.2-1.1,0.2c-0.3,0.4-0.2,0.9,0.2,1.1c3.1,2.3,6.1,3.5,9,3.5 c3,0,5.7-1.3,8.2-3.8l2-2C45.7,36.2,45.9,34.3,45.1,32.8z"/></g></g></svg>
