<?xml version="1.0" encoding="UTF-8" standalone="no"?><svg xmlns:rdf="http://www.w3.org/1999/02/22-rdf-syntax-ns#" xmlns="http://www.w3.org/2000/svg" xml:space="preserve" height="48" width="28" version="1.1" xmlns:cc="http://creativecommons.org/ns#" xmlns:dc="http://purl.org/dc/elements/1.1/" viewBox="0 0 28 48"><g fill="#8c8c8c" transform="matrix(1,0,0,-1,-10,48)"><g fill="#8c8c8c" transform="matrix(.1 0 0 .1 10 0)"><path d="m272 464h-16v8.01c0 4.42-3.6 8.01-8.01 8.01h-136c-28.1 0-51.4-21-55.4-48h-26.9c-2.7 5-7.8 8-13.7 8-8.81 0-16-7-16-16 0-8.78 7.19-16 16-16 5.89 0 11 3.24 13.8 8.01h26.9c3.91-27.1 27.2-48 55.3-48h21.2c-33.7-38-53-89-53-141v-171c0-4.42 3.59-8.01 8.01-8.01v-16c0-4.41 3.55-8.01 8.01-8.01h9.1c4-13.8 16-24 31-24 17.6 0 32 14.3 32 32 0 8.83 7.19 16 16 16 8.83 0 16-7.19 16-16v-24c0-4.41 4-8 8-8 4.41 0 8.01 3.59 8.01 8.01v24c0 17.7-14.4 32-32 32s-32-14.3-32-32c0-8.83-7.19-16-16-16-5.9 0-11 3.24-13.8 7.96h5.78c4.41 0 8.01 3.6 8.01 8.01v16c4.41 0 7.96 3.59 7.96 8.01v153c0 52.7 20.6 102 57.8 140l19.5 19.5h26.8c4.41 0 8.01 3.59 8.01 8.01v7.96h16c4.42 0 8.01 3.6 8.01 8.01v64c0 4.41-3.59 7.96-8.01 7.96zm-200-40c0 22.1 18 40 40 40v-80c-22 0-40 18-40 40zm56-360h-32v35.4l32 18.7v-54.1zm0 72.7-32-18.7v29.1l32 16v-26.4zm0 72.4v-28.1l-32-16v30.1l32 16.1c0-0.699-0.039-1.36-0.039-2.07zm-8-169h-16v8.01h16v-8zm70.5 320c-35.4-35.4-56.8-81.1-61.5-130l-33-16.5v14.2c0 53 21.5 104 59.1 141h43.5l-8.16-8.17zm49.5 24.1h-48v16c0 4.41-3.55 8.01-8.01 8.01-4.41 0-7.96-3.6-7.96-8.01v-16h-48v80h48v-16c0-4.42 3.55-8.01 7.96-8.01 4.46 0 8.01 3.59 8.01 8.01v16h48v-80zm24 16h-7.96v48h7.96v-48z" fill="#8c8c8c"/></g></g></svg>
