<?xml version="1.0" encoding="utf-8"?><svg version="1.1" id="Layer_1" xmlns="http://www.w3.org/2000/svg" xmlns:xlink="http://www.w3.org/1999/xlink" x="0px" y="0px" viewBox="0 0 39 42" style="enable-background:new 0 0 39 42;" xml:space="preserve"><style type="text/css">.st0{fill:#8C8C8C;}</style><g><g><path class="st0" d="M38.3,5.2h-2.2V2.9c0-0.4-0.3-0.7-0.7-0.7h-16C19.1,0.9,18,0,16.6,0c-1.3,0-2.5,0.9-2.8,2.2H0.7 C0.3,2.2,0,2.5,0,2.9v35.4c0,0.4,0.3,0.7,0.7,0.7h2.2v2.2c0,0.4,0.3,0.7,0.7,0.7h34.7c0.4,0,0.7-0.3,0.7-0.7V5.9 C39,5.5,38.7,5.2,38.3,5.2z M16.6,1.5c0.5,0,1,0.3,1.2,0.7h-2.5C15.6,1.8,16.1,1.5,16.6,1.5z M1.4,37.6V3.7h12.3v3.7 c0,1.6,1.3,2.9,2.9,2.9c1.6,0,2.9-1.3,2.9-2.9c0-0.4-0.3-0.7-0.7-0.7s-0.7,0.3-0.7,0.7c0,0.8-0.6,1.5-1.4,1.5 c-0.8,0-1.4-0.7-1.4-1.5V3.7h19.5v33.9H1.4z M37.6,40.5H4.3v-1.5h31.1c0.4,0,0.7-0.3,0.7-0.7V6.6h1.4V40.5z M28.2,14h-2.9 c-0.4,0-0.7,0.3-0.7,0.7c0,0.4,0.3,0.7,0.7,0.7h2.9c0.4,0,0.7-0.3,0.7-0.7C28.9,14.3,28.6,14,28.2,14z M17.3,15.5h5.1 c0.4,0,0.7-0.3,0.7-0.7c0-0.4-0.3-0.7-0.7-0.7h-5.1c-0.4,0-0.7,0.3-0.7,0.7C16.6,15.2,16.9,15.5,17.3,15.5z M7.9,15.5h6.5 c0.4,0,0.7-0.3,0.7-0.7c0-0.4-0.3-0.7-0.7-0.7H7.9c-0.4,0-0.7,0.3-0.7,0.7C7.2,15.2,7.5,15.5,7.9,15.5z M28.2,18.4h-5.8 c-0.4,0-0.7,0.3-0.7,0.7c0,0.4,0.3,0.7,0.7,0.7h5.8c0.4,0,0.7-0.3,0.7-0.7C28.9,18.7,28.6,18.4,28.2,18.4z M18.1,18.4H13 c-0.4,0-0.7,0.3-0.7,0.7c0,0.4,0.3,0.7,0.7,0.7h5.1c0.4,0,0.7-0.3,0.7-0.7C18.8,18.7,18.5,18.4,18.1,18.4z M7.9,19.9h2.2 c0.4,0,0.7-0.3,0.7-0.7c0-0.4-0.3-0.7-0.7-0.7H7.9c-0.4,0-0.7,0.3-0.7,0.7C7.2,19.6,7.5,19.9,7.9,19.9z M28.2,22.8H26 c-0.4,0-0.7,0.3-0.7,0.7c0,0.4,0.3,0.7,0.7,0.7h2.2c0.4,0,0.7-0.3,0.7-0.7C28.9,23.1,28.6,22.8,28.2,22.8z M15.2,23.6 c0,0.4,0.3,0.7,0.7,0.7h7.2c0.4,0,0.7-0.3,0.7-0.7c0-0.4-0.3-0.7-0.7-0.7h-7.2C15.5,22.8,15.2,23.1,15.2,23.6z M11.6,22.8H7.9 c-0.4,0-0.7,0.3-0.7,0.7c0,0.4,0.3,0.7,0.7,0.7h3.6c0.4,0,0.7-0.3,0.7-0.7C12.3,23.1,12,22.8,11.6,22.8z M28.2,27.3h-7.9 c-0.4,0-0.7,0.3-0.7,0.7c0,0.4,0.3,0.7,0.7,0.7h7.9c0.4,0,0.7-0.3,0.7-0.7C28.9,27.6,28.6,27.3,28.2,27.3z M15.9,27.3H13 c-0.4,0-0.7,0.3-0.7,0.7c0,0.4,0.3,0.7,0.7,0.7h2.9c0.4,0,0.7-0.3,0.7-0.7C16.6,27.6,16.3,27.3,15.9,27.3z M10.1,27.3H7.9 c-0.4,0-0.7,0.3-0.7,0.7c0,0.4,0.3,0.7,0.7,0.7h2.2c0.4,0,0.7-0.3,0.7-0.7C10.8,27.6,10.5,27.3,10.1,27.3z"/></g></g></svg>
