<?xml version="1.0" encoding="utf-8"?><svg version="1.1" id="Layer_1" xmlns="http://www.w3.org/2000/svg" xmlns:xlink="http://www.w3.org/1999/xlink" x="0px" y="0px" viewBox="0 0 120 120" style="enable-background:new 0 0 120 120;" xml:space="preserve"><style type="text/css">.st0{fill:#B52058;}.st1{fill:#FFFFFF;}</style><circle class="st0" cx="60" cy="60" r="60"/><path class="st1" d="M38.8993912,66.6420135c6.3003006,4.2277985,12.6005974,8.4584961,18.901001,12.6877975 c0.5706978,0.3834,1.3281975,0.282402,1.7533989-0.2722015c7.5970955-9.9277954,15.1940956-19.8541946,22.7911949-29.7804947 c1.0824051-1.4136009,2.1648026-2.827301,3.2471008-4.2439003c0.982399-1.2834015-1.0440979-2.7584991-2.0249939-1.4766006 c-7.5972061,9.9277992-15.1940994,19.8541985-22.7913017,29.7804985c-1.0824013,1.4151001-2.1646996,2.828804-3.2471008,4.2424011 c0.5844994-0.0892029,1.1689987-0.1800003,1.7533989-0.2722015c-6.3003006-4.2277985-12.6005974-8.4570007-18.900898-12.6863022 C39.0433922,63.7225151,37.5564919,65.7405167,38.8993912,66.6420135L38.8993912,66.6420135z"/>
</svg>
