<svg width="42" height="46" viewBox="0 0 42 46" xmlns="http://www.w3.org/2000/svg" xmlns:xlink="http://www.w3.org/1999/xlink"><title>tooth</title><defs><path id="a" d="M0 .723V46h41.063V.723H0z"/></defs><g fill="none" fill-rule="evenodd"><mask id="b" fill="#fff"><use xlink:href="#a"/></mask><path d="M40.344 9.246c-.656-2.473-2.571-4.836-5.395-6.653-3.48-2.238-8.398-2.484-12.84-.648l-.14.058c-.078.036-.153.071-.235.098-.371.129-.66.238-.89.328-.739.289-.739.285-1.953-.07-3.469-1.024-7.883-2.043-11.27-.844C3.039 3.14-1.027 8.519.23 16.867c.149.988.293 1.984.442 2.988 1.047 7.211 2.133 14.668 4.922 21.402l.097.231C6.383 43.175 7.543 46 9.559 46h.164l.148-.063c1.852-.785 2.543-2.562 3.051-3.859.34-.875.644-1.77.937-2.633.387-1.133.766-2.235 1.215-3.289 1.016 2.066 3.09 5.437 5.832 5.437.321 0 .653-.043.992-.144 1.801-.535 2.707-2.399 3.368-3.758l.054-.109c.137-.286.317-.618.504-.977.192-.355.399-.754.606-1.164.199.644.375 1.309.547 1.969.191.73.386 1.484.617 2.191.965 2.981 2.222 6.059 4.211 6.262 1.047.109 2.015-.602 2.871-2.106 1.566-2.746 2.238-5.804 2.89-8.761l.231-1.039c.254-1.145.539-2.325.828-3.532 1.637-6.793 3.488-14.488 1.719-21.179zm-15.93 26.609c-.203.379-.387.727-.535 1.027l-.055.11c-.558 1.152-1.254 2.59-2.383 2.922-2.656.8-5.113-4.801-5.382-5.442l-.071-.172c.086-.152.168-.289.25-.422.106-.171.211-.347.328-.515.957-1.399 3.543-4.449 6.844-2.481.258.153.488.328.707.516.078.066.153.148.227.223.129.121.254.246.367.379.105.125.203.257.301.394.066.09.129.18.191.274.129.199.25.41.367.632.012.028.028.051.039.075-.312.82-.777 1.695-1.195 2.48zM37.07 30.05a226.213 226.213 0 0 0-.836 3.555l-.23 1.047c-.625 2.844-1.27 5.781-2.719 8.312-.484.856-.98 1.325-1.316 1.309-.367-.039-1.379-.617-2.856-5.168a35.63 35.63 0 0 1-.59-2.102c-.632-2.418-1.339-5.117-3.398-6.851-.004-.008-.012-.012-.02-.016a6.968 6.968 0 0 0-.875-.629c-3.054-1.816-6.496-.683-8.984 2.953-1.387 2.028-2.156 4.286-2.902 6.469a59.145 59.145 0 0 1-.914 2.567c-.512 1.316-.992 2.371-2.008 2.886-.91-.226-1.879-2.582-2.254-3.5l-.098-.234c-2.711-6.551-3.781-13.91-4.816-21.023-.149-1.004-.293-2.004-.442-2.993-.808-5.371.84-11.656 6.344-13.609.895-.316 1.91-.445 2.973-.445 2.445 0 5.141.679 7.219 1.289 5.14 2.918 5.14 4.183 5.121 9.402l-.004 1.055a.8.8 0 1 0 1.601 0v-1.047c.02-4.578.012-6.734-3.644-9.356v-.003c.219-.083.488-.188.836-.309.117-.039.23-.09.347-.141l.122-.05c3.961-1.637 8.312-1.438 11.359.519 2.484 1.598 4.16 3.629 4.711 5.719 1.668 6.297-.137 13.789-1.727 20.394z" fill="#000" mask="url(#b)"/><path d="M9.492 6.793a.798.798 0 0 0 .485-1.02.797.797 0 0 0-1.02-.488c-4.191 1.488-5.41 6.738-4.769 10.988.058.398.398.68.789.68.039 0 .078 0 .121-.008a.806.806 0 0 0 .672-.91c-.547-3.621.386-8.059 3.722-9.242zm26.774 2.73h-1.27l-1.934-1.93V6.324a.798.798 0 1 0-1.597 0v1.269l-1.934 1.93h-1.265a.801.801 0 0 0 0 1.602h1.265l1.934 1.929v1.27a.8.8 0 1 0 1.597 0v-1.27l1.934-1.929h1.27a.796.796 0 0 0 .796-.801.798.798 0 0 0-.796-.801zm-4 2.07l-1.27-1.269 1.27-1.27 1.265 1.27-1.265 1.269zM14.664 23.925h-1.269l-1.93-1.933v-1.266a.8.8 0 1 0-1.602 0v1.266l-1.929 1.933h-1.27a.8.8 0 1 0 0 1.598h1.27l1.929 1.934v1.269c0 .442.36.797.801.797a.799.799 0 0 0 .801-.797v-1.269l1.93-1.934h1.269a.799.799 0 1 0 0-1.598zm-4 2.067l-1.269-1.266 1.269-1.269 1.27 1.269-1.27 1.266z" fill="#000"/></g></svg>