<?xml version="1.0" encoding="UTF-8" standalone="no"?>
<svg
   xmlns:dc="http://purl.org/dc/elements/1.1/"
   xmlns:cc="http://creativecommons.org/ns#"
   xmlns:rdf="http://www.w3.org/1999/02/22-rdf-syntax-ns#"
   xmlns:svg="http://www.w3.org/2000/svg"
   xmlns="http://www.w3.org/2000/svg"
   viewBox="0 0 60 60"
   height="60"
   width="60"
   xml:space="preserve"
   version="1.1"
   id="svg2"><metadata
     id="metadata8"><rdf:RDF><cc:Work
         rdf:about=""><dc:format>image/svg+xml</dc:format><dc:type
           rdf:resource="http://purl.org/dc/dcmitype/StillImage" /><dc:title></dc:title></cc:Work></rdf:RDF></metadata><defs
     id="defs6" /><g
     transform="matrix(1.25,0,0,-1.25,0,60)"
     id="g10"><g
       transform="scale(0.1,0.1)"
       id="g12"><path
         id="path14"
         style="fill:#000000;fill-opacity:1;fill-rule:nonzero;stroke:none"
         d="m 472.27,300.469 -1.141,4.14 c -0.078,0.27 -0.188,0.512 -0.27,0.821 -1.718,6.09 -3.668,12.148 -5.859,18.05 -0.039,0.11 -0.078,0.231 -0.121,0.348 -2.109,5.621 -4.449,11.133 -6.949,16.563 -0.309,0.66 -0.629,1.371 -0.942,2.07 -2.457,5.16 -5.078,10.199 -7.886,15.117 -0.582,1.051 -1.172,2.113 -1.801,3.121 -2.852,4.891 -5.821,9.653 -8.981,14.301 -0.429,0.621 -0.859,1.211 -1.289,1.801 -3.16,4.57 -6.519,9.019 -10,13.359 -0.312,0.391 -0.621,0.82 -0.98,1.211 -3.75,4.649 -7.731,9.098 -11.832,13.43 -0.391,0.429 -0.778,0.82 -1.168,1.219 -34.93,36.402 -81.141,61.832 -133.012,70.582 -0.269,0.039 -0.508,0.078 -0.777,0.117 -5.981,0.98 -11.992,1.761 -18.09,2.301 -0.973,0.082 -1.953,0.121 -2.934,0.199 C 252.23,479.691 246.129,480 240,480 c -6.129,0 -12.23,-0.309 -18.238,-0.738 -0.981,-0.082 -1.961,-0.16 -2.891,-0.242 -6.141,-0.54 -12.152,-1.29 -18.133,-2.301 -0.269,-0.039 -0.508,-0.078 -0.777,-0.117 -51.84,-8.75 -98.082,-34.18 -133.0118,-70.551 -0.3906,-0.43 -0.7773,-0.821 -1.1679,-1.211 -4.1016,-4.371 -8.0821,-8.82 -11.8321,-13.469 -0.3594,-0.391 -0.6289,-0.781 -0.9804,-1.211 -3.4805,-4.34 -6.8399,-8.789 -10,-13.359 -0.4297,-0.59 -0.8594,-1.18 -1.2891,-1.801 -3.1602,-4.648 -6.1289,-9.41 -8.9805,-14.301 -0.6289,-1.008 -1.2187,-2.07 -1.8008,-3.121 -2.8086,-4.918 -5.4296,-9.957 -7.8867,-15.117 -0.3125,-0.699 -0.6328,-1.41 -0.9414,-2.07 -2.5,-5.43 -4.8398,-10.942 -6.9101,-16.563 C 15.1211,323.711 15.0391,323.59 15,323.48 12.8086,317.578 10.8984,311.52 9.14063,305.43 9.05859,305.121 8.94922,304.879 8.87109,304.609 l -1.14062,-4.14 C 2.69922,281.129 0,260.898 0,240 0,107.66 107.66,0 240,0 c 132.34,0 240,107.66 240,240 0,20.898 -2.699,41.129 -7.73,60.469 z m -48.29,-130.59 c 0.59,-18.508 -25.929,-21.867 -60.699,-24.328 l -6.293,-0.473 c -18.316,-1.367 -28.078,-1.558 -46.289,0.121 -4.179,0.391 -8.469,0.66 -12.847,0.93 -31.09,2.109 -50,4.769 -49.84,23.949 0.078,12.934 0.468,40.192 1.988,69.922 l 30,0 0,-31.988 48.012,0 0,31.988 15.968,0 0,-31.988 48.008,0 0,31.988 26.762,0 c 2.73,-26.449 4.691,-51.84 5.23,-70.121 z m -191.992,0.199 c 0.16,-19.18 -18.75,-21.84 -49.84,-23.906 -4.378,-0.313 -8.668,-0.582 -12.847,-0.973 -18.211,-1.648 -27.973,-1.488 -46.25,-0.121 l -6.332,0.473 c -34.7307,2.461 -61.2502,5.82 -60.6995,24.328 0.5391,18.281 2.5,43.672 5.2305,70.121 l 26.7617,0 0,-31.988 48.0083,0 0,31.988 15.968,0 0,-31.988 48.012,0 0,31.988 30,0 c 1.52,-29.73 1.91,-56.988 1.988,-69.922 z M 21.2891,288.16 c 6.5195,-3.898 14.0195,-6.051 21.7617,-6.051 l 7.0703,0 C 48.9805,273.551 47.8906,264.77 46.9102,256.02 l -30.2696,0 c 0.7813,10.929 2.3399,21.679 4.6485,32.14 z m 4.3007,16.68 c 1.6407,5.43 3.5118,10.75 5.5391,15.941 0.3203,0.821 0.6328,1.641 0.9805,2.457 1.9922,5 4.1406,9.961 6.5195,14.774 0.3203,0.617 0.6328,1.25 0.9414,1.867 2.1914,4.383 4.5313,8.641 6.9492,12.82 0.4688,0.781 0.9024,1.563 1.3711,2.34 2.6211,4.41 5.4297,8.672 8.3594,12.891 0.6602,0.898 1.2891,1.8 1.9492,2.691 3.0899,4.301 6.25,8.481 9.6524,12.5 0.1601,0.238 0.3476,0.43 0.5078,0.629 3.5898,4.262 7.3008,8.359 11.1289,12.301 0.2031,0.199 0.3515,0.359 0.5508,0.551 4.0195,4.136 8.2422,8.089 12.6211,11.918 0.039,0.031 0.039,0.031 0.0703,0.07 30.9805,27 69.1485,45.43 110.6285,52.351 0.121,0.039 0.27,0.079 0.43,0.079 5.473,0.929 11.051,1.601 16.641,2.07 0.941,0.07 1.91,0.148 2.851,0.23 5.547,0.391 11.098,0.66 16.719,0.66 5.621,0 11.172,-0.269 16.719,-0.66 0.941,-0.082 1.871,-0.16 2.851,-0.23 5.59,-0.469 11.129,-1.141 16.641,-2.07 0.16,0 0.269,-0.04 0.43,-0.079 41.449,-6.921 79.648,-25.351 110.589,-52.351 0.04,-0.039 0.071,-0.039 0.11,-0.07 4.34,-3.829 8.558,-7.782 12.621,-11.918 0.16,-0.192 0.348,-0.352 0.508,-0.551 3.871,-3.942 7.582,-8.039 11.133,-12.301 0.199,-0.199 0.347,-0.391 0.546,-0.629 3.364,-4.019 6.563,-8.199 9.653,-12.5 0.621,-0.891 1.289,-1.793 1.91,-2.691 2.93,-4.219 5.738,-8.481 8.398,-12.891 0.469,-0.777 0.903,-1.559 1.332,-2.34 2.457,-4.179 4.758,-8.437 6.95,-12.82 0.308,-0.617 0.66,-1.25 0.98,-1.867 2.34,-4.813 4.527,-9.774 6.52,-14.774 0.308,-0.816 0.629,-1.636 0.98,-2.418 1.988,-5.23 3.859,-10.55 5.508,-15.98 0,-0.039 0.031,-0.07 0.031,-0.11 -4.879,-4.261 -11.051,-6.609 -17.461,-6.609 l -7.929,0 c -3.04,17 -6.641,34.18 -10.391,50 -11.52,48.399 -52.688,53.988 -82.649,53.988 -56.21,0 -74.769,-2.89 -90.628,-63.48 -2.032,-7.809 -3.793,-16.129 -5.352,-25.188 -1.559,9.059 -3.359,17.379 -5.391,25.188 -15.859,60.59 -34.41,63.48 -90.629,63.48 -29.96,0 -71.1284,-5.589 -82.6519,-53.988 -3.75,-15.82 -7.3476,-33 -10.3867,-50 l -7.8906,0 c -6.4102,0 -12.6211,2.348 -17.461,6.609 0,0.04 0,0.071 0,0.11 z m 51.3204,39.57 c 8.7109,36.641 37.4298,41.719 67.1098,41.719 52.859,0 62,-1.438 75.121,-51.559 5.039,-19.3 8.089,-49.101 9.961,-78.55 l -29.102,0 0,31.992 -48.012,0 0,-31.992 -15.968,0 0,31.992 -48.0083,0 0,-31.992 -25,0 c 3.8281,33.628 8.8281,67.101 13.8985,88.39 z m 107.0698,-72.422 0,-48.008 -15.968,0 0,48.008 15.968,0 z m -63.98,0 0,-48.008 -16.02,0 0,48.008 16.02,0 z m 176.02,-48.008 0,48.008 15.968,0 0,-48.008 -15.968,0 z m 63.98,0 0,48.008 16.02,0 0,-48.008 -16.02,0 z m 31.988,32.04 0,31.992 -48.008,0 0,-31.992 -15.968,0 0,31.992 -48.012,0 0,-31.992 -29.102,0 c 1.872,29.449 4.922,59.25 9.961,78.55 13.121,50.121 22.262,51.559 75.121,51.559 29.68,0 58.399,-5.078 67.11,-41.719 5.07,-21.289 10.07,-54.762 13.898,-88.39 l -25,0 z m 37.891,26.089 7.07,0 c 7.742,0 15.242,2.153 21.762,6.051 2.309,-10.461 3.867,-21.211 4.648,-32.14 l -30.269,0 c -0.981,8.75 -2.07,17.531 -3.211,26.089 z M 240,16.0195 C 116.48,16.0195 16.0195,116.48 16.0195,240 l 29.1797,0 C 42.4609,213.711 40.5898,188.551 40,170.352 38.9492,135 83.2383,131.879 115.59,129.57 l 6.25,-0.429 c 9.762,-0.743 17.18,-1.172 24.68,-1.172 7.308,0 14.652,0.39 24.218,1.293 4.063,0.347 8.242,0.617 12.461,0.937 20.551,1.36 44.61,3.039 56.801,16.563 12.191,-13.524 36.25,-15.203 56.801,-16.563 4.219,-0.32 8.398,-0.59 12.461,-0.937 9.566,-0.903 16.91,-1.293 24.218,-1.293 7.5,0 14.918,0.429 24.68,1.172 l 6.25,0.429 c 32.352,2.309 76.641,5.43 75.59,40.782 -0.59,18.199 -2.461,43.359 -5.199,69.648 l 29.179,0 C 463.98,116.48 363.52,16.0195 240,16.0195 Z" /></g></g></svg>