<?xml version="1.0" encoding="UTF-8" standalone="no"?>
<svg
   xmlns:dc="http://purl.org/dc/elements/1.1/"
   xmlns:cc="http://creativecommons.org/ns#"
   xmlns:rdf="http://www.w3.org/1999/02/22-rdf-syntax-ns#"
   xmlns:svg="http://www.w3.org/2000/svg"
   xmlns="http://www.w3.org/2000/svg"
   viewBox="0 0 60 60"
   height="60"
   width="60"
   xml:space="preserve"
   version="1.1"
   id="svg2"><metadata
     id="metadata8"><rdf:RDF><cc:Work
         rdf:about=""><dc:format>image/svg+xml</dc:format><dc:type
           rdf:resource="http://purl.org/dc/dcmitype/StillImage" /><dc:title></dc:title></cc:Work></rdf:RDF></metadata><defs
     id="defs6" /><g
     transform="matrix(1.25,0,0,-1.25,0,60)"
     id="g10"><g
       transform="matrix(0.10239239,0,0,0.10239239,3.0092073,-1.0251219)"
       id="g12"><path
         id="path14"
         style="fill:#000000;fill-opacity:1;fill-rule:nonzero;stroke:none"
         d="m 403.441,393.559 c -6.531,24.73 -25.711,48.363 -53.953,66.519 -34.758,22.391 -83.976,24.852 -128.359,6.531 l -1.559,-0.668 c -0.742,-0.351 -1.48,-0.66 -2.23,-0.929 -3.711,-1.293 -6.559,-2.391 -8.899,-3.293 -7.39,-2.891 -7.39,-2.848 -19.531,0.711 -34.691,10.23 -78.832,20.429 -112.6991,8.441 C 30.3906,454.621 -10.2695,400.828 2.30078,317.352 3.78906,307.469 5.23047,297.512 6.71875,287.512 17.1914,215.359 28.0508,140.789 55.9414,73.3984 l 0.9375,-2.2968 C 63.8281,54.2617 75.4297,26.0195 95.5898,26.0195 l 1.6407,0 1.4804,0.6289 C 117.23,34.5 124.141,52.2695 129.219,65.2383 l -14.918,5.8203 C 109.18,57.9414 104.41,47.3516 94.2188,42.1914 c -9.0586,2.2695 -18.75,25.8594 -22.5391,35 l -0.9414,2.3477 C 43.5898,145.051 32.8906,218.641 22.5391,289.809 c -1.4883,10.043 -2.9297,20 -4.418,29.882 -8.082,53.68 8.3984,116.571 63.4375,136.098 29.5704,10.473 72.1134,0.27 101.9214,-8.437 51.399,-29.18 51.399,-41.84 51.211,-94.024 l -0.043,-10.547 c 0,-4.453 3.59,-8.011 8.012,-8.011 4.41,0 8,3.558 8,8.011 l 0,10.508 c 0.199,45.742 0.121,67.301 -36.441,93.512 2.191,0.859 4.883,1.879 8.402,3.09 1.09,0.39 2.219,0.859 3.32,1.371 l 1.329,0.539 c 39.609,16.371 83.121,14.418 113.589,-5.153 24.84,-16.019 41.602,-36.328 47.11,-57.187 16.679,-62.973 -1.367,-137.852 -17.27,-203.949 -2.929,-12.141 -5.777,-24.024 -8.359,-35.543 L 360.039,139.5 c -6.25,-28.398 -12.699,-57.8086 -27.187,-83.1289 -4.84,-8.5117 -9.84,-13.2422 -13.161,-13.082 -3.671,0.3906 -13.793,6.1718 -28.562,51.6797 l -15.188,-4.9571 c 9.649,-29.8125 22.258,-60.5898 42.11,-62.6211 10.469,-1.0898 20.148,6.0078 28.711,21.0508 15.66,27.457 22.418,58.0466 28.898,87.6176 l 2.309,10.39 c 2.543,11.449 5.39,23.242 8.281,35.313 16.371,67.929 34.879,144.886 17.191,211.797 z" /><path
         id="path16"
         style="fill:#000000;fill-opacity:1;fill-rule:nonzero;stroke:none"
         d="m 279.84,140.551 c -1.399,4.179 -5.93,6.449 -10.11,5.039 l -5.468,-1.789 0,31.129 10.508,3.468 c 4.179,1.411 6.441,5.942 5.07,10.161 -1.399,4.179 -5.93,6.453 -10.11,5.043 l -5.511,-1.84 0,31.136 10.551,3.512 c 4.179,1.41 6.441,5.942 5.031,10.121 -1.36,4.18 -5.891,6.481 -10.11,5.078 l -5.472,-1.839 0,45.55 -28.668,28.711 -54.653,0 -28.668,-28.711 0,-80.351 -10.429,-3.321 c -4.223,-1.328 -6.531,-5.82 -5.199,-10.039 1.097,-3.437 4.218,-5.589 7.617,-5.589 0.82,0 1.64,0.121 2.422,0.351 l 5.589,1.801 0,-31.211 -10.429,-3.32 c -4.223,-1.332 -6.531,-5.821 -5.199,-10.039 1.097,-3.442 4.218,-5.59 7.617,-5.59 0.82,0 1.64,0.117 2.422,0.359 l 5.589,1.789 0,-31.211 -10.429,-3.32 c -4.223,-1.328 -6.531,-5.8204 -5.199,-10.0392 1.097,-3.4414 4.218,-5.5781 7.617,-5.5781 0.82,0 1.64,0.1094 2.422,0.3477 l 5.589,1.789 0,-18.1601 16.008,0 0,-26.6367 27.973,-37.3399 24.019,0 28.008,37.3399 0,26.6367 15.981,0 0,52.9337 10.551,3.476 c 4.21,1.403 6.48,5.93 5.07,10.153 z m -111.602,138.168 19.301,19.293 41.41,0 19.289,-19.293 0,-28.707 -80,0 0,28.707 z m 80,-188.7073 -16.008,0 0,-37.3515 -20,-26.6407 -7.968,0 -20,26.6407 0,37.3515 -16.024,0 0,7.2188 34.422,10.9415 c 4.219,1.328 6.559,5.816 5.192,10.039 -1.332,4.219 -5.821,6.559 -10.043,5.187 l -29.571,-9.367 0,31.207 34.422,10.942 c 4.219,1.332 6.559,5.82 5.192,10.039 -1.332,4.222 -5.821,6.519 -10.043,5.191 l -29.571,-9.41 0,31.211 34.422,10.937 c 4.219,1.321 6.559,5.821 5.192,10.043 -1.332,4.207 -5.821,6.559 -10.043,5.188 l -29.571,-9.367 0,23.976 78.711,0 -17.219,-5.738 c -4.218,-1.41 -6.492,-5.941 -5.082,-10.121 1.133,-3.359 4.262,-5.469 7.582,-5.469 0.86,0 1.719,0.121 2.54,0.391 l 13.468,4.5 0,-31.141 -18.508,-6.172 c -4.218,-1.41 -6.492,-5.937 -5.082,-10.117 1.133,-3.359 4.262,-5.473 7.622,-5.473 0.82,0 1.679,0.122 2.5,0.403 l 13.468,4.488 0,-31.141 -18.508,-6.168 c -4.179,-1.402 -6.449,-5.929 -5.082,-10.109 1.133,-3.359 4.262,-5.473 7.622,-5.473 0.82,0 1.679,0.114 2.531,0.391 l 13.437,4.492 0,-31.5193 z" /></g></g></svg>