<?xml version="1.0" encoding="UTF-8" standalone="no"?>
<svg
   xmlns:dc="http://purl.org/dc/elements/1.1/"
   xmlns:cc="http://creativecommons.org/ns#"
   xmlns:rdf="http://www.w3.org/1999/02/22-rdf-syntax-ns#"
   xmlns:svg="http://www.w3.org/2000/svg"
   xmlns="http://www.w3.org/2000/svg"
   viewBox="0 0 60 60"
   height="60"
   width="60"
   xml:space="preserve"
   version="1.1"
   id="svg2"><metadata
     id="metadata8"><rdf:RDF><cc:Work
         rdf:about=""><dc:format>image/svg+xml</dc:format><dc:type
           rdf:resource="http://purl.org/dc/dcmitype/StillImage" /><dc:title></dc:title></cc:Work></rdf:RDF></metadata><defs
     id="defs6" /><g
     transform="matrix(1.25,0,0,-1.25,0,60)"
     id="g10"><g
       transform="matrix(0.10000834,0,0,0.10000823,0,-1.0020325)"
       id="g12"><path
         id="path14"
         style="fill:#000000;fill-opacity:1;fill-rule:nonzero;stroke:none"
         d="m 407.66,489.98 c -39.691,0 -72,-32.308 -72,-72 0,-16.992 5.942,-32.57 15.789,-44.878 l -50.121,-50.161 -19.379,4.457 c -8.75,2.032 -17.847,-0.546 -24.179,-6.918 L 10.9414,73.6484 C 3.87109,66.6211 0,57.2383 0,47.2813 0,37.3203 3.87109,27.9414 10.9414,20.9102 18.1992,13.6484 27.7695,10.0195 37.3008,10.0195 c 9.5781,0 19.1094,3.6289 26.3711,10.8907 L 330.309,287.52 c 4.691,4.679 6.492,11.601 4.652,18 -1.84,6.371 -7.031,11.289 -13.512,12.781 l -1.758,0.39 43.079,43.079 c 12.308,-9.84 27.929,-15.782 44.89,-15.782 39.719,0 71.988,32.313 71.988,71.992 0,39.692 -32.269,72 -71.988,72 z M 107.148,87.0117 88.3203,128.41 107.34,147.441 126.172,105.988 107.148,87.0117 Z M 76.0898,55.9102 57.2695,97.3594 76.25,116.34 95.0781,74.9414 76.0898,55.9102 Z M 52.3789,32.1992 c -8.3203,-8.2773 -21.8281,-8.2773 -30.1484,0 -4.0313,4.0313 -6.211,9.3789 -6.211,15.0821 0,5.6992 2.1797,11.0585 6.211,15.0781 L 45.1602,85.2891 63.9805,43.8398 52.3789,32.1992 Z M 318.98,298.801 138.238,118.102 119.41,159.512 269.059,309.16 c 1.882,1.91 4.421,2.93 6.992,2.93 0.789,0 1.527,-0.078 2.269,-0.281 l 22.032,-5.079 c 1.058,-0.46 2.187,-0.781 3.32,-0.781 l 0,0.039 14.18,-3.277 c 1.097,-0.27 1.527,-1.02 1.718,-1.602 0.16,-0.629 0.2,-1.488 -0.59,-2.308 z m 88.68,63.168 c -30.859,0 -55.98,25.121 -55.98,56.011 0,30.86 25.121,55.981 55.98,55.981 30.891,0 56.012,-25.121 56.012,-55.981 0,-30.89 -25.121,-56.011 -56.012,-56.011 z" /></g></g></svg>