<?xml version="1.0" encoding="UTF-8" standalone="no"?>
<svg
   xmlns:dc="http://purl.org/dc/elements/1.1/"
   xmlns:cc="http://creativecommons.org/ns#"
   xmlns:rdf="http://www.w3.org/1999/02/22-rdf-syntax-ns#"
   xmlns:svg="http://www.w3.org/2000/svg"
   xmlns="http://www.w3.org/2000/svg"
   viewBox="0 0 60 60"
   height="60"
   width="60"
   xml:space="preserve"
   version="1.1"
   id="svg2"><metadata
     id="metadata8"><rdf:RDF><cc:Work
         rdf:about=""><dc:format>image/svg+xml</dc:format><dc:type
           rdf:resource="http://purl.org/dc/dcmitype/StillImage" /><dc:title></dc:title></cc:Work></rdf:RDF></metadata><defs
     id="defs6" /><g
     transform="matrix(1.25,0,0,-1.25,0,60)"
     id="g10"><g
       transform="matrix(0.1,0,0,0.1,0,1.39963)"
       id="g12"><path
         id="path14"
         style="fill:#000000;fill-opacity:1;fill-rule:nonzero;stroke:none"
         d="m 178.672,308.68 c -1.442,-0.508 -2.543,-0.942 -3.442,-1.289 -0.539,-0.192 -0.968,-0.391 -0.582,-0.43 -0.738,0.078 -1.679,0.391 -3.238,0.859 -13.398,3.95 -30.551,7.891 -44.301,2.969 -25.937,-9.219 -33.9098,-37.66 -30.3082,-61.758 l 1.5976,-10.859 c 3.8716,-26.762 7.8906,-54.41 18.3206,-79.692 l 0.351,-0.82 c 3.008,-7.379 8.051,-19.64 18.828,-19.64 l 1.641,0 1.481,0.621 c 8.71,3.711 11.839,11.679 13.871,16.949 1.25,3.289 2.379,6.57 3.519,9.851 2.57,7.649 5.039,14.879 9.25,21.047 3.36,4.922 10.16,12.422 18.211,7.621 6.25,-3.75 8.399,-12.07 10.699,-20.859 0.739,-2.852 1.481,-5.66 2.34,-8.32 4.219,-13.09 9.57,-25.391 19.692,-26.41 4.136,-0.391 10.16,1.019 15.429,10.242 6.09,10.738 8.629,22.297 11.09,33.508 l 0.828,3.789 c 0.93,4.179 1.949,8.48 3,12.851 3.281,13.719 6.762,28.399 8.25,43.09 l 25.621,0 c 3.711,-18.238 19.879,-32.031 39.18,-32.031 22.07,0 40,17.972 40,40 0,22.07 -17.93,40 -40,40 -19.301,0 -35.469,-13.75 -39.18,-31.989 l -24.879,0 c -0.16,7.149 -0.941,14.18 -2.742,21.008 -2.687,10.313 -10.469,20 -21.828,27.352 -14.101,9.058 -33.832,10.148 -51.601,2.808 l -1.098,-0.468 z M 320,273.988 c 13.238,0 23.98,-10.738 23.98,-23.976 0,-13.242 -10.742,-24.032 -23.98,-24.032 -13.238,0 -23.98,10.79 -23.98,24.032 0,13.238 10.742,23.976 23.98,23.976 z m -134.102,20.391 c 12.774,5.281 27.192,4.691 36.801,-1.481 8,-5.16 13.352,-11.558 15.031,-17.968 1.411,-5.391 2.071,-11.051 2.231,-16.91 l -15.981,0 c -4.41,0 -7.96,-3.598 -7.96,-8.008 0,-4.422 3.55,-8.012 7.96,-8.012 l 15.122,0 c -1.481,-13.199 -4.692,-26.719 -7.692,-39.34 -1.101,-4.488 -2.148,-8.82 -3.09,-13.082 l -0.859,-3.867 c -2.262,-10.473 -4.449,-20.43 -9.34,-29.02 -0.109,-0.203 -0.23,-0.39 -0.351,-0.55 -1.25,2.07 -3.161,6.089 -5.661,13.75 -0.738,2.339 -1.41,4.839 -2.07,7.418 -2.699,10.429 -6.09,23.441 -17.969,30.55 -13.48,8.012 -29.019,3.2 -39.609,-12.339 -5.473,-7.969 -8.402,-16.61 -11.211,-24.93 -1.02,-3.078 -2.07,-6.168 -3.238,-9.18 -0.942,-2.34 -1.684,-4.14 -2.5,-5.43 -1.492,2.5 -3.012,6.219 -3.633,7.739 l -0.359,0.902 c -9.68,23.43 -13.551,50.078 -17.258,75.859 l -1.602,10.93 c -2.582,17.039 2.539,38.168 19.801,44.34 2.738,0.941 5.859,1.328 9.18,1.328 7.109,0 15,-1.758 21.718,-3.629 l -13.668,-20.469 23.008,-22.968 -10.359,-10.352 11.332,-11.332 21.637,21.684 -25,25 11.921,17.929 c 0.54,0.188 1.008,0.387 1.719,0.618 0.539,0.203 1.051,0.429 1.949,0.82 z" /><path
         id="path16"
         style="fill:#000000;fill-opacity:1;fill-rule:nonzero;stroke:none"
         d="m 0,442 0,-431.9883 480,0 L 480,442 0,442 Z m 463.98,-416.0195 -447.9605,0 0,399.9995 447.9605,0 0,-399.9995 z" /><path
         id="path18"
         style="fill:#000000;fill-opacity:1;fill-rule:nonzero;stroke:none"
         d="m 48.0117,385.98 71.9883,0 c 4.41,0 8.012,3.598 8.012,8.008 0,4.422 -3.602,8.012 -8.012,8.012 l -71.9883,0 C 43.5898,402 40,398.41 40,393.988 c 0,-4.41 3.5898,-8.008 8.0117,-8.008 z" /><path
         id="path20"
         style="fill:#000000;fill-opacity:1;fill-rule:nonzero;stroke:none"
         d="m 48.0117,353.988 135.9683,0 c 4.461,0 8.008,3.602 8.008,8.012 0,4.41 -3.547,8.012 -8.008,8.012 l -135.9683,0 C 43.5898,370.012 40,366.41 40,362 c 0,-4.41 3.5898,-8.012 8.0117,-8.012 z" /><path
         id="path22"
         style="fill:#000000;fill-opacity:1;fill-rule:nonzero;stroke:none"
         d="m 431.988,130.012 -31.988,0 c -4.41,0 -8.012,-3.602 -8.012,-8.012 0,-4.41 3.602,-8.012 8.012,-8.012 l 31.988,0 c 4.422,0 8.012,3.602 8.012,8.012 0,4.41 -3.59,8.012 -8.012,8.012 z" /><path
         id="path24"
         style="fill:#000000;fill-opacity:1;fill-rule:nonzero;stroke:none"
         d="m 431.988,98.0195 -63.976,0 C 363.59,98.0195 360,94.4219 360,90.0117 360,85.5898 363.59,82 368.012,82 l 63.976,0 c 4.422,0 8.012,3.5898 8.012,8.0117 0,4.4102 -3.59,8.0078 -8.012,8.0078 z" /><path
         id="path26"
         style="fill:#000000;fill-opacity:1;fill-rule:nonzero;stroke:none"
         d="m 431.988,65.9805 -31.988,0 c -4.41,0 -8.012,-3.5508 -8.012,-7.961 0,-4.4609 3.602,-8.0078 8.012,-8.0078 l 31.988,0 c 4.422,0 8.012,3.5469 8.012,8.0078 0,4.4102 -3.59,7.961 -8.012,7.961 z" /><path
         id="path28"
         style="fill:#000000;fill-opacity:1;fill-rule:nonzero;stroke:none"
         d="m 48.0117,82 8.0078,0 c 4.4102,0 7.961,3.5898 7.961,8.0117 0,4.4102 -3.5508,8.0078 -7.961,8.0078 l -8.0078,0 C 43.5898,98.0195 40,94.4219 40,90.0117 40,85.5898 43.5898,82 48.0117,82 Z" /><path
         id="path30"
         style="fill:#000000;fill-opacity:1;fill-rule:nonzero;stroke:none"
         d="m 88.0117,98.0195 -8.0117,0 c -4.4102,0 -8.0117,-3.5976 -8.0117,-8.0078 C 71.9883,85.5898 75.5898,82 80,82 l 8.0117,0 c 4.4102,0 8.0078,3.5898 8.0078,8.0117 0,4.4102 -3.5976,8.0078 -8.0078,8.0078 z" /><path
         id="path32"
         style="fill:#000000;fill-opacity:1;fill-rule:nonzero;stroke:none"
         d="m 120,98.0195 -8.012,0 c -4.41,0 -8.008,-3.5976 -8.008,-8.0078 0,-4.4219 3.598,-8.0117 8.008,-8.0117 L 120,82 c 4.41,0 8.012,3.5898 8.012,8.0117 0,4.4102 -3.602,8.0078 -8.012,8.0078 z" /><path
         id="path34"
         style="fill:#000000;fill-opacity:1;fill-rule:nonzero;stroke:none"
         d="m 48.0117,50.0117 31.9883,0 c 4.4102,0 8.0117,3.5469 8.0117,8.0078 0,4.4102 -3.6015,7.961 -8.0117,7.961 l -31.9883,0 C 43.5898,65.9805 40,62.4297 40,58.0195 c 0,-4.4609 3.5898,-8.0078 8.0117,-8.0078 z" /><path
         id="path36"
         style="fill:#000000;fill-opacity:1;fill-rule:nonzero;stroke:none"
         d="m 114.34,63.6797 c -1.449,-1.5195 -2.352,-3.5899 -2.352,-5.6602 0,-2.1093 0.903,-4.1797 2.352,-5.7109 1.48,-1.5195 3.59,-2.2969 5.66,-2.2969 2.07,0 4.141,0.7774 5.66,2.2969 1.449,1.5312 2.352,3.6016 2.352,5.7109 0,2.0703 -0.903,4.1407 -2.352,5.6602 -2.93,2.9687 -8.39,2.9687 -11.32,0 z" /><path
         id="path38"
         style="fill:#000000;fill-opacity:1;fill-rule:nonzero;stroke:none"
         d="m 423.98,353.988 8.008,0 c 4.422,0 8.012,3.602 8.012,8.012 0,4.41 -3.59,8.012 -8.012,8.012 l -8.008,0 c -4.41,0 -7.96,-3.602 -7.96,-8.012 0,-4.41 3.55,-8.012 7.96,-8.012 z" /><path
         id="path40"
         style="fill:#000000;fill-opacity:1;fill-rule:nonzero;stroke:none"
         d="m 391.988,353.988 8.012,0 c 4.41,0 8.012,3.602 8.012,8.012 0,4.41 -3.602,8.012 -8.012,8.012 l -8.012,0 c -4.41,0 -8.008,-3.602 -8.008,-8.012 0,-4.41 3.598,-8.012 8.008,-8.012 z" /><path
         id="path42"
         style="fill:#000000;fill-opacity:1;fill-rule:nonzero;stroke:none"
         d="m 360,353.988 8.012,0 c 4.41,0 8.008,3.602 8.008,8.012 0,4.41 -3.598,8.012 -8.008,8.012 l -8.012,0 c -4.41,0 -8.012,-3.602 -8.012,-8.012 0,-4.41 3.602,-8.012 8.012,-8.012 z" /><path
         id="path44"
         style="fill:#000000;fill-opacity:1;fill-rule:nonzero;stroke:none"
         d="m 336.02,193.988 -8.008,0 c -4.422,0 -8.012,-3.547 -8.012,-8.008 0,-4.41 3.59,-7.96 8.012,-7.96 l 8.008,0 c 4.41,0 7.96,3.55 7.96,7.96 0,4.461 -3.55,8.008 -7.96,8.008 z" /><path
         id="path46"
         style="fill:#000000;fill-opacity:1;fill-rule:nonzero;stroke:none"
         d="m 303.98,193.988 -7.96,0 c -4.461,0 -8.008,-3.547 -8.008,-8.008 0,-4.41 3.547,-7.96 8.008,-7.96 l 7.96,0 c 4.461,0 8.008,3.55 8.008,7.96 0,4.461 -3.547,8.008 -8.008,8.008 z" /><path
         id="path48"
         style="fill:#000000;fill-opacity:1;fill-rule:nonzero;stroke:none"
         d="m 423.98,385.98 8.008,0 c 4.422,0 8.012,3.598 8.012,8.008 0,4.422 -3.59,8.012 -8.012,8.012 l -8.008,0 c -4.41,0 -7.96,-3.59 -7.96,-8.012 0,-4.41 3.55,-8.008 7.96,-8.008 z" /><path
         id="path50"
         style="fill:#000000;fill-opacity:1;fill-rule:nonzero;stroke:none"
         d="m 391.988,385.98 8.012,0 c 4.41,0 8.012,3.598 8.012,8.008 0,4.422 -3.602,8.012 -8.012,8.012 l -8.012,0 c -4.41,0 -8.008,-3.59 -8.008,-8.012 0,-4.41 3.598,-8.008 8.008,-8.008 z" /><path
         id="path52"
         style="fill:#000000;fill-opacity:1;fill-rule:nonzero;stroke:none"
         d="m 360,385.98 8.012,0 c 4.41,0 8.008,3.598 8.008,8.008 0,4.422 -3.598,8.012 -8.008,8.012 L 360,402 c -4.41,0 -8.012,-3.59 -8.012,-8.012 0,-4.41 3.602,-8.008 8.012,-8.008 z" /></g></g></svg>