<?xml version="1.0" encoding="UTF-8" standalone="no"?>
<svg
   xmlns:dc="http://purl.org/dc/elements/1.1/"
   xmlns:cc="http://creativecommons.org/ns#"
   xmlns:rdf="http://www.w3.org/1999/02/22-rdf-syntax-ns#"
   xmlns:svg="http://www.w3.org/2000/svg"
   xmlns="http://www.w3.org/2000/svg"
   viewBox="0 0 60 60"
   height="60"
   width="60"
   xml:space="preserve"
   version="1.1"
   id="svg2"><metadata
     id="metadata8"><rdf:RDF><cc:Work
         rdf:about=""><dc:format>image/svg+xml</dc:format><dc:type
           rdf:resource="http://purl.org/dc/dcmitype/StillImage" /><dc:title></dc:title></cc:Work></rdf:RDF></metadata><defs
     id="defs6" /><g
     transform="matrix(1.25,0,0,-1.25,0,60)"
     id="g10"><g
       transform="matrix(0.1,0,0,0.1,0,1.39963)"
       id="g12"><path
         id="path14"
         style="fill:#000000;fill-opacity:1;fill-rule:nonzero;stroke:none"
         d="m 0,442 0,-431.9883 480,0 L 480,442 0,442 Z m 463.98,-416.0195 -447.9605,0 0,399.9995 447.9605,0 0,-399.9995 z" /><path
         id="path16"
         style="fill:#000000;fill-opacity:1;fill-rule:nonzero;stroke:none"
         d="M 48.0117,362 120,362 c 4.41,0 8.012,3.59 8.012,8.012 0,4.41 -3.602,8.008 -8.012,8.008 l -71.9883,0 C 43.5898,378.02 40,374.422 40,370.012 40,365.59 43.5898,362 48.0117,362 Z" /><path
         id="path18"
         style="fill:#000000;fill-opacity:1;fill-rule:nonzero;stroke:none"
         d="m 48.0117,330.012 135.9683,0 c 4.461,0 8.008,3.547 8.008,8.008 0,4.41 -3.547,7.96 -8.008,7.96 l -135.9683,0 C 43.5898,345.98 40,342.43 40,338.02 c 0,-4.461 3.5898,-8.008 8.0117,-8.008 z" /><path
         id="path20"
         style="fill:#000000;fill-opacity:1;fill-rule:nonzero;stroke:none"
         d="m 391.988,138.02 c 0,-4.461 3.602,-8.008 8.012,-8.008 l 31.988,0 c 4.422,0 8.012,3.547 8.012,8.008 0,4.41 -3.59,7.96 -8.012,7.96 l -31.988,0 c -4.41,0 -8.012,-3.55 -8.012,-7.96 z" /><path
         id="path22"
         style="fill:#000000;fill-opacity:1;fill-rule:nonzero;stroke:none"
         d="m 431.988,113.988 -63.976,0 c -4.422,0 -8.012,-3.547 -8.012,-8.008 0,-4.41 3.59,-7.9605 8.012,-7.9605 l 63.976,0 c 4.422,0 8.012,3.5505 8.012,7.9605 0,4.461 -3.59,8.008 -8.012,8.008 z" /><path
         id="path24"
         style="fill:#000000;fill-opacity:1;fill-rule:nonzero;stroke:none"
         d="M 431.988,82 400,82 c -4.41,0 -8.012,-3.5898 -8.012,-8.0117 0,-4.4102 3.602,-8.0078 8.012,-8.0078 l 31.988,0 c 4.422,0 8.012,3.5976 8.012,8.0078 C 440,78.4102 436.41,82 431.988,82 Z" /><path
         id="path26"
         style="fill:#000000;fill-opacity:1;fill-rule:nonzero;stroke:none"
         d="m 160.82,224.699 0.981,-6.679 -34.61,0 c -3.711,18.199 -19.89,31.992 -39.1793,31.992 -22.0703,0 -40,-17.973 -40,-40 0,-22.071 17.9297,-40 40,-40 19.2893,0 35.4683,13.75 39.1793,31.988 l 36.95,0 c 3.48,-22.891 7.699,-46.09 16.558,-67.539 l 0.352,-0.859 c 3.008,-7.301 8.09,-19.614 18.828,-19.614 l 1.641,0 1.492,0.633 c 8.75,3.707 11.828,11.68 13.898,16.949 1.25,3.239 2.391,6.52 3.481,9.809 2.621,7.609 5.039,14.801 9.3,20.973 0.899,1.328 9.137,12.968 18.161,7.539 6.25,-3.711 8.437,-11.95 10.699,-20.7 0.75,-2.851 1.488,-5.671 2.347,-8.32 4.262,-13.09 9.571,-25.32 19.692,-26.332 4.18,-0.43 10.148,1.012 15.43,10.191 6.089,10.711 8.628,22.27 11.089,33.442 l 0.821,3.75 c 0.941,4.137 1.949,8.359 2.968,12.699 1.723,7.149 3.403,14.57 4.922,22.07 6.481,-1.679 13.2,-2.703 20.2,-2.703 44.101,0 80,35.903 80,80 0,20.242 -7.622,38.641 -20,52.742 l 0.031,0.27 -3.039,3.09 c -0.121,0.109 -0.242,0.23 -0.352,0.351 -0.551,0.508 -1.101,0.969 -1.609,1.481 -12.813,12.148 -28.903,19.687 -46.281,21.558 -0.2,0.04 -0.391,0.079 -0.629,0.122 -2.692,0.277 -5.391,0.386 -8.121,0.386 -2.54,0 -5,-0.148 -7.5,-0.347 -0.75,-0.082 -1.489,-0.192 -2.27,-0.313 -1.68,-0.199 -3.398,-0.43 -5.078,-0.777 -0.863,-0.16 -1.684,-0.321 -2.543,-0.512 -1.559,-0.348 -3.16,-0.738 -4.68,-1.211 -0.828,-0.238 -1.679,-0.469 -2.5,-0.738 -1.57,-0.512 -3.129,-1.102 -4.648,-1.719 -1.02,-0.391 -2.031,-0.781 -3.051,-1.211 -1.719,-0.781 -3.398,-1.57 -5.078,-2.461 -1.332,-0.75 -2.621,-1.527 -3.942,-2.308 -0.671,-0.391 -1.332,-0.782 -1.96,-1.211 -1.36,-0.86 -2.649,-1.801 -3.942,-2.731 -0.348,-0.277 -0.707,-0.469 -1.019,-0.75 l -4.528,-3.398 0.078,-0.231 c -13.281,-11.679 -22.699,-27.66 -25.98,-45.742 -4.649,-0.816 -9.289,-1.949 -13.59,-3.707 l -1.09,-0.473 c -1.41,-0.507 -2.5,-0.937 -3.398,-1.25 -0.59,-0.238 -1.02,-0.429 -0.672,-0.468 -0.738,0.082 -1.68,0.39 -3.199,0.82 -13.399,3.98 -30.508,7.891 -44.301,3.012 -25.969,-9.184 -33.938,-37.543 -30.309,-61.563 z M 88.0117,185.98 c -13.2422,0 -24.0312,10.79 -24.0312,24.032 0,13.238 10.789,23.976 24.0312,23.976 13.2383,0 23.9763,-10.738 23.9763,-23.976 0,-13.242 -10.738,-24.032 -23.9763,-24.032 z M 302.191,328.25 c 2.34,1.48 4.797,2.77 7.258,3.91 0.242,0.11 0.43,0.231 0.672,0.309 2.5,1.133 5.109,2.109 7.731,2.89 0.468,0.121 0.976,0.231 1.449,0.352 2.148,0.59 4.289,1.059 6.437,1.41 0.742,0.109 1.453,0.231 2.192,0.309 2.66,0.351 5.351,0.59 8.09,0.59 2.101,0 4.179,-0.122 6.25,-0.36 0.582,-0.031 1.128,-0.148 1.679,-0.23 1.52,-0.16 3.039,-0.391 4.492,-0.66 0.579,-0.122 1.168,-0.282 1.719,-0.391 1.481,-0.359 2.93,-0.707 4.328,-1.141 0.512,-0.148 1.063,-0.308 1.563,-0.508 1.449,-0.46 2.859,-0.968 4.258,-1.558 0.472,-0.192 0.941,-0.391 1.41,-0.621 1.402,-0.59 2.769,-1.25 4.101,-1.961 0.469,-0.231 0.942,-0.5 1.41,-0.781 1.25,-0.7 2.5,-1.481 3.711,-2.258 0.508,-0.321 1.008,-0.672 1.52,-1.02 1.129,-0.781 2.187,-1.562 3.238,-2.422 0.551,-0.429 1.141,-0.898 1.68,-1.371 0.351,-0.308 0.742,-0.66 1.101,-1.008 -5.589,-24.652 -11.921,-48.48 -24.261,-70.121 -4.84,-8.519 -9.918,-13.589 -13.168,-13.05 -3.672,0.351 -13.781,6.14 -28.551,51.64 -2.148,6.571 -3.949,13.563 -5.898,20.942 -1.442,5.589 -2.93,11.289 -4.614,16.949 0.082,0.082 0.121,0.121 0.203,0.16 z m -13.64,-11.449 c 0.859,-3.242 1.719,-6.481 2.578,-9.68 1.883,-7.312 3.871,-14.851 6.141,-21.883 9.679,-29.797 22.3,-60.578 42.14,-62.609 0.711,-0.078 1.41,-0.117 2.07,-0.117 9.692,0 18.641,7.109 26.641,21.168 11.258,19.691 17.899,41.25 23.129,62.5 5.512,-9.489 8.75,-20.469 8.75,-32.192 0,-35.269 -28.711,-63.976 -63.98,-63.976 -8.29,0 -16.18,1.636 -23.442,4.488 -2.93,1.172 -5.699,2.5 -8.359,4.02 -0.391,0.242 -0.739,0.468 -1.098,0.671 -2.141,1.289 -4.211,2.731 -6.172,4.219 -0.5,0.391 -0.969,0.699 -1.437,1.09 -1.961,1.559 -3.711,3.281 -5.434,5.039 -0.816,0.859 -1.637,1.723 -2.379,2.621 -1.058,1.211 -2.039,2.461 -3.008,3.75 -0.98,1.32 -1.921,2.692 -2.812,4.102 -0.938,1.476 -1.84,3.008 -2.66,4.609 -0.547,1.008 -1.02,2.07 -1.52,3.117 -0.82,1.883 -1.609,3.832 -2.269,5.821 -0.27,0.742 -0.551,1.531 -0.782,2.312 -0.668,2.34 -1.207,4.758 -1.636,7.18 -0.121,0.789 -0.242,1.57 -0.352,2.347 -0.39,2.852 -0.672,5.704 -0.672,8.59 0,16.453 6.293,31.453 16.563,42.813 z m -82.891,-44.25 c 8.32,0 17.93,-2.461 25.199,-4.61 6.411,-1.882 8.672,-2.113 14.18,0.039 0.781,0.309 1.68,0.661 2.77,1.051 0.589,0.199 1.171,0.43 2.07,0.821 2,0.82 4.07,1.488 6.141,2.027 0.031,-0.617 0.152,-1.25 0.191,-1.867 0.117,-2.461 0.348,-4.883 0.699,-7.274 0.121,-1.09 0.281,-2.187 0.469,-3.277 0.473,-2.5 1.062,-4.961 1.762,-7.383 0.429,-1.488 0.898,-2.93 1.41,-4.379 0.66,-1.949 1.359,-3.859 2.179,-5.738 0.668,-1.481 1.411,-2.973 2.149,-4.41 0.633,-1.25 1.293,-2.422 2,-3.602 0.891,-1.558 1.75,-3.078 2.769,-4.57 0.551,-0.777 1.133,-1.52 1.723,-2.301 1.91,-2.656 3.981,-5.199 6.25,-7.578 1.008,-1.09 2.07,-2.191 3.117,-3.199 1.102,-1.063 2.192,-2.071 3.321,-3.012 2.031,-1.719 4.101,-3.359 6.25,-4.879 0.351,-0.199 0.632,-0.469 0.98,-0.711 2.813,-1.91 5.781,-3.551 8.832,-5.07 0.188,-0.117 0.391,-0.277 0.578,-0.359 -1.558,-8.04 -3.469,-16.09 -5.347,-23.899 -1.051,-4.422 -2.114,-8.75 -3.051,-12.93 l -0.821,-3.832 c -2.3,-10.468 -4.492,-20.308 -9.371,-28.91 -0.121,-0.187 -0.199,-0.39 -0.308,-0.539 -1.289,2.07 -3.211,6.051 -5.711,13.711 -0.738,2.34 -1.399,4.84 -2.07,7.379 -2.692,10.391 -6.09,23.359 -17.969,30.43 -15.27,9.101 -31.211,0 -39.602,-12.27 -5.429,-7.961 -8.359,-16.558 -11.179,-24.84 -1.051,-3.09 -2.11,-6.129 -3.282,-9.179 -0.898,-2.34 -1.679,-4.102 -2.5,-5.43 -1.476,2.539 -3.008,6.25 -3.629,7.769 l -0.347,0.86 c -7.891,19.07 -11.922,40.32 -15.16,61.449 l 27.66,0 c 4.41,0 8.008,3.551 8.008,8.012 0,4.41 -3.598,7.969 -8.008,7.969 l -30.043,0 -1.328,9.058 c -2.582,16.992 2.539,38.051 19.808,44.184 2.731,0.898 5.852,1.289 9.211,1.289 z" /><path
         id="path28"
         style="fill:#000000;fill-opacity:1;fill-rule:nonzero;stroke:none"
         d="m 56.0195,113.988 7.961,0 c 4.4609,0 8.0078,3.602 8.0078,8.012 0,4.41 -3.5469,8.012 -8.0078,8.012 l -7.961,0 c -4.4609,0 -8.0078,-3.602 -8.0078,-8.012 0,-4.41 3.5469,-8.012 8.0078,-8.012 z" /><path
         id="path30"
         style="fill:#000000;fill-opacity:1;fill-rule:nonzero;stroke:none"
         d="m 96.0195,130.012 -8.0078,0 C 83.5898,130.012 80,126.41 80,122 c 0,-4.41 3.5898,-8.012 8.0117,-8.012 l 8.0078,0 c 4.4105,0 7.9605,3.602 7.9605,8.012 0,4.41 -3.55,8.012 -7.9605,8.012 z" /><path
         id="path32"
         style="fill:#000000;fill-opacity:1;fill-rule:nonzero;stroke:none"
         d="m 128.012,130.012 -8.012,0 c -4.41,0 -8.012,-3.602 -8.012,-8.012 0,-4.41 3.602,-8.012 8.012,-8.012 l 8.012,0 c 4.41,0 8.008,3.602 8.008,8.012 0,4.41 -3.598,8.012 -8.008,8.012 z" /><path
         id="path34"
         style="fill:#000000;fill-opacity:1;fill-rule:nonzero;stroke:none"
         d="m 88.0117,98.0195 -31.9922,0 c -4.4609,0 -8.0078,-3.5976 -8.0078,-8.0078 0,-4.4219 3.5469,-8.0117 8.0078,-8.0117 l 31.9922,0 c 4.4102,0 8.0078,3.5898 8.0078,8.0117 0,4.4102 -3.5976,8.0078 -8.0078,8.0078 z" /><path
         id="path36"
         style="fill:#000000;fill-opacity:1;fill-rule:nonzero;stroke:none"
         d="M 122.301,95.6719 C 120.859,94.1914 120,92.1602 120,90.0117 c 0,-2.1523 0.859,-4.1836 2.301,-5.7109 1.527,-1.4024 3.64,-2.3008 5.711,-2.3008 2.066,0 4.136,0.8984 5.66,2.3008 1.449,1.5273 2.348,3.5586 2.348,5.7109 0,2.0664 -0.899,4.1797 -2.348,5.6602 -3.051,2.9687 -8.32,2.9687 -11.371,0 z" /></g></g></svg>