<?xml version="1.0" encoding="UTF-8" standalone="no"?>
<svg
   xmlns:dc="http://purl.org/dc/elements/1.1/"
   xmlns:cc="http://creativecommons.org/ns#"
   xmlns:rdf="http://www.w3.org/1999/02/22-rdf-syntax-ns#"
   xmlns:svg="http://www.w3.org/2000/svg"
   xmlns="http://www.w3.org/2000/svg"
   viewBox="0 0 60 60"
   height="60"
   width="60"
   xml:space="preserve"
   version="1.1"
   id="svg2"><metadata
     id="metadata8"><rdf:RDF><cc:Work
         rdf:about=""><dc:format>image/svg+xml</dc:format><dc:type
           rdf:resource="http://purl.org/dc/dcmitype/StillImage" /><dc:title></dc:title></cc:Work></rdf:RDF></metadata><defs
     id="defs6" /><g
     transform="matrix(1.25,0,0,-1.25,0,60)"
     id="g10"><g
       transform="matrix(0.10000633,0,0,0.10000634,0.00466573,-1.0012335)"
       id="g12"><path
         id="path14"
         style="fill:#000000;fill-opacity:1;fill-rule:nonzero;stroke:none"
         d="m 280,281.961 c 0,-4.41 -3.59,-7.973 -8.012,-7.973 -4.41,0 -8.008,3.563 -8.008,7.973 0,4.418 3.598,8.008 8.008,8.008 4.422,0 8.012,-3.59 8.012,-8.008 z" /><path
         id="path16"
         style="fill:#000000;fill-opacity:1;fill-rule:nonzero;stroke:none"
         d="m 191.988,185.988 c 0,-4.418 -3.59,-8.008 -8.008,-8.008 -4.41,0 -8,3.59 -8,8.008 0,4.41 3.59,8 8,8 4.418,0 8.008,-3.59 8.008,-8 z" /><path
         id="path18"
         style="fill:#000000;fill-opacity:1;fill-rule:nonzero;stroke:none"
         d="m 351.988,161.961 c 0,-4.41 -3.59,-7.973 -8.008,-7.973 -4.41,0 -8,3.563 -8,7.973 0,4.418 3.59,8.008 8,8.008 4.418,0 8.008,-3.59 8.008,-8.008 z" /><path
         id="path20"
         style="fill:#000000;fill-opacity:1;fill-rule:nonzero;stroke:none"
         d="m 407.969,241.961 c 0,-4.41 -3.559,-7.973 -7.969,-7.973 -4.41,0 -8.012,3.563 -8.012,7.973 0,4.418 3.602,8.008 8.012,8.008 4.41,0 7.969,-3.59 7.969,-8.008 z" /><path
         id="path22"
         style="fill:#000000;fill-opacity:1;fill-rule:nonzero;stroke:none"
         d="m 320,313.988 c 0,-4.449 -3.59,-8 -8.012,-8 -4.41,0 -8.008,3.551 -8.008,8 0,4.422 3.598,7.973 8.008,7.973 4.422,0 8.012,-3.551 8.012,-7.973 z" /><path
         id="path24"
         style="fill:#000000;fill-opacity:1;fill-rule:nonzero;stroke:none"
         d="m 427.891,135.789 c -9.102,2.5 -18.36,2.852 -27.422,1.02 -2.891,-0.547 -5.699,0.031 -7.739,1.711 l -11.281,9.07 c -3.211,2.539 -4.179,7.031 -2.429,10.898 3.21,7.032 5.859,14.41 7.89,21.91 1.02,3.75 3.602,6.954 7.149,8.711 3.171,1.641 6.679,1.84 9.812,0.629 14.879,-5.789 31.598,-4.847 45.82,2.461 25.86,13.36 37.297,45.86 25.469,72.5 -6.18,13.821 -17.308,24.371 -31.449,29.68 -14.18,5.32 -29.531,4.769 -43.242,-1.598 -2.5,-1.133 -5.239,-2.812 -8.321,-5.082 -3.437,-2.5 -7.5,-3.469 -11.367,-2.687 -3.832,0.777 -7.152,3.199 -9.301,6.828 -4.601,7.66 -10.109,14.539 -15.699,21.449 -5.082,6.332 -5.941,15.121 -2.23,22.383 l 11.84,22.969 c 3.359,6.531 9.41,10.98 15.82,11.597 5.898,0.59 11.801,2.192 17.461,4.774 17.969,8.238 30.59,25.078 32.887,43.937 2.152,17.621 -3.829,34.813 -16.481,47.153 -12.656,12.308 -29.957,17.886 -47.656,15.238 -23.672,-3.52 -42.852,-22.461 -46.684,-46.102 -1.758,-10.859 -0.386,-21.828 3.953,-31.718 2.887,-6.559 2.887,-13.508 0.039,-19.059 l -9.261,-18.012 C 310.699,357.27 300,352.551 290.621,355.48 c -8.473,2.649 -22.57,4.45 -32.961,5.469 -2.89,0.313 -5.281,2.422 -5.98,5.231 l -9.102,38.441 c -0.508,2.109 0.152,4.367 1.762,6.25 9.609,11.129 13.551,25.859 10.781,40.43 -3.641,18.668 -18.48,33.789 -36.961,37.648 -14.41,2.973 -29.211,-0.539 -40.461,-9.719 C 166.449,470.051 160,456.488 160,442 c 0,-19.879 12.539,-37.93 31.25,-44.84 2.621,-0.98 4.449,-2.82 4.961,-5.082 l 7.309,-30.816 c 0.781,-3.321 -1.141,-6.801 -4.5,-8.012 -10.782,-3.871 -21.051,-9.02 -30.579,-15.352 -3.64,-2.378 -8.519,-2.308 -11.679,0.231 -4.141,3.359 -3.91,8.441 -2.5,11.762 5.937,13.949 7.297,29.339 3.859,44.531 -6.133,27.269 -28.742,49.098 -56.242,54.258 -24.1095,4.57 -47.7774,-2.692 -64.8477,-19.84 -17.1094,-17.149 -24.3008,-40.781 -19.7305,-64.891 5.4687,-28.75 28.5195,-51.558 57.3476,-56.789 12.2618,-2.191 24.3321,-1.371 35.8636,2.418 3.468,1.133 7.457,-0.156 9.918,-3.199 l 3.199,-3.988 c 2.5,-3.121 2.781,-7.379 0.711,-10.86 -10.281,-17.191 -16.719,-35.941 -19.141,-55.781 -0.551,-4.301 -3.828,-7.539 -7.9685,-7.891 l -15.1992,-1.371 c -3.5508,-0.347 -6.25,1.801 -7.543,3.09 -7.5391,7.344 -17.1094,11.602 -27.6875,12.344 C 28.9492,243.09 12.2305,233.328 4.57031,217.629 -1.32813,205.48 -1.51953,191.648 4.01953,179.578 9.57031,167.551 20.1211,158.719 32.9688,155.398 c 18.5898,-4.839 38.0117,2.93 48.2031,19.34 1.4062,2.301 4.2578,3.864 7.539,4.184 l 13.0511,1.168 c 4.058,0.39 7.886,-2.231 9.179,-6.289 5.618,-17.379 14.411,-33.403 26.168,-47.621 1.332,-1.559 1.25,-3.981 -0.199,-5.59 -1.359,-1.52 -3.551,-1.52 -5.109,-1.051 -6.723,2.152 -13.75,2.891 -20.86,2.191 C 87.1484,119.5 67.5781,100.711 64.4492,77.0781 62.1914,60.1719 67.9688,43.8008 80.2695,32.1992 92.5781,20.5586 109.262,15.75 126.172,18.9492 c 18.558,3.5625 34.058,17.6211 39.527,35.8203 2.5,8.3594 2.93,16.8008 1.289,25.1602 -0.226,1.2109 0.16,2.5391 1.063,3.5195 l 6.289,6.9922 c 1.32,1.4805 3.512,1.9102 5.109,1.0078 4.141,-2.2578 8.481,-4.3281 12.821,-6.1679 5.308,-2.2227 8.511,-8.0118 7.929,-14.3711 -0.508,-5.5118 -0.16,-11.1407 1.012,-16.6797 4.918,-23.4024 25,-41.4922 48.828,-43.9492 1.949,-0.1915 3.871,-0.2696 5.82,-0.2696 13.871,0 27.301,5.0781 37.621,14.3672 11.75,10.6328 18.508,25.793 18.508,41.6094 0,3.5117 -0.347,7.0312 -1.008,10.5 -1.25,6.5312 1.36,12.6211 6.641,15.5508 8.32,4.6093 16.168,10.0389 23.399,16.1719 2.609,2.23 5.582,3.211 7.96,2.578 3.598,-0.898 5.399,-3.008 6.219,-4.648 1.211,-2.262 1.36,-5 0.461,-7.5004 -3.59,-9.8008 -4.57,-20.5117 -2.808,-30.9687 4.296,-25.4727 25.199,-45.6328 50.777,-49.1133 18.48,-2.5 36.68,3.4023 49.961,16.2109 13.289,12.7813 19.89,30.711 18.129,49.1797 -2.379,24.4608 -20,45.3208 -43.828,51.8398 z M 442.5,46.2617 c -9.77,-9.3828 -23.199,-13.7109 -36.719,-11.8828 -18.711,2.543 -34.019,17.3125 -37.152,35.9414 -1.328,7.8086 -0.66,15.4688 2.031,22.7695 2.5,6.7618 2,14.2622 -1.281,20.5122 -3.359,6.367 -9.219,10.859 -16.488,12.699 -7.5,1.871 -15.59,-0.242 -22.27,-5.903 -6.402,-5.468 -13.391,-10.269 -20.781,-14.378 -11.25,-6.2505 -17.11,-19.3286 -14.57,-32.5317 0.468,-2.5 0.71,-5 0.71,-7.5 0,-11.3281 -4.808,-22.1485 -13.21,-29.7266 -8.508,-7.6601 -19.532,-11.2929 -31.09,-10.082 -16.95,1.7617 -31.289,14.6484 -34.801,31.332 -0.828,3.9766 -1.098,8.0078 -0.75,11.9492 1.172,13.3204 -5.899,25.6289 -17.649,30.5511 -3.871,1.636 -7.699,3.476 -11.371,5.468 -3.007,1.641 -6.289,2.418 -9.531,2.418 -5.59,0 -11.129,-2.339 -15.117,-6.796 l -6.289,-6.9536 c -4.262,-4.7265 -6.051,-11.207 -4.883,-17.3398 1.172,-5.75 0.859,-11.6367 -0.898,-17.4297 C 146.602,46.8086 135.941,37.0781 123.16,34.6602 111.41,32.4297 99.8008,35.75 91.2891,43.8008 82.7695,51.8398 78.75,63.2109 80.3086,74.9688 82.4609,91.0195 96.25,104.27 112.461,105.789 c 4.961,0.473 9.84,-0.039 14.488,-1.519 8.09,-2.54 16.492,-0.43 21.879,5.582 6.723,7.5 6.992,18.91 0.621,26.57 -10.469,12.609 -18.277,26.828 -23.238,42.297 -3.633,11.211 -14.332,18.281 -25.902,17.269 l -13.0395,-1.179 c -8.25,-0.739 -15.6289,-5.071 -19.6914,-11.637 -6.4883,-10.434 -18.789,-15.352 -30.5898,-12.301 -8.1602,2.109 -14.8789,7.731 -18.4375,15.391 -3.5899,7.808 -3.4297,16.437 0.4297,24.328 4.8476,9.93 15.5078,16.219 26.7187,15.359 6.7617,-0.469 12.8516,-3.168 17.6211,-7.82 5.5899,-5.457 13.0078,-8.238 20.1602,-7.57 l 15.1914,1.363 c 11.7191,1.019 20.9371,10.039 22.4181,21.84 2.148,17.617 7.89,34.297 17,49.566 5.43,9.141 4.64,20.82 -1.961,29.063 l -3.199,3.988 c -6.602,8.242 -17.621,11.601 -27.418,8.391 -8.9925,-2.961 -18.4026,-3.59 -28.012,-1.829 -22.3789,4.02 -40.2305,21.719 -44.4492,43.981 -3.6016,18.828 1.9883,37.269 15.3086,50.59 13.2812,13.359 31.7187,18.937 50.5508,15.429 21.3198,-3.992 38.8598,-20.902 43.6288,-42.07 2.66,-11.84 1.641,-23.832 -3.008,-34.691 -4.691,-10.981 -1.801,-23.2 7.149,-30.469 8.55,-6.949 21.172,-7.422 30.59,-1.133 8.468,5.594 17.57,10.16 27.179,13.633 11.02,3.949 17.313,15.469 14.653,26.719 l -7.301,30.82 c -1.762,7.422 -7.352,13.559 -14.961,16.371 -12.461,4.649 -20.86,16.641 -20.86,29.84 0,9.687 4.29,18.711 11.829,24.848 7.621,6.171 17.269,8.511 27.113,6.441 12.226,-2.539 22.066,-12.578 24.457,-24.961 1.91,-9.879 -0.629,-19.449 -7.149,-26.949 -4.96,-5.75 -6.878,-13.36 -5.199,-20.43 l 9.098,-38.441 c 2.269,-9.449 10.281,-16.481 19.961,-17.457 13.601,-1.371 24.14,-3.051 29.769,-4.84 17.032,-5.281 35.43,2.687 43.832,18.937 l 9.258,18.012 c 5.071,9.84 5.231,21.828 0.43,32.809 -3.129,7.07 -4.109,14.922 -2.82,22.742 2.703,16.828 16.371,30.308 33.242,32.808 12.66,1.911 25.078,-2.07 34.109,-10.859 9.02,-8.793 13.32,-21.101 11.789,-33.75 -1.64,-13.402 -10.738,-25.391 -23.668,-31.332 -4.062,-1.84 -8.242,-2.969 -12.422,-3.398 -11.879,-1.172 -22.5,-8.75 -28.437,-20.192 L 339.379,342.98 c -6.649,-12.851 -5.078,-28.48 4.172,-40 5.238,-6.492 10.16,-12.66 14.179,-19.378 4.5,-7.5 11.571,-12.582 19.848,-14.262 8.363,-1.711 16.91,0.238 24.024,5.43 2.738,2.039 4.527,3.011 5.589,3.519 9.797,4.492 20.778,4.922 30.86,1.133 10.109,-3.832 18.078,-11.332 22.461,-21.211 8.468,-19.02 0.308,-42.223 -18.172,-51.789 -10.149,-5.203 -22.07,-5.863 -32.692,-1.762 -7.457,2.852 -15.546,2.418 -22.847,-1.25 -7.539,-3.832 -13.129,-10.711 -15.321,-18.832 -1.832,-6.637 -4.179,-13.199 -7.031,-19.449 -4.801,-10.551 -1.949,-22.891 6.961,-30.039 l 11.289,-9.07 c 5.742,-4.598 13.352,-6.399 20.852,-4.879 6.679,1.328 13.437,1.058 20.078,-0.782 17.191,-4.687 30.43,-20.308 32.152,-37.9684 C 457.07,68.8398 452.27,55.6719 442.5,46.2617 Z" /><path
         id="path26"
         style="fill:#000000;fill-opacity:1;fill-rule:nonzero;stroke:none"
         d="m 255.98,193.988 c -26.449,0 -48.011,-21.558 -48.011,-48 0,-26.488 21.562,-48.0075 48.011,-48.0075 26.481,0 48,21.5195 48,48.0075 0,26.442 -21.519,48 -48,48 z m 0,-80 c -17.66,0 -32,14.34 -32,32 0,17.653 14.34,31.992 32,31.992 17.649,0 31.989,-14.339 31.989,-31.992 0,-17.66 -14.34,-32 -31.989,-32 z" /><path
         id="path28"
         style="fill:#000000;fill-opacity:1;fill-rule:nonzero;stroke:none"
         d="m 223.98,257.98 c 0,17.649 -14.332,31.989 -31.992,31.989 -17.648,0 -31.988,-14.34 -31.988,-31.989 0,-17.66 14.34,-31.992 31.988,-31.992 17.66,0 31.992,14.332 31.992,31.992 z m -31.992,-16.019 c -8.828,0 -16.008,7.187 -16.008,16.019 0,8.829 7.18,16.008 16.008,16.008 8.832,0 15.981,-7.179 15.981,-16.008 0,-8.832 -7.149,-16.019 -15.981,-16.019 z" /><path
         id="path30"
         style="fill:#000000;fill-opacity:1;fill-rule:nonzero;stroke:none"
         d="m 327.969,265.988 c -17.617,0 -31.989,-14.379 -31.989,-32 0,-17.648 14.372,-32.027 31.989,-32.027 17.652,0 32.031,14.379 32.031,32.027 0,17.621 -14.379,32 -32.031,32 z m 0,-48.008 c -8.789,0 -15.981,7.192 -15.981,16.008 0,8.793 7.192,15.981 15.981,15.981 8.832,0 16.011,-7.188 16.011,-15.981 0,-8.816 -7.179,-16.008 -16.011,-16.008 z" /></g></g></svg>