<?xml version="1.0" encoding="UTF-8" standalone="no"?>
<svg
   xmlns:dc="http://purl.org/dc/elements/1.1/"
   xmlns:cc="http://creativecommons.org/ns#"
   xmlns:rdf="http://www.w3.org/1999/02/22-rdf-syntax-ns#"
   xmlns:svg="http://www.w3.org/2000/svg"
   xmlns="http://www.w3.org/2000/svg"
   viewBox="0 0 60 60"
   height="60"
   width="60"
   xml:space="preserve"
   version="1.1"
   id="svg2"><metadata
     id="metadata8"><rdf:RDF><cc:Work
         rdf:about=""><dc:format>image/svg+xml</dc:format><dc:type
           rdf:resource="http://purl.org/dc/dcmitype/StillImage" /><dc:title></dc:title></cc:Work></rdf:RDF></metadata><defs
     id="defs6" /><g
     transform="matrix(1.25,0,0,-1.25,0,60)"
     id="g10"><g
       transform="matrix(0.1,0,0,0.1,0,1.39883)"
       id="g12"><path
         id="path14"
         style="fill:#000000;fill-opacity:1;fill-rule:nonzero;stroke:none"
         d="m 88.0117,330.012 c 0,4.41 -3.6015,8.008 -8.0117,8.008 l -31.9883,0 C 43.5898,338.02 40,334.422 40,330.012 40,325.59 43.5898,322 48.0117,322 L 80,322 c 4.4102,0 8.0117,3.59 8.0117,8.012 z" /><path
         id="path16"
         style="fill:#000000;fill-opacity:1;fill-rule:nonzero;stroke:none"
         d="m 111.988,370.012 -63.9763,0 C 43.5898,370.012 40,366.41 40,362 c 0,-4.41 3.5898,-8.012 8.0117,-8.012 l 63.9763,0 c 4.422,0 8.012,3.602 8.012,8.012 0,4.41 -3.59,8.012 -8.012,8.012 z" /><path
         id="path18"
         style="fill:#000000;fill-opacity:1;fill-rule:nonzero;stroke:none"
         d="m 48.0117,385.98 31.9883,0 c 4.4102,0 8.0117,3.598 8.0117,8.008 0,4.422 -3.6015,8.012 -8.0117,8.012 l -31.9883,0 C 43.5898,402 40,398.41 40,393.988 c 0,-4.41 3.5898,-8.008 8.0117,-8.008 z" /><path
         id="path20"
         style="fill:#000000;fill-opacity:1;fill-rule:nonzero;stroke:none"
         d="m 0,442 0,-431.9883 480,0 L 480,442 0,442 Z m 463.98,-416.0195 -447.9605,0 0,32.039 c 4.4102,0 7.961,3.5508 7.961,7.961 0,4.4179 -3.5508,8.0078 -7.961,8.0078 l 0,31.9917 c 4.4102,0 7.961,3.598 7.961,8.008 0,4.422 -3.5508,8.012 -7.961,8.012 l 0,31.988 c 4.4102,0 7.961,3.602 7.961,8.012 0,4.41 -3.5508,8.012 -7.961,8.012 l 0,31.988 c 4.4102,0 7.961,3.59 7.961,8.012 0,4.41 -3.5508,8.008 -7.961,8.008 l 0,31.992 c 4.4102,0 7.961,3.59 7.961,8.008 0,4.41 -3.5508,7.96 -7.961,7.96 l 0,32.04 c 4.4102,0 7.961,3.55 7.961,7.96 0,4.418 -3.5508,8.008 -7.961,8.008 l 0,31.992 c 4.4102,0 7.961,3.598 7.961,8.008 0,4.422 -3.5508,8.012 -7.961,8.012 l 0,31.988 c 4.4102,0 7.961,3.602 7.961,8.012 0,4.41 -3.5508,8.012 -7.961,8.012 l 0,15.968 15.9688,0 c 0,-4.41 3.6015,-7.96 8.0117,-7.96 4.4102,0 8.0117,3.55 8.0117,7.96 l 31.9883,0 c 0,-4.41 3.5898,-7.96 8.0117,-7.96 4.4102,0 8.0078,3.55 8.0078,7.96 l 31.9925,0 c 0,-4.41 3.59,-7.96 8.008,-7.96 4.41,0 7.96,3.55 7.96,7.96 l 32.04,0 c 0,-4.41 3.55,-7.96 7.96,-7.96 4.418,0 8.008,3.55 8.008,7.96 l 31.992,0 c 0,-4.41 3.598,-7.96 8.008,-7.96 4.422,0 8.012,3.55 8.012,7.96 l 31.988,0 c 0,-4.41 3.602,-7.96 8.012,-7.96 4.41,0 8.012,3.55 8.012,7.96 l 31.988,0 c 0,-4.41 3.59,-7.96 8.012,-7.96 4.41,0 8.008,3.55 8.008,7.96 l 31.992,0 c 0,-4.41 3.59,-7.96 8.008,-7.96 4.41,0 7.96,3.55 7.96,7.96 l 32.04,0 c 0,-4.41 3.55,-7.96 7.96,-7.96 4.418,0 8.008,3.55 8.008,7.96 l 31.992,0 0,-399.9995 z" /><path
         id="path22"
         style="fill:#000000;fill-opacity:1;fill-rule:nonzero;stroke:none"
         d="m 328.672,172.551 c 1.207,5.469 2.578,11.129 3.988,16.949 8,33.281 17.11,70.98 8.281,104.262 -3.441,12.968 -13.281,25.226 -27.82,34.566 -9.371,6.012 -20.699,9.184 -32.652,9.57 -0.16,0 -0.309,0.122 -0.469,0.122 -0.199,0 -0.309,-0.122 -0.469,-0.122 -10.621,0.192 -21.679,-1.718 -32.191,-6.097 l -1.602,-0.66 c -1.828,-0.661 -3.277,-1.211 -4.449,-1.641 -0.937,-0.391 -1.559,-0.66 -1.949,-0.781 -0.75,0.043 -3.602,0.859 -4.809,1.211 -17.34,5.121 -39.492,10.199 -56.953,4.019 C 144.648,322.27 134.57,286.02 139.18,255.32 l 2.148,-14.449 c 5.082,-35.082 10.352,-71.293 24.024,-104.262 l 0.468,-1.129 c 3.75,-9.101 10,-24.339 22.5,-24.339 l 1.641,0 1.488,0.629 c 10.539,4.492 14.41,14.41 16.949,20.929 1.68,4.301 3.161,8.602 4.614,12.891 3.468,10.238 6.758,19.93 12.539,28.359 4.918,7.192 15.07,18.211 27.5,10.75 9.219,-5.469 12.179,-16.879 15.347,-28.988 0.942,-3.711 1.911,-7.383 3.051,-10.82 5.313,-16.442 11.91,-31.84 23.821,-33.09 6.96,-0.66 12.851,3.437 17.89,12.23 7.891,13.828 11.18,28.949 14.418,43.559 l 1.094,4.961 z m -15.621,3.469 -1.102,-5 c -3.078,-14.059 -6.008,-27.34 -12.687,-39.02 -1.141,-2.031 -2.032,-3.121 -2.621,-3.75 -1.563,1.52 -5.039,6.371 -10,21.602 -1.02,3.168 -1.871,6.488 -2.77,9.918 -3.641,13.992 -7.82,29.851 -22.621,38.679 -16.801,10 -35.551,4.102 -48.91,-15.469 -6.988,-10.242 -10.82,-21.41 -14.488,-32.23 -1.403,-4.059 -2.774,-8.16 -4.372,-12.23 -1.8,-4.61 -3.359,-8.239 -5.859,-10.469 -1.762,2 -4.141,6.527 -7,13.519 l -0.5,1.129 C 167.23,173.84 162.109,209.07 157.148,243.172 L 155,257.699 c -3.629,24.223 3.59,52.539 27.93,61.18 3.871,1.359 8.32,1.91 13.011,1.91 11.36,0 24.258,-3.32 34.059,-6.168 8.48,-2.5 10.699,-2.5 17.07,-0.043 1.02,0.391 2.27,0.863 3.871,1.442 0.661,0.199 1.329,0.511 2.5,1.019 17.887,7.383 37.457,6.563 51.008,-2.187 11.172,-7.153 18.602,-16.09 21.02,-25.153 7.769,-29.418 -0.821,-65.039 -8.36,-96.449 -1.41,-5.898 -2.808,-11.641 -4.058,-17.23 z" /><path
         id="path24"
         style="fill:#000000;fill-opacity:1;fill-rule:nonzero;stroke:none"
         d="m 168.012,402 c 0,-4.41 -3.602,-8.012 -8.012,-8.012 -4.41,0 -8.012,3.602 -8.012,8.012 0,4.41 3.602,8.012 8.012,8.012 4.41,0 8.012,-3.602 8.012,-8.012 z" /><path
         id="path26"
         style="fill:#000000;fill-opacity:1;fill-rule:nonzero;stroke:none"
         d="m 216.02,402 c 0,-4.41 -3.598,-8.012 -8.008,-8.012 -4.422,0 -8.012,3.602 -8.012,8.012 0,4.41 3.59,8.012 8.012,8.012 4.41,0 8.008,-3.602 8.008,-8.012 z" /><path
         id="path28"
         style="fill:#000000;fill-opacity:1;fill-rule:nonzero;stroke:none"
         d="m 263.98,402 c 0,-4.41 -3.55,-8.012 -7.96,-8.012 -4.461,0 -8.008,3.602 -8.008,8.012 0,4.41 3.547,8.012 8.008,8.012 4.41,0 7.96,-3.602 7.96,-8.012 z" /><path
         id="path30"
         style="fill:#000000;fill-opacity:1;fill-rule:nonzero;stroke:none"
         d="m 311.988,402 c 0,-4.41 -3.547,-8.012 -8.008,-8.012 -4.41,0 -7.96,3.602 -7.96,8.012 0,4.41 3.55,8.012 7.96,8.012 4.461,0 8.008,-3.602 8.008,-8.012 z" /><path
         id="path32"
         style="fill:#000000;fill-opacity:1;fill-rule:nonzero;stroke:none"
         d="m 360,402 c 0,-4.41 -3.59,-8.012 -8.012,-8.012 -4.41,0 -8.008,3.602 -8.008,8.012 0,4.41 3.598,8.012 8.008,8.012 4.422,0 8.012,-3.602 8.012,-8.012 z" /><path
         id="path34"
         style="fill:#000000;fill-opacity:1;fill-rule:nonzero;stroke:none"
         d="m 408.012,402 c 0,-4.41 -3.602,-8.012 -8.012,-8.012 -4.41,0 -8.012,3.602 -8.012,8.012 0,4.41 3.602,8.012 8.012,8.012 4.41,0 8.012,-3.602 8.012,-8.012 z" /><path
         id="path36"
         style="fill:#000000;fill-opacity:1;fill-rule:nonzero;stroke:none"
         d="m 456.02,402 c 0,-4.41 -3.598,-8.012 -8.008,-8.012 -4.422,0 -8.012,3.602 -8.012,8.012 0,4.41 3.59,8.012 8.012,8.012 4.41,0 8.008,-3.602 8.008,-8.012 z" /><path
         id="path38"
         style="fill:#000000;fill-opacity:1;fill-rule:nonzero;stroke:none"
         d="m 191.988,378.02 c 0,-4.461 -3.547,-8.008 -8.008,-8.008 -4.41,0 -7.96,3.547 -7.96,8.008 0,4.41 3.55,7.96 7.96,7.96 4.461,0 8.008,-3.55 8.008,-7.96 z" /><path
         id="path40"
         style="fill:#000000;fill-opacity:1;fill-rule:nonzero;stroke:none"
         d="m 240,378.02 c 0,-4.461 -3.59,-8.008 -8.012,-8.008 -4.41,0 -8.008,3.547 -8.008,8.008 0,4.41 3.598,7.96 8.008,7.96 4.422,0 8.012,-3.55 8.012,-7.96 z" /><path
         id="path42"
         style="fill:#000000;fill-opacity:1;fill-rule:nonzero;stroke:none"
         d="m 288.012,378.02 c 0,-4.461 -3.602,-8.008 -8.012,-8.008 -4.41,0 -8.012,3.547 -8.012,8.008 0,4.41 3.602,7.96 8.012,7.96 4.41,0 8.012,-3.55 8.012,-7.96 z" /><path
         id="path44"
         style="fill:#000000;fill-opacity:1;fill-rule:nonzero;stroke:none"
         d="m 336.02,378.02 c 0,-4.461 -3.598,-8.008 -8.008,-8.008 -4.422,0 -8.012,3.547 -8.012,8.008 0,4.41 3.59,7.96 8.012,7.96 4.41,0 8.008,-3.55 8.008,-7.96 z" /><path
         id="path46"
         style="fill:#000000;fill-opacity:1;fill-rule:nonzero;stroke:none"
         d="m 383.98,378.02 c 0,-4.461 -3.55,-8.008 -7.96,-8.008 -4.461,0 -8.008,3.547 -8.008,8.008 0,4.41 3.547,7.96 8.008,7.96 4.41,0 7.96,-3.55 7.96,-7.96 z" /><path
         id="path48"
         style="fill:#000000;fill-opacity:1;fill-rule:nonzero;stroke:none"
         d="m 431.988,378.02 c 0,-4.461 -3.547,-8.008 -8.008,-8.008 -4.41,0 -7.96,3.547 -7.96,8.008 0,4.41 3.55,7.96 7.96,7.96 4.461,0 8.008,-3.55 8.008,-7.96 z" /><path
         id="path50"
         style="fill:#000000;fill-opacity:1;fill-rule:nonzero;stroke:none"
         d="m 168.012,353.988 c 0,-4.41 -3.602,-8.008 -8.012,-8.008 -4.41,0 -8.012,3.598 -8.012,8.008 0,4.422 3.602,8.012 8.012,8.012 4.41,0 8.012,-3.59 8.012,-8.012 z" /><path
         id="path52"
         style="fill:#000000;fill-opacity:1;fill-rule:nonzero;stroke:none"
         d="m 120,305.98 c 0,-4.41 -3.59,-7.96 -8.012,-7.96 -4.41,0 -8.008,3.55 -8.008,7.96 0,4.461 3.598,8.008 8.008,8.008 4.422,0 8.012,-3.547 8.012,-8.008 z" /><path
         id="path54"
         style="fill:#000000;fill-opacity:1;fill-rule:nonzero;stroke:none"
         d="m 143.98,330.012 c 0,-4.422 -3.55,-8.012 -7.96,-8.012 -4.461,0 -8.008,3.59 -8.008,8.012 0,4.41 3.547,8.008 8.008,8.008 4.41,0 7.96,-3.598 7.96,-8.008 z" /><path
         id="path56"
         style="fill:#000000;fill-opacity:1;fill-rule:nonzero;stroke:none"
         d="m 216.02,353.988 c 0,-4.41 -3.598,-8.008 -8.008,-8.008 -4.422,0 -8.012,3.598 -8.012,8.008 0,4.422 3.59,8.012 8.012,8.012 4.41,0 8.008,-3.59 8.008,-8.012 z" /><path
         id="path58"
         style="fill:#000000;fill-opacity:1;fill-rule:nonzero;stroke:none"
         d="m 263.98,353.988 c 0,-4.41 -3.55,-8.008 -7.96,-8.008 -4.461,0 -8.008,3.598 -8.008,8.008 0,4.422 3.547,8.012 8.008,8.012 4.41,0 7.96,-3.59 7.96,-8.012 z" /><path
         id="path60"
         style="fill:#000000;fill-opacity:1;fill-rule:nonzero;stroke:none"
         d="m 311.988,353.988 c 0,-4.41 -3.547,-8.008 -8.008,-8.008 -4.41,0 -7.96,3.598 -7.96,8.008 0,4.422 3.55,8.012 7.96,8.012 4.461,0 8.008,-3.59 8.008,-8.012 z" /><path
         id="path62"
         style="fill:#000000;fill-opacity:1;fill-rule:nonzero;stroke:none"
         d="m 360,353.988 c 0,-4.41 -3.59,-8.008 -8.012,-8.008 -4.41,0 -8.008,3.598 -8.008,8.008 0,4.422 3.598,8.012 8.008,8.012 4.422,0 8.012,-3.59 8.012,-8.012 z" /><path
         id="path64"
         style="fill:#000000;fill-opacity:1;fill-rule:nonzero;stroke:none"
         d="m 360,305.98 c 0,-4.41 -3.59,-7.96 -8.012,-7.96 -4.41,0 -8.008,3.55 -8.008,7.96 0,4.461 3.598,8.008 8.008,8.008 4.422,0 8.012,-3.547 8.012,-8.008 z" /><path
         id="path66"
         style="fill:#000000;fill-opacity:1;fill-rule:nonzero;stroke:none"
         d="m 336.02,330.012 c 0,-4.422 -3.598,-8.012 -8.008,-8.012 -4.422,0 -8.012,3.59 -8.012,8.012 0,4.41 3.59,8.008 8.012,8.008 4.41,0 8.008,-3.598 8.008,-8.008 z" /><path
         id="path68"
         style="fill:#000000;fill-opacity:1;fill-rule:nonzero;stroke:none"
         d="m 383.98,330.012 c 0,-4.422 -3.55,-8.012 -7.96,-8.012 -4.461,0 -8.008,3.59 -8.008,8.012 0,4.41 3.547,8.008 8.008,8.008 4.41,0 7.96,-3.598 7.96,-8.008 z" /><path
         id="path70"
         style="fill:#000000;fill-opacity:1;fill-rule:nonzero;stroke:none"
         d="m 408.012,353.988 c 0,-4.41 -3.602,-8.008 -8.012,-8.008 -4.41,0 -8.012,3.598 -8.012,8.008 0,4.422 3.602,8.012 8.012,8.012 4.41,0 8.012,-3.59 8.012,-8.012 z" /><path
         id="path72"
         style="fill:#000000;fill-opacity:1;fill-rule:nonzero;stroke:none"
         d="m 408.012,305.98 c 0,-4.41 -3.602,-7.96 -8.012,-7.96 -4.41,0 -8.012,3.55 -8.012,7.96 0,4.461 3.602,8.008 8.012,8.008 4.41,0 8.012,-3.547 8.012,-8.008 z" /><path
         id="path74"
         style="fill:#000000;fill-opacity:1;fill-rule:nonzero;stroke:none"
         d="m 431.988,330.012 c 0,-4.422 -3.547,-8.012 -8.008,-8.012 -4.41,0 -7.96,3.59 -7.96,8.012 0,4.41 3.55,8.008 7.96,8.008 4.461,0 8.008,-3.598 8.008,-8.008 z" /><path
         id="path76"
         style="fill:#000000;fill-opacity:1;fill-rule:nonzero;stroke:none"
         d="m 456.02,353.988 c 0,-4.41 -3.598,-8.008 -8.008,-8.008 -4.422,0 -8.012,3.598 -8.012,8.008 0,4.422 3.59,8.012 8.012,8.012 4.41,0 8.008,-3.59 8.008,-8.012 z" /><path
         id="path78"
         style="fill:#000000;fill-opacity:1;fill-rule:nonzero;stroke:none"
         d="m 456.02,305.98 c 0,-4.41 -3.598,-7.96 -8.008,-7.96 -4.422,0 -8.012,3.55 -8.012,7.96 0,4.461 3.59,8.008 8.012,8.008 4.41,0 8.008,-3.547 8.008,-8.008 z" /><path
         id="path80"
         style="fill:#000000;fill-opacity:1;fill-rule:nonzero;stroke:none"
         d="m 48.0117,282 c 0,-4.41 -3.6015,-8.012 -8.0117,-8.012 -4.4102,0 -8.0117,3.602 -8.0117,8.012 0,4.41 3.6015,8.012 8.0117,8.012 4.4102,0 8.0117,-3.602 8.0117,-8.012 z" /><path
         id="path82"
         style="fill:#000000;fill-opacity:1;fill-rule:nonzero;stroke:none"
         d="m 96.0195,282 c 0,-4.41 -3.5976,-8.012 -8.0078,-8.012 C 83.5898,273.988 80,277.59 80,282 c 0,4.41 3.5898,8.012 8.0117,8.012 4.4102,0 8.0078,-3.602 8.0078,-8.012 z" /><path
         id="path84"
         style="fill:#000000;fill-opacity:1;fill-rule:nonzero;stroke:none"
         d="m 383.98,282 c 0,-4.41 -3.55,-8.012 -7.96,-8.012 -4.461,0 -8.008,3.602 -8.008,8.012 0,4.41 3.547,8.012 8.008,8.012 4.41,0 7.96,-3.602 7.96,-8.012 z" /><path
         id="path86"
         style="fill:#000000;fill-opacity:1;fill-rule:nonzero;stroke:none"
         d="m 431.988,282 c 0,-4.41 -3.547,-8.012 -8.008,-8.012 -4.41,0 -7.96,3.602 -7.96,8.012 0,4.41 3.55,8.012 7.96,8.012 4.461,0 8.008,-3.602 8.008,-8.012 z" /><path
         id="path88"
         style="fill:#000000;fill-opacity:1;fill-rule:nonzero;stroke:none"
         d="m 71.9883,258.02 c 0,-4.461 -3.5469,-8.008 -8.0078,-8.008 -4.4102,0 -7.961,3.547 -7.961,8.008 0,4.41 3.5508,7.96 7.961,7.96 4.4609,0 8.0078,-3.55 8.0078,-7.96 z" /><path
         id="path90"
         style="fill:#000000;fill-opacity:1;fill-rule:nonzero;stroke:none"
         d="m 71.9883,210.012 c 0,-4.422 -3.5469,-8.012 -8.0078,-8.012 -4.4102,0 -7.961,3.59 -7.961,8.012 0,4.41 3.5508,8.008 7.961,8.008 4.4609,0 8.0078,-3.598 8.0078,-8.008 z" /><path
         id="path92"
         style="fill:#000000;fill-opacity:1;fill-rule:nonzero;stroke:none"
         d="m 48.0117,233.988 c 0,-4.41 -3.6015,-8.008 -8.0117,-8.008 -4.4102,0 -8.0117,3.598 -8.0117,8.008 0,4.422 3.6015,8.012 8.0117,8.012 4.4102,0 8.0117,-3.59 8.0117,-8.012 z" /><path
         id="path94"
         style="fill:#000000;fill-opacity:1;fill-rule:nonzero;stroke:none"
         d="m 96.0195,233.988 c 0,-4.41 -3.5976,-8.008 -8.0078,-8.008 -4.4219,0 -8.0117,3.598 -8.0117,8.008 0,4.422 3.5898,8.012 8.0117,8.012 4.4102,0 8.0078,-3.59 8.0078,-8.012 z" /><path
         id="path96"
         style="fill:#000000;fill-opacity:1;fill-rule:nonzero;stroke:none"
         d="m 120,258.02 c 0,-4.461 -3.59,-8.008 -8.012,-8.008 -4.41,0 -8.008,3.547 -8.008,8.008 0,4.41 3.598,7.96 8.008,7.96 4.422,0 8.012,-3.55 8.012,-7.96 z" /><path
         id="path98"
         style="fill:#000000;fill-opacity:1;fill-rule:nonzero;stroke:none"
         d="m 120,210.012 c 0,-4.422 -3.59,-8.012 -8.012,-8.012 -4.41,0 -8.008,3.59 -8.008,8.012 0,4.41 3.598,8.008 8.008,8.008 4.422,0 8.012,-3.598 8.012,-8.008 z" /><path
         id="path100"
         style="fill:#000000;fill-opacity:1;fill-rule:nonzero;stroke:none"
         d="m 360,210.012 c 0,-4.422 -3.59,-8.012 -8.012,-8.012 -4.41,0 -8.008,3.59 -8.008,8.012 0,4.41 3.598,8.008 8.008,8.008 4.422,0 8.012,-3.598 8.012,-8.008 z" /><path
         id="path102"
         style="fill:#000000;fill-opacity:1;fill-rule:nonzero;stroke:none"
         d="m 383.98,233.988 c 0,-4.41 -3.55,-8.008 -7.96,-8.008 -4.461,0 -8.008,3.598 -8.008,8.008 0,4.422 3.547,8.012 8.008,8.012 4.41,0 7.96,-3.59 7.96,-8.012 z" /><path
         id="path104"
         style="fill:#000000;fill-opacity:1;fill-rule:nonzero;stroke:none"
         d="m 408.012,258.02 c 0,-4.461 -3.602,-8.008 -8.012,-8.008 -4.41,0 -8.012,3.547 -8.012,8.008 0,4.41 3.602,7.96 8.012,7.96 4.41,0 8.012,-3.55 8.012,-7.96 z" /><path
         id="path106"
         style="fill:#000000;fill-opacity:1;fill-rule:nonzero;stroke:none"
         d="M 408.012,210.012 C 408.012,205.59 404.41,202 400,202 c -4.41,0 -8.012,3.59 -8.012,8.012 0,4.41 3.602,8.008 8.012,8.008 4.41,0 8.012,-3.598 8.012,-8.008 z" /><path
         id="path108"
         style="fill:#000000;fill-opacity:1;fill-rule:nonzero;stroke:none"
         d="m 431.988,233.988 c 0,-4.41 -3.547,-8.008 -8.008,-8.008 -4.41,0 -7.96,3.598 -7.96,8.008 0,4.422 3.55,8.012 7.96,8.012 4.461,0 8.008,-3.59 8.008,-8.012 z" /><path
         id="path110"
         style="fill:#000000;fill-opacity:1;fill-rule:nonzero;stroke:none"
         d="m 456.02,258.02 c 0,-4.461 -3.598,-8.008 -8.008,-8.008 -4.422,0 -8.012,3.547 -8.012,8.008 0,4.41 3.59,7.96 8.012,7.96 4.41,0 8.008,-3.55 8.008,-7.96 z" /><path
         id="path112"
         style="fill:#000000;fill-opacity:1;fill-rule:nonzero;stroke:none"
         d="m 456.02,210.012 c 0,-4.422 -3.598,-8.012 -8.008,-8.012 -4.422,0 -8.012,3.59 -8.012,8.012 0,4.41 3.59,8.008 8.012,8.008 4.41,0 8.008,-3.598 8.008,-8.008 z" /><path
         id="path114"
         style="fill:#000000;fill-opacity:1;fill-rule:nonzero;stroke:none"
         d="m 48.0117,185.98 c 0,-4.41 -3.6015,-7.96 -8.0117,-7.96 -4.4102,0 -8.0117,3.55 -8.0117,7.96 0,4.461 3.6015,8.008 8.0117,8.008 4.4102,0 8.0117,-3.547 8.0117,-8.008 z" /><path
         id="path116"
         style="fill:#000000;fill-opacity:1;fill-rule:nonzero;stroke:none"
         d="m 96.0195,185.98 c 0,-4.41 -3.5976,-7.96 -8.0078,-7.96 -4.4219,0 -8.0117,3.55 -8.0117,7.96 0,4.461 3.5898,8.008 8.0117,8.008 4.4102,0 8.0078,-3.547 8.0078,-8.008 z" /><path
         id="path118"
         style="fill:#000000;fill-opacity:1;fill-rule:nonzero;stroke:none"
         d="m 143.98,185.98 c 0,-4.41 -3.55,-7.96 -7.96,-7.96 -4.461,0 -8.008,3.55 -8.008,7.96 0,4.461 3.547,8.008 8.008,8.008 4.41,0 7.96,-3.547 7.96,-8.008 z" /><path
         id="path120"
         style="fill:#000000;fill-opacity:1;fill-rule:nonzero;stroke:none"
         d="m 383.98,185.98 c 0,-4.41 -3.55,-7.96 -7.96,-7.96 -4.461,0 -8.008,3.55 -8.008,7.96 0,4.461 3.547,8.008 8.008,8.008 4.41,0 7.96,-3.547 7.96,-8.008 z" /><path
         id="path122"
         style="fill:#000000;fill-opacity:1;fill-rule:nonzero;stroke:none"
         d="m 431.988,185.98 c 0,-4.41 -3.547,-7.96 -8.008,-7.96 -4.41,0 -7.96,3.55 -7.96,7.96 0,4.461 3.55,8.008 7.96,8.008 4.461,0 8.008,-3.547 8.008,-8.008 z" /><path
         id="path124"
         style="fill:#000000;fill-opacity:1;fill-rule:nonzero;stroke:none"
         d="m 71.9883,162 c 0,-4.41 -3.5469,-8.012 -8.0078,-8.012 -4.4102,0 -7.961,3.602 -7.961,8.012 0,4.41 3.5508,8.012 7.961,8.012 4.4609,0 8.0078,-3.602 8.0078,-8.012 z" /><path
         id="path126"
         style="fill:#000000;fill-opacity:1;fill-rule:nonzero;stroke:none"
         d="m 71.9883,113.988 c 0,-4.41 -3.5469,-8.008 -8.0078,-8.008 -4.4102,0 -7.961,3.598 -7.961,8.008 0,4.422 3.5508,8.012 7.961,8.012 4.4609,0 8.0078,-3.59 8.0078,-8.012 z" /><path
         id="path128"
         style="fill:#000000;fill-opacity:1;fill-rule:nonzero;stroke:none"
         d="m 48.0117,138.02 c 0,-4.461 -3.6015,-8.008 -8.0117,-8.008 -4.4102,0 -8.0117,3.547 -8.0117,8.008 0,4.41 3.6015,7.96 8.0117,7.96 4.4102,0 8.0117,-3.55 8.0117,-7.96 z" /><path
         id="path130"
         style="fill:#000000;fill-opacity:1;fill-rule:nonzero;stroke:none"
         d="m 96.0195,138.02 c 0,-4.461 -3.5976,-8.008 -8.0078,-8.008 -4.4219,0 -8.0117,3.547 -8.0117,8.008 0,4.41 3.5898,7.96 8.0117,7.96 4.4102,0 8.0078,-3.55 8.0078,-7.96 z" /><path
         id="path132"
         style="fill:#000000;fill-opacity:1;fill-rule:nonzero;stroke:none"
         d="m 120,162 c 0,-4.41 -3.59,-8.012 -8.012,-8.012 -4.41,0 -8.008,3.602 -8.008,8.012 0,4.41 3.598,8.012 8.008,8.012 4.422,0 8.012,-3.602 8.012,-8.012 z" /><path
         id="path134"
         style="fill:#000000;fill-opacity:1;fill-rule:nonzero;stroke:none"
         d="m 120,113.988 c 0,-4.41 -3.59,-8.008 -8.012,-8.008 -4.41,0 -8.008,3.598 -8.008,8.008 0,4.422 3.598,8.012 8.008,8.012 4.422,0 8.012,-3.59 8.012,-8.012 z" /><path
         id="path136"
         style="fill:#000000;fill-opacity:1;fill-rule:nonzero;stroke:none"
         d="m 168.012,113.988 c 0,-4.41 -3.602,-8.008 -8.012,-8.008 -4.41,0 -8.012,3.598 -8.012,8.008 0,4.422 3.602,8.012 8.012,8.012 4.41,0 8.012,-3.59 8.012,-8.012 z" /><path
         id="path138"
         style="fill:#000000;fill-opacity:1;fill-rule:nonzero;stroke:none"
         d="m 143.98,138.02 c 0,-4.461 -3.55,-8.008 -7.96,-8.008 -4.461,0 -8.008,3.547 -8.008,8.008 0,4.41 3.547,7.96 8.008,7.96 4.41,0 7.96,-3.55 7.96,-7.96 z" /><path
         id="path140"
         style="fill:#000000;fill-opacity:1;fill-rule:nonzero;stroke:none"
         d="m 263.98,113.988 c 0,-4.41 -3.55,-8.008 -7.96,-8.008 -4.461,0 -8.008,3.598 -8.008,8.008 0,4.422 3.547,8.012 8.008,8.012 4.41,0 7.96,-3.59 7.96,-8.012 z" /><path
         id="path142"
         style="fill:#000000;fill-opacity:1;fill-rule:nonzero;stroke:none"
         d="m 240,138.02 c 0,-4.461 -3.59,-8.008 -8.012,-8.008 -4.41,0 -8.008,3.547 -8.008,8.008 0,4.41 3.598,7.96 8.008,7.96 4.422,0 8.012,-3.55 8.012,-7.96 z" /><path
         id="path144"
         style="fill:#000000;fill-opacity:1;fill-rule:nonzero;stroke:none"
         d="m 360,162 c 0,-4.41 -3.59,-8.012 -8.012,-8.012 -4.41,0 -8.008,3.602 -8.008,8.012 0,4.41 3.598,8.012 8.008,8.012 4.422,0 8.012,-3.602 8.012,-8.012 z" /><path
         id="path146"
         style="fill:#000000;fill-opacity:1;fill-rule:nonzero;stroke:none"
         d="m 360,113.988 c 0,-4.41 -3.59,-8.008 -8.012,-8.008 -4.41,0 -8.008,3.598 -8.008,8.008 0,4.422 3.598,8.012 8.008,8.012 4.422,0 8.012,-3.59 8.012,-8.012 z" /><path
         id="path148"
         style="fill:#000000;fill-opacity:1;fill-rule:nonzero;stroke:none"
         d="m 383.98,138.02 c 0,-4.461 -3.55,-8.008 -7.96,-8.008 -4.461,0 -8.008,3.547 -8.008,8.008 0,4.41 3.547,7.96 8.008,7.96 4.41,0 7.96,-3.55 7.96,-7.96 z" /><path
         id="path150"
         style="fill:#000000;fill-opacity:1;fill-rule:nonzero;stroke:none"
         d="m 408.012,162 c 0,-4.41 -3.602,-8.012 -8.012,-8.012 -4.41,0 -8.012,3.602 -8.012,8.012 0,4.41 3.602,8.012 8.012,8.012 4.41,0 8.012,-3.602 8.012,-8.012 z" /><path
         id="path152"
         style="fill:#000000;fill-opacity:1;fill-rule:nonzero;stroke:none"
         d="m 408.012,113.988 c 0,-4.41 -3.602,-8.008 -8.012,-8.008 -4.41,0 -8.012,3.598 -8.012,8.008 0,4.422 3.602,8.012 8.012,8.012 4.41,0 8.012,-3.59 8.012,-8.012 z" /><path
         id="path154"
         style="fill:#000000;fill-opacity:1;fill-rule:nonzero;stroke:none"
         d="m 431.988,138.02 c 0,-4.461 -3.547,-8.008 -8.008,-8.008 -4.41,0 -7.96,3.547 -7.96,8.008 0,4.41 3.55,7.96 7.96,7.96 4.461,0 8.008,-3.55 8.008,-7.96 z" /><path
         id="path156"
         style="fill:#000000;fill-opacity:1;fill-rule:nonzero;stroke:none"
         d="m 456.02,162 c 0,-4.41 -3.598,-8.012 -8.008,-8.012 -4.422,0 -8.012,3.602 -8.012,8.012 0,4.41 3.59,8.012 8.012,8.012 4.41,0 8.008,-3.602 8.008,-8.012 z" /><path
         id="path158"
         style="fill:#000000;fill-opacity:1;fill-rule:nonzero;stroke:none"
         d="m 456.02,113.988 c 0,-4.41 -3.598,-8.008 -8.008,-8.008 -4.422,0 -8.012,3.598 -8.012,8.008 0,4.422 3.59,8.012 8.012,8.012 4.41,0 8.008,-3.59 8.008,-8.012 z" /><path
         id="path160"
         style="fill:#000000;fill-opacity:1;fill-rule:nonzero;stroke:none"
         d="M 48.0117,90.0117 C 48.0117,85.5898 44.4102,82 40,82 c -4.4102,0 -8.0117,3.5898 -8.0117,8.0117 0,4.4102 3.6015,8.0078 8.0117,8.0078 4.4102,0 8.0117,-3.5976 8.0117,-8.0078 z" /><path
         id="path162"
         style="fill:#000000;fill-opacity:1;fill-rule:nonzero;stroke:none"
         d="M 96.0195,90.0117 C 96.0195,85.5898 92.4219,82 88.0117,82 83.5898,82 80,85.5898 80,90.0117 c 0,4.4102 3.5898,8.0078 8.0117,8.0078 4.4102,0 8.0078,-3.5976 8.0078,-8.0078 z" /><path
         id="path164"
         style="fill:#000000;fill-opacity:1;fill-rule:nonzero;stroke:none"
         d="M 143.98,90.0117 C 143.98,85.5898 140.43,82 136.02,82 c -4.461,0 -8.008,3.5898 -8.008,8.0117 0,4.4102 3.547,8.0078 8.008,8.0078 4.41,0 7.96,-3.5976 7.96,-8.0078 z" /><path
         id="path166"
         style="fill:#000000;fill-opacity:1;fill-rule:nonzero;stroke:none"
         d="M 191.988,90.0117 C 191.988,85.5898 188.441,82 183.98,82 c -4.41,0 -7.96,3.5898 -7.96,8.0117 0,4.4102 3.55,8.0078 7.96,8.0078 4.461,0 8.008,-3.5976 8.008,-8.0078 z" /><path
         id="path168"
         style="fill:#000000;fill-opacity:1;fill-rule:nonzero;stroke:none"
         d="M 240,90.0117 C 240,85.5898 236.41,82 231.988,82 c -4.41,0 -8.008,3.5898 -8.008,8.0117 0,4.4102 3.598,8.0078 8.008,8.0078 4.422,0 8.012,-3.5976 8.012,-8.0078 z" /><path
         id="path170"
         style="fill:#000000;fill-opacity:1;fill-rule:nonzero;stroke:none"
         d="M 288.012,90.0117 C 288.012,85.5898 284.41,82 280,82 c -4.41,0 -8.012,3.5898 -8.012,8.0117 0,4.4102 3.602,8.0078 8.012,8.0078 4.41,0 8.012,-3.5976 8.012,-8.0078 z" /><path
         id="path172"
         style="fill:#000000;fill-opacity:1;fill-rule:nonzero;stroke:none"
         d="M 336.02,90.0117 C 336.02,85.5898 332.422,82 328.012,82 323.59,82 320,85.5898 320,90.0117 c 0,4.4102 3.59,8.0078 8.012,8.0078 4.41,0 8.008,-3.5976 8.008,-8.0078 z" /><path
         id="path174"
         style="fill:#000000;fill-opacity:1;fill-rule:nonzero;stroke:none"
         d="M 383.98,90.0117 C 383.98,85.5898 380.43,82 376.02,82 c -4.461,0 -8.008,3.5898 -8.008,8.0117 0,4.4102 3.547,8.0078 8.008,8.0078 4.41,0 7.96,-3.5976 7.96,-8.0078 z" /><path
         id="path176"
         style="fill:#000000;fill-opacity:1;fill-rule:nonzero;stroke:none"
         d="M 431.988,90.0117 C 431.988,85.5898 428.441,82 423.98,82 c -4.41,0 -7.96,3.5898 -7.96,8.0117 0,4.4102 3.55,8.0078 7.96,8.0078 4.461,0 8.008,-3.5976 8.008,-8.0078 z" /><path
         id="path178"
         style="fill:#000000;fill-opacity:1;fill-rule:nonzero;stroke:none"
         d="m 71.9883,65.9805 c 0,-4.4102 -3.5469,-7.961 -8.0078,-7.961 -4.4102,0 -7.961,3.5508 -7.961,7.961 0,4.4609 3.5508,8.0078 7.961,8.0078 4.4609,0 8.0078,-3.5469 8.0078,-8.0078 z" /><path
         id="path180"
         style="fill:#000000;fill-opacity:1;fill-rule:nonzero;stroke:none"
         d="m 48.0117,42 c 0,-4.4102 -3.6015,-8.0117 -8.0117,-8.0117 -4.4102,0 -8.0117,3.6015 -8.0117,8.0117 0,4.4102 3.6015,8.0117 8.0117,8.0117 4.4102,0 8.0117,-3.6015 8.0117,-8.0117 z" /><path
         id="path182"
         style="fill:#000000;fill-opacity:1;fill-rule:nonzero;stroke:none"
         d="m 96.0195,42 c 0,-4.4102 -3.5976,-8.0117 -8.0078,-8.0117 C 83.5898,33.9883 80,37.5898 80,42 c 0,4.4102 3.5898,8.0117 8.0117,8.0117 4.4102,0 8.0078,-3.6015 8.0078,-8.0117 z" /><path
         id="path184"
         style="fill:#000000;fill-opacity:1;fill-rule:nonzero;stroke:none"
         d="m 120,65.9805 c 0,-4.4102 -3.59,-7.961 -8.012,-7.961 -4.41,0 -8.008,3.5508 -8.008,7.961 0,4.4609 3.598,8.0078 8.008,8.0078 4.422,0 8.012,-3.5469 8.012,-8.0078 z" /><path
         id="path186"
         style="fill:#000000;fill-opacity:1;fill-rule:nonzero;stroke:none"
         d="m 168.012,65.9805 c 0,-4.4102 -3.602,-7.961 -8.012,-7.961 -4.41,0 -8.012,3.5508 -8.012,7.961 0,4.4609 3.602,8.0078 8.012,8.0078 4.41,0 8.012,-3.5469 8.012,-8.0078 z" /><path
         id="path188"
         style="fill:#000000;fill-opacity:1;fill-rule:nonzero;stroke:none"
         d="m 143.98,42 c 0,-4.4102 -3.55,-8.0117 -7.96,-8.0117 -4.461,0 -8.008,3.6015 -8.008,8.0117 0,4.4102 3.547,8.0117 8.008,8.0117 4.41,0 7.96,-3.6015 7.96,-8.0117 z" /><path
         id="path190"
         style="fill:#000000;fill-opacity:1;fill-rule:nonzero;stroke:none"
         d="m 191.988,42 c 0,-4.4102 -3.547,-8.0117 -8.008,-8.0117 -4.41,0 -7.96,3.6015 -7.96,8.0117 0,4.4102 3.55,8.0117 7.96,8.0117 4.461,0 8.008,-3.6015 8.008,-8.0117 z" /><path
         id="path192"
         style="fill:#000000;fill-opacity:1;fill-rule:nonzero;stroke:none"
         d="m 216.02,65.9805 c 0,-4.4102 -3.598,-7.961 -8.008,-7.961 -4.422,0 -8.012,3.5508 -8.012,7.961 0,4.4609 3.59,8.0078 8.012,8.0078 4.41,0 8.008,-3.5469 8.008,-8.0078 z" /><path
         id="path194"
         style="fill:#000000;fill-opacity:1;fill-rule:nonzero;stroke:none"
         d="m 263.98,65.9805 c 0,-4.4102 -3.55,-7.961 -7.96,-7.961 -4.461,0 -8.008,3.5508 -8.008,7.961 0,4.4609 3.547,8.0078 8.008,8.0078 4.41,0 7.96,-3.5469 7.96,-8.0078 z" /><path
         id="path196"
         style="fill:#000000;fill-opacity:1;fill-rule:nonzero;stroke:none"
         d="m 240,42 c 0,-4.4102 -3.59,-8.0117 -8.012,-8.0117 -4.41,0 -8.008,3.6015 -8.008,8.0117 0,4.4102 3.598,8.0117 8.008,8.0117 4.422,0 8.012,-3.6015 8.012,-8.0117 z" /><path
         id="path198"
         style="fill:#000000;fill-opacity:1;fill-rule:nonzero;stroke:none"
         d="m 288.012,42 c 0,-4.4102 -3.602,-8.0117 -8.012,-8.0117 -4.41,0 -8.012,3.6015 -8.012,8.0117 0,4.4102 3.602,8.0117 8.012,8.0117 4.41,0 8.012,-3.6015 8.012,-8.0117 z" /><path
         id="path200"
         style="fill:#000000;fill-opacity:1;fill-rule:nonzero;stroke:none"
         d="m 311.988,65.9805 c 0,-4.4102 -3.547,-7.961 -8.008,-7.961 -4.41,0 -7.96,3.5508 -7.96,7.961 0,4.4609 3.55,8.0078 7.96,8.0078 4.461,0 8.008,-3.5469 8.008,-8.0078 z" /><path
         id="path202"
         style="fill:#000000;fill-opacity:1;fill-rule:nonzero;stroke:none"
         d="m 360,65.9805 c 0,-4.4102 -3.59,-7.961 -8.012,-7.961 -4.41,0 -8.008,3.5508 -8.008,7.961 0,4.4609 3.598,8.0078 8.008,8.0078 4.422,0 8.012,-3.5469 8.012,-8.0078 z" /><path
         id="path204"
         style="fill:#000000;fill-opacity:1;fill-rule:nonzero;stroke:none"
         d="m 336.02,42 c 0,-4.4102 -3.598,-8.0117 -8.008,-8.0117 -4.422,0 -8.012,3.6015 -8.012,8.0117 0,4.4102 3.59,8.0117 8.012,8.0117 4.41,0 8.008,-3.6015 8.008,-8.0117 z" /><path
         id="path206"
         style="fill:#000000;fill-opacity:1;fill-rule:nonzero;stroke:none"
         d="m 383.98,42 c 0,-4.4102 -3.55,-8.0117 -7.96,-8.0117 -4.461,0 -8.008,3.6015 -8.008,8.0117 0,4.4102 3.547,8.0117 8.008,8.0117 4.41,0 7.96,-3.6015 7.96,-8.0117 z" /><path
         id="path208"
         style="fill:#000000;fill-opacity:1;fill-rule:nonzero;stroke:none"
         d="m 408.012,65.9805 c 0,-4.4102 -3.602,-7.961 -8.012,-7.961 -4.41,0 -8.012,3.5508 -8.012,7.961 0,4.4609 3.602,8.0078 8.012,8.0078 4.41,0 8.012,-3.5469 8.012,-8.0078 z" /><path
         id="path210"
         style="fill:#000000;fill-opacity:1;fill-rule:nonzero;stroke:none"
         d="m 431.988,42 c 0,-4.4102 -3.547,-8.0117 -8.008,-8.0117 -4.41,0 -7.96,3.6015 -7.96,8.0117 0,4.4102 3.55,8.0117 7.96,8.0117 4.461,0 8.008,-3.6015 8.008,-8.0117 z" /><path
         id="path212"
         style="fill:#000000;fill-opacity:1;fill-rule:nonzero;stroke:none"
         d="m 456.02,65.9805 c 0,-4.4102 -3.598,-7.961 -8.008,-7.961 -4.422,0 -8.012,3.5508 -8.012,7.961 0,4.4609 3.59,8.0078 8.012,8.0078 4.41,0 8.008,-3.5469 8.008,-8.0078 z" /></g></g></svg>