<?xml version="1.0" encoding="UTF-8" standalone="no"?>
<!-- Generator: Adobe Illustrator 21.1.0, SVG Export Plug-In . SVG Version: 6.00 Build 0)  -->

<svg
   xmlns:dc="http://purl.org/dc/elements/1.1/"
   xmlns:cc="http://creativecommons.org/ns#"
   xmlns:rdf="http://www.w3.org/1999/02/22-rdf-syntax-ns#"
   xmlns:svg="http://www.w3.org/2000/svg"
   xmlns="http://www.w3.org/2000/svg"
   xmlns:sodipodi="http://sodipodi.sourceforge.net/DTD/sodipodi-0.dtd"
   xmlns:inkscape="http://www.inkscape.org/namespaces/inkscape"
   version="1.1"
   id="Слой_1"
   x="0px"
   y="0px"
   viewBox="0 0 95 76.000001"
   xml:space="preserve"
   inkscape:version="0.91 r13725"
   sodipodi:docname="logo_20170930.svg"
   width="95"
   height="76"><metadata
     id="metadata19"><rdf:RDF><cc:Work
         rdf:about=""><dc:format>image/svg+xml</dc:format><dc:type
           rdf:resource="http://purl.org/dc/dcmitype/StillImage" /><dc:title></dc:title></cc:Work></rdf:RDF></metadata><defs
     id="defs17" /><sodipodi:namedview
     pagecolor="#ffffff"
     bordercolor="#666666"
     borderopacity="1"
     objecttolerance="10"
     gridtolerance="10"
     guidetolerance="10"
     inkscape:pageopacity="0"
     inkscape:pageshadow="2"
     inkscape:window-width="1855"
     inkscape:window-height="1056"
     id="namedview15"
     showgrid="false"
     fit-margin-top="0"
     fit-margin-left="0"
     fit-margin-right="0"
     fit-margin-bottom="0"
     inkscape:zoom="7.763158"
     inkscape:cx="30.939045"
     inkscape:cy="21.526887"
     inkscape:window-x="65"
     inkscape:window-y="24"
     inkscape:window-maximized="1"
     inkscape:current-layer="Слой_1" /><style
     type="text/css"
     id="style3">
	.st0{fill:#565E69;}
	.st1{fill:#9E2250;}
</style><g
     transform="matrix(0.68443804,0,0,0.6855499,13.14121,133.65475)"
     id="g5"><path
       class="st0"
       d="m 12.3,-194.9 28.7,0 c 20.9,0 21.2,-1.9 30.5,15.7 l 25.3,48.2 c 6.2,11.7 8.8,14.7 15.2,15.8 l 0,0.2 -28.9,0 c -20.9,0 -21.2,1.9 -30.5,-15.7 l -24.8,-47.1 c -5.9,-11.1 -7.9,-15.2 -15.5,-16.7 l 0,-0.4 0,0 z"
       id="path7"
       inkscape:connector-curvature="0"
       style="fill:#565e69" /><path
       class="st1"
       d="m 15.4,-159.2 c 12.2,0 22,9.9 22,22 0,12.2 -9.9,22 -22,22 -12.1,0 -22,-9.9 -22,-22 0,-12.1 9.9,-22 22,-22 z"
       id="path9"
       inkscape:connector-curvature="0"
       style="fill:#9e2250" /><path
       class="st1"
       d="m 105.1,-90.9 -2,-5.3 c -0.1,-0.2 -0.1,-0.4 -0.2,-0.6 -0.1,0.2 -0.1,0.4 -0.2,0.6 l -2,5.3 4.4,0 0,0 z m -40.4,-7 0,12 3.1,0 c 3.8,0 6,-2.2 6,-6 0,-3.8 -2.3,-6 -6,-6 l -3.1,0 z m 48,12 6.9,0 0,1.6 -8.5,0 0,-15.1 1.6,0 0,13.5 0,0 z m -7.1,-3.4 -5.6,0 -1.8,5 -1.7,0 5.7,-15.1 1.5,0 5.7,15.1 -1.7,0 -2.1,-5 z M 90,-99.7 c 1.9,0 4,0.6 5.4,1.9 l 0.3,0.2 -1,1.2 -0.3,-0.3 c -1.1,-1 -2.8,-1.5 -4.3,-1.5 -3.5,0 -5.9,2.7 -5.9,6.1 0,3.5 2.3,6.3 5.9,6.3 1.7,0 3.4,-0.7 4.6,-1.8 l 0.3,-0.3 1.1,1.2 -0.3,0.2 c -1.6,1.5 -3.5,2.3 -5.7,2.3 -4.5,0 -7.6,-3.5 -7.6,-7.9 0,-4.2 3.1,-7.6 7.5,-7.6 l 0,0 z m -11.8,0.2 1.6,0 0,15.1 -1.6,0 0,-15.1 z m -15.2,0 4.9,0 c 4.6,0 7.5,2.9 7.5,7.6 0,4.6 -2.9,7.6 -7.5,7.6 l -4.9,0 0,-15.2 0,0 z m -9.8,1.6 0,5.2 5.8,0 0,1.6 -5.7,0 0,5.3 7.4,0 0,1.6 -9,0 0,-15.1 8.6,0 0,1.6 -7.1,-0.2 0,0 z m -12,8.5 c 0.1,-0.3 0.3,-0.6 0.4,-0.9 l 4.3,-9.3 1.4,0 1.2,15.1 -1.6,0 -0.9,-11.2 c 0,0 0,-0.1 0,-0.1 0,0.1 -0.1,0.2 -0.1,0.3 l -4,8.4 -1.4,0 -3.9,-8.4 c 0,-0.1 -0.1,-0.2 -0.1,-0.3 0,0.1 0,0.1 0,0.2 l -0.9,11.3 -1.6,0 1.2,-15.1 1.4,0 4.3,9.3 c 0.1,0.1 0.2,0.4 0.3,0.7 l 0,0 z"
       id="path11"
       inkscape:connector-curvature="0"
       style="fill:#9e2250" /><path
       class="st0"
       d="m 17.7,-90.9 -2,-5.3 c -0.1,-0.2 -0.1,-0.4 -0.2,-0.6 -0.1,0.2 -0.1,0.4 -0.2,0.6 l -2,5.3 4.4,0 0,0 z m -28.3,0 -2,-5.3 c -0.1,-0.2 -0.1,-0.4 -0.2,-0.6 -0.1,0.2 -0.1,0.4 -0.2,0.6 l -2,5.3 4.4,0 0,0 z m 34.4,3.7 c 0.9,0.9 2.2,1.5 3.5,1.5 1.5,0 2.9,-0.8 2.9,-2.5 0,-3.7 -7.4,-2.7 -7.4,-7.5 0,-2.6 2.3,-4.1 4.7,-4.1 1.4,0 2.9,0.5 3.9,1.4 l 0.2,0.2 -0.9,1.4 -0.2,-0.2 c -0.7,-0.7 -1.9,-1.1 -2.9,-1.1 -1.4,0 -3,0.8 -3,2.4 0,3.5 7.4,2.5 7.4,7.4 0,2.6 -2.1,4.2 -4.6,4.2 -1.7,0 -3.4,-0.7 -4.6,-1.9 l -0.2,-0.2 1.1,-1.2 0.1,0.2 0,0 z m -5.5,-2.1 -5.6,0 -1.9,5 -1.7,0 5.7,-15.1 1.5,0 5.7,15.1 -1.7,0 -2,-5 0,0 z m -12.7,1.9 c 0,-0.1 0,-0.3 0,-0.4 l 0,-11.7 1.6,0 0,15.1 -1.3,0 -8.3,-11.4 c -0.2,-0.2 -0.3,-0.4 -0.4,-0.7 0,0.1 0,0.3 0,0.4 l 0,11.7 -1.6,0 0,-15.1 1.4,0 8.2,11.5 c 0.1,0.2 0.3,0.4 0.4,0.6 l 0,0 z m -15.6,-1.9 -5.6,0 -1.9,5 -1.7,0 5.7,-15.1 1.5,0 5.7,15.1 -1.7,0 -2,-5 0,0 z"
       id="path13"
       inkscape:connector-curvature="0"
       style="fill:#565e69" /></g></svg>