<?xml version="1.0" encoding="UTF-8" standalone="no"?>
<svg
   xmlns:dc="http://purl.org/dc/elements/1.1/"
   xmlns:cc="http://creativecommons.org/ns#"
   xmlns:rdf="http://www.w3.org/1999/02/22-rdf-syntax-ns#"
   xmlns:svg="http://www.w3.org/2000/svg"
   xmlns="http://www.w3.org/2000/svg"
   xmlns:sodipodi="http://sodipodi.sourceforge.net/DTD/sodipodi-0.dtd"
   xmlns:inkscape="http://www.inkscape.org/namespaces/inkscape"
   version="1.1"
   id="Layer_1"
   x="0px"
   y="0px"
   viewBox="0 0 49.000001 69.999999"
   xml:space="preserve"
   inkscape:version="0.91 r13725"
   sodipodi:docname="ico_map_button.svg"
   width="49"
   height="70"><metadata
     id="metadata11"><rdf:RDF><cc:Work
         rdf:about=""><dc:format>image/svg+xml</dc:format><dc:type
           rdf:resource="http://purl.org/dc/dcmitype/StillImage" /><dc:title></dc:title></cc:Work></rdf:RDF></metadata><defs
     id="defs9" /><sodipodi:namedview
     pagecolor="#ffffff"
     bordercolor="#666666"
     borderopacity="1"
     objecttolerance="10"
     gridtolerance="10"
     guidetolerance="10"
     inkscape:pageopacity="0"
     inkscape:pageshadow="2"
     inkscape:window-width="1859"
     inkscape:window-height="1056"
     id="namedview7"
     showgrid="false"
     fit-margin-top="0"
     fit-margin-left="0"
     fit-margin-right="0"
     fit-margin-bottom="0"
     inkscape:zoom="5.7281552"
     inkscape:cx="23.780111"
     inkscape:cy="5.847505"
     inkscape:window-x="61"
     inkscape:window-y="24"
     inkscape:window-maximized="1"
     inkscape:current-layer="Layer_1" /><style
     type="text/css"
     id="style3">.st0{fill:#B62059;}</style><g
     id="g4786"
     transform="scale(3.4027778,3.3980583)"><path
       id="path5"
       d="M 7.2,0 C 3.2,0 0,3.2 0,7.2 c 0,5.4 7.2,13.4 7.2,13.4 0,0 7.2,-8 7.2,-13.4 C 14.4,3.2 11.2,0 7.2,0 Z"
       style="fill:#b62059"
       inkscape:connector-curvature="0" /><g
       transform="matrix(0.34452912,0,0,0.34452912,5.6867199,5.5110751)"
       id="g4147"><path
         inkscape:connector-curvature="0"
         class="st0"
         d="m -5.8337627,-2.8276907 7.1,0 c 5.2,0 5.2,-0.5 7.5,3.9 L 15.066237,12.972309 c 1.5,2.9 2.2,3.6 3.8,3.9 l 0,0.1 -7.2,0 c -5.1999997,0 -5.1999997,0.5 -7.4999997,-3.9 l -6.2,-11.6999997 c -1.4,-2.7 -1.9,-3.7 -3.8,-4.2 l 0,0 0,0 z"
         id="path5-3"
         style="fill:#000000;fill-opacity:1" /><path
         inkscape:connector-curvature="0"
         class="st1"
         d="m -5.0337627,6.0723093 c 3,0 5.49999998,2.4000002 5.49999998,5.4999997 0,3 -2.39999998,5.5 -5.49999998,5.5 -3,0 -5.5000003,-2.4 -5.5000003,-5.5 0,-3.0999995 2.4000003,-5.4999997 5.5000003,-5.4999997 l 0,0 z"
         id="path7"
         style="fill:#ffffff;fill-opacity:0.94117647" /></g></g></svg>